<svg width="16" height="16" viewBox="0 0 16 16" fill="none" xmlns="http://www.w3.org/2000/svg">
<g clip-path="url(#clip0_422_31791)">
<path d="M8 16C12.4183 16 16 12.4183 16 8C16 3.58172 12.4183 0 8 0C3.58172 0 0 3.58172 0 8C0 12.4183 3.58172 16 8 16Z" fill="#0AC18E"/>
<path d="M10.4955 5.31372C10.0935 4.40204 9.1696 4.20712 8.03864 4.39595L7.67519 2.98682L6.81834 3.20814L7.1757 4.61321C6.95032 4.67006 6.71884 4.7188 6.4894 4.78377L6.13204 3.38682L5.27519 3.60814L5.63864 5.01727C5.45387 5.07007 3.90869 5.466 3.90869 5.466L4.14422 6.38377C4.14422 6.38377 4.77367 6.20712 4.76757 6.22133C5.11681 6.12996 5.28128 6.30458 5.35844 6.46905L6.35742 10.331C6.36961 10.4427 6.3493 10.6335 6.10971 10.6985C6.12392 10.7066 5.48636 10.8589 5.48636 10.8589L5.57976 11.9289C5.57976 11.9289 7.11072 11.5371 7.31174 11.4863L7.67925 12.9117L8.5361 12.6904L8.16859 11.2548C8.40412 11.2 8.63356 11.1432 8.85691 11.0843L9.2224 12.5117L10.0792 12.2904L9.71174 10.867C11.0315 10.5462 11.9635 9.71372 11.7727 8.44062C11.6508 7.67311 10.8122 7.04367 10.1158 6.9726C10.5442 6.59291 10.7615 6.03859 10.4955 5.31372ZM10.0833 8.67413C10.2539 9.93504 8.50159 10.0894 7.9229 10.2416L7.41935 8.35534C8.00006 8.20306 9.79499 7.56347 10.0833 8.67413ZM9.02747 6.1056C9.20818 7.22641 7.70971 7.35636 7.22646 7.48022L6.76757 5.76854C7.25285 5.64875 8.65996 5.06803 9.02747 6.1056Z" fill="white"/>
</g>
<defs>
<clipPath id="clip0_422_31791">
<rect width="16" height="16" fill="white"/>
</clipPath>
</defs>
</svg>
