<svg width="22" height="22" viewBox="0 0 22 22" fill="none" xmlns="http://www.w3.org/2000/svg">
<path d="M20.25 10.625C20.25 13.1777 19.2359 15.6259 17.4309 17.4309C15.6259 19.2359 13.1777 20.25 10.625 20.25C8.07229 20.25 5.62413 19.2359 3.8191 17.4309C2.01406 15.6259 1 13.1777 1 10.625C1 10.4427 1.07243 10.2678 1.20136 10.1389C1.3303 10.0099 1.50516 9.9375 1.6875 9.9375C1.86984 9.9375 2.0447 10.0099 2.17364 10.1389C2.30257 10.2678 2.375 10.4427 2.375 10.625C2.37225 12.4662 2.98454 14.2555 4.11469 15.709C5.24484 17.1625 6.82809 18.1969 8.61315 18.6479C10.3982 19.099 12.2828 18.9409 13.9678 18.1988C15.6527 17.4567 17.0415 16.173 17.9138 14.5515C18.786 12.9301 19.0917 11.0637 18.7822 9.24876C18.4728 7.43378 17.566 5.77416 16.2058 4.5333C14.8456 3.29245 13.1099 2.54147 11.2742 2.39956C9.43851 2.25765 7.60801 2.73294 6.07325 3.75H6.5C6.68234 3.75 6.8572 3.82243 6.98614 3.95136C7.11507 4.08029 7.1875 4.25516 7.1875 4.4375C7.1875 4.61983 7.11507 4.7947 6.98614 4.92363C6.8572 5.05256 6.68234 5.125 6.5 5.125H4.4375C4.3472 5.12505 4.25778 5.1073 4.17434 5.07277C4.09091 5.03824 4.0151 4.9876 3.95125 4.92375C3.8874 4.8599 3.83676 4.78409 3.80223 4.70065C3.7677 4.61722 3.74995 4.5278 3.75 4.4375V2.375C3.75 2.19266 3.82243 2.01779 3.95136 1.88886C4.0803 1.75993 4.25516 1.6875 4.4375 1.6875C4.61984 1.6875 4.7947 1.75993 4.92364 1.88886C5.05257 2.01779 5.125 2.19266 5.125 2.375V2.72832C6.56791 1.72263 8.25886 1.13163 10.0141 1.01955C11.7693 0.907475 13.5217 1.2786 15.0808 2.0926C16.6399 2.9066 17.9461 4.13234 18.8574 5.63662C19.7688 7.1409 20.2504 8.86619 20.25 10.625ZM16.8125 10.625C16.8125 11.8488 16.4496 13.0451 15.7697 14.0626C15.0898 15.0801 14.1235 15.8732 12.9929 16.3415C11.8622 16.8098 10.6181 16.9324 9.41788 16.6936C8.21762 16.4549 7.11511 15.8656 6.24978 15.0002C5.38444 14.1349 4.79514 13.0324 4.55639 11.8321C4.31765 10.6319 4.44018 9.38776 4.9085 8.25714C5.37681 7.12653 6.16988 6.16017 7.18741 5.48028C8.20494 4.80039 9.40123 4.4375 10.625 4.4375C12.2655 4.43929 13.8383 5.09176 14.9982 6.25175C16.1582 7.41175 16.8107 8.98452 16.8125 10.625ZM13.0688 11.428L11.3125 10.2571V7.1875C11.3125 7.00516 11.2401 6.83029 11.1111 6.70136C10.9822 6.57243 10.8073 6.5 10.625 6.5C10.4427 6.5 10.2678 6.57243 10.1389 6.70136C10.0099 6.83029 9.9375 7.00516 9.9375 7.1875V10.625C9.93752 10.7382 9.96548 10.8496 10.0189 10.9494C10.0723 11.0491 10.1495 11.1342 10.2437 11.197L12.3062 12.572C12.4579 12.671 12.6425 12.7062 12.82 12.6698C12.9975 12.6334 13.1535 12.5284 13.254 12.3776C13.3545 12.2269 13.3914 12.0426 13.3567 11.8648C13.3221 11.6869 13.2186 11.53 13.0688 11.428Z" fill="url(#paint0_linear_422_31228)"/>
<defs>
<linearGradient id="paint0_linear_422_31228" x1="10.625" y1="0.999992" x2="10.625" y2="20.25" gradientUnits="userSpaceOnUse">
<stop stop-color="#7ECFC9"/>
<stop offset="1" stop-color="#169EE4"/>
</linearGradient>
</defs>
</svg>
