<svg width="28" height="28" viewBox="0 0 28 28" fill="none" xmlns="http://www.w3.org/2000/svg">
<path d="M22.04 6.24369L15.6473 3.39642C14.7091 2.98187 13.2909 2.98187 12.3527 3.39642L5.96001 6.24369C4.34547 6.96369 4.10547 7.94551 4.10547 8.46915C4.10547 8.99278 4.34547 9.9746 5.96001 10.6946L12.3527 13.5419C12.8218 13.7491 13.4109 13.8582 14 13.8582C14.5891 13.8582 15.1782 13.7491 15.6473 13.5419L22.04 10.6946C23.6546 9.9746 23.8946 8.99278 23.8946 8.46915C23.8946 7.94551 23.6655 6.96369 22.04 6.24369Z" fill="url(#paint0_linear_753_1392)"/>
<path d="M14.0002 19.4982C13.5856 19.4982 13.1711 19.4109 12.7893 19.2473L5.43655 15.9746C4.31291 15.4728 3.44019 14.1309 3.44019 12.8982C3.44019 12.4509 3.80019 12.0909 4.24746 12.0909C4.69473 12.0909 5.05473 12.4509 5.05473 12.8982C5.05473 13.4873 5.54564 14.2509 6.09109 14.4909L13.4438 17.7637C13.7929 17.9164 14.1965 17.9164 14.5456 17.7637L21.8984 14.4909C22.4438 14.2509 22.9347 13.4982 22.9347 12.8982C22.9347 12.4509 23.2947 12.0909 23.742 12.0909C24.1893 12.0909 24.5493 12.4509 24.5493 12.8982C24.5493 14.12 23.6766 15.4728 22.5529 15.9746L15.2002 19.2473C14.8293 19.4109 14.4147 19.4982 14.0002 19.4982Z" fill="url(#paint1_linear_753_1392)"/>
<path d="M14.0002 24.9091C13.5856 24.9091 13.1711 24.8218 12.7893 24.6582L5.43655 21.3855C4.22564 20.8509 3.44019 19.64 3.44019 18.3091C3.44019 17.8618 3.80019 17.5018 4.24746 17.5018C4.69473 17.5018 5.05473 17.8618 5.05473 18.3091C5.05473 18.9964 5.45837 19.6182 6.09109 19.9018L13.4438 23.1746C13.7929 23.3273 14.1965 23.3273 14.5456 23.1746L21.8984 19.9018C22.5202 19.6291 22.9347 18.9964 22.9347 18.3091C22.9347 17.8618 23.2947 17.5018 23.742 17.5018C24.1893 17.5018 24.5493 17.8618 24.5493 18.3091C24.5493 19.64 23.7638 20.84 22.5529 21.3855L15.2002 24.6582C14.8293 24.8218 14.4147 24.9091 14.0002 24.9091Z" fill="url(#paint2_linear_753_1392)"/>
<defs>
<linearGradient id="paint0_linear_753_1392" x1="14" y1="3.08551" x2="14" y2="13.8582" gradientUnits="userSpaceOnUse">
<stop stop-color="#7ECFC9"/>
<stop offset="1" stop-color="#169EE4"/>
</linearGradient>
<linearGradient id="paint1_linear_753_1392" x1="13.9947" y1="12.0909" x2="13.9947" y2="19.4982" gradientUnits="userSpaceOnUse">
<stop stop-color="#7ECFC9"/>
<stop offset="1" stop-color="#169EE4"/>
</linearGradient>
<linearGradient id="paint2_linear_753_1392" x1="13.9947" y1="17.5018" x2="13.9947" y2="24.9091" gradientUnits="userSpaceOnUse">
<stop stop-color="#7ECFC9"/>
<stop offset="1" stop-color="#169EE4"/>
</linearGradient>
</defs>
</svg>
