<svg width="22" height="22" viewBox="0 0 22 22" fill="none" xmlns="http://www.w3.org/2000/svg">
<g clip-path="url(#clip0_422_31263)">
<path d="M13.7499 11.9168C13.243 11.9168 12.8333 12.3275 12.8333 12.8334V16.5001C12.8333 17.0052 12.4225 17.4167 11.9165 17.4167H9.16651V3.66686C9.16651 2.88403 8.66785 2.18462 7.91808 1.9243L7.64668 1.83349H11.9165C12.4225 1.83349 12.8333 2.24505 12.8333 2.75026V5.50023C12.8333 6.00612 13.243 6.41683 13.7499 6.41683C14.2567 6.41683 14.6665 6.00612 14.6665 5.50023V2.75026C14.6665 1.23412 13.4326 0.000289917 11.9165 0.000289917H2.06248C2.02757 0.000289917 1.99836 0.0158995 1.96446 0.0204313C1.92031 0.0167387 1.87818 0.000289917 1.83337 0.000289917C0.822272 0.000289917 0 0.822394 0 1.83349V18.3333C0 19.1161 0.498667 19.8156 1.24843 20.0759L6.76499 21.9148C6.95197 21.9725 7.13794 22.0001 7.33331 22.0001C8.34441 22.0001 9.16651 21.1778 9.16651 20.1667V19.2501H11.9165C13.4326 19.2501 14.6665 18.0163 14.6665 16.5001V12.8334C14.6665 12.3275 14.2567 11.9168 13.7499 11.9168Z" fill="url(#paint0_linear_422_31263)"/>
<path d="M21.7312 8.51878L18.0645 4.8522C17.8025 4.59003 17.4082 4.51114 17.0655 4.65314C16.7236 4.7953 16.4998 5.12982 16.4998 5.50025V8.25022H12.8333C12.3272 8.25022 11.9165 8.66077 11.9165 9.16682C11.9165 9.67288 12.3272 10.0834 12.8333 10.0834H16.4998V12.8334C16.4998 13.2038 16.7236 13.5383 17.0655 13.6805C17.4082 13.8225 17.8025 13.7436 18.0645 13.4816L21.7312 9.81487C22.0896 9.45652 22.0896 8.87712 21.7312 8.51878Z" fill="url(#paint1_linear_422_31263)"/>
</g>
<defs>
<linearGradient id="paint0_linear_422_31263" x1="7.33323" y1="0.000289917" x2="7.33323" y2="22.0001" gradientUnits="userSpaceOnUse">
<stop stop-color="#7ECFC9"/>
<stop offset="1" stop-color="#169EE4"/>
</linearGradient>
<linearGradient id="paint1_linear_422_31263" x1="16.9583" y1="4.58337" x2="16.9583" y2="13.7503" gradientUnits="userSpaceOnUse">
<stop stop-color="#7ECFC9"/>
<stop offset="1" stop-color="#169EE4"/>
</linearGradient>
<clipPath id="clip0_422_31263">
<rect width="22" height="22" fill="white"/>
</clipPath>
</defs>
</svg>
