<svg width="28" height="28" viewBox="0 0 28 28" fill="none" xmlns="http://www.w3.org/2000/svg">
<path d="M22.1819 9.09094L20.5564 10.7164L17.2837 7.44366L18.9091 5.81821C19.3673 5.36003 19.9564 5.14185 20.5455 5.14185C21.1346 5.14185 21.7237 5.36003 22.1819 5.81821C23.0873 6.72366 23.0873 8.18548 22.1819 9.09094Z" fill="url(#paint0_linear_753_1400)"/>
<path d="M19.7929 11.4909L8.00016 23.2727C7.0947 24.1782 5.63289 24.1782 4.72743 23.2727C3.82198 22.3673 3.82198 20.9055 4.72743 20L16.5202 8.2182L19.7929 11.4909Z" fill="url(#paint1_linear_753_1400)"/>
<path d="M11.7638 4.72728L12.2111 3.21092C12.2547 3.0691 12.2111 2.91637 12.1129 2.80728C12.0147 2.69819 11.8402 2.65455 11.6984 2.69819L10.182 3.14546L8.66563 2.69819C8.52381 2.65455 8.37108 2.69819 8.26199 2.79637C8.1529 2.90546 8.12017 3.05819 8.16381 3.20001L8.60017 4.72728L8.1529 6.24364C8.10926 6.38546 8.1529 6.53819 8.25108 6.64728C8.36017 6.75637 8.5129 6.7891 8.65472 6.74546L10.182 6.3091L11.6984 6.75637C11.742 6.76728 11.7747 6.77819 11.8184 6.77819C11.9274 6.77819 12.0256 6.73455 12.1129 6.65819C12.222 6.5491 12.2547 6.39637 12.2111 6.25455L11.7638 4.72728Z" fill="url(#paint2_linear_753_1400)"/>
<path d="M7.40004 11.2728L7.84731 9.75639C7.89095 9.61457 7.84731 9.46184 7.74913 9.35275C7.64004 9.24366 7.48731 9.21093 7.3455 9.25457L5.81822 9.69093L4.30186 9.24366C4.16004 9.20002 4.00731 9.24366 3.89822 9.34184C3.78913 9.45093 3.7564 9.60366 3.80004 9.74548L4.2364 11.2728L3.78913 12.7891C3.7455 12.9309 3.78913 13.0837 3.88731 13.1928C3.9964 13.3018 4.14913 13.3346 4.29095 13.2909L5.80731 12.8437L7.32368 13.2909C7.3564 13.3018 7.40004 13.3018 7.44368 13.3018C7.55277 13.3018 7.65095 13.2582 7.73822 13.1818C7.84731 13.0728 7.88004 12.92 7.8364 12.7782L7.40004 11.2728Z" fill="url(#paint3_linear_753_1400)"/>
<path d="M23.7638 16.7273L24.2111 15.2109C24.2547 15.0691 24.2111 14.9164 24.1129 14.8073C24.0038 14.6982 23.8511 14.6655 23.7093 14.7091L22.1929 15.1564L20.6765 14.7091C20.5347 14.6655 20.382 14.7091 20.2729 14.8073C20.1638 14.9164 20.1311 15.0691 20.1747 15.2109L20.622 16.7273L20.1747 18.2437C20.1311 18.3855 20.1747 18.5382 20.2729 18.6473C20.382 18.7564 20.5347 18.7891 20.6765 18.7455L22.1929 18.2982L23.7093 18.7455C23.742 18.7564 23.7856 18.7564 23.8293 18.7564C23.9383 18.7564 24.0365 18.7128 24.1238 18.6364C24.2329 18.5273 24.2656 18.3746 24.222 18.2328L23.7638 16.7273Z" fill="url(#paint4_linear_753_1400)"/>
<defs>
<linearGradient id="paint0_linear_753_1400" x1="20.0723" y1="5.14185" x2="20.0723" y2="10.7164" gradientUnits="userSpaceOnUse">
<stop stop-color="#7ECFC9"/>
<stop offset="1" stop-color="#169EE4"/>
</linearGradient>
<linearGradient id="paint1_linear_753_1400" x1="11.9206" y1="8.2182" x2="11.9206" y2="23.9518" gradientUnits="userSpaceOnUse">
<stop stop-color="#7ECFC9"/>
<stop offset="1" stop-color="#169EE4"/>
</linearGradient>
<linearGradient id="paint2_linear_753_1400" x1="10.1829" y1="2.68127" x2="10.1829" y2="6.77819" gradientUnits="userSpaceOnUse">
<stop stop-color="#7ECFC9"/>
<stop offset="1" stop-color="#169EE4"/>
</linearGradient>
<linearGradient id="paint3_linear_753_1400" x1="5.81822" y1="9.22675" x2="5.81822" y2="13.3096" gradientUnits="userSpaceOnUse">
<stop stop-color="#7ECFC9"/>
<stop offset="1" stop-color="#169EE4"/>
</linearGradient>
<linearGradient id="paint4_linear_753_1400" x1="22.1983" y1="14.6904" x2="22.1983" y2="18.7642" gradientUnits="userSpaceOnUse">
<stop stop-color="#7ECFC9"/>
<stop offset="1" stop-color="#169EE4"/>
</linearGradient>
</defs>
</svg>
