<svg width="30" height="30" viewBox="0 0 30 30" fill="none" xmlns="http://www.w3.org/2000/svg">
<path d="M5.28693 19.2189C5.01743 19.3564 4.90743 19.6864 5.04493 19.9559C6.10643 22.0899 7.86093 23.8554 9.98393 24.9279C10.0664 24.9719 10.1489 24.9884 10.2314 24.9884C10.4349 24.9884 10.6274 24.8784 10.7264 24.6859C10.8639 24.4164 10.7539 24.0864 10.4844 23.9489C8.56493 22.9809 6.98643 21.3859 6.02943 19.4664C5.89193 19.1969 5.56193 19.0869 5.28693 19.2189Z" fill="url(#paint0_linear_422_33215)"/>
<path d="M20.0492 15.0002C20.0492 12.2172 17.7832 9.95117 15.0002 9.95117C12.2172 9.95117 9.95117 12.2172 9.95117 15.0002C9.95117 17.7887 12.2172 20.0547 15.0002 20.0547C17.7832 20.0547 20.0492 17.7887 20.0492 15.0002Z" fill="url(#paint1_linear_422_33215)"/>
<path d="M19.7081 25.0154C19.7906 25.0154 19.8786 24.9989 19.9556 24.9604C22.1061 23.8879 23.8826 22.1114 24.9606 19.9554C25.0926 19.6859 24.9826 19.3559 24.7131 19.2184C24.4381 19.0809 24.1081 19.1964 23.9706 19.4659C23.0081 21.4074 21.4076 23.0079 19.4661 23.9759C19.1911 24.1079 19.0811 24.4379 19.2186 24.7129C19.3121 24.9054 19.5101 25.0154 19.7081 25.0154Z" fill="url(#paint2_linear_422_33215)"/>
<path d="M18.1844 4.44C18.1844 2.68 16.7544 1.25 14.9999 1.25C13.2454 1.25 11.8154 2.68 11.8154 4.44C11.8154 6.1945 13.2454 7.6245 14.9999 7.6245C16.7544 7.6245 18.1844 6.1945 18.1844 4.44Z" fill="url(#paint3_linear_422_33215)"/>
<path d="M25.5655 11.8154C23.8055 11.8154 22.3755 13.2454 22.3755 14.9999C22.3755 16.7599 23.8055 18.1899 25.5655 18.1899C27.32 18.1899 28.75 16.7599 28.75 14.9999C28.75 13.2454 27.32 11.8154 25.5655 11.8154Z" fill="url(#paint4_linear_422_33215)"/>
<path d="M11.8154 25.565C11.8154 27.3195 13.2454 28.7495 14.9999 28.7495C16.7544 28.7495 18.1844 27.3195 18.1844 25.565C18.1844 23.805 16.7544 22.375 14.9999 22.375C13.2454 22.375 11.8154 23.805 11.8154 25.565Z" fill="url(#paint5_linear_422_33215)"/>
<path d="M24.4656 10.8417C24.5481 10.8417 24.6306 10.8197 24.7131 10.7812C24.9826 10.6492 25.0926 10.3192 24.9606 10.0442C23.8826 7.8937 22.1061 6.1117 19.9556 5.0392C19.6861 4.9072 19.3561 5.0172 19.2186 5.2867C19.0811 5.5617 19.1911 5.8917 19.4661 6.0292C21.4021 6.9917 23.0081 8.5922 23.9761 10.5337C24.0696 10.7262 24.2621 10.8417 24.4656 10.8417Z" fill="url(#paint6_linear_422_33215)"/>
<path d="M10.7814 5.28668C10.6439 5.01718 10.3194 4.90718 10.0444 5.04468C7.89393 6.11718 6.11743 7.89368 5.04493 10.0442C4.90743 10.3192 5.01743 10.6492 5.28693 10.7812C5.36943 10.8252 5.45193 10.8417 5.53443 10.8417C5.73793 10.8417 5.93043 10.7317 6.02393 10.5337C6.99193 8.59768 8.59243 6.99169 10.5339 6.02369C10.8034 5.89169 10.9189 5.56168 10.7814 5.28668Z" fill="url(#paint7_linear_422_33215)"/>
<path d="M1.25 14.9999C1.25 16.7599 2.68 18.1899 4.4345 18.1899C6.1945 18.1899 7.6245 16.7599 7.6245 14.9999C7.6245 13.2454 6.1945 11.8154 4.4345 11.8154C2.68 11.8154 1.25 13.2454 1.25 14.9999Z" fill="url(#paint8_linear_422_33215)"/>
<defs>
<linearGradient id="paint0_linear_422_33215" x1="7.88568" y1="19.1631" x2="7.88568" y2="24.9884" gradientUnits="userSpaceOnUse">
<stop stop-color="#7ECFC9"/>
<stop offset="1" stop-color="#169EE4"/>
</linearGradient>
<linearGradient id="paint1_linear_422_33215" x1="15.0002" y1="9.95117" x2="15.0002" y2="20.0547" gradientUnits="userSpaceOnUse">
<stop stop-color="#7ECFC9"/>
<stop offset="1" stop-color="#169EE4"/>
</linearGradient>
<linearGradient id="paint2_linear_422_33215" x1="22.0879" y1="19.1602" x2="22.0879" y2="25.0154" gradientUnits="userSpaceOnUse">
<stop stop-color="#7ECFC9"/>
<stop offset="1" stop-color="#169EE4"/>
</linearGradient>
<linearGradient id="paint3_linear_422_33215" x1="14.9999" y1="1.25" x2="14.9999" y2="7.6245" gradientUnits="userSpaceOnUse">
<stop stop-color="#7ECFC9"/>
<stop offset="1" stop-color="#169EE4"/>
</linearGradient>
<linearGradient id="paint4_linear_422_33215" x1="25.5627" y1="11.8154" x2="25.5627" y2="18.1899" gradientUnits="userSpaceOnUse">
<stop stop-color="#7ECFC9"/>
<stop offset="1" stop-color="#169EE4"/>
</linearGradient>
<linearGradient id="paint5_linear_422_33215" x1="14.9999" y1="22.375" x2="14.9999" y2="28.7495" gradientUnits="userSpaceOnUse">
<stop stop-color="#7ECFC9"/>
<stop offset="1" stop-color="#169EE4"/>
</linearGradient>
<linearGradient id="paint6_linear_422_33215" x1="22.0879" y1="4.9834" x2="22.0879" y2="10.8417" gradientUnits="userSpaceOnUse">
<stop stop-color="#7ECFC9"/>
<stop offset="1" stop-color="#169EE4"/>
</linearGradient>
<linearGradient id="paint7_linear_422_33215" x1="7.91262" y1="4.98535" x2="7.91262" y2="10.8417" gradientUnits="userSpaceOnUse">
<stop stop-color="#7ECFC9"/>
<stop offset="1" stop-color="#169EE4"/>
</linearGradient>
<linearGradient id="paint8_linear_422_33215" x1="4.43725" y1="11.8154" x2="4.43725" y2="18.1899" gradientUnits="userSpaceOnUse">
<stop stop-color="#7ECFC9"/>
<stop offset="1" stop-color="#169EE4"/>
</linearGradient>
</defs>
</svg>
