<svg width="40" height="40" viewBox="0 0 40 40" fill="none" xmlns="http://www.w3.org/2000/svg">
<circle cx="20" cy="20" r="20" fill="#F1FAFA"/>
<path d="M20.436 11.1752C19.1411 11.9361 18.3743 13.3098 18.3743 14.7586C18.3743 15.5195 18.6799 16.2863 19.0622 16.9699C19.3679 17.5812 19.5174 18.6472 18.4509 19.1812C17.6901 19.6365 16.6943 19.333 16.2391 18.57C15.7839 17.9587 15.2498 17.3479 14.5613 16.8927C13.2664 16.1319 11.7387 16.1319 10.4433 16.8927C9.14836 17.6536 8.38318 19.0311 8.38318 20.4799C8.38318 21.9293 9.14404 23.3025 10.4427 24.0655C11.7377 24.8264 13.2653 24.8264 14.5608 24.0655C15.2487 23.6832 15.7828 23.0763 16.1613 22.3883C16.467 21.8542 17.3067 21.1663 18.3732 21.777C19.134 22.2322 19.3625 23.228 18.9845 23.9883C18.6021 24.6763 18.3732 25.4393 18.3732 26.1996C18.3732 27.6506 19.134 29.0222 20.4349 29.7831C21.7298 30.5439 23.2575 30.5439 24.5529 29.7831C25.8479 29.0222 26.6152 27.6484 26.6152 26.1996C26.6152 24.7508 25.8522 23.377 24.5535 22.614C23.8655 22.2317 23.1025 22.08 22.265 22.08C21.577 22.08 20.6644 21.6247 20.6644 20.4794C20.6644 19.563 21.3524 18.8788 22.265 18.8788C23.0258 18.8788 23.8655 18.7271 24.5535 18.3448C25.8484 17.5839 26.6152 16.2102 26.6152 14.7613C26.6152 13.3125 25.8522 11.9388 24.5535 11.1779C23.9422 10.7956 23.1813 10.6438 22.4939 10.6438C21.8103 10.6411 21.0435 10.7967 20.436 11.1752Z" fill="url(#paint0_linear_771_11138)"/>
<defs>
<linearGradient id="paint0_linear_771_11138" x1="8.38352" y1="20.4999" x2="26.6153" y2="20.4999" gradientUnits="userSpaceOnUse">
<stop stop-color="#11AAE2"/>
<stop offset="0.59" stop-color="#0880B7"/>
<stop offset="1" stop-color="#016197"/>
</linearGradient>
</defs>
</svg>
