<svg width="49" height="41" viewBox="0 0 49 41" fill="none" xmlns="http://www.w3.org/2000/svg">
<path d="M40.5111 20.1791C40.5111 31.2253 31.557 40.1791 20.511 40.1791C9.46549 40.1791 0.511108 31.2253 0.511108 20.1791C0.511108 9.1333 9.46549 0.179077 20.511 0.179077C31.557 0.179077 40.5111 9.1333 40.5111 20.1791Z" fill="#1BA27A"/>
<path d="M30 11H12V15.4538H18.8272V22H23.1728V15.4538H30V11Z" fill="white"/>
<path d="M21.0001 22.158C15.098 22.158 10.3129 21.2811 10.3129 20.1992C10.3129 19.1175 15.0978 18.2404 21.0001 18.2404C26.9022 18.2404 31.6871 19.1175 31.6871 20.1992C31.6871 21.2811 26.9022 22.158 21.0001 22.158ZM33 20.5258C33 19.1308 27.6275 18 21.0001 18C14.3729 18 9 19.1308 9 20.5258C9 21.7543 13.166 22.7777 18.6865 23.0045V32H23.2275V23.0081C28.7905 22.7884 33 21.7606 33 20.5258Z" fill="white"/>
<path d="M37.369 30.26C42.6169 30.26 46.8713 26.0067 46.8713 20.76C46.8713 15.5133 42.6169 11.26 37.369 11.26C32.121 11.26 27.8667 15.5133 27.8667 20.76C27.8667 26.0067 32.121 30.26 37.369 30.26Z" fill="#5364F6"/>
<g clip-path="url(#clip0_422_31544)">
<g opacity="0.6">
<path opacity="0.6" d="M37.4347 19.0842L33.6284 20.7926L37.4347 23.0119L41.2396 20.7926L37.4347 19.0842Z" fill="#010101"/>
</g>
<g opacity="0.45">
<path opacity="0.45" d="M33.6284 20.7926L37.4347 23.0119V14.5601L33.6284 20.7926Z" fill="#010101"/>
</g>
<g opacity="0.8">
<path opacity="0.8" d="M37.4348 14.5601V23.0119L41.2396 20.7926L37.4348 14.5601Z" fill="#010101"/>
</g>
<g opacity="0.45">
<path opacity="0.45" d="M33.6284 21.5043L37.4347 26.7963V23.7235L33.6284 21.5043Z" fill="#010101"/>
</g>
<g opacity="0.8">
<path opacity="0.8" d="M37.4348 23.7235V26.7963L41.2426 21.5043L37.4348 23.7235Z" fill="#010101"/>
</g>
</g>
<defs>
<clipPath id="clip0_422_31544">
<rect width="8.2" height="12.54" fill="white" transform="translate(33.3335 14.5601)"/>
</clipPath>
</defs>
</svg>
