<svg width="40" height="40" viewBox="0 0 40 40" fill="none" xmlns="http://www.w3.org/2000/svg">
<circle cx="20" cy="20" r="20" fill="#FFEEEE"/>
<g clip-path="url(#clip0_779_11143)">
<path d="M30.1578 15.6275C29.1266 14.6753 27.7 13.2212 26.5382 12.19L26.4694 12.1419C26.355 12.05 26.226 11.978 26.0878 11.9287C23.2863 11.4062 10.2478 8.96905 9.99346 8.99999C9.92218 9.00997 9.85405 9.03581 9.79409 9.07561L9.72877 9.12717C9.64835 9.20885 9.58727 9.30752 9.55002 9.41592L9.53284 9.46061V9.70467V9.74249C11.0006 13.8297 16.7963 27.2187 17.9375 30.3606C18.0063 30.5737 18.1369 30.9794 18.381 31H18.436C18.5666 31 19.1235 30.2644 19.1235 30.2644C19.1235 30.2644 29.0785 18.1919 30.0856 16.9062C30.216 16.7479 30.3311 16.5775 30.4294 16.3975C30.4545 16.2566 30.4427 16.1116 30.3951 15.9767C30.3475 15.8418 30.2657 15.7215 30.1578 15.6275ZM21.6775 17.0334L25.9263 13.51L28.4185 15.8062L21.6775 17.0334ZM20.0275 16.8031L12.7125 10.8081L24.5478 12.9909L20.0275 16.8031ZM20.6875 18.374L28.1744 17.1675L19.615 27.48L20.6875 18.374ZM11.7191 11.4062L19.4156 17.9375L18.3019 27.4869L11.7191 11.4062Z" fill="#FF060A"/>
</g>
<defs>
<clipPath id="clip0_779_11143">
<rect width="22" height="22" fill="white" transform="translate(9 9)"/>
</clipPath>
</defs>
</svg>
