<svg width="208" height="34" viewBox="0 0 208 34" fill="none" xmlns="http://www.w3.org/2000/svg">
<g clip-path="url(#clip0_422_35538)">
<path d="M49.5466 25.6021C49.3541 27.8956 48.208 30.0367 46.3411 31.5907C44.4742 33.1446 42.0264 33.995 39.4944 33.9692C29.6801 34.0149 19.8771 34.0149 10.0854 33.9692C8.05813 33.9884 6.07121 33.4544 4.38173 32.4364C3.97029 32.186 0.942936 30.2657 0.229509 26.9017C0.168799 26.6057 0.125954 26.3069 0.101167 26.0067C0.0634198 19.9623 0.0269302 13.9155 -0.00830078 7.86652C0.131365 7.38644 0.259707 6.90293 0.418246 6.42971C0.980248 4.68754 2.12035 3.14537 3.68294 2.01368C5.24554 0.881981 7.15448 0.215905 9.14924 0.106359C10.0376 0.0560652 10.9271 0.0286321 11.818 0.0240599C20.8283 0.0240599 29.8349 0.0789263 38.8452 5.59347e-05C44.3827 -0.0479521 48.2405 3.08629 49.339 7.03324C49.5168 7.44204 49.7724 7.81927 50.0939 8.14771C52.238 10.9528 52.6721 16.6726 48.8483 19.8068C47.278 21.0927 45.4812 21.9089 43.3296 21.9397C41.5479 21.9637 39.7662 21.9603 37.9845 21.9603C31.19 21.9603 24.3955 21.9226 17.6009 21.9809C15.3361 22.0015 14.0187 20.4686 14.1583 18.8501C14.2603 17.6293 14.1583 16.3982 14.181 15.174C14.1613 14.4746 14.4438 13.7959 14.968 13.2832C15.4921 12.7705 16.2163 12.4645 16.9856 12.4307C17.3631 12.4101 17.7104 12.4067 18.069 12.4067C25.319 12.4067 32.5703 12.4067 39.8229 12.4067C40.5778 12.4067 41.3327 12.273 42.0877 12.2044C45.4133 11.762 48.1273 9.27247 48.652 7.2527C46.5381 8.77867 44.1223 9.19703 41.6272 9.43707C41.1901 8.89341 40.7107 8.37886 40.1928 7.89738C39.1736 7.0641 37.8977 6.86864 36.5615 6.86864H14.1583C13.7809 6.86864 13.4034 6.8995 13.0259 6.91665C12.6484 6.93379 12.1841 6.91665 11.7689 6.95437C9.53427 7.13268 7.53742 9.12159 7.53365 11.1654C7.53365 14.9374 7.53365 18.7095 7.53365 22.4644C7.54519 23.047 7.65205 23.6249 7.85073 24.179C8.19659 25.0432 8.82237 25.7921 9.64572 26.327C10.4691 26.862 11.4514 27.158 12.4635 27.176C19.862 27.176 27.2605 27.176 34.659 27.176C37.1579 27.176 39.658 27.1315 42.1594 27.0423C44.0015 26.9806 45.7832 26.6171 47.2893 25.5849C47.9423 25.1391 48.8483 24.8271 48.8671 23.8704V23.8875L49.0295 23.7469C49.4296 23.7263 49.4862 23.9424 49.4862 24.2441C49.4636 24.7002 49.5164 25.1494 49.5466 25.6021ZM21.8626 16.0005C21.1076 15.1946 18.4653 15.0403 17.6839 15.7673C17.5502 15.9177 17.4351 16.081 17.3404 16.2542L17.231 18.2123L16.9667 17.403C16.9218 17.3873 16.8749 17.3769 16.8271 17.3721C16.7554 17.3721 16.6761 17.4064 16.6157 17.3721C15.7437 17.1252 15.6456 17.2144 15.7362 17.9962C15.8117 18.6615 15.9211 19.3679 15.1171 19.8102C14.9171 19.9234 14.8491 20.2286 14.6113 20.6298C15.4833 20.6092 16.1552 20.5818 16.8233 20.5818C24.7679 20.5818 32.715 20.5818 40.6646 20.5818C41.4547 20.5721 42.2435 20.5228 43.0276 20.4343C43.5724 20.4197 44.1113 20.3271 44.6243 20.16C46.5381 19.3713 48.2972 18.3769 49.2786 16.5903C49.6825 15.8496 50.1468 15.0849 50.2789 14.2893C50.4334 13.0773 50.4914 11.8568 50.4525 10.6373C50.4102 10.25 50.3254 9.86743 50.1996 9.49536C49.8305 9.92234 49.5864 10.4272 49.49 10.963C49.4586 11.3543 49.3353 11.735 49.1282 12.0792C48.9211 12.4235 48.6351 12.7235 48.2896 12.9588C47.1146 13.818 45.8039 14.5116 44.4016 15.0163C41.8688 15.8804 39.1698 15.997 36.4746 15.997H22.4137L22.2023 16.5526L21.8626 16.0005Z" fill="#D60242"/>
<path d="M64.8918 23.9219V24.7174C64.8918 27.0355 64.8918 29.3548 64.8918 31.6752C64.8918 32.7039 64.5143 33.0743 63.3819 33.0914C62.4684 33.0914 61.5511 33.1086 60.6376 33.0914C59.7242 33.0743 59.3391 32.6971 59.2976 31.8638C59.2976 31.5792 59.2976 31.2945 59.2976 31.0099V9.396C59.2976 8.48728 59.6109 8.15465 60.5961 8.10665C61.1957 8.07064 61.7971 8.07064 62.3967 8.10665C62.7352 8.12138 63.0653 8.20706 63.3613 8.35697C63.6573 8.50688 63.9111 8.71696 64.1029 8.97079C64.3067 9.23826 64.5143 9.49888 64.7597 9.81093C65.8921 8.74447 67.1906 7.95576 68.7722 7.71229C74.5174 6.82757 78.7942 9.23483 79.6435 14.8209C80.0436 17.4339 79.7454 19.9646 78.3714 22.341C76.7671 25.0844 74.1777 26.312 70.7993 26.2777C68.5382 26.2811 66.5262 25.6913 64.8918 23.9219ZM74.0569 16.7961C74.115 15.6331 73.8556 14.4751 73.3019 13.4253C72.4828 11.985 71.1201 11.4158 69.4064 11.3678C67.6926 11.3198 66.2318 11.817 65.4769 13.3052C64.9097 14.3832 64.6087 15.5608 64.5951 16.7556C64.5814 17.9503 64.8553 19.1333 65.3976 20.2218C66.111 21.7375 67.5152 22.4885 69.3724 22.4576C70.3556 22.4767 71.3171 22.194 72.1016 21.6552C72.6392 21.2283 73.0549 20.6894 73.3132 20.0847C73.8376 19.0554 74.0922 17.9298 74.0569 16.7961V16.7961Z" fill="#282828"/>
<path d="M158.671 7.33838C160.842 7.38982 162.586 7.54756 164.228 8.18881C167.516 9.47131 169.101 11.8786 169.614 14.9819C169.882 16.5689 169.815 18.1875 169.418 19.7519C168.527 23.3148 165.745 25.6603 161.748 26.2673C159.681 26.606 157.561 26.5664 155.512 26.1507C151.79 25.3483 149.533 23.2153 148.668 19.8685C148.097 17.728 148.152 15.4891 148.827 13.3737C149.876 10.0886 152.379 8.22996 156.044 7.62643C157.052 7.45154 158.068 7.41039 158.671 7.33838ZM159.2 22.4643C161.616 22.4643 163.179 21.4802 163.839 19.433C164.374 17.7855 164.374 16.0327 163.839 14.3853C163.602 13.5101 163.039 12.7361 162.246 12.1941C160.695 11.1962 159.007 11.2065 157.279 11.6591C156.779 11.7815 156.313 11.9972 155.91 12.2924C155.507 12.5876 155.176 12.9559 154.938 13.3737C153.946 15.0883 153.9 16.9023 154.278 18.7437C154.784 21.2401 156.444 22.4712 159.2 22.4781V22.4643Z" fill="#282828"/>
<path d="M96.5242 24.7038C93.9423 26.2641 90.9867 26.5761 87.8989 26.1235C83.641 25.5131 81.5724 21.861 83.5881 18.5279C84.3242 17.3071 85.6076 16.6899 87.0156 16.2818C89.3635 15.596 91.802 15.596 94.2329 15.5308C94.9501 15.5308 95.6674 15.5308 96.4299 15.5308C96.4755 14.9086 96.4755 14.2842 96.4299 13.6619C96.2675 12.5886 95.4786 11.9714 94.3726 11.697C92.4852 11.2238 90.5526 11.3301 88.6425 11.6079C87.6687 11.7519 86.7136 11.9748 85.7473 12.1531C84.6149 12.3623 84.1015 11.9474 84.2374 10.8809C84.2583 10.4203 84.4188 9.97388 84.7012 9.59086C84.9836 9.20784 85.377 8.90311 85.8379 8.71026C87.129 8.1927 88.4819 7.81296 89.8693 7.57864C92.2965 7.17564 94.7932 7.28594 97.1659 7.90098C100.307 8.7857 101.748 10.7815 101.79 13.5591C101.828 16.0006 101.696 18.4388 101.639 20.8803C101.639 21.0552 101.639 21.2232 101.639 21.405C101.673 22.4337 101.884 22.6257 103.002 22.6806C104.255 22.7389 104.512 23.0235 104.24 24.1449C104.161 24.5209 103.983 24.8737 103.719 25.1726C103.456 25.4714 103.116 25.7072 102.73 25.8594C101.988 26.1787 101.174 26.3377 100.353 26.324C99.5318 26.3104 98.7253 26.1244 97.9964 25.7806C97.4654 25.4696 96.972 25.1087 96.5242 24.7038V24.7038ZM95.9882 18.3324C95.3767 18.3324 94.7539 18.2913 94.1423 18.3324C92.8756 18.3895 91.6146 18.5235 90.3676 18.7337C89.1332 18.9874 88.5935 19.7624 88.6199 20.8392C88.606 21.316 88.7831 21.7813 89.1185 22.1484C89.4539 22.5155 89.9246 22.7595 90.4431 22.8349C93.7309 23.555 96.2638 21.8508 95.9882 18.3324V18.3324Z" fill="#282828"/>
<path d="M115.492 21.3978C116.901 17.5115 118.314 13.6159 119.731 9.71128C119.922 9.2659 120.153 8.83576 120.422 8.42535C120.506 8.29395 120.629 8.1869 120.777 8.11673C122.264 7.4309 123.846 7.4309 125.435 7.64694C125.99 7.72238 126.126 8.29848 125.835 8.95687C124.811 11.2635 123.788 13.5714 122.766 15.8803C121.219 19.3849 119.705 22.8998 118.119 26.3907C117.4 28.1358 116.314 29.7372 114.922 31.1057C113.035 32.8717 110.657 33.2764 108.086 33.0432C107.537 32.9891 106.998 32.8668 106.486 32.6797C106.046 32.5466 105.669 32.2832 105.414 31.9318C105.16 31.5804 105.042 31.1615 105.081 30.7422C105.108 30.0564 105.331 29.8541 106.086 29.8164C106.841 29.7787 107.622 29.7547 108.392 29.6998C110.219 29.5626 111.363 28.6196 112.057 27.1279C112.256 26.739 112.359 26.3154 112.359 25.8866C112.359 25.4578 112.256 25.0342 112.057 24.6452C109.728 19.6421 107.486 14.6047 105.217 9.57755C105.105 9.35949 105.025 9.12887 104.98 8.89172C104.866 8.16474 105.172 7.78067 105.972 7.75667C107.199 7.72238 108.43 7.75667 109.656 7.75667C110.464 7.75667 110.827 8.24704 111.046 8.88486C112.16 12.1563 113.279 15.4277 114.401 18.6991C114.711 19.6044 115.035 20.5097 115.353 21.4115L115.492 21.3978Z" fill="#282828"/>
<path d="M193.924 18.3324C194.041 20.4447 195.638 21.9673 197.993 22.3239C200.224 22.6668 202.402 22.3891 204.565 21.8918C205.192 21.7444 205.83 21.6244 206.452 21.5009C206.563 21.4728 206.679 21.4654 206.793 21.4792C206.907 21.493 207.017 21.5278 207.116 21.5814C207.215 21.6349 207.301 21.7062 207.368 21.7908C207.436 21.8754 207.484 21.9716 207.509 22.0736C207.887 22.972 207.54 23.9562 206.592 24.6283C205.418 25.4581 204.033 25.8182 202.606 26.048C200.044 26.5154 197.396 26.4071 194.89 25.7325C190.946 24.594 188.919 22.0256 188.413 18.3735C188.175 16.72 188.304 15.04 188.79 13.4321C189.716 10.3459 191.896 8.429 195.328 7.68145C197.49 7.19753 199.752 7.22231 201.9 7.75346C205.297 8.61075 207.185 10.7471 207.77 13.8368C207.957 14.9357 208.032 16.0481 207.993 17.1596C207.993 18.0478 207.721 18.2432 206.754 18.2535C202.851 18.2947 198.952 18.3015 195.053 18.3187L193.924 18.3324ZM202.855 15.3284C202.946 12.4857 201.462 11.0043 198.608 11.0214C195.842 11.042 193.988 12.2491 193.954 15.3284H202.855Z" fill="#282828"/>
<path d="M128.039 17.2829C127.987 15.2563 128.236 13.5863 129.055 12.0466C130.565 9.2381 133.181 7.86987 136.491 7.4961C138.55 7.22538 140.651 7.40645 142.618 8.02419C144.199 8.54542 145.06 9.461 145.067 10.6372C145.075 11.8134 144.52 12.1872 143.271 11.8511C142.183 11.5162 141.067 11.2628 139.934 11.0933C136.854 10.7504 134.649 12.1769 133.977 14.8653C133.612 16.3253 133.708 17.8494 134.256 19.2615C135.011 21.2538 137.148 22.4232 139.734 22.1283C141.198 21.9121 142.649 21.6225 144.078 21.2607C145.041 21.0515 145.396 21.2607 145.467 22.1831C145.554 23.3696 144.637 24.6727 143.282 25.2488C141.362 26.0425 139.235 26.3289 137.144 26.0752C136.02 25.9809 134.914 25.7573 133.853 25.41C130.633 24.2715 128.9 21.9808 128.277 18.9735C128.138 18.3116 128.089 17.6258 128.039 17.2829Z" fill="#282828"/>
<path d="M178.225 9.18303C179.973 7.55761 182.075 7.00895 184.487 7.5919C186.529 8.08913 187.413 9.99231 186.469 11.7069C186.205 12.1835 185.854 12.2418 185.287 12.1424C184.27 11.9131 183.225 11.7979 182.177 11.7995C179.946 11.9092 178.591 13.3049 178.58 15.3418C178.58 18.38 178.58 21.4217 178.58 24.4599C178.58 25.5778 178.24 25.9241 177.017 25.9584C176.175 25.9859 175.333 25.9893 174.492 25.9584C173.359 25.9138 173.004 25.5435 173.004 24.525C173.004 21.1988 173.004 17.8736 173.004 14.5496C173.004 12.715 173.004 10.877 173.004 9.039C173.004 8.12685 173.382 7.77022 174.375 7.72221H174.665C176.368 7.77022 176.994 7.53361 178.225 9.18303Z" fill="#282828"/>
<path d="M48.8604 23.8702C48.8415 24.8235 47.9356 25.1356 47.2826 25.5848C45.7727 26.6135 43.9948 26.9804 42.1527 27.0422C39.6538 27.1222 37.1537 27.1668 34.6523 27.1759C27.2538 27.1896 19.8552 27.1896 12.4567 27.1759C11.4473 27.1551 10.4682 26.8579 9.64788 26.3231C8.82751 25.7883 8.20403 25.0409 7.8591 24.1788C7.66042 23.6247 7.55356 23.0469 7.54202 22.4643C7.51559 18.6922 7.54202 14.9201 7.54202 11.1652C7.54202 9.10773 9.54263 7.13254 11.7773 6.95422C12.1925 6.91993 12.6153 6.92679 13.0343 6.9165C11.1809 7.25942 9.91633 8.9397 9.96163 10.62C10.0522 14.1211 9.98805 17.6223 9.98805 21.1235C9.96656 22.025 10.3251 22.8999 10.9903 23.5693C11.6555 24.2386 12.5771 24.6517 13.5665 24.7241C13.806 24.7474 14.0467 24.7588 14.2875 24.7584C24.4315 24.7584 34.573 24.7401 44.712 24.7035C45.7652 24.671 46.8134 24.5563 47.845 24.3606C48.2095 24.2461 48.5521 24.0807 48.8604 23.8702V23.8702Z" fill="#A40328"/>
<path d="M41.6279 9.44023C44.1155 9.20019 46.5351 8.78183 48.6527 7.25586C48.128 9.27563 45.414 11.7652 42.0884 12.2075C41.9337 11.2851 41.7827 10.3627 41.6279 9.44023Z" fill="#A60228"/>
<path d="M49.5475 25.602C49.5173 25.1493 49.4644 24.7001 49.4607 24.2303C49.4607 23.9286 49.404 23.7125 49.0039 23.7331L49.5475 23.0747V25.602Z" fill="#A40328"/>
<path d="M49.0052 23.7471L48.8416 23.8877L49.0052 23.7471Z" fill="#A40328"/>
<path d="M22.2031 16.5523L22.4031 16.0105H36.4678C39.1592 16.0105 41.8582 15.8939 44.3948 15.0297C45.7971 14.525 47.1078 13.8314 48.2828 12.9722C48.6283 12.7369 48.9143 12.437 49.1214 12.0927C49.3284 11.7484 49.4518 11.3678 49.4832 10.9765C49.5796 10.4407 49.8237 9.93577 50.1928 9.50879C50.3186 9.88086 50.4034 10.2634 50.4457 10.6507C50.4846 11.8703 50.4265 13.0908 50.2721 14.3027C50.14 15.0983 49.6757 15.863 49.2718 16.6037C48.2904 18.3903 46.5313 19.3847 44.6175 20.1734C44.1045 20.3405 43.5656 20.4331 43.0208 20.4478C42.2367 20.5363 41.4479 20.5855 40.6578 20.5952C32.7132 20.5952 24.7661 20.5952 16.8165 20.5952C16.1484 20.5952 15.4765 20.6227 14.6045 20.6432C14.8423 20.242 14.9102 19.9368 15.1103 19.8237C15.9143 19.3676 15.8049 18.6749 15.7294 18.0096C15.6388 17.2278 15.7294 17.1386 16.6089 17.3855C16.6693 17.3855 16.7485 17.365 16.8203 17.3855C16.8681 17.3903 16.915 17.4007 16.9599 17.4164C17.0581 17.7113 17.1411 17.9685 17.2242 18.2257L17.3525 18.5069L17.5639 18.7709C18.5416 19.6351 19.7457 19.4567 20.9083 19.3162C21.2822 19.2603 21.6205 19.0817 21.8591 18.8144C22.0977 18.547 22.2201 18.2095 22.2031 17.8656C22.237 17.4267 22.2031 16.9878 22.2031 16.5523Z" fill="#E3014A"/>
<path d="M22.203 16.6449C22.203 17.053 22.2256 17.4576 22.203 17.8657C22.2168 18.2093 22.0915 18.5457 21.8509 18.811C21.6102 19.0764 21.2708 19.2525 20.8969 19.306C19.7645 19.4397 18.5528 19.6214 17.5789 18.7847L17.5298 18.7333L17.3449 18.5035L17.2316 18.2738C17.2297 18.2567 17.2297 18.2394 17.2316 18.2223C17.2294 18.2075 17.2294 18.1926 17.2316 18.1778C17.326 16.6175 17.3449 16.2643 17.3373 16.2643C17.2679 16.5328 17.311 16.8152 17.4581 17.0564C17.5978 17.2142 17.8846 17.269 18.4848 17.3616C18.5544 17.3719 18.619 17.4009 18.6701 17.4449C18.7213 17.489 18.7567 17.546 18.7717 17.6085L18.7944 17.6943C18.814 17.7598 18.8546 17.8186 18.911 17.8632C18.9675 17.9078 19.0372 17.9361 19.1114 17.9446C19.3245 17.9801 19.5434 17.9763 19.7548 17.9333C19.9662 17.8903 20.1659 17.809 20.342 17.6943C20.7281 17.3258 20.998 16.8698 21.1234 16.374C21.1725 16.2403 21.2366 16.0826 21.3876 16.0311C21.4181 16.0209 21.4515 16.0209 21.482 16.0311C21.5037 16.0397 21.5231 16.0526 21.5386 16.0688L22.203 16.6449Z" fill="#FBABCB"/>
<path d="M17.2205 18.2295C17.2661 18.3187 17.3156 18.4112 17.3612 18.5038C17.3156 18.4112 17.2661 18.3118 17.2205 18.2295Z" fill="#D60242"/>
<path d="M17.3562 18.4966L17.5676 18.7606L17.3562 18.4966Z" fill="#D60242"/>
</g>
<defs>
<clipPath id="clip0_422_35538">
<rect width="208" height="34" fill="white"/>
</clipPath>
</defs>
</svg>
