<svg width="81" height="27" viewBox="0 0 81 27" fill="none" xmlns="http://www.w3.org/2000/svg">
<path d="M11.494 24.6255C17.4168 24.6255 22.2183 19.6594 22.2183 13.5334C22.2183 7.40748 17.4168 2.44141 11.494 2.44141C5.57118 2.44141 0.769775 7.40748 0.769775 13.5334C0.769775 19.6594 5.57118 24.6255 11.494 24.6255Z" fill="#26A17B"/>
<path d="M12.6372 14.5571V14.5553C12.5631 14.5606 12.1803 14.5838 11.3286 14.5838C10.6475 14.5838 10.17 14.5642 10.001 14.5553V14.5571C7.38199 14.4376 5.42853 13.9668 5.42853 13.4015C5.42853 12.838 7.38372 12.3654 10.001 12.2459V14.088C10.1717 14.1005 10.6631 14.1308 11.3407 14.1308C12.1545 14.1308 12.5614 14.0952 12.6372 14.088V12.2477C15.251 12.369 17.1993 12.8398 17.1993 13.4033C17.1993 13.9668 15.2493 14.4376 12.6372 14.5588M12.6372 12.0569V10.4091H16.2838V7.89648H6.35612V10.4091H10.0027V12.0569C7.03889 12.1978 4.81128 12.8041 4.81128 13.5317C4.81128 14.2592 7.04061 14.8656 10.0027 15.0082V20.2903H12.6389V15.0082C15.5976 14.8673 17.8217 14.261 17.8217 13.5334C17.8217 12.8077 15.5976 12.1996 12.6389 12.0587" fill="white"/>
<path d="M31.3278 8.5833V11.2475H33.8313V13.2466H31.3106V17.3C31.3106 18.1952 31.7882 18.6321 32.4882 18.6321C32.8382 18.6321 33.2434 18.518 33.5744 18.3468L34.2003 20.3262C33.5572 20.5919 33.0227 20.7061 32.3417 20.7257C30.3727 20.8024 29.0847 19.6415 29.0847 17.3V13.2466H27.3916V11.2475H29.0847V8.83118L31.3278 8.5833ZM74.4886 11.1227L74.6541 12.2069C75.3541 11.046 76.2921 10.8748 77.2128 10.8748C78.1507 10.8748 79.0524 11.2547 79.549 11.7682L78.5369 13.7851C78.0766 13.3857 77.6542 13.1753 76.9179 13.1753C75.7403 13.1753 74.6541 13.8226 74.6541 15.5542V20.5028H72.4093V11.1191L74.4886 11.1227ZM68.9868 14.7196C68.8403 13.5016 67.9196 12.8917 66.6316 12.8917C65.4178 12.8917 64.423 13.5016 64.092 14.7196H68.9868ZM64.0557 16.642C64.2023 17.8029 65.1782 18.641 66.7609 18.641C67.5885 18.641 68.6748 18.3165 69.1903 17.7654L70.6248 19.2313C69.6679 20.2585 68.1041 20.7542 66.723 20.7542C63.5954 20.7542 61.735 18.7552 61.735 15.7485C61.735 12.8935 63.6126 10.8374 66.5575 10.8374C69.5937 10.8374 71.4903 12.7794 71.1403 16.642H64.0557ZM54.1557 7.18164V12.396C54.966 11.3117 55.9591 10.9872 56.9902 10.9872C59.5661 10.9872 60.7074 12.7954 60.7074 15.5559V20.5046H58.4626V15.5756C58.4626 13.8618 57.5971 13.1396 56.4005 13.1396C55.0746 13.1396 54.1557 14.3005 54.1557 15.7093V20.5063H51.9108V7.18342L54.1557 7.18164ZM48.1935 8.47631V11.1405H50.697V13.1396H48.1763V17.193C48.1763 18.0882 48.6556 18.5251 49.3539 18.5251C49.7039 18.5251 50.1091 18.411 50.4401 18.2398L51.066 20.2192C50.4229 20.4849 49.8884 20.5991 49.2073 20.6187C47.2383 20.6954 45.9504 19.5327 45.9504 17.193V13.1396H44.2573V11.1405H45.9504V8.72418L48.1935 8.47631ZM41.9917 14.7196C41.8452 13.5016 40.9245 12.8917 39.6365 12.8917C38.4227 12.8917 37.4279 13.5016 37.0969 14.7196H41.9917ZM37.0607 16.642C37.2072 17.8029 38.1831 18.641 39.7659 18.641C40.5935 18.641 41.6797 18.3165 42.1952 17.7654L43.6297 19.2313C42.6728 20.2585 41.109 20.7542 39.7279 20.7542C36.5986 20.7542 34.7399 18.7552 34.7399 15.7485C34.7399 12.8935 36.6176 10.8374 39.5607 10.8374C42.5969 10.8374 44.4918 12.7794 44.1435 16.642H37.0607Z" fill="#2C2C2C"/>
</svg>
