<svg width="145" height="57" viewBox="0 0 145 57" fill="none" xmlns="http://www.w3.org/2000/svg">
<g clip-path="url(#clip0_422_35584)">
<path d="M55.5164 28.806C55.5164 43.7539 43.2763 55.8702 28.1767 55.8702C13.0776 55.8702 0.837158 43.7539 0.837158 28.806C0.837158 13.8587 13.0776 1.7417 28.1767 1.7417C43.2763 1.7417 55.5164 13.8587 55.5164 28.806Z" fill="#1BA27A"/>
<path d="M41.0066 15.3892H15.1189V21.576H24.9379V30.6697H31.1877V21.576H41.0066V15.3892Z" fill="white"/>
<path d="M28.1233 31.6385C20.0008 31.6385 13.4155 30.3659 13.4155 28.7959C13.4155 27.2262 20.0005 25.9534 28.1233 25.9534C36.2459 25.9534 42.8309 27.2262 42.8309 28.7959C42.8309 30.3659 36.2459 31.6385 28.1233 31.6385ZM44.6377 29.2698C44.6377 27.2454 37.2441 25.6045 28.1233 25.6045C19.0029 25.6045 11.6086 27.2454 11.6086 29.2698C11.6086 31.0526 17.342 32.5378 24.9394 32.8669V45.9209H31.1886V32.8721C38.8445 32.5533 44.6377 31.0618 44.6377 29.2698Z" fill="white"/>
<path d="M50.9719 45.1556C59.5666 45.1556 66.5341 38.247 66.5341 29.7248C66.5341 21.2026 59.5666 14.2939 50.9719 14.2939C42.3771 14.2939 35.4097 21.2026 35.4097 29.7248C35.4097 38.247 42.3771 45.1556 50.9719 45.1556Z" fill="#FF060A"/>
<path d="M61.3474 26.9219C60.3749 26.0315 59.0294 24.6716 57.9334 23.7072L57.8686 23.6622C57.7609 23.5763 57.639 23.5089 57.5089 23.4629C54.8663 22.9742 42.5692 20.695 42.3292 20.7239C42.262 20.7333 42.1978 20.7574 42.1412 20.7946L42.0796 20.8429C42.0038 20.9192 41.9462 21.0115 41.911 21.1129L41.8948 21.1547V21.3829V21.4183C43.2792 25.2406 48.7454 37.7621 49.8218 40.7003C49.8867 40.8998 50.0098 41.2791 50.24 41.2983H50.2919C50.4151 41.2983 50.9403 40.6104 50.9403 40.6104C50.9403 40.6104 60.3294 29.3202 61.2795 28.1178C61.4025 27.9697 61.5111 27.8104 61.6035 27.6421C61.6275 27.5103 61.6163 27.3748 61.5714 27.2485C61.5265 27.1224 61.4494 27.0098 61.3474 26.9219ZM53.3494 28.2368L57.3563 24.9416L59.707 27.0891L53.3494 28.2368ZM51.7932 28.0214L44.8938 22.4149L56.0562 24.4562L51.7932 28.0214ZM52.4157 29.4905L59.4768 28.3622L51.4039 38.0066L52.4157 29.4905ZM43.9568 22.9742L51.2161 29.0823L50.1654 38.0126L43.9568 22.9742Z" fill="white"/>
</g>
<path d="M81.6615 16.2093V3.47016H77.0498V0.981689H89.4008V3.47016H84.7663V16.2093H81.6615Z" fill="#1A1A1A"/>
<path d="M94.5843 16.5517C93.4428 16.5517 92.4459 16.3234 91.5936 15.8668C90.7413 15.395 90.0792 14.7101 89.6074 13.8121C89.1356 12.9142 88.8996 11.8335 88.8996 10.5703C88.8996 8.56125 89.3791 7.03164 90.3379 5.98146C91.312 4.91606 92.6742 4.38336 94.4245 4.38336C95.6878 4.38336 96.6999 4.65732 97.4609 5.20524C98.2371 5.75316 98.8002 6.53699 99.1503 7.55673C99.5156 8.56125 99.6906 9.76363 99.6754 11.1639H90.7717L90.5434 9.20049H97.3696L96.8216 10.0224C96.7912 8.81999 96.5781 7.96006 96.1824 7.44258C95.8019 6.90988 95.1855 6.64353 94.3332 6.64353C93.8157 6.64353 93.3591 6.76529 92.9634 7.00881C92.5829 7.23711 92.2861 7.62522 92.073 8.17314C91.8752 8.72106 91.7762 9.47445 91.7762 10.4333C91.7762 11.6205 92.0578 12.5337 92.6209 13.1729C93.1841 13.7969 94.044 14.1089 95.2007 14.1089C95.6725 14.1089 96.1215 14.0633 96.5477 13.972C96.9891 13.8654 97.3924 13.7437 97.7577 13.6067C98.1382 13.4697 98.4578 13.3403 98.7165 13.2186V15.7755C98.1838 16.0038 97.575 16.1865 96.8901 16.3234C96.2205 16.4756 95.4519 16.5517 94.5843 16.5517Z" fill="#1A1A1A"/>
<path d="M106.63 16.5746C105.443 16.5746 104.538 16.2854 103.914 15.707C103.29 15.1135 102.978 14.2611 102.978 13.1501V6.98598H101.197V4.70298H102.978V1.52961H105.968V4.70298H108.639V6.98598H105.968V12.6935C105.968 13.1653 106.06 13.5154 106.242 13.7437C106.425 13.972 106.744 14.0861 107.201 14.0861C107.445 14.0861 107.696 14.0481 107.954 13.972C108.228 13.8806 108.457 13.7741 108.639 13.6523V16.1636C108.335 16.3158 108 16.4224 107.635 16.4833C107.285 16.5441 106.95 16.5746 106.63 16.5746Z" fill="#1A1A1A"/>
<path d="M111.32 16.2093V0H114.22V6.68919L113.147 6.00429C113.756 5.53247 114.448 5.15197 115.224 4.86279C116.001 4.57361 116.777 4.42902 117.553 4.42902C118.421 4.42902 119.174 4.57361 119.813 4.86279C120.452 5.15197 120.947 5.62379 121.297 6.27825C121.662 6.91749 121.845 7.78503 121.845 8.88087V16.2093H118.946V9.38313C118.946 8.53081 118.74 7.89918 118.329 7.48824C117.934 7.06208 117.332 6.849 116.526 6.849C116.115 6.849 115.704 6.90988 115.293 7.03164C114.882 7.1534 114.524 7.3056 114.22 7.48824L114.197 16.2093H111.32Z" fill="#1A1A1A"/>
<path d="M130.1 16.5517C128.959 16.5517 127.962 16.3234 127.109 15.8668C126.257 15.395 125.595 14.7101 125.123 13.8121C124.651 12.9142 124.415 11.8335 124.415 10.5703C124.415 8.56125 124.895 7.03164 125.854 5.98146C126.828 4.91606 128.19 4.38336 129.94 4.38336C131.204 4.38336 132.216 4.65732 132.977 5.20524C133.753 5.75316 134.316 6.53699 134.666 7.55673C135.031 8.56125 135.206 9.76363 135.191 11.1639H126.288L126.059 9.20049H132.885L132.337 10.0224C132.307 8.81999 132.094 7.96006 131.698 7.44258C131.318 6.90988 130.701 6.64353 129.849 6.64353C129.332 6.64353 128.875 6.76529 128.479 7.00881C128.099 7.23711 127.802 7.62522 127.589 8.17314C127.391 8.72106 127.292 9.47445 127.292 10.4333C127.292 11.6205 127.574 12.5337 128.137 13.1729C128.7 13.7969 129.56 14.1089 130.717 14.1089C131.188 14.1089 131.637 14.0633 132.063 13.972C132.505 13.8654 132.908 13.7437 133.273 13.6067C133.654 13.4697 133.974 13.3403 134.232 13.2186V15.7755C133.7 16.0038 133.091 16.1865 132.406 16.3234C131.736 16.4756 130.968 16.5517 130.1 16.5517Z" fill="#1A1A1A"/>
<path d="M137.74 16.2093V5.82165C137.953 5.68467 138.326 5.50203 138.859 5.27373C139.407 5.04543 140.038 4.84757 140.754 4.68015C141.469 4.49751 142.192 4.40619 142.922 4.40619C143.47 4.40619 143.904 4.45185 144.224 4.54317C144.559 4.61927 144.817 4.7182 145 4.83996V7.03164C144.695 6.98598 144.345 6.94793 143.95 6.91749C143.569 6.88705 143.173 6.87944 142.763 6.89466C142.367 6.89466 141.979 6.90988 141.598 6.94032C141.233 6.97076 140.913 7.00881 140.639 7.05447V16.2093H137.74Z" fill="#1A1A1A"/>
<path d="M82.5518 35.3757C81.3647 35.3757 80.4591 35.0866 79.8351 34.5082C79.211 33.9146 78.899 33.0623 78.899 31.9512V25.7871H77.1183V23.5041H78.899V20.3308H81.8898V23.5041H84.5609V25.7871H81.8898V31.4946C81.8898 31.9665 81.9811 32.3165 82.1637 32.5448C82.3464 32.7731 82.666 32.8873 83.1226 32.8873C83.3661 32.8873 83.6172 32.8492 83.876 32.7731C84.1499 32.6818 84.3782 32.5753 84.5609 32.4535V34.9648C84.2565 35.117 83.9216 35.2235 83.5564 35.2844C83.2063 35.3453 82.8715 35.3757 82.5518 35.3757Z" fill="#1A1A1A"/>
<path d="M87.242 35.0105V24.6228C87.4551 24.4858 87.8279 24.3032 88.3606 24.0749C88.9086 23.8466 89.5402 23.6487 90.2555 23.4813C90.9709 23.2987 91.6938 23.2074 92.4244 23.2074C92.9723 23.2074 93.4061 23.253 93.7257 23.3443C94.0605 23.4204 94.3193 23.5194 94.5019 23.6411V25.8328C94.1975 25.7871 93.8474 25.7491 93.4517 25.7187C93.0712 25.6882 92.6755 25.6806 92.2646 25.6958C91.8688 25.6958 91.4807 25.711 91.1002 25.7415C90.735 25.7719 90.4153 25.81 90.1414 25.8556V35.0105H87.242Z" fill="#1A1A1A"/>
<path d="M101.388 35.2616C100.627 35.2616 99.8964 35.1551 99.1963 34.942C98.4962 34.7289 97.8722 34.3864 97.3243 33.9146C96.7763 33.4428 96.3426 32.834 96.023 32.0882C95.7033 31.3424 95.5435 30.4369 95.5435 29.3715C95.5435 28.2604 95.6957 27.3168 96.0001 26.5405C96.3045 25.7643 96.7231 25.1327 97.2558 24.6456C97.7885 24.1434 98.4049 23.7857 99.105 23.5726C99.8203 23.3443 100.574 23.2302 101.365 23.2302C101.974 23.2302 102.598 23.2911 103.237 23.4128C103.876 23.5346 104.447 23.7096 104.949 23.9379V26.4492C104.432 26.2209 103.915 26.0383 103.397 25.9013C102.88 25.7491 102.347 25.673 101.799 25.673C100.734 25.673 99.9041 25.9394 99.3105 26.472C98.7169 27.0047 98.4201 27.8799 98.4201 29.0975C98.4201 30.3455 98.6865 31.274 99.2192 31.8828C99.7671 32.4916 100.665 32.796 101.913 32.796C102.476 32.796 103.024 32.7122 103.557 32.5448C104.09 32.3622 104.561 32.1643 104.972 31.9512V34.4854C104.44 34.7441 103.884 34.9344 103.306 35.0561C102.727 35.1931 102.088 35.2616 101.388 35.2616Z" fill="#1A1A1A"/>
<path d="M113.997 35.0105V32.7503C114.514 32.4155 115.085 32.0121 115.709 31.5403C116.348 31.0533 116.972 30.5206 117.581 29.9422C118.205 29.3486 118.768 28.7398 119.271 28.1158C119.788 27.4766 120.199 26.8449 120.503 26.2209C120.823 25.5969 120.983 25.0033 120.983 24.4402C120.983 23.9379 120.876 23.5118 120.663 23.1617C120.45 22.7964 120.123 22.5148 119.682 22.317C119.255 22.1191 118.723 22.0202 118.084 22.0202C117.292 22.0202 116.577 22.18 115.937 22.4996C115.298 22.8193 114.697 23.1921 114.134 23.6183V20.8559C114.712 20.5058 115.39 20.1938 116.166 19.9198C116.942 19.6459 117.855 19.5089 118.905 19.5089C120.062 19.5089 121.021 19.7068 121.782 20.1025C122.558 20.483 123.137 21.0157 123.517 21.7006C123.898 22.3855 124.088 23.1769 124.088 24.0749C124.088 24.7902 123.936 25.4827 123.631 26.1524C123.327 26.8221 122.923 27.469 122.421 28.093C121.934 28.717 121.386 29.3106 120.777 29.8737C120.184 30.4216 119.583 30.9391 118.974 31.4262C118.365 31.898 117.802 32.3241 117.284 32.7046L116.622 32.1339H124.362V35.0105H113.997Z" fill="#1A1A1A"/>
<path d="M133.576 35.2844C131.384 35.2844 129.764 34.63 128.713 33.321C127.663 32.0121 127.138 30.0487 127.138 27.4309C127.138 24.8131 127.663 22.8497 128.713 21.5408C129.764 20.2166 131.384 19.5546 133.576 19.5546C135.783 19.5546 137.412 20.2166 138.462 21.5408C139.512 22.8497 140.037 24.8131 140.037 27.4309C140.037 30.0487 139.512 32.0121 138.462 33.321C137.412 34.63 135.783 35.2844 133.576 35.2844ZM133.576 32.7275C133.972 32.7275 134.368 32.6666 134.763 32.5448C135.159 32.4231 135.517 32.1872 135.836 31.8371C136.156 31.4718 136.407 30.9391 136.59 30.239C136.788 29.5237 136.887 28.5876 136.887 27.4309C136.887 26.259 136.788 25.3229 136.59 24.6228C136.407 23.9227 136.156 23.3976 135.836 23.0475C135.517 22.6823 135.159 22.4387 134.763 22.317C134.368 22.18 133.972 22.1115 133.576 22.1115C133.18 22.1115 132.785 22.18 132.389 22.317C132.008 22.4387 131.658 22.6823 131.339 23.0475C131.019 23.3976 130.76 23.9227 130.563 24.6228C130.38 25.3229 130.289 26.259 130.289 27.4309C130.289 28.5876 130.38 29.5237 130.563 30.239C130.76 30.9391 131.019 31.4718 131.339 31.8371C131.658 32.1872 132.008 32.4231 132.389 32.5448C132.785 32.6666 133.18 32.7275 133.576 32.7275Z" fill="#1A1A1A"/>
<path d="M82.1236 56.6586C80.7914 56.6586 79.7546 56.2665 79.0133 55.4822C78.2828 54.6979 77.9175 53.5752 77.9175 52.1141V45.7486H79.0778V52.1786C79.0778 53.3281 79.3356 54.1822 79.8513 54.7409C80.367 55.2888 81.1244 55.5628 82.1236 55.5628C83.1227 55.5628 83.8855 55.2888 84.4119 54.7409C84.9384 54.1822 85.2016 53.3281 85.2016 52.1786V45.7486H86.3297V52.1141C86.3297 53.0918 86.1631 53.919 85.8301 54.5958C85.497 55.2727 85.019 55.7884 84.3958 56.1429C83.7727 56.4867 83.0153 56.6586 82.1236 56.6586Z" fill="#1A1A1A"/>
<path d="M92.1212 56.6586C91.584 56.6586 91.1274 56.621 90.7514 56.5458C90.3754 56.4706 90.037 56.3632 89.7362 56.2235C89.4353 56.0838 89.1077 55.9227 88.7531 55.74V54.483C89.0969 54.7731 89.5589 55.031 90.139 55.2566C90.7192 55.4822 91.396 55.595 92.1696 55.595C92.9861 55.595 93.577 55.4231 93.9422 55.0793C94.3183 54.7248 94.5063 54.2789 94.5063 53.7417C94.5063 53.2905 94.3827 52.9306 94.1356 52.662C93.8885 52.3827 93.5716 52.1571 93.1848 51.9852C92.7981 51.8025 92.3898 51.6306 91.9601 51.4695C91.5948 51.3406 91.2295 51.2063 90.8642 51.0666C90.5097 50.9162 90.1874 50.7336 89.8973 50.5187C89.6072 50.2931 89.3762 50.0084 89.2044 49.6646C89.0325 49.31 88.9465 48.8695 88.9465 48.3431C88.9465 48.053 89.0002 47.7469 89.1077 47.4245C89.2258 47.1022 89.4085 46.8014 89.6556 46.5221C89.9134 46.2428 90.2518 46.0171 90.6708 45.8452C91.1006 45.6734 91.6216 45.5874 92.234 45.5874C92.653 45.5874 93.0076 45.6196 93.2976 45.6841C93.5985 45.7378 93.8832 45.8238 94.1517 45.9419C94.4203 46.0494 94.7212 46.1837 95.0542 46.3448V47.5374C94.7749 47.3762 94.5063 47.2312 94.2484 47.1022C94.0013 46.9626 93.722 46.8551 93.4104 46.7799C93.1096 46.694 92.739 46.651 92.2985 46.651C91.7721 46.651 91.3477 46.7262 91.0254 46.8766C90.7138 47.027 90.4828 47.2258 90.3324 47.4729C90.1928 47.72 90.1229 47.9832 90.1229 48.2625C90.1229 48.703 90.2196 49.0522 90.413 49.31C90.6171 49.5679 90.8965 49.7827 91.251 49.9546C91.6163 50.1158 92.0353 50.277 92.508 50.4381C92.884 50.567 93.26 50.7121 93.6361 50.8732C94.0121 51.0236 94.3505 51.217 94.6513 51.4534C94.9629 51.679 95.21 51.9691 95.3926 52.3236C95.586 52.6674 95.6827 53.0971 95.6827 53.6128C95.6827 54.0963 95.5753 54.5744 95.3604 55.0471C95.1455 55.509 94.7802 55.8958 94.2646 56.2074C93.7489 56.5082 93.0344 56.6586 92.1212 56.6586Z" fill="#1A1A1A"/>
<path d="M98.0144 56.4975V45.7486H101.382C103.058 45.7486 104.315 46.1998 105.153 47.1022C106.002 47.994 106.427 49.3315 106.427 51.1149C106.427 52.8984 106.002 54.2413 105.153 55.1438C104.315 56.0462 103.058 56.4975 101.382 56.4975H98.0144ZM99.1747 55.4016H101.302C102.677 55.4016 103.676 55.0578 104.299 54.3702C104.922 53.6827 105.234 52.5976 105.234 51.1149C105.234 49.6323 104.922 48.5472 104.299 47.8597C103.676 47.1721 102.677 46.8283 101.302 46.8283H99.1747V55.4016Z" fill="#1A1A1A"/>
<path d="M111.519 56.4975V46.8444H107.716V45.7486H116.466V46.8444H112.679V56.4975H111.519Z" fill="#1A1A1A"/>
<defs>
<clipPath id="clip0_422_35584">
<rect width="67.147" height="55.0606" fill="white" transform="translate(0 1.43701)"/>
</clipPath>
</defs>
</svg>
