<svg width="62" height="22" viewBox="0 0 62 22" fill="none" xmlns="http://www.w3.org/2000/svg">
<path d="M4.81 10.9756L2.42875 13.3429L0.0488281 10.9756L2.42875 8.6083L4.81 10.9756ZM10.5894 5.22681L14.6691 9.28487L17.0477 6.92288L10.5881 0.492188L4.1285 6.92288L6.50841 9.29019L10.5894 5.22681ZM18.7488 8.6083L16.3688 10.9756L18.7474 13.3429L21.1273 10.9756L18.7488 8.6083ZM10.5894 16.7244L6.50975 12.6664L4.1285 15.031L10.5881 21.4551L17.0477 15.031L14.6678 12.6637L10.5894 16.7244ZM10.5894 13.3429L12.9693 10.9756L10.5894 8.6083L8.2095 10.9756L10.5894 13.3429ZM25.8898 5.22548H31.2577C32.5793 5.22548 33.6202 5.58703 34.2804 6.24365C34.5405 6.49788 34.7451 6.80272 34.8814 7.13914C35.0178 7.47556 35.0829 7.83633 35.0728 8.19891V8.23081C35.0728 9.52944 34.3792 10.2525 33.5534 10.7124C34.8897 11.2215 35.7169 11.9938 35.7169 13.5383V13.5689C35.7169 15.6717 33.9997 16.7231 31.39 16.7231H25.8885L25.8898 5.22548ZM30.7125 9.8777C31.8363 9.8777 32.5459 9.51748 32.5459 8.6628V8.62957C32.5459 7.87458 31.9512 7.44658 30.8782 7.44658H28.366V9.87371L30.7125 9.8777ZM31.39 14.5113C32.5138 14.5113 33.19 14.1125 33.19 13.2632V13.2299C33.19 12.4577 32.6127 11.9818 31.3071 11.9818H28.3673V14.5073L31.39 14.5113ZM38.2264 5.22947H40.5729L45.9902 12.3101V5.22548H48.4997V16.7244H46.335L40.7359 9.4138V16.7244H38.2251L38.2264 5.22947ZM51.6868 5.22947H57.0586C58.3802 5.22947 59.4212 5.59101 60.0813 6.24764C60.3414 6.50186 60.546 6.80671 60.6824 7.14313C60.8187 7.47954 60.8838 7.84031 60.8737 8.2029V8.2348C60.8737 9.53343 60.1802 10.2565 59.3544 10.7164C60.6906 11.2255 61.5178 11.9978 61.5178 13.5423V13.5689C61.5178 15.6717 59.8007 16.7231 57.1909 16.7231H51.6854L51.6868 5.22947ZM56.5094 9.88168C57.6332 9.88168 58.3428 9.52147 58.3428 8.66679V8.63356C58.3428 7.87857 57.7481 7.45057 56.6751 7.45057H54.1629V9.87371L56.5094 9.88168ZM57.1923 14.5073C58.3161 14.5073 58.9922 14.1086 58.9922 13.2592V13.226C58.9922 12.4537 58.415 11.9778 57.1094 11.9778H54.1696V14.5033L57.1923 14.5073Z" fill="#F0B90B"></path>
</svg>
