<svg width="62" height="22" fill="none" xmlns="http://www.w3.org/2000/svg"><path d="m4.81 10.976-2.381 2.367-2.38-2.367 2.38-2.368 2.381 2.368Zm5.78-5.75 4.08 4.059 2.378-2.362-6.46-6.43-6.46 6.43 2.38 2.367 4.081-4.063Zm8.159 3.382-2.38 2.368 2.378 2.367 2.38-2.367-2.378-2.368Zm-8.16 8.116-4.08-4.058-2.38 2.365 6.46 6.424 6.459-6.424-2.38-2.367-4.079 4.06Zm0-3.381 2.38-2.367-2.38-2.368-2.38 2.368 2.38 2.367Zm15.3-8.118h5.369c1.321 0 2.362.362 3.022 1.019a2.637 2.637 0 0 1 .793 1.955v.032c0 1.298-.694 2.021-1.52 2.481 1.337.51 2.164 1.282 2.164 2.826v.03c0 2.104-1.717 3.155-4.327 3.155h-5.502l.002-11.498Zm4.823 4.653c1.124 0 1.834-.36 1.834-1.215V8.63c0-.755-.595-1.183-1.668-1.183h-2.512v2.427l2.346.004Zm.678 4.633c1.124 0 1.8-.398 1.8-1.248v-.033c0-.772-.577-1.248-1.883-1.248h-2.94v2.525l3.023.004Zm6.836-9.282h2.347l5.417 7.081V5.225h2.51v11.5h-2.165l-5.6-7.311v7.31h-2.51l.001-11.495Zm13.46 0h5.373c1.321 0 2.362.362 3.022 1.019a2.639 2.639 0 0 1 .793 1.955v.032c0 1.298-.694 2.022-1.52 2.481 1.337.51 2.164 1.282 2.164 2.826v.027c0 2.103-1.717 3.154-4.327 3.154h-5.506l.002-11.494Zm4.823 4.653c1.124 0 1.834-.36 1.834-1.215v-.033c0-.755-.595-1.183-1.668-1.183h-2.512v2.423l2.346.008Zm.683 4.625c1.124 0 1.8-.398 1.8-1.248v-.033c0-.772-.577-1.248-1.883-1.248h-2.94v2.525l3.023.004Z" fill="#F0B90B"/></svg>