<svg width="93" height="43" viewBox="0 0 93 43" fill="none" xmlns="http://www.w3.org/2000/svg">
<path d="M40.3015 16V10.2667H38.226V9.14676H43.7847V10.2667H41.6989V16H40.3015ZM46.1175 16.1541C45.6038 16.1541 45.1551 16.0514 44.7715 15.8459C44.3879 15.6335 44.09 15.3253 43.8776 14.9212C43.6653 14.517 43.5591 14.0307 43.5591 13.4621C43.5591 12.558 43.7749 11.8696 44.2064 11.3969C44.6448 10.9174 45.2579 10.6777 46.0456 10.6777C46.6141 10.6777 47.0696 10.801 47.4121 11.0476C47.7615 11.2942 48.0149 11.6469 48.1725 12.1059C48.3369 12.558 48.4156 13.0991 48.4088 13.7293H44.4016L44.2989 12.8457H47.371L47.1244 13.2155C47.1107 12.6744 47.0148 12.2874 46.8367 12.0545C46.6655 11.8148 46.3881 11.6949 46.0045 11.6949C45.7716 11.6949 45.5661 11.7497 45.388 11.8593C45.2168 11.962 45.0832 12.1367 44.9873 12.3833C44.8982 12.6299 44.8537 12.969 44.8537 13.4005C44.8537 13.9348 44.9804 14.3458 45.2339 14.6335C45.4873 14.9143 45.8743 15.0547 46.3949 15.0547C46.6073 15.0547 46.8093 15.0342 47.0011 14.9931C47.1998 14.9451 47.3813 14.8903 47.5457 14.8287C47.7169 14.767 47.8608 14.7088 47.9772 14.654V15.8048C47.7375 15.9075 47.4635 15.9897 47.1553 16.0514C46.8539 16.1199 46.508 16.1541 46.1175 16.1541ZM51.5389 16.1644C51.0046 16.1644 50.597 16.0342 50.3162 15.774C50.0353 15.5068 49.8949 15.1232 49.8949 14.6232V11.849H49.0935V10.8215H49.8949V9.39335H51.2409V10.8215H52.4431V11.849H51.2409V14.4177C51.2409 14.63 51.282 14.7876 51.3642 14.8903C51.4464 14.9931 51.5903 15.0445 51.7957 15.0445C51.9053 15.0445 52.0184 15.0273 52.1348 14.9931C52.2581 14.952 52.3609 14.904 52.4431 14.8492V15.9795C52.3061 16.0479 52.1554 16.0959 51.991 16.1233C51.8334 16.1507 51.6827 16.1644 51.5389 16.1644ZM53.6497 16V8.70494H54.9546V11.7154L54.4717 11.4072C54.7457 11.1949 55.0573 11.0236 55.4067 10.8935C55.756 10.7633 56.1054 10.6982 56.4547 10.6982C56.8451 10.6982 57.1842 10.7633 57.4719 10.8935C57.7596 11.0236 57.9822 11.236 58.1397 11.5305C58.3041 11.8182 58.3863 12.2086 58.3863 12.7018V16H57.0815V12.9279C57.0815 12.5443 56.989 12.26 56.804 12.0751C56.6259 11.8833 56.3554 11.7874 55.9923 11.7874C55.8074 11.7874 55.6224 11.8148 55.4375 11.8696C55.2526 11.9244 55.0916 11.9929 54.9546 12.0751L54.9443 16H53.6497ZM62.1015 16.1541C61.5878 16.1541 61.1391 16.0514 60.7555 15.8459C60.372 15.6335 60.074 15.3253 59.8616 14.9212C59.6493 14.517 59.5431 14.0307 59.5431 13.4621C59.5431 12.558 59.7589 11.8696 60.1904 11.3969C60.6288 10.9174 61.2419 10.6777 62.0296 10.6777C62.5982 10.6777 63.0537 10.801 63.3962 11.0476C63.7455 11.2942 63.9989 11.6469 64.1565 12.1059C64.3209 12.558 64.3997 13.0991 64.3928 13.7293H60.3857L60.2829 12.8457H63.3551L63.1085 13.2155C63.0948 12.6744 62.9989 12.2874 62.8208 12.0545C62.6495 11.8148 62.3721 11.6949 61.9885 11.6949C61.7556 11.6949 61.5501 11.7497 61.372 11.8593C61.2008 11.962 61.0672 12.1367 60.9713 12.3833C60.8823 12.6299 60.8377 12.969 60.8377 13.4005C60.8377 13.9348 60.9645 14.3458 61.2179 14.6335C61.4714 14.9143 61.8584 15.0547 62.379 15.0547C62.5913 15.0547 62.7934 15.0342 62.9852 14.9931C63.1838 14.9451 63.3653 14.8903 63.5297 14.8287C63.701 14.767 63.8448 14.7088 63.9613 14.654V15.8048C63.7215 15.9075 63.4475 15.9897 63.1393 16.0514C62.8379 16.1199 62.492 16.1541 62.1015 16.1541ZM65.5399 16V11.325C65.6358 11.2634 65.8036 11.1812 66.0433 11.0784C66.2899 10.9757 66.5742 10.8866 66.8961 10.8113C67.2181 10.7291 67.5435 10.688 67.8722 10.688C68.1188 10.688 68.3141 10.7085 68.4579 10.7496C68.6086 10.7839 68.725 10.8284 68.8072 10.8832V11.8696C68.6702 11.849 68.5127 11.8319 68.3346 11.8182C68.1634 11.8045 67.9853 11.8011 67.8003 11.8079C67.6222 11.8079 67.4476 11.8148 67.2763 11.8285C67.1119 11.8422 66.9681 11.8593 66.8448 11.8798V16H65.5399ZM41.0002 25.1541C40.4865 25.1541 40.0378 25.0514 39.6542 24.8459C39.2706 24.6335 38.9727 24.3253 38.7603 23.9212C38.548 23.517 38.4418 23.0307 38.4418 22.4621C38.4418 21.558 38.6576 20.8696 39.0891 20.3969C39.5275 19.9174 40.1406 19.6777 40.9283 19.6777C41.4968 19.6777 41.9523 19.801 42.2948 20.0476C42.6442 20.2942 42.8976 20.6469 43.0552 21.1059C43.2196 21.558 43.2983 22.0991 43.2915 22.7293H39.2843L39.1816 21.8457H42.2537L42.0071 22.2155C41.9934 21.6744 41.8975 21.2874 41.7195 21.0545C41.5482 20.8148 41.2708 20.6949 40.8872 20.6949C40.6543 20.6949 40.4488 20.7497 40.2707 20.8593C40.0995 20.962 39.9659 21.1367 39.87 21.3833C39.781 21.6299 39.7364 21.969 39.7364 22.4005C39.7364 22.9348 39.8632 23.3458 40.1166 23.6335C40.37 23.9143 40.7571 24.0547 41.2776 24.0547C41.49 24.0547 41.6921 24.0342 41.8838 23.9931C42.0825 23.9451 42.264 23.8903 42.4284 23.8287C42.5997 23.767 42.7435 23.7088 42.8599 23.654V24.8048C42.6202 24.9075 42.3462 24.9897 42.038 25.0514C41.7366 25.1199 41.3907 25.1541 41.0002 25.1541ZM44.4386 25V20.325C44.5345 20.2634 44.7023 20.1812 44.942 20.0784C45.1886 19.9757 45.4729 19.8866 45.7948 19.8113C46.1168 19.7291 46.4421 19.688 46.7709 19.688C47.0175 19.688 47.2127 19.7085 47.3566 19.7496C47.5073 19.7839 47.6237 19.8284 47.7059 19.8832V20.8696C47.5689 20.849 47.4114 20.8319 47.2333 20.8182C47.062 20.8045 46.8839 20.8011 46.699 20.8079C46.5209 20.8079 46.3462 20.8148 46.175 20.8285C46.0106 20.8422 45.8667 20.8593 45.7435 20.8798V25H44.4386ZM50.805 25.113C50.4625 25.113 50.1338 25.0651 49.8187 24.9692C49.5036 24.8733 49.2227 24.7192 48.9761 24.5068C48.7295 24.2945 48.5343 24.0205 48.3905 23.6848C48.2466 23.3492 48.1747 22.9416 48.1747 22.4621C48.1747 21.9621 48.2432 21.5374 48.3802 21.1881C48.5172 20.8387 48.7056 20.5545 48.9453 20.3353C49.1851 20.1092 49.4625 19.9483 49.7776 19.8524C50.0995 19.7496 50.4386 19.6982 50.7948 19.6982C51.0688 19.6982 51.3496 19.7256 51.6373 19.7804C51.925 19.8352 52.1819 19.914 52.4079 20.0168V21.147C52.175 21.0442 51.9421 20.962 51.7092 20.9004C51.4763 20.8319 51.2366 20.7976 50.99 20.7976C50.5105 20.7976 50.1372 20.9175 49.87 21.1573C49.6029 21.397 49.4693 21.7909 49.4693 22.3388C49.4693 22.9005 49.5892 23.3184 49.8289 23.5924C50.0755 23.8664 50.4797 24.0034 51.0414 24.0034C51.2948 24.0034 51.5414 23.9657 51.7811 23.8903C52.0209 23.8081 52.2332 23.7191 52.4182 23.6232V24.7637C52.1784 24.8801 51.9284 24.9658 51.6681 25.0205C51.4078 25.0822 51.1201 25.113 50.805 25.113ZM56.4797 25V23.9828C56.7126 23.8321 56.9695 23.6506 57.2503 23.4382C57.538 23.219 57.8189 22.9793 58.0929 22.719C58.3737 22.4519 58.6272 22.1779 58.8532 21.897C59.0861 21.6093 59.271 21.3251 59.408 21.0442C59.5519 20.7634 59.6238 20.4962 59.6238 20.2428C59.6238 20.0168 59.5759 19.825 59.48 19.6674C59.3841 19.503 59.2368 19.3763 59.0381 19.2873C58.8463 19.1982 58.6066 19.1537 58.3189 19.1537C57.9627 19.1537 57.6408 19.2256 57.3531 19.3694C57.0654 19.5133 56.7948 19.6811 56.5414 19.8729V18.6297C56.8017 18.4721 57.1065 18.3317 57.4558 18.2084C57.8052 18.0851 58.2162 18.0235 58.6888 18.0235C59.2094 18.0235 59.6409 18.1125 59.9834 18.2906C60.3328 18.4618 60.5931 18.7016 60.7643 19.0098C60.9355 19.3181 61.0212 19.6743 61.0212 20.0784C61.0212 20.4003 60.9527 20.712 60.8157 21.0134C60.6787 21.3148 60.4972 21.6059 60.2711 21.8868C60.0519 22.1676 59.8053 22.4347 59.5313 22.6882C59.2642 22.9348 58.9936 23.1677 58.7196 23.3869C58.4456 23.5992 58.1922 23.791 57.9593 23.9623L57.6613 23.7054H61.1445V25H56.4797ZM65.2914 25.1233C64.3051 25.1233 63.5756 24.8288 63.1029 24.2397C62.6303 23.6506 62.394 22.767 62.394 21.5888C62.394 20.4106 62.6303 19.527 63.1029 18.9379C63.5756 18.342 64.3051 18.044 65.2914 18.044C66.2847 18.044 67.0176 18.342 67.4902 18.9379C67.9629 19.527 68.1992 20.4106 68.1992 21.5888C68.1992 22.767 67.9629 23.6506 67.4902 24.2397C67.0176 24.8288 66.2847 25.1233 65.2914 25.1233ZM65.2914 23.9725C65.4695 23.9725 65.6476 23.9451 65.8257 23.8903C66.0038 23.8355 66.1648 23.7294 66.3086 23.5718C66.4525 23.4074 66.5655 23.1677 66.6477 22.8526C66.7367 22.5306 66.7813 22.1094 66.7813 21.5888C66.7813 21.0614 66.7367 20.6401 66.6477 20.325C66.5655 20.0099 66.4525 19.7736 66.3086 19.616C66.1648 19.4516 66.0038 19.3421 65.8257 19.2873C65.6476 19.2256 65.4695 19.1948 65.2914 19.1948C65.1133 19.1948 64.9352 19.2256 64.7572 19.2873C64.5859 19.3421 64.4284 19.4516 64.2845 19.616C64.1407 19.7736 64.0242 20.0099 63.9352 20.325C63.853 20.6401 63.8119 21.0614 63.8119 21.5888C63.8119 22.1094 63.853 22.5306 63.9352 22.8526C64.0242 23.1677 64.1407 23.4074 64.2845 23.5718C64.4284 23.7294 64.5859 23.8355 64.7572 23.8903C64.9352 23.9451 65.1133 23.9725 65.2914 23.9725Z" fill="#1A1A1A"></path>
<path d="M40.5095 34.0178C39.9099 34.0178 39.4433 33.8414 39.1097 33.4884C38.7809 33.1354 38.6165 32.6301 38.6165 31.9726V29.1077H39.1387V32.0016C39.1387 32.5189 39.2547 32.9033 39.4868 33.1548C39.7189 33.4014 40.0598 33.5247 40.5095 33.5247C40.9591 33.5247 41.3024 33.4014 41.5393 33.1548C41.7763 32.9033 41.8947 32.5189 41.8947 32.0016V29.1077H42.4024V31.9726C42.4024 32.4126 42.3275 32.7849 42.1776 33.0895C42.0277 33.3941 41.8125 33.6262 41.5321 33.7858C41.2516 33.9405 40.9108 34.0178 40.5095 34.0178ZM45.0089 34.0178C44.7672 34.0178 44.5617 34.0009 44.3924 33.9671C44.2232 33.9332 44.0709 33.8849 43.9355 33.822C43.8001 33.7592 43.6527 33.6866 43.4931 33.6044V33.0387C43.6478 33.1693 43.8557 33.2853 44.1168 33.3869C44.3779 33.4884 44.6826 33.5392 45.0307 33.5392C45.3982 33.5392 45.6641 33.4618 45.8285 33.3071C45.9977 33.1475 46.0823 32.9469 46.0823 32.7051C46.0823 32.502 46.0267 32.34 45.9155 32.2192C45.8043 32.0934 45.6617 31.9919 45.4876 31.9145C45.3135 31.8323 45.1298 31.755 44.9364 31.6825C44.772 31.6244 44.6076 31.564 44.4432 31.5011C44.2837 31.4334 44.1386 31.3512 44.0081 31.2545C43.8775 31.153 43.7735 31.0249 43.6962 30.8701C43.6188 30.7106 43.5801 30.5123 43.5801 30.2754C43.5801 30.1449 43.6043 30.0071 43.6527 29.862C43.7059 29.717 43.7881 29.5816 43.8993 29.4559C44.0153 29.3301 44.1676 29.2286 44.3562 29.1512C44.5496 29.0739 44.7841 29.0352 45.0597 29.0352C45.2483 29.0352 45.4078 29.0497 45.5384 29.0787C45.6738 29.1029 45.8019 29.1416 45.9228 29.1948C46.0437 29.2431 46.179 29.3036 46.3289 29.3761V29.9128C46.2032 29.8403 46.0823 29.775 45.9663 29.717C45.8551 29.6541 45.7294 29.6058 45.5892 29.5719C45.4538 29.5332 45.287 29.5139 45.0887 29.5139C44.8518 29.5139 44.6608 29.5477 44.5157 29.6154C44.3755 29.6831 44.2716 29.7726 44.2039 29.8838C44.141 29.995 44.1096 30.1134 44.1096 30.2392C44.1096 30.4374 44.1531 30.5945 44.2401 30.7106C44.332 30.8266 44.4577 30.9233 44.6173 31.0007C44.7817 31.0732 44.9702 31.1458 45.183 31.2183C45.3522 31.2763 45.5215 31.3416 45.6907 31.4141C45.8599 31.4818 46.0122 31.5688 46.1476 31.6752C46.2878 31.7767 46.399 31.9073 46.4812 32.0669C46.5683 32.2216 46.6118 32.415 46.6118 32.6471C46.6118 32.8647 46.5634 33.0798 46.4667 33.2926C46.37 33.5005 46.2056 33.6745 45.9735 33.8148C45.7415 33.9501 45.4199 34.0178 45.0089 34.0178ZM47.6612 33.9453V29.1077H49.177C49.9313 29.1077 50.497 29.3108 50.8741 29.717C51.2561 30.1183 51.4471 30.7203 51.4471 31.5229C51.4471 32.3255 51.2561 32.9299 50.8741 33.3361C50.497 33.7422 49.9313 33.9453 49.177 33.9453H47.6612ZM48.1834 33.4521H49.1407C49.7596 33.4521 50.2093 33.2974 50.4897 32.9879C50.7702 32.6785 50.9104 32.1901 50.9104 31.5229C50.9104 30.8556 50.7702 30.3673 50.4897 30.0578C50.2093 29.7484 49.7596 29.5937 49.1407 29.5937H48.1834V33.4521ZM53.7389 33.9453V29.6009H52.0273V29.1077H55.9655V29.6009H54.2611V33.9453H53.7389Z" fill="#1A1A1A"></path>
<path d="M28.1105 21.42C28.1105 28.8486 21.9127 34.8702 14.267 34.8702C6.62156 34.8702 0.423584 28.8486 0.423584 21.42C0.423584 13.9915 6.62156 7.96973 14.267 7.96973C21.9127 7.96973 28.1105 13.9915 28.1105 21.42Z" fill="#1BA27A"></path>
<path d="M20.7641 14.752H7.65576V17.8267H12.6276V22.346H15.7922V17.8267H20.7641V14.752Z" fill="white"></path>
<path d="M14.2399 22.8278C10.1271 22.8278 6.79259 22.1954 6.79259 21.4152C6.79259 20.635 10.1269 20.0025 14.2399 20.0025C18.3528 20.0025 21.6871 20.635 21.6871 21.4152C21.6871 22.1954 18.3528 22.8278 14.2399 22.8278ZM22.602 21.6507C22.602 20.6446 18.8582 19.8291 14.2399 19.8291C9.62177 19.8291 5.87769 20.6446 5.87769 21.6507C5.87769 22.5366 8.78078 23.2748 12.6277 23.4383V29.9258H15.792V23.4409C19.6686 23.2825 22.602 22.5412 22.602 21.6507Z" fill="white"></path>
<path d="M26.0137 29.2984C30.3657 29.2984 33.8937 25.865 33.8937 21.6296C33.8937 17.3943 30.3657 13.9609 26.0137 13.9609C21.6618 13.9609 18.1338 17.3943 18.1338 21.6296C18.1338 25.865 21.6618 29.2984 26.0137 29.2984Z" fill="#5364F6"></path>
<g clip-path="url('#clip0_427_11242')">
<g opacity="0.6">
<path opacity="0.6" d="M26.0674 20.5811L22.9109 22.0266L26.0674 23.9043L29.2226 22.0266L26.0674 20.5811Z" fill="#010101"></path>
</g>
<g opacity="0.45">
<path opacity="0.45" d="M22.9109 22.0265L26.0674 23.9042V16.7529L22.9109 22.0265Z" fill="#010101"></path>
</g>
<g opacity="0.8">
<path opacity="0.8" d="M26.0674 16.7529V23.9042L29.2226 22.0265L26.0674 16.7529Z" fill="#010101"></path>
</g>
<g opacity="0.45">
<path opacity="0.45" d="M22.9109 22.6289L26.0674 27.1066V24.5067L22.9109 22.6289Z" fill="#010101"></path>
</g>
<g opacity="0.8">
<path opacity="0.8" d="M26.0674 24.5067V27.1066L29.2251 22.6289L26.0674 24.5067Z" fill="#010101"></path>
</g>
</g>
<defs>
<clipPath id="clip0_427_11242">
<rect width="6.8" height="10.6104" fill="white" transform="translate(22.6667 16.7529)"></rect>
</clipPath>
</defs>
</svg>
