<svg width="93" height="43" fill="none" xmlns="http://www.w3.org/2000/svg"><path d="M40.301 16v-5.733h-2.075v-1.12h5.559v1.12h-2.086V16H40.3Zm5.816.154c-.513 0-.962-.103-1.345-.308a2.199 2.199 0 0 1-.894-.925c-.213-.404-.319-.89-.319-1.459 0-.904.216-1.592.647-2.065.439-.48 1.052-.72 1.84-.72.568 0 1.024.124 1.366.37.35.247.603.6.76 1.059.165.452.244.993.237 1.623h-4.007l-.103-.883h3.072l-.247.37c-.013-.542-.11-.929-.287-1.161-.172-.24-.449-.36-.833-.36-.232 0-.438.055-.616.164-.171.103-.305.278-.4.524-.09.247-.134.586-.134 1.018 0 .534.126.945.38 1.232.253.281.64.422 1.16.422.213 0 .415-.02.607-.062.199-.048.38-.103.545-.164.17-.062.315-.12.431-.175v1.15c-.24.104-.513.186-.822.247a4.71 4.71 0 0 1-1.038.103Zm5.422.01c-.534 0-.942-.13-1.223-.39-.28-.267-.421-.65-.421-1.15v-2.775h-.802v-1.027h.802V9.393h1.346v1.428h1.202v1.028h-1.202v2.569c0 .212.041.37.123.472.082.103.226.154.432.154a1.201 1.201 0 0 0 .647-.195v1.13a1.592 1.592 0 0 1-.452.144 2.641 2.641 0 0 1-.452.041Zm2.11-.164V8.705h1.306v3.01l-.483-.308a3.52 3.52 0 0 1 .935-.514c.349-.13.698-.195 1.048-.195.39 0 .73.065 1.017.195.288.13.51.343.668.637.164.288.246.679.246 1.172V16h-1.305v-3.072c0-.384-.092-.668-.277-.853-.178-.192-.449-.288-.812-.288-.185 0-.37.028-.554.083a2.092 2.092 0 0 0-.483.205L54.945 16H53.65Zm8.453.154c-.514 0-.963-.103-1.346-.308a2.2 2.2 0 0 1-.894-.925c-.213-.404-.319-.89-.319-1.459 0-.904.216-1.592.647-2.065.439-.48 1.052-.72 1.84-.72.568 0 1.024.124 1.366.37.35.247.603.6.76 1.059.165.452.244.993.237 1.623h-4.007l-.103-.883h3.072l-.246.37c-.014-.542-.11-.929-.288-1.161-.171-.24-.449-.36-.832-.36-.233 0-.439.055-.617.164-.171.103-.305.278-.4.524-.09.247-.134.586-.134 1.018 0 .534.127.945.38 1.232.253.281.64.422 1.161.422.212 0 .414-.02.606-.062.199-.048.38-.103.545-.164.171-.062.315-.12.431-.175v1.15c-.24.104-.514.186-.822.247a4.71 4.71 0 0 1-1.038.103ZM65.54 16v-4.675c.096-.062.264-.144.503-.247.247-.102.531-.191.853-.267.322-.082.647-.123.976-.123.247 0 .442.02.586.062.15.034.267.078.35.133v.987a6.64 6.64 0 0 0-.473-.052 4.587 4.587 0 0 0-.535-.01 6.57 6.57 0 0 0-.524.02 5.4 5.4 0 0 0-.431.052V16H65.54ZM41 25.154c-.514 0-.962-.103-1.346-.308a2.199 2.199 0 0 1-.894-.925c-.212-.404-.318-.89-.318-1.459 0-.904.216-1.592.647-2.065.439-.48 1.052-.72 1.84-.72.568 0 1.023.124 1.366.37.35.247.603.6.76 1.059.165.452.243.993.236 1.623h-4.007l-.102-.883h3.072l-.247.37c-.014-.542-.11-.929-.288-1.162-.17-.24-.448-.36-.832-.36-.233 0-.438.056-.616.165-.172.103-.305.278-.401.524-.089.247-.134.586-.134 1.018 0 .534.127.945.38 1.233.254.28.641.42 1.162.42.212 0 .414-.02.606-.06.199-.049.38-.104.544-.165a5.05 5.05 0 0 0 .432-.175v1.15c-.24.104-.514.186-.822.247a4.71 4.71 0 0 1-1.038.103ZM44.44 25v-4.675c.096-.062.263-.144.503-.247.247-.102.53-.191.853-.267.322-.082.647-.123.976-.123.246 0 .442.02.586.062.15.034.267.078.349.133v.987a6.64 6.64 0 0 0-.473-.052 4.588 4.588 0 0 0-.534-.01c-.178 0-.353.007-.524.02-.164.014-.308.031-.431.052V25h-1.305Zm6.366.113c-.343 0-.671-.048-.986-.144a2.305 2.305 0 0 1-.843-.462 2.213 2.213 0 0 1-.585-.822c-.144-.336-.216-.743-.216-1.223 0-.5.068-.925.205-1.274.137-.35.326-.633.565-.853a2.08 2.08 0 0 1 .833-.483 3.324 3.324 0 0 1 1.017-.154c.274 0 .555.028.842.082.288.055.545.134.77.237v1.13a4.717 4.717 0 0 0-.698-.247 2.535 2.535 0 0 0-.719-.102c-.48 0-.853.12-1.12.36-.267.239-.4.633-.4 1.18 0 .563.12.98.359 1.254.246.274.65.411 1.212.411.254 0 .5-.037.74-.113.24-.082.452-.17.637-.267v1.14c-.24.117-.49.203-.75.257-.26.062-.548.093-.863.093ZM56.48 25v-1.017c.233-.15.49-.332.77-.545.288-.219.569-.459.843-.719.28-.267.534-.541.76-.822.233-.288.418-.572.555-.853a1.76 1.76 0 0 0 .216-.801c0-.226-.048-.418-.144-.576a.934.934 0 0 0-.442-.38 1.706 1.706 0 0 0-.72-.133 2.13 2.13 0 0 0-.965.215 5.184 5.184 0 0 0-.812.504V18.63a4.94 4.94 0 0 1 .915-.422c.35-.123.76-.184 1.233-.184.52 0 .952.088 1.294.267.35.17.61.41.781.719.171.308.257.664.257 1.068 0 .322-.068.634-.205.935a4.1 4.1 0 0 1-.545.874c-.22.28-.466.548-.74.801-.267.247-.537.48-.811.699a38.33 38.33 0 0 1-.76.575l-.299-.257h3.483V25H56.48Zm8.811.123c-.986 0-1.715-.294-2.188-.883-.473-.59-.709-1.473-.709-2.651 0-1.178.236-2.062.709-2.651.473-.596 1.202-.894 2.188-.894.994 0 1.727.298 2.2.894.472.589.708 1.473.708 2.65 0 1.179-.236 2.063-.709 2.652-.472.589-1.205.883-2.199.883Zm0-1.15c.178 0 .357-.028.535-.083.178-.055.339-.16.483-.318.144-.165.257-.404.339-.72.089-.321.133-.743.133-1.263 0-.528-.044-.949-.133-1.264-.082-.315-.195-.551-.34-.709a1.054 1.054 0 0 0-.482-.329 1.623 1.623 0 0 0-.535-.092c-.178 0-.356.03-.534.092a1.063 1.063 0 0 0-.473.329c-.143.158-.26.394-.349.709-.082.315-.123.736-.123 1.264 0 .52.041.942.123 1.264.09.315.206.554.35.719.143.157.3.264.472.318.178.055.356.082.534.082ZM40.51 34.018c-.6 0-1.067-.177-1.4-.53-.33-.353-.493-.858-.493-1.515v-2.865h.522v2.894c0 .517.116.901.348 1.153.232.246.573.37 1.023.37.45 0 .792-.124 1.03-.37.236-.252.355-.636.355-1.153v-2.894h.507v2.865c0 .44-.075.812-.224 1.117-.15.304-.365.536-.646.696-.28.154-.621.232-1.022.232Zm4.499 0c-.242 0-.447-.017-.617-.05a2.027 2.027 0 0 1-.457-.146 12.02 12.02 0 0 1-.442-.218v-.565c.155.13.363.246.624.348.26.101.566.152.914.152.367 0 .633-.077.797-.232.17-.16.254-.36.254-.602 0-.203-.055-.365-.166-.486a1.225 1.225 0 0 0-.428-.305 7.258 7.258 0 0 0-.552-.232 20.434 20.434 0 0 1-.493-.18 2.116 2.116 0 0 1-.435-.247 1.103 1.103 0 0 1-.312-.385 1.357 1.357 0 0 1-.116-.595c0-.13.024-.268.073-.413.053-.145.135-.28.246-.406a1.26 1.26 0 0 1 .457-.305c.194-.077.428-.116.704-.116a2.246 2.246 0 0 1 .863.16c.12.048.256.109.406.181v.537a6.942 6.942 0 0 0-.363-.196 1.847 1.847 0 0 0-.878-.203c-.236 0-.427.034-.572.101a.716.716 0 0 0-.312.269.71.71 0 0 0-.094.355c0 .198.043.355.13.472.092.116.218.212.377.29.165.072.353.145.566.217.17.058.339.124.508.196.169.068.321.155.457.261a1.17 1.17 0 0 1 .464.972c0 .218-.049.433-.145.646a1.212 1.212 0 0 1-.493.522c-.232.135-.554.203-.965.203Zm2.652-.073v-4.837h1.516c.754 0 1.32.203 1.697.609.382.401.573 1.003.573 1.806 0 .802-.19 1.407-.573 1.813-.377.406-.943.61-1.697.61h-1.516Zm.522-.493h.958c.619 0 1.068-.155 1.349-.464.28-.31.42-.798.42-1.465s-.14-1.156-.42-1.465c-.28-.31-.73-.464-1.35-.464h-.957v3.858Zm5.556.493v-4.344h-1.712v-.493h3.938v.493h-1.704v4.344h-.522Z" fill="#1A1A1A"/><path d="M28.11 21.42c0 7.429-6.197 13.45-13.843 13.45C6.622 34.87.424 28.85.424 21.42c0-7.429 6.198-13.45 13.843-13.45 7.646 0 13.843 6.022 13.843 13.45Z" fill="#1BA27A"/><path d="M20.764 14.752H7.656v3.075h4.972v4.519h3.164v-4.52h4.972v-3.074Z" fill="#fff"/><path d="M14.24 22.828c-4.113 0-7.447-.633-7.447-1.413s3.334-1.412 7.447-1.412c4.113 0 7.447.632 7.447 1.412 0 .78-3.334 1.413-7.447 1.413Zm8.362-1.177c0-1.006-3.744-1.822-8.362-1.822s-8.362.816-8.362 1.822c0 .886 2.903 1.624 6.75 1.787v6.488h3.164V23.44c3.877-.159 6.81-.9 6.81-1.79Z" fill="#fff"/><path d="M26.014 29.298c4.352 0 7.88-3.433 7.88-7.668 0-4.236-3.528-7.67-7.88-7.67s-7.88 3.434-7.88 7.67c0 4.235 3.528 7.668 7.88 7.668Z" fill="#5364F6"/><g clip-path="url('#clip0_427_11242')"><path opacity=".6" d="m26.067 20.581-3.156 1.446 3.156 1.877 3.156-1.877-3.156-1.446Z" fill="#010101"/><path opacity=".45" d="m22.91 22.026 3.157 1.878v-7.151l-3.156 5.273Z" fill="#010101"/><path opacity=".8" d="M26.067 16.753v7.151l3.156-1.878-3.156-5.273Z" fill="#010101"/><path opacity=".45" d="m22.91 22.629 3.157 4.478v-2.6l-3.156-1.878Z" fill="#010101"/><path opacity=".8" d="M26.067 24.507v2.6l3.158-4.478-3.158 1.878Z" fill="#010101"/></g><defs><clipPath id="clip0_427_11242"><path fill="#fff" transform="translate(22.667 16.753)" d="M0 0h6.8v10.61H0z"/></clipPath></defs></svg>