<svg width="208" height="34" fill="none" xmlns="http://www.w3.org/2000/svg"><g clip-path="url('#clip0_422_35538')"><path d="M49.547 25.602c-.193 2.294-1.339 4.435-3.206 5.989-1.867 1.554-4.315 2.404-6.847 2.378-9.814.046-19.617.046-29.409 0a10.877 10.877 0 0 1-5.703-1.533c-.412-.25-3.44-2.17-4.152-5.534a7.544 7.544 0 0 1-.129-.895c-.038-6.045-.074-12.092-.11-18.14.14-.48.269-.964.427-1.437C.98 4.688 2.12 3.145 3.683 2.014 5.246.882 7.154.216 9.149.106c.889-.05 1.778-.077 2.669-.082 9.01 0 18.017.055 27.027-.024 5.538-.048 9.395 3.086 10.494 7.033.178.409.433.786.755 1.115 2.144 2.805 2.578 8.525-1.246 11.659-1.57 1.286-3.367 2.102-5.518 2.133-1.782.024-3.564.02-5.346.02-6.794 0-13.589-.037-20.383.02-2.265.021-3.582-1.511-3.443-3.13.102-1.22 0-2.452.023-3.676-.02-.7.263-1.378.787-1.89a3.08 3.08 0 0 1 2.018-.853c.377-.02.724-.024 1.083-.024h21.754c.755 0 1.51-.134 2.265-.203 3.325-.442 6.04-2.932 6.564-4.951-2.114 1.526-4.53 1.944-7.025 2.184a14.56 14.56 0 0 0-1.434-1.54c-1.02-.833-2.295-1.028-3.631-1.028H14.158c-.377 0-.755.03-1.132.048-.378.017-.842 0-1.257.037-2.235.179-4.232 2.168-4.235 4.211v11.3c.011.582.118 1.16.317 1.714a4.63 4.63 0 0 0 1.795 2.148 5.357 5.357 0 0 0 2.817.849H34.66c2.499 0 4.999-.044 7.5-.134 1.843-.061 3.624-.425 5.13-1.457.653-.446 1.56-.758 1.578-1.715v.017l.163-.14c.4-.02.456.195.456.497-.022.456.03.905.06 1.358ZM21.863 16c-.755-.805-3.398-.96-4.18-.233-.133.15-.248.314-.343.487l-.109 1.958-.264-.809a.607.607 0 0 0-.14-.03c-.072 0-.15.033-.211 0-.872-.248-.97-.159-.88.623.076.666.185 1.372-.619 1.814-.2.113-.268.419-.506.82.872-.02 1.544-.048 2.212-.048h23.842a23.66 23.66 0 0 0 2.363-.148 5.649 5.649 0 0 0 1.596-.274c1.914-.789 3.673-1.783 4.655-3.57.403-.74.868-1.505 1-2.3.154-1.213.212-2.433.173-3.653a5.392 5.392 0 0 0-.252-1.142 3.08 3.08 0 0 0-.71 1.468 2.56 2.56 0 0 1-.362 1.116 2.84 2.84 0 0 1-.838.88 15.448 15.448 0 0 1-3.888 2.057c-2.533.864-5.232.981-7.927.981H22.414l-.212.556-.34-.553Z" fill="#D60242"/><path d="M64.892 23.922v7.753c0 1.029-.378 1.4-1.51 1.416-.914 0-1.83.018-2.744 0-.914-.017-1.299-.394-1.34-1.227V9.396c0-.909.313-1.241 1.298-1.29a15.02 15.02 0 0 1 1.8 0c.34.015.67.101.965.251.296.15.55.36.742.614.204.267.411.528.657.84 1.132-1.067 2.43-1.855 4.012-2.099 5.745-.884 10.022 1.523 10.871 7.109.4 2.613.102 5.144-1.272 7.52-1.604 2.743-4.193 3.971-7.572 3.937-2.26.003-4.273-.587-5.907-2.356Zm9.165-7.126a6.514 6.514 0 0 0-.755-3.37c-.82-1.441-2.182-2.01-3.896-2.058-1.713-.048-3.174.449-3.93 1.937a7.585 7.585 0 0 0-.88 3.45 7.566 7.566 0 0 0 .802 3.467c.713 1.515 2.117 2.266 3.974 2.236a4.673 4.673 0 0 0 2.73-.803 4.039 4.039 0 0 0 1.211-1.57 6.767 6.767 0 0 0 .744-3.289ZM158.671 7.338c2.171.052 3.915.21 5.557.85 3.288 1.283 4.873 3.69 5.386 6.794a11.543 11.543 0 0 1-.196 4.77c-.891 3.563-3.673 5.908-7.67 6.515-2.067.339-4.187.3-6.236-.116-3.722-.803-5.979-2.936-6.844-6.282-.571-2.141-.516-4.38.159-6.495 1.049-3.285 3.552-5.144 7.217-5.748 1.008-.174 2.024-.216 2.627-.288Zm.529 15.126c2.416 0 3.979-.984 4.639-3.031a8.138 8.138 0 0 0 0-5.048c-.237-.875-.8-1.649-1.593-2.19-1.551-.999-3.239-.989-4.967-.536-.5.122-.966.338-1.369.633a3.481 3.481 0 0 0-.972 1.082c-.992 1.714-1.038 3.528-.66 5.37.506 2.496 2.166 3.727 4.922 3.734v-.014ZM96.524 24.704c-2.582 1.56-5.537 1.872-8.625 1.42-4.258-.61-6.327-4.263-4.31-7.596.735-1.22 2.019-1.838 3.427-2.246 2.347-.686 4.786-.686 7.217-.751h2.197c.045-.622.045-1.247 0-1.87-.163-1.072-.951-1.69-2.057-1.964-1.888-.473-3.82-.367-5.73-.09-.974.145-1.93.368-2.896.546-1.132.21-1.645-.206-1.51-1.272.021-.46.182-.907.464-1.29a2.703 2.703 0 0 1 1.137-.88 19.62 19.62 0 0 1 4.031-1.132 17.633 17.633 0 0 1 7.297.322c3.141.885 4.582 2.88 4.624 5.658.038 2.442-.094 4.88-.151 7.321v.525c.034 1.029.245 1.22 1.363 1.276 1.253.058 1.51.342 1.238 1.464a2.251 2.251 0 0 1-.521 1.028 2.571 2.571 0 0 1-.989.686 5.782 5.782 0 0 1-2.377.465 5.756 5.756 0 0 1-2.357-.543 8.901 8.901 0 0 1-1.472-1.077Zm-.536-6.372c-.611 0-1.234-.04-1.846 0a31.152 31.152 0 0 0-3.774.402c-1.235.253-1.774 1.028-1.748 2.105-.014.477.163.942.498 1.31.336.366.807.61 1.325.686 3.288.72 5.82-.984 5.545-4.503ZM115.492 21.398l4.239-11.687c.191-.445.422-.875.691-1.286a.853.853 0 0 1 .355-.308c1.487-.686 3.069-.686 4.658-.47.555.075.691.651.4 1.31a6956.071 6956.071 0 0 0-3.069 6.923c-1.547 3.505-3.061 7.02-4.647 10.51a14.221 14.221 0 0 1-3.197 4.716c-1.887 1.766-4.265 2.17-6.836 1.937a6.534 6.534 0 0 1-1.6-.363 2.052 2.052 0 0 1-1.072-.748 1.75 1.75 0 0 1-.333-1.19c.027-.686.25-.888 1.005-.926.755-.037 1.536-.061 2.306-.116 1.827-.137 2.971-1.08 3.665-2.572a2.72 2.72 0 0 0 .302-1.241c0-.43-.103-.853-.302-1.242-2.329-5.003-4.571-10.04-6.84-15.067a2.536 2.536 0 0 1-.237-.686c-.114-.727.192-1.111.992-1.135 1.227-.035 2.458 0 3.684 0 .808 0 1.171.49 1.39 1.128 1.114 3.271 2.233 6.543 3.355 9.814.31.905.634 1.81.952 2.712l.139-.013ZM193.924 18.332c.117 2.113 1.714 3.635 4.069 3.992 2.231.343 4.409.065 6.572-.432.627-.148 1.265-.268 1.887-.391a.934.934 0 0 1 .664.08.815.815 0 0 1 .252.21c.068.084.116.18.141.283.378.898.031 1.882-.917 2.554-1.174.83-2.559 1.19-3.986 1.42-2.562.467-5.21.36-7.716-.315-3.944-1.139-5.971-3.707-6.477-7.36a11.422 11.422 0 0 1 .377-4.94c.926-3.087 3.106-5.004 6.538-5.752a14.374 14.374 0 0 1 6.572.072c3.397.858 5.285 2.994 5.87 6.084.187 1.099.262 2.211.223 3.323 0 .888-.272 1.083-1.239 1.093-3.903.042-7.802.049-11.701.066l-1.129.013Zm8.931-3.004c.091-2.842-1.393-4.324-4.247-4.307-2.766.021-4.62 1.228-4.654 4.307h8.901ZM128.039 17.283c-.052-2.027.197-3.697 1.016-5.236 1.51-2.809 4.126-4.177 7.436-4.55 2.059-.272 4.16-.09 6.127.527 1.581.521 2.442 1.437 2.449 2.613.008 1.176-.547 1.55-1.796 1.214a22.824 22.824 0 0 0-3.337-.758c-3.08-.343-5.285 1.084-5.957 3.772a7.247 7.247 0 0 0 .279 4.397c.755 1.992 2.892 3.161 5.478 2.866a43.741 43.741 0 0 0 4.344-.867c.963-.21 1.318 0 1.389.922.087 1.187-.83 2.49-2.185 3.066a12.251 12.251 0 0 1-6.138.826 14.476 14.476 0 0 1-3.291-.665c-3.22-1.139-4.953-3.43-5.576-6.436-.139-.662-.188-1.348-.238-1.691ZM178.225 9.183c1.748-1.625 3.85-2.174 6.262-1.591 2.042.497 2.926 2.4 1.982 4.115-.264.476-.615.535-1.182.435a14.055 14.055 0 0 0-3.11-.342c-2.231.11-3.586 1.505-3.597 3.542v9.118c0 1.118-.34 1.464-1.563 1.498-.842.028-1.684.031-2.525 0-1.133-.044-1.488-.414-1.488-1.433V9.039c0-.912.378-1.269 1.371-1.317h.29c1.703.048 2.329-.188 3.56 1.461Z" fill="#282828"/><path d="M48.86 23.87c-.018.953-.924 1.266-1.577 1.715-1.51 1.028-3.288 1.395-5.13 1.457-2.5.08-5 .125-7.5.134-7.4.014-14.798.014-22.196 0a5.355 5.355 0 0 1-2.81-.853A4.63 4.63 0 0 1 7.86 24.18a5.391 5.391 0 0 1-.317-1.715c-.026-3.772 0-7.544 0-11.299 0-2.057 2-4.032 4.235-4.21.416-.035.838-.028 1.257-.038-1.853.342-3.118 2.023-3.072 3.703.09 3.501.026 7.002.026 10.504-.021.901.337 1.776 1.002 2.445.665.67 1.587 1.083 2.576 1.155.24.023.48.035.721.034a8428.3 8428.3 0 0 0 30.425-.055 20.15 20.15 0 0 0 3.133-.342c.364-.115.707-.28 1.015-.49Z" fill="#A40328"/><path d="M41.628 9.44c2.487-.24 4.907-.658 7.025-2.184-.525 2.02-3.239 4.51-6.565 4.951-.154-.922-.305-1.844-.46-2.767Z" fill="#A60228"/><path d="M49.547 25.602c-.03-.453-.083-.902-.086-1.372 0-.301-.057-.518-.457-.497l.544-.658v2.527ZM49.005 23.747l-.163.14.163-.14Z" fill="#A40328"/><path d="m22.203 16.552.2-.541h14.065c2.691 0 5.39-.117 7.927-.981a15.448 15.448 0 0 0 3.888-2.058 2.84 2.84 0 0 0 .838-.88c.207-.344.33-.724.362-1.116a3.08 3.08 0 0 1 .71-1.467c.126.372.21.754.253 1.142a23.07 23.07 0 0 1-.174 3.652c-.132.795-.596 1.56-1 2.3-.982 1.787-2.74 2.782-4.654 3.57a5.653 5.653 0 0 1-1.597.275 23.66 23.66 0 0 1-2.363.147H16.817c-.669 0-1.34.028-2.213.048.238-.401.306-.706.506-.82.804-.455.695-1.148.62-1.813-.091-.782 0-.871.879-.625.06 0 .14-.02.211 0a.607.607 0 0 1 .14.031c.098.295.181.552.264.81l.128.28.212.265c.978.864 2.182.686 3.344.545.374-.056.712-.234.951-.502.239-.267.361-.605.344-.948.034-.44 0-.878 0-1.314Z" fill="#E3014A"/><path d="M22.203 16.645c0 .408.023.813 0 1.22.014.344-.111.68-.352.946a1.59 1.59 0 0 1-.954.495c-1.132.134-2.344.315-3.318-.521l-.05-.052-.184-.23-.113-.23a.233.233 0 0 1 0-.05.15.15 0 0 1 0-.045c.094-1.56.113-1.914.105-1.914-.07.269-.026.551.121.792.14.158.427.213 1.027.306.07.01.134.039.185.083a.313.313 0 0 1 .102.163l.022.086a.34.34 0 0 0 .117.17.396.396 0 0 0 .2.08c.213.036.432.032.644-.01.211-.044.41-.125.587-.24.386-.368.656-.824.781-1.32.05-.134.114-.291.265-.343a.15.15 0 0 1 .094 0 .16.16 0 0 1 .057.038l.664.576Z" fill="#FBABCB"/><path d="M17.22 18.23c.046.089.096.181.141.274a6.736 6.736 0 0 0-.14-.274ZM17.356 18.497l.212.264-.212-.264Z" fill="#D60242"/></g><defs><clipPath id="clip0_422_35538"><path fill="#fff" d="M0 0h208v34H0z"/></clipPath></defs></svg>