<svg width="81" height="27" fill="none" xmlns="http://www.w3.org/2000/svg"><path d="M11.494 24.625c5.923 0 10.724-4.966 10.724-11.092S17.417 2.441 11.494 2.441.77 7.407.77 13.533 5.57 24.625 11.494 24.625Z" fill="#26A17B"/><path d="M12.637 14.557v-.002a20.6 20.6 0 0 1-1.308.029c-.681 0-1.159-.02-1.328-.029v.002c-2.619-.12-4.572-.59-4.572-1.155 0-.564 1.955-1.037 4.572-1.156v1.842c.17.013.662.043 1.34.043.814 0 1.22-.036 1.296-.043v-1.84c2.614.121 4.562.592 4.562 1.155 0 .564-1.95 1.035-4.562 1.156m0-2.502v-1.648h3.647V7.896H6.356v2.513h3.647v1.648c-2.964.14-5.192.747-5.192 1.475 0 .727 2.23 1.334 5.192 1.476v5.282h2.636v-5.282c2.959-.14 5.183-.747 5.183-1.475 0-.725-2.224-1.333-5.183-1.474" fill="#fff"/><path d="M31.328 8.583v2.665h2.503v1.999h-2.52V17.3c0 .895.477 1.332 1.177 1.332.35 0 .755-.114 1.086-.285l.626 1.98a4.893 4.893 0 0 1-1.858.399c-1.97.076-3.257-1.084-3.257-3.426v-4.053h-1.693v-2h1.693V8.832l2.243-.248Zm43.16 2.54.166 1.084c.7-1.161 1.638-1.332 2.559-1.332.938 0 1.84.38 2.336.893l-1.012 2.017c-.46-.4-.883-.61-1.62-.61-1.177 0-2.263.648-2.263 2.38v4.948H72.41v-9.384l2.08.004Zm-5.501 3.597c-.147-1.218-1.067-1.828-2.355-1.828-1.214 0-2.209.61-2.54 1.828h4.895Zm-4.931 1.922c.146 1.16 1.122 1.999 2.705 1.999.828 0 1.914-.324 2.43-.876l1.434 1.466c-.957 1.027-2.52 1.523-3.902 1.523-3.128 0-4.988-1.999-4.988-5.006 0-2.854 1.878-4.91 4.823-4.91 3.036 0 4.932 1.941 4.582 5.804h-7.084Zm-9.9-9.46v5.214c.81-1.084 1.803-1.409 2.834-1.409 2.576 0 3.717 1.808 3.717 4.569v4.949h-2.244v-4.93c0-1.713-.866-2.435-2.063-2.435-1.325 0-2.244 1.16-2.244 2.57v4.796H51.91V7.183l2.245-.001Zm-5.962 1.294v2.664h2.503v2h-2.52v4.053c0 .895.479 1.332 1.177 1.332.35 0 .755-.114 1.086-.285l.626 1.98a4.893 4.893 0 0 1-1.859.399c-1.969.076-3.257-1.086-3.257-3.426V13.14h-1.693v-2h1.693V8.724l2.243-.248Zm-6.202 6.244c-.147-1.218-1.067-1.828-2.355-1.828-1.214 0-2.21.61-2.54 1.828h4.895Zm-4.931 1.922c.146 1.16 1.122 1.999 2.705 1.999.828 0 1.914-.324 2.43-.876l1.434 1.466c-.957 1.027-2.521 1.523-3.902 1.523-3.13 0-4.988-1.999-4.988-5.006 0-2.854 1.878-4.91 4.82-4.91 3.037 0 4.932 1.941 4.584 5.804H37.06Z" fill="#2C2C2C"/></svg>