<svg width="145" height="57" fill="none" xmlns="http://www.w3.org/2000/svg"><g clip-path="url('#clip0_422_35584')"><path d="M55.516 28.806c0 14.948-12.24 27.064-27.34 27.064C13.079 55.87.838 43.754.838 28.806c0-14.947 12.24-27.064 27.34-27.064s27.34 12.117 27.34 27.064Z" fill="#1BA27A"/><path d="M41.007 15.39H15.119v6.186h9.819v9.094h6.25v-9.094h9.819v-6.187Z" fill="#fff"/><path d="M28.123 31.639c-8.122 0-14.708-1.273-14.708-2.843S20 25.953 28.123 25.953c8.123 0 14.708 1.273 14.708 2.843s-6.585 2.843-14.708 2.843Zm16.515-2.37c0-2.024-7.394-3.664-16.515-3.664-9.12 0-16.514 1.64-16.514 3.665 0 1.783 5.733 3.268 13.33 3.597V45.92h6.25V32.872c7.655-.319 13.449-1.81 13.449-3.602Z" fill="#fff"/><path d="M50.972 45.156c8.595 0 15.562-6.909 15.562-15.431 0-8.522-6.967-15.431-15.562-15.431-8.595 0-15.562 6.909-15.562 15.43 0 8.523 6.967 15.432 15.562 15.432Z" fill="#FF060A"/><path d="M61.347 26.922c-.972-.89-2.318-2.25-3.414-3.215l-.064-.045a1.24 1.24 0 0 0-.36-.2c-2.643-.488-14.94-2.767-15.18-2.738a.458.458 0 0 0-.188.07l-.061.049a.717.717 0 0 0-.169.27l-.016.042v.263c1.384 3.823 6.85 16.344 7.927 19.282.065.2.188.58.418.598h.052c.123 0 .648-.688.648-.688s9.39-11.29 10.34-12.492c.123-.148.231-.308.323-.476a.765.765 0 0 0-.256-.72Zm-7.998 1.315 4.007-3.295 2.351 2.147-6.358 1.148Zm-1.556-.216-6.9-5.606 11.163 2.041-4.263 3.565Zm.623 1.47 7.06-1.129-8.072 9.645 1.012-8.516Zm-8.46-6.517 7.26 6.108-1.05 8.93-6.21-15.038Z" fill="#fff"/></g><path d="M81.662 16.21V3.47H77.05V.982H89.4V3.47h-4.634v12.74h-3.105ZM94.584 16.552c-1.141 0-2.138-.229-2.99-.685-.853-.472-1.515-1.157-1.987-2.055-.471-.898-.707-1.978-.707-3.242 0-2.009.48-3.538 1.438-4.589.974-1.065 2.336-1.598 4.087-1.598 1.263 0 2.275.274 3.036.822.776.548 1.34 1.332 1.69 2.352.365 1.004.54 2.207.524 3.607h-8.903L90.543 9.2h6.827l-.548.822c-.03-1.202-.244-2.062-.64-2.58-.38-.532-.996-.798-1.849-.798-.517 0-.974.121-1.37.365-.38.228-.677.616-.89 1.164-.198.548-.297 1.301-.297 2.26 0 1.188.282 2.1.845 2.74.563.624 1.423.936 2.58.936.472 0 .92-.046 1.347-.137.441-.107.844-.228 1.21-.365.38-.137.7-.267.959-.388v2.556a9.236 9.236 0 0 1-1.827.548c-.67.153-1.438.229-2.306.229ZM106.63 16.575c-1.187 0-2.092-.29-2.716-.868-.624-.594-.936-1.446-.936-2.557V6.986h-1.781V4.703h1.781V1.53h2.99v3.173h2.671v2.283h-2.671v5.708c0 .471.092.821.274 1.05.183.228.502.342.959.342.244 0 .495-.038.753-.114.274-.091.503-.198.685-.32v2.512a3.526 3.526 0 0 1-1.004.32c-.35.06-.685.09-1.005.09ZM111.32 16.21V0h2.9v6.69l-1.073-.686a7.828 7.828 0 0 1 2.077-1.141 6.636 6.636 0 0 1 2.329-.434c.868 0 1.621.145 2.26.434.639.289 1.134.76 1.484 1.415.365.64.548 1.507.548 2.603v7.328h-2.899V9.383c0-.852-.206-1.484-.617-1.895-.395-.426-.997-.639-1.803-.639-.411 0-.822.06-1.233.183a4.637 4.637 0 0 0-1.073.456l-.023 8.721h-2.877ZM130.1 16.552c-1.141 0-2.138-.229-2.991-.685-.852-.472-1.514-1.157-1.986-2.055-.472-.898-.708-1.978-.708-3.242 0-2.009.48-3.538 1.439-4.589.974-1.065 2.336-1.598 4.086-1.598 1.264 0 2.276.274 3.037.822.776.548 1.339 1.332 1.689 2.352.365 1.004.54 2.207.525 3.607h-8.903l-.229-1.964h6.826l-.548.822c-.03-1.202-.243-2.062-.639-2.58-.38-.532-.997-.798-1.849-.798-.517 0-.974.121-1.37.365-.38.228-.677.616-.89 1.164-.198.548-.297 1.301-.297 2.26 0 1.188.282 2.1.845 2.74.563.624 1.423.936 2.58.936.471 0 .92-.046 1.346-.137.442-.107.845-.228 1.21-.365.381-.137.701-.267.959-.388v2.556a9.216 9.216 0 0 1-1.826.548c-.67.153-1.438.229-2.306.229ZM137.74 16.21V5.821c.213-.137.586-.32 1.119-.548a12.121 12.121 0 0 1 1.895-.594 8.729 8.729 0 0 1 2.168-.274c.548 0 .982.046 1.302.137.335.076.593.175.776.297v2.192a14.905 14.905 0 0 0-1.05-.115c-.381-.03-.777-.038-1.187-.022-.396 0-.784.015-1.165.045-.365.03-.685.069-.959.114v9.155h-2.899ZM82.552 35.376c-1.187 0-2.093-.29-2.717-.868-.624-.593-.936-1.446-.936-2.557v-6.164h-1.78v-2.283h1.78v-3.173h2.99v3.173h2.672v2.283H81.89v5.708c0 .471.091.821.274 1.05.182.228.502.342.959.342.243 0 .494-.038.753-.114.274-.091.502-.198.685-.32v2.512c-.305.152-.64.258-1.005.32-.35.06-.684.09-1.004.09ZM87.242 35.01V24.623c.213-.137.586-.32 1.119-.548.548-.228 1.18-.426 1.894-.594a8.736 8.736 0 0 1 2.17-.274c.547 0 .981.046 1.3.137.336.076.594.175.777.297v2.192a14.782 14.782 0 0 0-1.05-.114 10.16 10.16 0 0 0-1.187-.023c-.396 0-.784.015-1.165.045-.365.03-.685.069-.959.115v9.154h-2.899ZM101.388 35.262a7.485 7.485 0 0 1-2.192-.32 5.123 5.123 0 0 1-1.872-1.027c-.548-.472-.981-1.081-1.301-1.827-.32-.746-.48-1.651-.48-2.716 0-1.112.153-2.055.457-2.831.305-.777.723-1.408 1.256-1.895a4.623 4.623 0 0 1 1.849-1.073 7.39 7.39 0 0 1 2.26-.343c.609 0 1.233.061 1.872.183s1.21.297 1.712.525v2.511a10.462 10.462 0 0 0-1.552-.548 5.63 5.63 0 0 0-1.598-.228c-1.065 0-1.895.266-2.489.799-.593.533-.89 1.408-.89 2.625 0 1.248.266 2.177.8 2.786.547.609 1.445.913 2.693.913.563 0 1.111-.084 1.644-.251a10.41 10.41 0 0 0 1.415-.594v2.534a7.18 7.18 0 0 1-1.666.571 8.332 8.332 0 0 1-1.918.206ZM113.997 35.01v-2.26a29.136 29.136 0 0 0 1.712-1.21 22.706 22.706 0 0 0 1.872-1.598 18.87 18.87 0 0 0 1.69-1.826c.517-.64.928-1.271 1.232-1.895.32-.624.48-1.218.48-1.78 0-.503-.107-.93-.32-1.28-.213-.365-.54-.646-.981-.844-.427-.198-.959-.297-1.598-.297-.792 0-1.507.16-2.147.48-.639.32-1.24.692-1.803 1.118v-2.762a10.98 10.98 0 0 1 2.032-.936c.776-.274 1.689-.411 2.739-.411 1.157 0 2.116.198 2.877.593.776.381 1.355.914 1.735 1.599.381.684.571 1.476.571 2.374a4.96 4.96 0 0 1-.457 2.077 9.103 9.103 0 0 1-1.21 1.941 14.974 14.974 0 0 1-1.644 1.78 33.399 33.399 0 0 1-1.803 1.553c-.609.472-1.172.898-1.69 1.279l-.662-.571h7.74v2.877h-10.365ZM133.576 35.284c-2.192 0-3.812-.654-4.863-1.963-1.05-1.309-1.575-3.272-1.575-5.89s.525-4.581 1.575-5.89c1.051-1.324 2.671-1.986 4.863-1.986 2.207 0 3.836.662 4.886 1.986 1.05 1.309 1.575 3.272 1.575 5.89s-.525 4.581-1.575 5.89c-1.05 1.309-2.679 1.963-4.886 1.963Zm0-2.556c.396 0 .792-.061 1.187-.183.396-.122.754-.358 1.073-.708.32-.365.571-.898.754-1.598.198-.715.297-1.651.297-2.808 0-1.172-.099-2.108-.297-2.808-.183-.7-.434-1.225-.754-1.576-.319-.365-.677-.608-1.073-.73a3.604 3.604 0 0 0-1.187-.206c-.396 0-.791.069-1.187.206-.381.122-.731.365-1.05.73-.32.35-.579.876-.776 1.576-.183.7-.274 1.636-.274 2.808 0 1.157.091 2.093.274 2.808.197.7.456 1.233.776 1.598.319.35.669.586 1.05.708.396.122.791.182 1.187.182ZM82.124 56.659c-1.333 0-2.37-.392-3.11-1.177-.731-.784-1.096-1.907-1.096-3.368V45.75h1.16v6.43c0 1.15.258 2.003.773 2.562.516.548 1.273.822 2.273.822.999 0 1.761-.274 2.288-.822.526-.559.79-1.413.79-2.562v-6.43h1.128v6.365c0 .978-.167 1.805-.5 2.482a3.515 3.515 0 0 1-1.434 1.547c-.623.344-1.38.516-2.272.516ZM92.121 56.659c-.537 0-.994-.038-1.37-.113a4.5 4.5 0 0 1-1.015-.322c-.3-.14-.628-.301-.983-.484v-1.257c.344.29.806.548 1.386.774.58.225 1.257.338 2.03.338.817 0 1.408-.172 1.773-.516.376-.354.564-.8.564-1.337 0-.451-.123-.811-.37-1.08a2.723 2.723 0 0 0-.951-.677 16.087 16.087 0 0 0-1.225-.516c-.365-.128-.73-.263-1.096-.402a4.7 4.7 0 0 1-.967-.548 2.455 2.455 0 0 1-.693-.854c-.171-.355-.257-.795-.257-1.322 0-.29.053-.596.16-.919.119-.322.302-.623.549-.902.257-.28.596-.505 1.015-.677.43-.172.95-.258 1.563-.258.419 0 .774.033 1.064.097.3.054.585.14.854.258.268.107.57.242.902.403v1.192c-.28-.16-.548-.306-.806-.435a3.24 3.24 0 0 0-.838-.322c-.3-.086-.671-.129-1.111-.129-.527 0-.951.075-1.274.226-.311.15-.542.349-.693.596-.14.247-.21.51-.21.79 0 .44.098.79.291 1.047.204.258.484.473.838.645.365.16.784.322 1.257.483.376.129.752.274 1.128.435.376.15.715.344 1.015.58.312.226.559.516.742.87.193.344.29.774.29 1.29 0 .483-.108.961-.323 1.434-.215.462-.58.849-1.095 1.16-.516.301-1.23.452-2.144.452ZM98.014 56.498v-10.75h3.368c1.676 0 2.933.452 3.771 1.354.849.892 1.274 2.23 1.274 4.013s-.425 3.126-1.274 4.029c-.838.902-2.095 1.354-3.771 1.354h-3.368Zm1.16-1.096h2.128c1.375 0 2.374-.344 2.997-1.032.623-.687.935-1.772.935-3.255 0-1.483-.312-2.568-.935-3.255-.623-.688-1.622-1.032-2.997-1.032h-2.127v8.574ZM111.519 56.498v-9.654h-3.803V45.75h8.75v1.095h-3.787v9.654h-1.16Z" fill="#1A1A1A"/><defs><clipPath id="clip0_422_35584"><path fill="#fff" transform="translate(0 1.437)" d="M0 0h67.147v55.061H0z"/></clipPath></defs></svg>