<svg width="22" height="22" fill="none" xmlns="http://www.w3.org/2000/svg"><path d="M19.594.688H2.406a.344.344 0 0 0-.344.343v1.375c0 .19.154.344.344.344h17.188c.19 0 .343-.154.343-.344V1.031a.344.344 0 0 0-.343-.343Z" fill="url('#paint0_linear_422_31244')"/><path d="M10.656 10.313H5.844v7.39l4.812-2.293v-5.098Z" fill="url('#paint1_linear_422_31244')"/><path d="M16.156 10.313h-4.812v5.097l4.812 2.292v-7.39Z" fill="url('#paint2_linear_422_31244')"/><path d="M5.844 3.438h4.812v6.187H5.844V3.437Z" fill="url('#paint3_linear_422_31244')"/><path d="M16.844 3.438v14.809a.344.344 0 0 1-.492.309L11 16.008l-5.352 2.549a.344.344 0 0 1-.492-.31V3.438H3.438V20.97a.344.344 0 0 0 .491.31L11 17.91l7.07 3.37a.344.344 0 0 0 .492-.312V3.437h-1.718Z" fill="url('#paint4_linear_422_31244')"/><path d="M11.344 3.438h4.812v6.187h-4.812V3.437Z" fill="url('#paint5_linear_422_31244')"/><defs><linearGradient id="paint0_linear_422_31244" x1="11" y1=".688" x2="11" y2="2.75" gradientUnits="userSpaceOnUse"><stop stop-color="#7ECFC9"/><stop offset="1" stop-color="#169EE4"/></linearGradient><linearGradient id="paint1_linear_422_31244" x1="8.25" y1="10.313" x2="8.25" y2="17.702" gradientUnits="userSpaceOnUse"><stop stop-color="#7ECFC9"/><stop offset="1" stop-color="#169EE4"/></linearGradient><linearGradient id="paint2_linear_422_31244" x1="13.75" y1="10.313" x2="13.75" y2="17.702" gradientUnits="userSpaceOnUse"><stop stop-color="#7ECFC9"/><stop offset="1" stop-color="#169EE4"/></linearGradient><linearGradient id="paint3_linear_422_31244" x1="8.25" y1="3.438" x2="8.25" y2="9.625" gradientUnits="userSpaceOnUse"><stop stop-color="#7ECFC9"/><stop offset="1" stop-color="#169EE4"/></linearGradient><linearGradient id="paint4_linear_422_31244" x1="11" y1="3.438" x2="11" y2="21.314" gradientUnits="userSpaceOnUse"><stop stop-color="#7ECFC9"/><stop offset="1" stop-color="#169EE4"/></linearGradient><linearGradient id="paint5_linear_422_31244" x1="13.75" y1="3.438" x2="13.75" y2="9.625" gradientUnits="userSpaceOnUse"><stop stop-color="#7ECFC9"/><stop offset="1" stop-color="#169EE4"/></linearGradient></defs></svg>