<svg width="16" height="16" fill="none" xmlns="http://www.w3.org/2000/svg"><g clip-path="url('#clip0_422_31791')"><path d="M8 16A8 8 0 1 0 8 0a8 8 0 0 0 0 16Z" fill="#0AC18E"/><path d="M10.495 5.314c-.401-.912-1.325-1.107-2.456-.918l-.364-1.41-.857.222.358 1.405c-.226.057-.457.106-.687.17l-.357-1.396-.857.221.364 1.41c-.185.052-1.73.448-1.73.448l.235.918s.63-.177.624-.163c.349-.091.513.084.59.248l1 3.862c.012.112-.009.303-.248.367.014.009-.624.16-.624.16l.094 1.07 1.732-.442.367 1.426.857-.222-.367-1.435c.235-.055.465-.112.688-.17l.365 1.427.857-.222-.367-1.423c1.32-.32 2.252-1.153 2.06-2.426-.121-.768-.96-1.397-1.656-1.468.428-.38.646-.934.38-1.66Zm-.412 3.36c.17 1.261-1.581 1.415-2.16 1.568l-.504-1.887c.581-.152 2.376-.792 2.664.32ZM9.027 6.106c.181 1.12-1.317 1.25-1.8 1.374l-.46-1.711c.486-.12 1.893-.701 2.26.337Z" fill="#fff"/></g><defs><clipPath id="clip0_422_31791"><path fill="#fff" d="M0 0h16v16H0z"/></clipPath></defs></svg>