<svg width="40" height="40" fill="none" xmlns="http://www.w3.org/2000/svg"><path fill-rule="evenodd" clip-rule="evenodd" d="M40 20c0 11.046-8.954 20-20 20S0 31.046 0 20 8.954 0 20 0s20 8.954 20 20Zm-15.195-7.43c2.782.955 4.817 2.385 4.418 5.047-.29 1.95-1.375 2.893-2.816 3.223 1.977 1.025 2.651 2.971 2.025 5.324-1.189 3.387-4.015 3.672-7.774 2.964l-.913 3.64-2.203-.547.9-3.592a92.497 92.497 0 0 1-1.756-.454l-.904 3.609-2.2-.548.91-3.647-4.437-1.116 1.094-2.513s1.625.429 1.602.398c.624.153.902-.252 1.011-.52l2.473-9.88c.028-.467-.134-1.055-1.027-1.277.034-.024-1.6-.397-1.6-.397l.586-2.344 4.444 1.096.904-3.606 2.202.548-.885 3.535c.593.133 1.188.27 1.766.414l.88-3.513 2.203.548-.903 3.607Zm-5.272 6.015c1.5.398 4.766 1.264 5.336-1.006.58-2.323-2.592-3.025-4.146-3.368-.176-.039-.331-.073-.458-.105l-1.097 4.384c.104.026.227.059.365.095Zm-1.7 7.059c1.798.473 5.73 1.509 6.355-.993.64-2.557-3.172-3.41-5.032-3.825-.208-.047-.391-.088-.541-.125l-1.21 4.832c.123.03.267.068.428.11Z" fill="#F7931A"/></svg>