<svg width="40" height="40" viewBox="0 0 40 40" fill="none" xmlns="http://www.w3.org/2000/svg">
<path fill-rule="evenodd" clip-rule="evenodd" d="M40 20C40 31.0457 31.0457 40 20 40C8.9543 40 0 31.0457 0 20C0 8.9543 8.9543 0 20 0C31.0457 0 40 8.9543 40 20ZM24.8049 12.5693C27.5869 13.5247 29.622 14.9552 29.2228 17.6175C28.9328 19.567 27.8481 20.5098 26.4068 20.8399C28.3842 21.8653 29.058 23.8114 28.4319 26.1644C27.243 29.5507 24.4169 29.8358 20.6581 29.128L19.7454 32.7682L17.5421 32.2205L18.4423 28.6291C17.871 28.4878 17.2872 28.3365 16.6859 28.1752L15.782 31.784L13.5812 31.2363L14.4926 27.5887L10.0546 26.4733L11.1494 23.9599C11.1494 23.9599 12.7739 24.3888 12.7513 24.3575C13.3753 24.5113 13.6527 24.1062 13.762 23.8373L16.2352 13.9574C16.2628 13.4909 16.1009 12.9032 15.2082 12.6806C15.2421 12.6569 13.6075 12.2842 13.6075 12.2842L14.1938 9.9396L18.6381 11.0363L19.542 7.42991L21.7441 7.97761L20.859 11.5127C21.4516 11.6465 22.0466 11.7828 22.6254 11.9266L23.5042 8.41403L25.7075 8.96173L24.8049 12.5693ZM19.5327 18.5852C21.0336 18.9831 24.2995 19.8489 24.8688 17.5787C25.4495 15.256 22.2766 14.5544 20.723 14.211L20.7229 14.2109L20.7227 14.2109C20.5468 14.172 20.3916 14.1377 20.265 14.1062L19.1678 18.4903C19.2723 18.5161 19.3951 18.5487 19.5327 18.5852L19.5327 18.5852ZM17.833 25.6438C19.6307 26.1174 23.5623 27.153 24.1878 24.6514C24.8281 22.0936 21.0162 21.2416 19.1563 20.8259L19.1562 20.8259C18.9484 20.7794 18.765 20.7384 18.6149 20.7011L17.4047 25.5329C17.5276 25.5634 17.6717 25.6014 17.833 25.6438Z" fill="#F7931A"></path>
</svg>
