<svg width="22" height="22" fill="none" xmlns="http://www.w3.org/2000/svg"><path d="M3.365 2.596h-.001a.784.784 0 0 0-.783.787v11.805a.79.79 0 0 0 .788.787c1.832.005 4.902.387 7.02 2.603V6.224a.755.755 0 0 0-.108-.399c-1.739-2.8-5.079-3.224-6.916-3.229Z" fill="url('#paint0_linear_422_31231')"/><path d="M19.42 15.188V3.383a.784.784 0 0 0-.783-.787h-.002c-1.837.005-5.177.43-6.916 3.23a.754.754 0 0 0-.108.398v12.354c2.118-2.216 5.188-2.598 7.02-2.603a.79.79 0 0 0 .789-.787Z" fill="url('#paint1_linear_422_31231')"/><path d="M21.213 5.319h-.571v9.87c0 1.105-.9 2.006-2.007 2.009-1.555.003-4.118.307-5.933 2.025 3.14-.768 6.449-.269 8.335.16a.786.786 0 0 0 .963-.766V6.106a.788.788 0 0 0-.787-.787Z" fill="url('#paint2_linear_422_31231')"/><path d="M1.358 15.188v-9.87h-.57A.788.788 0 0 0 0 6.107v12.51a.785.785 0 0 0 .963.767c1.886-.43 5.196-.929 8.335-.16-1.815-1.718-4.378-2.022-5.933-2.025a2.014 2.014 0 0 1-2.007-2.01Z" fill="url('#paint3_linear_422_31231')"/><defs><linearGradient id="paint0_linear_422_31231" x1="6.485" y1="2.596" x2="6.485" y2="18.578" gradientUnits="userSpaceOnUse"><stop stop-color="#7ECFC9"/><stop offset="1" stop-color="#169EE4"/></linearGradient><linearGradient id="paint1_linear_422_31231" x1="15.516" y1="2.596" x2="15.516" y2="18.578" gradientUnits="userSpaceOnUse"><stop stop-color="#7ECFC9"/><stop offset="1" stop-color="#169EE4"/></linearGradient><linearGradient id="paint2_linear_422_31231" x1="17.351" y1="5.319" x2="17.351" y2="19.404" gradientUnits="userSpaceOnUse"><stop stop-color="#7ECFC9"/><stop offset="1" stop-color="#169EE4"/></linearGradient><linearGradient id="paint3_linear_422_31231" x1="4.649" y1="5.319" x2="4.649" y2="19.404" gradientUnits="userSpaceOnUse"><stop stop-color="#7ECFC9"/><stop offset="1" stop-color="#169EE4"/></linearGradient></defs></svg>