<svg width="22" height="22" viewBox="0 0 22 22" fill="none" xmlns="http://www.w3.org/2000/svg">
<path d="M3.36544 2.59624C3.36484 2.59624 3.36418 2.59624 3.36358 2.59624C3.15551 2.59624 2.9598 2.67735 2.81203 2.82476C2.66262 2.97379 2.58032 3.17224 2.58032 3.3835V15.1884C2.58032 15.6212 2.93388 15.9743 3.36855 15.9754C5.201 15.9798 8.27108 16.3617 10.389 18.5781V6.22395C10.389 6.07721 10.3515 5.93936 10.2808 5.82528C8.54249 3.02587 5.20203 2.60053 3.36544 2.59624Z" fill="url('#paint0_linear_422_31231')"></path>
<path d="M19.4199 15.1884V3.38342C19.4199 3.17216 19.3377 2.97372 19.1882 2.82468C19.0405 2.67727 18.8446 2.59616 18.6368 2.59616C18.6361 2.59616 18.6354 2.59616 18.6348 2.59616C16.7983 2.60053 13.4579 3.02587 11.7195 5.82528C11.6487 5.93936 11.6113 6.07721 11.6113 6.22395V18.578C13.7293 16.3616 16.7993 15.9797 18.6318 15.9753C19.0664 15.9742 19.4199 15.6212 19.4199 15.1884Z" fill="url('#paint1_linear_422_31231')"></path>
<path d="M21.2129 5.31862H20.642V15.1884C20.642 16.2936 19.7415 17.1949 18.6346 17.1976C17.0803 17.2013 14.5174 17.5053 12.7024 19.2231C15.8415 18.4545 19.1507 18.9541 21.0366 19.3839C21.2721 19.4376 21.5155 19.3821 21.7041 19.2318C21.8921 19.0818 22 18.8576 22 18.6169V6.10573C22.0001 5.67173 21.6469 5.31862 21.2129 5.31862Z" fill="url('#paint2_linear_422_31231')"></path>
<path d="M1.35793 15.1884V5.31862H0.787114C0.353186 5.31862 0 5.67173 0 6.10573V18.6167C0 18.8574 0.107852 19.0816 0.295853 19.2316C0.484372 19.3819 0.727484 19.4375 0.963337 19.3837C2.84927 18.9538 6.15854 18.4543 9.29751 19.2229C7.48254 17.5051 4.91972 17.2013 3.36542 17.1975C2.25853 17.1949 1.35793 16.2936 1.35793 15.1884Z" fill="url('#paint3_linear_422_31231')"></path>
<defs>
<linearGradient id="paint0_linear_422_31231" x1="6.48467" y1="2.59624" x2="6.48467" y2="18.5781" gradientUnits="userSpaceOnUse">
<stop stop-color="#7ECFC9"></stop>
<stop offset="1" stop-color="#169EE4"></stop>
</linearGradient>
<linearGradient id="paint1_linear_422_31231" x1="15.5156" y1="2.59616" x2="15.5156" y2="18.578" gradientUnits="userSpaceOnUse">
<stop stop-color="#7ECFC9"></stop>
<stop offset="1" stop-color="#169EE4"></stop>
</linearGradient>
<linearGradient id="paint2_linear_422_31231" x1="17.3512" y1="5.31862" x2="17.3512" y2="19.4039" gradientUnits="userSpaceOnUse">
<stop stop-color="#7ECFC9"></stop>
<stop offset="1" stop-color="#169EE4"></stop>
</linearGradient>
<linearGradient id="paint3_linear_422_31231" x1="4.64876" y1="5.31862" x2="4.64876" y2="19.4038" gradientUnits="userSpaceOnUse">
<stop stop-color="#7ECFC9"></stop>
<stop offset="1" stop-color="#169EE4"></stop>
</linearGradient>
</defs>
</svg>
