<svg width="40" height="40" fill="none" xmlns="http://www.w3.org/2000/svg"><g clip-path="url('#clip0_422_31728')"><path fill-rule="evenodd" clip-rule="evenodd" d="M20 0c11.047 0 20 8.954 20 20 0 11.047-8.953 20-20 20C8.954 40 0 31.047 0 20 0 8.954 8.954 0 20 0Z" fill="#F0B90B"/><path d="m10.992 20 .014 5.288 4.494 2.645v3.096L8.377 26.85v-8.398L10.992 20Zm0-5.289v3.082l-2.617-1.548v-3.082l2.617-1.548 2.63 1.548-2.63 1.548Zm6.385-1.548 2.617-1.548 2.63 1.548-2.63 1.548-2.617-1.548Z" fill="#fff"/><path d="M12.883 24.192v-3.096l2.617 1.548v3.082l-2.617-1.534Zm4.494 4.85 2.617 1.548 2.63-1.548v3.081l-2.63 1.548-2.617-1.548v-3.081Zm9-15.879 2.617-1.548 2.63 1.548v3.082l-2.63 1.548v-3.082l-2.617-1.548Zm2.617 12.125L29.008 20l2.617-1.548v8.397l-7.123 4.178v-3.096l4.492-2.643Z" fill="#fff"/><path d="M27.117 24.192 24.5 25.726v-3.082l2.617-1.548v3.096Z" fill="#fff"/><path d="m27.117 15.808.014 3.096-4.506 2.644v5.301l-2.617 1.534-2.617-1.534v-5.301l-4.506-2.644v-3.096l2.628-1.548 4.479 2.657 4.506-2.657 2.63 1.548h-.011ZM12.883 10.52l7.11-4.193 7.124 4.193-2.617 1.548-4.506-2.657-4.494 2.657-2.617-1.548Z" fill="#fff"/></g><defs><clipPath id="clip0_422_31728"><path fill="#fff" d="M0 0h40v40H0z"/></clipPath></defs></svg>