<svg width="16" height="16" fill="none" xmlns="http://www.w3.org/2000/svg"><path d="M13.25 2.75h-.75v-1.5a.75.75 0 1 0-1.5 0v1.5H5v-1.5a.75.75 0 0 0-1.5 0v1.5h-.75A2.25 2.25 0 0 0 .5 5v.75h15V5a2.25 2.25 0 0 0-2.25-2.25Z" fill="url('#paint0_linear_422_33735')"/><path d="M.5 13.25a2.25 2.25 0 0 0 2.25 2.25h10.5a2.25 2.25 0 0 0 2.25-2.25v-6H.5v6Z" fill="url('#paint1_linear_422_33735')"/><defs><linearGradient id="paint0_linear_422_33735" x1="8" y1=".5" x2="8" y2="5.75" gradientUnits="userSpaceOnUse"><stop stop-color="#80D0C8"/><stop offset="1" stop-color="#0596E8"/></linearGradient><linearGradient id="paint1_linear_422_33735" x1="8" y1="7.25" x2="8" y2="15.5" gradientUnits="userSpaceOnUse"><stop stop-color="#80D0C8"/><stop offset="1" stop-color="#0596E8"/></linearGradient></defs></svg>