<svg width="22" height="22" fill="none" xmlns="http://www.w3.org/2000/svg"><g clip-path="url('#clip0_422_31189')"><path d="M13.363 22H5.156a3.441 3.441 0 0 1-3.437-3.438V6.918A3.441 3.441 0 0 1 5.156 3.48h8.207a3.441 3.441 0 0 1 3.438 3.438v11.645A3.441 3.441 0 0 1 13.363 22ZM5.156 5.2a1.72 1.72 0 0 0-1.718 1.718v11.645a1.72 1.72 0 0 0 1.718 1.718h8.207a1.72 1.72 0 0 0 1.719-1.718V6.918a1.72 1.72 0 0 0-1.719-1.719H5.156Zm15.082 11.214V3.437A3.441 3.441 0 0 0 16.801 0H7.26a.86.86 0 1 0 0 1.719h9.54a1.72 1.72 0 0 1 1.719 1.718v12.977a.86.86 0 1 0 1.718 0Z" fill="#707474"/></g><defs><clipPath id="clip0_422_31189"><path fill="#fff" d="M0 0h22v22H0z"/></clipPath></defs></svg>