<svg width="22" height="22" viewBox="0 0 22 22" fill="none" xmlns="http://www.w3.org/2000/svg">
<g clip-path="url('#clip0_422_31189')">
<path d="M13.3633 22H5.15625C3.26076 22 1.71875 20.458 1.71875 18.5625V6.91797C1.71875 5.02248 3.26076 3.48047 5.15625 3.48047H13.3633C15.2588 3.48047 16.8008 5.02248 16.8008 6.91797V18.5625C16.8008 20.458 15.2588 22 13.3633 22ZM5.15625 5.19922C4.20859 5.19922 3.4375 5.97031 3.4375 6.91797V18.5625C3.4375 19.5102 4.20859 20.2812 5.15625 20.2812H13.3633C14.3109 20.2812 15.082 19.5102 15.082 18.5625V6.91797C15.082 5.97031 14.3109 5.19922 13.3633 5.19922H5.15625ZM20.2383 16.4141V3.4375C20.2383 1.54201 18.6963 0 16.8008 0H7.26172C6.78705 0 6.40234 0.384705 6.40234 0.859375C6.40234 1.33405 6.78705 1.71875 7.26172 1.71875H16.8008C17.7484 1.71875 18.5195 2.48984 18.5195 3.4375V16.4141C18.5195 16.8887 18.9042 17.2734 19.3789 17.2734C19.8536 17.2734 20.2383 16.8887 20.2383 16.4141Z" fill="#707474"></path>
</g>
<defs>
<clipPath id="clip0_422_31189">
<rect width="22" height="22" fill="white"></rect>
</clipPath>
</defs>
</svg>
