<svg width="16" height="16" viewBox="0 0 16 16" fill="none" xmlns="http://www.w3.org/2000/svg">
<circle cx="8" cy="8" r="8" fill="#E6F5FF"></circle>
<g clip-path="url('#clip0_771_11139')">
<path d="M9.89451 4H6.61811L6.3464 5.45441L9.30374 5.45777C10.7605 5.45777 11.19 5.96497 11.1777 6.8047C11.1707 7.23464 10.9761 7.96353 10.892 8.20034C10.6676 8.83013 10.2065 9.54727 8.47807 9.54559L5.60312 9.54391L5.33228 11H8.60166C9.75514 11 10.2442 10.8707 10.7649 10.6423C11.9166 10.13 12.602 9.04175 12.8773 7.62092C13.2848 5.5048 12.7765 4 9.89451 4Z" fill="#008DE4"></path>
<path d="M5.20432 6.76953C4.34534 6.76953 4.22263 7.30528 4.14199 7.62942C4.03506 8.05264 4 8.22563 4 8.22563H7.35528C8.21426 8.22563 8.33697 7.68988 8.41761 7.36574C8.52454 6.94252 8.5596 6.76953 8.5596 6.76953H5.20432Z" fill="#008DE4"></path>
</g>
<defs>
<clipPath id="clip0_771_11139">
<rect width="9" height="7" fill="white" transform="translate(4 4)"></rect>
</clipPath>
</defs>
</svg>
