<svg width="16" height="16" fill="none" xmlns="http://www.w3.org/2000/svg"><circle cx="8" cy="8" r="8" fill="#E6F5FF"/><g clip-path="url('#clip0_771_11139')" fill="#008DE4"><path d="M9.895 4H6.618l-.272 1.454 2.958.004c1.457 0 1.886.507 1.874 1.347-.007.43-.202 1.159-.286 1.395-.224.63-.685 1.347-2.414 1.346l-2.875-.002L5.333 11h3.269c1.153 0 1.642-.13 2.163-.358 1.152-.512 1.837-1.6 2.112-3.021C13.285 5.505 12.777 4 9.895 4Z"/><path d="M5.204 6.77c-.859 0-.981.535-1.062.86-.107.423-.142.596-.142.596h3.355c.86 0 .982-.536 1.063-.86.107-.423.142-.596.142-.596H5.204Z"/></g><defs><clipPath id="clip0_771_11139"><path fill="#fff" transform="translate(4 4)" d="M0 0h9v7H0z"/></clipPath></defs></svg>