<svg width="40" height="40" viewBox="0 0 40 40" fill="none" xmlns="http://www.w3.org/2000/svg">
<g clip-path="url('#clip0_422_31591')">
<path d="M20 40C31.0457 40 40 31.0457 40 20C40 8.9543 31.0457 0 20 0C8.9543 0 0 8.9543 0 20C0 31.0457 8.9543 40 20 40Z" fill="#988430"></path>
<path d="M20 39.3593C30.6919 39.3593 39.3593 30.6919 39.3593 20C39.3593 9.3081 30.6919 0.640625 20 0.640625C9.3081 0.640625 0.640625 9.3081 0.640625 20C0.640625 30.6919 9.3081 39.3593 20 39.3593Z" fill="#7A6A2A"></path>
<path d="M20 38.9515C30.4667 38.9515 38.9515 30.4667 38.9515 20C38.9515 9.53344 30.4667 1.04858 20 1.04858C9.53344 1.04858 1.04858 9.53344 1.04858 20C1.04858 30.4667 9.53344 38.9515 20 38.9515Z" fill="#BA9F33"></path>
<path fill-rule="evenodd" clip-rule="evenodd" d="M8.74427 17.864C8.63099 17.7606 8.51131 17.6569 8.40123 17.5534C8.29115 17.45 8.17808 17.3463 8.0648 17.2428L7.72816 16.9228C7.67312 16.8678 7.61488 16.8193 7.55984 16.7641C7.5048 16.7157 7.44016 16.6606 7.38512 16.612C6.9384 16.1881 6.48912 15.7642 6.04859 15.3401C6.50491 15.7576 6.95163 16.1721 7.40795 16.5958L7.56645 16.7545C7.62149 16.8093 7.67973 16.858 7.73477 16.913L8.0712 17.2236C8.18448 17.3271 8.29456 17.4308 8.40784 17.5436C8.52112 17.6565 8.6312 17.7604 8.74448 17.8636L8.74427 17.864ZM2.81552 17.8C2.81552 17.8 4.44005 17.9681 5.23301 18.0814C5.96752 18.1851 8.26533 18.5377 8.26533 18.5377L2.81552 17.8ZM2.81552 17.8C3.27184 17.8389 3.72816 17.8873 4.18448 17.9359C4.41744 17.9585 4.6408 17.9844 4.86416 18.007L5.20699 18.046C5.32027 18.062 5.43035 18.0782 5.54363 18.0944L6.90299 18.3112L7.58245 18.4245C7.80581 18.4633 8.02917 18.5055 8.26214 18.5444C8.03877 18.5217 7.80581 18.4893 7.58245 18.4569L6.90299 18.3598L5.54363 18.1593C5.43035 18.1431 5.32027 18.1202 5.20699 18.1042L4.86395 18.0648C4.64059 18.0422 4.40763 18.0097 4.18427 17.9837C3.72795 17.9289 3.27163 17.8704 2.81531 17.7994L2.81552 17.8ZM8.10363 18.961C8.10363 18.961 6.36901 19.4013 5.7832 19.5696C5.2072 19.7281 3.46277 20.2589 3.46277 20.2589L8.10342 18.9612L8.10363 18.961Z" fill="#CFB66C"></path>
<path fill-rule="evenodd" clip-rule="evenodd" d="M8.10346 18.9612C7.71839 19.0745 7.33546 19.1845 6.94484 19.2882L5.78623 19.5988C5.40116 19.7121 5.01823 19.8222 4.63423 19.9355L4.05823 20.094C3.8673 20.149 3.67316 20.1974 3.47583 20.2527C3.66655 20.1887 3.8609 20.1232 4.05183 20.0682L4.62783 19.8838C5.0129 19.764 5.39583 19.6507 5.77983 19.531C6.1713 19.4339 6.55658 19.3302 6.94804 19.2364C7.3201 19.1425 7.71178 19.0489 8.10346 18.9614V18.9612ZM3.70559 21.327C3.89631 21.2558 6.09706 20.2301 6.60842 19.9905C6.86442 19.8706 7.60852 19.6065 7.60852 19.6065L3.70559 21.327Z" fill="#CFB66C"></path>
<path fill-rule="evenodd" clip-rule="evenodd" d="M3.70566 21.3269C3.87376 21.2629 4.03248 21.1846 4.19419 21.1102L4.67312 20.8868L5.6344 20.4241C5.9544 20.272 6.26544 20.1041 6.59547 19.9612C6.76379 19.8901 6.93211 19.8319 7.10022 19.7769L7.35622 19.696C7.44347 19.6734 7.52454 19.6474 7.61222 19.6248C7.29222 19.7769 6.95536 19.9064 6.63494 20.0551C6.31494 20.2138 5.98768 20.3433 5.65744 20.4856L4.68016 20.9158C4.35206 21.0488 4.03206 21.1911 3.70544 21.3269H3.70566ZM3.91899 22.2229C3.91899 22.2229 5.91238 21.0547 6.59846 20.6793C6.95771 20.4787 8.11952 19.9025 8.11952 19.9025L3.91899 22.2229Z" fill="#CFB66C"></path>
<path fill-rule="evenodd" clip-rule="evenodd" d="M3.91919 22.2233C4.25562 22.0162 4.59866 21.8058 4.9417 21.5923L5.4537 21.2814C5.62842 21.178 5.79674 21.0809 5.97487 20.9774C6.14959 20.8738 6.31791 20.7703 6.49583 20.6732C6.58053 20.6209 6.66927 20.5755 6.76122 20.5373L7.033 20.4014C7.39226 20.2267 7.75151 20.0486 8.13018 19.8965C7.78714 20.1134 7.43428 20.298 7.08164 20.4887C6.90692 20.5858 6.72879 20.6732 6.55407 20.7703C6.37935 20.8674 6.21103 20.971 6.0329 21.0649C5.85818 21.1684 5.68986 21.2654 5.51194 21.3593L4.98436 21.6473L3.91962 22.2233H3.91919ZM8.10351 20.1585C8.10351 20.1585 6.86404 21.1099 6.46276 21.4141C6.06148 21.7183 4.88026 22.5727 4.88026 22.5727L8.10351 20.1585Z" fill="#CFB66C"></path>
<path fill-rule="evenodd" clip-rule="evenodd" d="M15.2169 27.8318L14.5826 26.6311L14.9515 25.1295L17.5825 24.1134L16.4627 21.8158L17.0161 19.4954L18.0551 17.4175L21.2655 16.9127L23.6246 14.6636L28.7185 15.0486L29.7184 20.4953L27.7929 27.3529L26.6959 30.9031L22.2492 31.0715L20.1846 29.6411L17.7671 28.6311L15.2169 27.8318Z" fill="#E2CC85"></path>
<path fill-rule="evenodd" clip-rule="evenodd" d="M23.0163 27.7928C23.0163 27.7928 22.4012 28.0744 21.3523 28.0096C21.0487 27.6019 18.9226 27.4109 18.9226 27.4109C18.9226 27.4109 18.6572 27.3301 18.1879 27.5242C17.7156 27.7162 17.2688 27.6925 16.8514 27.796C16.4339 27.8995 16.0194 27.3559 15.6994 27.2426C15.3794 27.1229 14.955 26.8349 14.955 26.8349L14.059 26.7475L12.2598 25.9869L9.40133 23.1392L8.62458 24.3552L8.38501 25.86L9.24922 27.6433L11.5761 29.7629L16.1132 30.9149L18.8025 30.1226L22.1715 28.6986L23.0163 27.7926V27.7928Z" fill="#F1D789"></path>
<path fill-rule="evenodd" clip-rule="evenodd" d="M6.89645 17.7282L7.47245 15.984L8.15874 14.8576L10.3689 14.6731L9.70541 16.6085L7.85773 19.8966L8.62466 22.8318L7.26552 23.5113L6.84781 22.8706L6.51138 21.4014L6.48877 19.7509L6.89645 17.7282Z" fill="#F4ECB4"></path>
<path fill-rule="evenodd" clip-rule="evenodd" d="M9.37538 27.6732L8.95148 27.0809C8.95148 27.0809 8.8382 26.7993 8.90305 26.5534C8.96705 26.3042 8.95788 26.288 8.92567 26.1941C8.89346 26.1002 8.62146 25.7766 8.63767 25.4982C8.65367 25.2166 8.61505 25.1228 8.82199 24.8996C9.03873 24.6829 8.9741 24.3074 8.9741 24.3074L9.25569 24.4821L9.31969 24.3851C9.31969 24.3851 9.42316 24.4659 9.42316 24.5922C9.44577 24.4175 9.35191 23.6083 9.56545 23.424C9.779 23.2397 10.1577 24.288 10.1577 24.288L9.92471 22.7669L9.32588 21.2072L8.26113 19.7832L8.19713 18.2135V18.0776C8.19713 18.0776 7.70839 18.8286 7.57249 19.4216C7.47543 19.8293 7.70839 20.3245 7.65996 20.9103C7.62092 21.4929 7.5725 21.4474 7.71479 21.6783C7.85708 21.9091 8.20354 22.3838 8.06764 22.7268C7.94796 23.0214 7.54007 22.8143 7.54007 22.8143C7.54007 22.8143 7.45921 23.0536 7.34913 23.1411C7.31031 22.9988 7.26828 22.9081 7.19063 22.8211C7.18401 22.8761 7.16801 22.9506 7.16801 22.9506C7.16801 22.9506 7.09676 22.7272 7.02551 22.4456C6.92866 22.0704 6.82497 21.5752 6.73111 21.3099C6.69228 21.462 6.59521 21.9247 6.59521 21.9247L6.65026 22.6368L6.91564 23.6141L7.17164 24.2541L7.42082 25.0372L7.63735 25.5633L7.81207 25.9646L7.96418 26.8676L8.69868 27.6441L9.09036 27.8191L9.37495 27.6734L9.37538 27.6732Z" fill="#F3E19D"></path>
<path fill-rule="evenodd" clip-rule="evenodd" d="M7.28143 16.3042C7.28143 16.3042 6.75386 17.2002 6.60197 18.1035C6.45007 19.0067 6.31397 19.9612 6.40997 21.1908C6.50703 22.4305 6.69157 23.1908 6.84047 23.7346C7.09647 24.6377 7.75952 25.8933 7.75952 25.8933L7.78213 25.8447C7.67068 25.6335 7.58173 25.4111 7.51674 25.1812C7.42927 24.8382 7.39685 24.4305 7.31599 24.246C7.24474 24.0617 7.12506 23.9029 7.06682 23.6764C7.01178 23.4596 7.00282 23.1166 6.83386 22.861C6.76261 22.7573 6.67514 22.4856 6.64933 22.2138C6.6169 21.8059 6.66554 21.3496 6.62671 20.9743C6.55546 20.3497 6.50703 19.9258 6.57167 19.5987C6.63631 19.2717 6.97317 18.3433 7.18031 17.6053C7.31621 17.1328 7.23514 16.7347 7.48431 16.3236C7.73349 15.916 7.88581 15.5567 7.94063 15.3075C8.00463 15.081 7.28058 16.3042 7.28058 16.3042H7.28143Z" fill="#F2E8B0"></path>
<path fill-rule="evenodd" clip-rule="evenodd" d="M9.78323 15.9451C9.78323 15.9451 9.51145 16.0261 9.38195 16.1684C9.25246 16.3043 9.19742 16.4176 9.0227 16.6474C8.84798 16.8771 8.83817 17.0649 8.69566 17.3529C8.55337 17.6345 8.23934 18.0583 8.20051 18.2105C8.16169 18.3626 8.09705 19.0745 8.01619 19.4111C7.94494 19.7477 8.09705 20.162 8.09705 20.162L8.28137 20.123C8.28137 20.123 8.28137 20.3626 8.4659 20.5245C8.65022 20.683 8.68265 19.9871 8.68265 19.9871L9.37193 17.6603L10.4106 16.9548L10.5239 16.3852L9.78281 15.9451H9.78323Z" fill="#F5EEC0"></path>
<path fill-rule="evenodd" clip-rule="evenodd" d="M10.288 17C10.288 17 9.79921 17.0322 9.55985 17.2072C9.46279 17.2782 9.42396 17.3364 9.32049 17.4239C9.12956 17.5824 8.93521 17.7281 8.84156 17.9359C8.73788 18.1428 8.6246 18.4569 8.54695 19.0491C8.51452 19.2983 8.51452 19.528 8.49191 19.7288C8.45948 20.0006 8.41105 20.2173 8.43687 20.3688C8.46929 20.6794 8.78972 20.8413 8.82087 21.1939L9.48433 20.8575L10.109 18.3946L11.4359 17.5626L10.685 16.7212L10.2871 16.9985L10.288 17Z" fill="#E6DB9D"></path>
<path fill-rule="evenodd" clip-rule="evenodd" d="M6.78781 33.5847C6.79058 33.5604 6.79336 33.5361 6.79613 33.5111C6.89298 32.6791 6.90941 32.0485 6.98045 31.6536C7.08392 31.0939 7.15517 30.8856 7.13896 30.6761C7.11634 30.3397 7.09053 30.0937 7.12296 29.8348C7.17138 29.4917 7.50802 29.084 7.49842 28.8024C7.49181 28.5791 7.37853 28.4336 7.28146 28.2977C7.1844 28.1618 7.10674 28.0485 7.10674 28.0485C7.10674 28.0485 7.77021 27.5922 7.76381 25.7539C7.77736 25.7577 7.7904 25.7632 7.80264 25.7701L8.12946 26.6988L8.35282 26.9705L9.21042 28.5693L10.314 29.6406L11.9449 30.7376L12.9676 31.8505L13.0711 34.8182L11.7346 36.5528L11.5157 36.9492C9.77676 36.0762 8.18215 34.9414 6.7876 33.5845L6.78781 33.5847Z" fill="#E5CB7A"></path>
<path fill-rule="evenodd" clip-rule="evenodd" d="M10.8706 36.4239C10.8706 36.4239 10.8932 36.055 11.1974 35.8155C11.2461 35.8963 11.2783 35.9742 11.2687 36.0322C11.3237 35.9354 11.7088 35.3139 12.5794 35.152C13.45 34.9935 13.6604 34.3593 13.6604 34.3593L15.508 32.6797L17.6213 30.7347L20.1909 29.8317L21.3918 29.5371C21.3918 29.5371 21.4144 29.6245 21.3692 29.8187C21.5923 29.8027 22.0875 29.6894 22.602 29.5081C22.8092 29.4272 23.0035 29.3948 23.107 29.5017C23.2591 29.644 23.2817 29.9806 23.2913 30.1811C23.5405 30.1261 23.8285 29.8867 24.0593 29.9093C24.4284 29.9482 24.7552 30.3819 25.1307 30.3819C25.6258 30.3819 25.849 30.0777 26.1954 29.8381C26.4026 29.6958 26.7002 29.5181 26.8685 29.398C27.2698 29.1034 31.5157 27.8057 31.5157 27.8057L33.0044 27.9027L33.2439 29.5015L33.1159 33.6807C33.1002 33.6958 33.0844 33.7116 33.0684 33.7267L26.2997 37.2619L16.9173 38.7002C14.8156 38.3568 12.7875 37.6592 10.9192 36.637L10.8712 36.4237L10.8706 36.4239Z" fill="#D8C173"></path>
<path fill-rule="evenodd" clip-rule="evenodd" d="M7.35681 34.1164C7.49014 33.8376 7.61004 33.6044 7.63116 33.521C7.6478 33.6891 7.6783 34.058 7.73974 34.4501C7.61075 34.3404 7.4831 34.2291 7.35681 34.1162V34.1164Z" fill="#F1D789"></path>
<path fill-rule="evenodd" clip-rule="evenodd" d="M14.2106 38.0494L15.424 37.7119L15.5275 37.7443C15.5275 37.7443 15.5825 37.7768 15.5825 37.8866C15.7347 37.7994 15.8641 37.8154 15.958 37.7574C16.0064 37.8608 16.0549 38.2039 16.2686 38.2459C16.4918 38.2945 16.7313 38.1488 16.9741 37.9645C17.2135 37.7736 17.4861 37.534 17.6924 37.4369C17.7681 37.5761 17.8351 37.7198 17.8932 37.8672C18.1649 37.6505 18.6375 36.7703 19.3105 36.7863C19.5051 36.3265 19.8301 35.9339 20.2454 35.6569C20.87 35.233 21.2615 35.2006 21.7502 35.2394C21.9443 34.9872 22.1836 34.7733 22.4557 34.6083C22.5366 34.6408 22.7599 34.7767 23.0383 34.6472C23.3199 34.5179 23.6369 34.0161 24.0544 33.9515C24.2794 33.9205 24.5082 33.9686 24.7017 34.0874C24.7017 34.0874 25.9177 32.8801 26.7567 32.4788C26.7243 32.3818 26.6597 32.0161 27.6433 31.207C27.6984 31.2556 27.6596 31.3915 27.6984 31.399C27.7144 31.399 27.9544 31.2955 28.2582 31.0623C28.6336 30.7809 29.0833 30.4863 29.3551 30.4055C29.8671 30.2534 30.4103 30.564 30.4103 30.564C30.4565 30.5316 30.5079 30.5075 30.5624 30.4927C30.6917 30.4701 30.7855 30.4539 30.8568 30.4287C30.8504 30.597 30.9443 30.885 30.8568 31.1342C30.9581 31.1912 31.0654 31.2368 31.1768 31.2701C31.122 31.3898 31.0021 31.694 30.8015 31.8397C30.9696 31.9206 30.9923 32.0144 31.2318 32.0957C31.1348 32.2316 30.9758 32.4648 30.905 32.6077C30.8337 32.7598 30.578 33.3908 30.4647 33.6302C30.345 33.8698 30.1833 34.3099 30.1054 34.3982C30.0276 34.4865 29.7462 34.8609 29.5294 35.0452C29.7214 34.974 30.5069 34.7346 30.8401 34.644C30.7409 34.7895 30.2381 35.5355 29.7547 36.2529C27.4401 37.6402 24.8565 38.5183 22.1759 38.8286C19.4953 39.1389 16.7794 38.8744 14.2091 38.0526L14.2106 38.0494Z" fill="#E0CD81"></path>
<path fill-rule="evenodd" clip-rule="evenodd" d="M10.368 16.9127C10.368 16.9127 10.0866 16.9127 10.0316 16.9516C9.97651 16.9904 10.3132 17.0715 10.4166 17.1103C10.5201 17.1491 10.7434 17.327 10.8017 17.4695C10.8567 17.6054 12.8243 18.3982 12.8243 18.3982L14.2159 18.3269L14.6957 17.6641L13.783 16.8647L14.423 14.978L13.5752 15.1139L11.5364 16.3299L10.5137 16.7216L10.368 16.9127Z" fill="#DFC57C"></path>
<path fill-rule="evenodd" clip-rule="evenodd" d="M13.4239 17.5373C13.4441 17.5698 13.4724 17.5965 13.5061 17.6147C13.5398 17.6329 13.5777 17.6418 13.6159 17.6407C13.9039 17.6407 14.1691 17.712 14.2792 17.8575C14.4637 18.0906 14.9751 18.835 14.9751 18.835L16.1983 19.2751L16.2773 17.8346L14.9407 16.906L13.4197 17.4658V17.537H13.4231L13.4239 17.5373Z" fill="#E5CC7C"></path>
<path fill-rule="evenodd" clip-rule="evenodd" d="M13.1841 18.0713C13.1841 18.0713 13.4072 18.0875 13.6888 17.9839C13.9704 17.8802 14.4331 17.657 14.6339 17.7445C14.9153 17.8642 14.857 18.2396 15.1614 18.5765C15.3458 18.7836 15.6824 18.7772 15.8733 19.0006C16.0643 19.224 16.7211 19.1203 16.7211 19.1203L16.9703 20.4643L15.9704 21.746L15.6434 23.3381H14.2913L13.0561 22.8481L12.4476 21.3761L12.7518 19.8874L13.1841 18.0713Z" fill="#D2C281"></path>
<path fill-rule="evenodd" clip-rule="evenodd" d="M15.7995 18.1358C15.833 18.1461 15.8678 18.1516 15.9029 18.152C15.8641 18.1844 15.783 18.2555 15.8155 18.44C15.8479 18.6245 15.9513 18.8575 15.8641 18.9998C15.9337 19.0759 15.9857 19.1666 16.0162 19.2652C16.0712 19.4239 16.0875 19.5694 16.4465 19.5922C16.3947 19.6241 16.3469 19.6621 16.3042 19.7055C16.3042 19.7055 16.5534 19.9222 16.6797 20.1228C16.8089 20.1172 17.152 20.0106 17.152 20.0106L17.2232 20.0592L17.3753 19.9952C17.3753 19.9952 17.2331 19.9402 17.3365 19.5939C17.4336 19.2897 17.5211 19.3059 17.5285 19.2833C17.536 19.2607 17.5998 18.9403 17.5998 18.8108C17.6482 18.6427 17.687 18.1313 17.687 18.1313L17.5836 17.0019L17.0012 16.6491L16.5276 16.1919L16.0808 17.0333L15.7867 17.3266L15.764 18.0547L15.7995 18.1358Z" fill="#E2C270"></path>
<path fill-rule="evenodd" clip-rule="evenodd" d="M17.2007 17.191C17.2007 17.191 17.3042 17.4854 17.3432 17.712C17.3569 17.6679 17.3646 17.6222 17.3658 17.5761C17.3658 17.5761 17.4467 18.0228 17.4627 18.2073C17.4951 18.2007 17.5267 18.1911 17.5339 18.2233C17.5412 18.2556 17.615 18.615 17.5979 18.8156C17.7327 18.5932 17.9192 18.4067 18.1415 18.272C18.271 18.1909 18.4231 18.1037 18.5818 18.097C18.831 18.0906 19.0121 18.2558 19.3099 18.2558C20.0282 18.2558 20.6789 17.7282 21.1578 17.5665C21.5104 17.4466 21.8147 17.3593 22.0282 17.165C22.1319 17.0777 22.3164 16.8836 22.4845 16.5954C22.7079 16.2114 22.9408 15.8771 23.174 15.8351C23.0685 15.8545 22.9612 15.862 22.854 15.8577C22.854 15.8577 22.9253 15.7864 23.046 15.6894C23.1668 15.5923 23.3114 15.4726 23.5183 15.4726C23.8874 15.4726 24.0717 15.5274 24.2789 15.5274C24.486 15.521 24.6057 15.4726 24.6057 15.4726C24.6057 15.4726 24.8227 15.6247 25.3112 15.6247C25.7999 15.6311 26.1268 15.6732 26.3826 15.696C26.6383 15.7188 27.4957 15.6247 27.7417 15.632C27.9021 15.6382 28.0595 15.6767 28.2046 15.7453L27.4117 13.4413L24.5632 10.9517L22.8675 12.1523L20.2588 14.7607L17.7347 15.696L17.2071 16.2882V17.191H17.2007Z" fill="#CCB360"></path>
<path fill-rule="evenodd" clip-rule="evenodd" d="M22.8642 15.8705C22.8642 15.8705 22.9354 15.7994 23.0549 15.7024C23.1744 15.6053 23.3205 15.4854 23.5274 15.4854C23.8963 15.4854 24.0808 15.5404 24.288 15.5404C24.4951 15.534 24.6148 15.4854 24.6148 15.4854C24.6148 15.4854 24.832 15.6373 25.3203 15.6373C25.809 15.6437 26.1359 15.6857 26.3916 15.7083C26.6474 15.731 27.5048 15.6373 27.7508 15.6443C27.9111 15.6504 28.0685 15.6889 28.2135 15.7576L27.8543 14.7187L27.437 13.9259L26.2459 12.6216C26.2459 12.6216 24.8166 11.7802 24.8057 11.7738C24.7993 11.7674 24.3106 11.6379 24.3106 11.6379L23.0161 12.4211L21.8415 15.46L21.8188 16.1L22.5792 16.4593C22.7701 16.1393 22.9807 15.8833 23.178 15.8508C22.9999 15.8703 22.864 15.8703 22.864 15.8703L22.8642 15.8705Z" fill="#D5B457"></path>
<path fill-rule="evenodd" clip-rule="evenodd" d="M22.848 16.0874C22.7347 16.0938 22.6411 16.0712 22.6151 15.9903C22.518 15.7185 22.4403 15.6797 22.3591 15.6797C22.2778 15.6797 22.1681 15.8544 22.1031 15.8704C22.038 15.8864 21.9608 15.6699 21.9608 15.6699L21.8895 15.6375C21.8895 15.6375 21.472 15.9092 21.1776 16.2297C20.8832 16.5501 20.4009 17.0939 20.1841 17.1907C19.9674 17.2876 19.2229 17.3202 18.9681 17.3753C18.7134 17.4303 18.431 17.6148 18.3921 17.6569C18.3533 17.6989 18.5056 17.7441 18.5282 17.7861C18.5509 17.825 18.2789 17.8088 18.2562 17.8501C18.2402 17.8826 18.3202 18.0669 18.3599 18.1608C18.4294 18.1262 18.5055 18.1074 18.5831 18.1057C18.8322 18.0993 19.0136 18.2644 19.3112 18.2644C20.0297 18.2644 20.6801 17.7369 21.1591 17.5749C21.5119 17.4553 21.8161 17.3678 22.0297 17.1737C22.1331 17.0864 22.3177 16.8921 22.486 16.6041C22.6089 16.4067 22.7288 16.2222 22.8487 16.0863L22.848 16.0874Z" fill="#D2B257"></path>
<path fill-rule="evenodd" clip-rule="evenodd" d="M12.544 32.1036C12.544 32.1036 12.48 31.864 11.8869 31.246C11.7186 31.0713 11.6152 30.926 11.5019 30.8221C11.2203 30.5565 11.0552 30.4854 10.8546 30.3333C10.4145 30.0065 9.93558 30.0065 9.56673 29.6052C9.19787 29.204 8.76801 28.4372 8.46934 27.6537C8.17494 26.8705 8.09387 26.6213 8.09387 26.5987C8.09387 26.5761 8.17494 26.424 8.27841 26.4466C8.38187 26.4692 8.38187 26.6698 8.4079 26.7184C8.45945 26.7978 8.51792 26.8725 8.58262 26.9416C8.73473 27.1165 8.95147 27.3256 9.06155 27.6374C9.03894 27.3721 8.94827 27.0777 8.94827 27.0777C8.94827 27.0777 9.51787 27.4369 10.0032 27.8122C10.492 28.1876 10.6925 28.3171 10.8352 28.5565C10.9779 28.7958 11.3141 29.4271 11.4752 29.6116C11.6363 29.7962 13.8432 30.4919 13.8432 30.4919L14.893 31.2746L15.4142 32.417L15.0063 33.057L14.2232 33.2253L12.9513 32.6557L12.544 32.1034V32.1036Z" fill="#D2B159"></path>
<path fill-rule="evenodd" clip-rule="evenodd" d="M9.71838 28.1683C9.71838 28.1683 9.98377 28.5921 10.631 28.9934C11.2136 29.3463 12.1359 29.6667 12.9581 29.8576C13.4304 29.9709 13.9029 30.0582 14.3268 30.0648C15.4692 30.0808 16.2556 29.7542 17.2299 29.6473C17.7574 29.5923 18.4047 29.5502 19.0777 29.3913C19.9417 29.1841 20.4531 28.951 21.149 28.6233C21.6537 28.3903 22.1167 28.2156 22.4919 27.9923C23.0195 27.6816 23.4046 27.3354 23.8513 27.2319C23.7963 27.384 23.738 27.6558 23.2979 27.9374C23.5309 27.9308 23.8513 27.9148 23.8513 27.9148C23.8513 27.9148 23.5407 28.0991 22.9937 28.5134C22.657 28.7694 22.2105 29.2027 21.7542 29.4907C21.4596 29.6752 21.1392 29.8107 20.9288 29.9212C20.4168 30.2028 20.2103 30.3451 19.8739 30.6892C19.9936 30.6828 20.0034 30.6892 20.0034 30.6892C20.0034 30.6892 19.5793 30.7443 19.2753 30.906C19.2113 30.906 19.1004 30.8833 18.9062 30.9384C18.7541 30.9868 18.5534 31.0971 18.3464 31.1551C18.0518 31.2426 17.955 31.2038 17.955 31.2038L18.0034 31.3008C18.0034 31.3008 17.6194 31.2942 17.4914 31.3072C17.514 31.3136 17.5076 31.3235 17.5076 31.3235C17.4851 31.3272 17.4635 31.3349 17.4436 31.3461C17.382 31.386 17.3143 31.4155 17.2431 31.4333C17.2043 31.4397 17.1718 31.4397 17.1232 31.4495C17.1394 31.4884 17.2657 31.7055 17.3239 31.8335C17.2755 31.866 16.5472 32.4161 16.5472 32.4161C16.5698 32.4517 16.5882 32.4897 16.6022 32.5294C16.6248 32.6005 16.6347 32.7041 16.6573 32.7526C16.7121 32.8496 16.7445 32.8659 16.7445 32.8659C16.7445 32.8659 16.6573 32.8821 16.5049 32.9209C16.3757 32.9533 16.2169 33.0081 15.9929 33.0406C15.9242 33.0495 15.8551 33.0549 15.7858 33.0568C15.8182 33.128 15.9605 33.3998 15.6983 33.7136C15.4361 34.0275 15.3553 34.0731 15.2744 34.2736C15.2337 34.2429 15.1904 34.2157 15.1449 34.1926C15.0577 34.1537 14.9378 34.0957 14.8958 34.0179C14.8713 34.1216 14.8388 34.2233 14.7987 34.3221C14.7179 34.5388 14.5982 34.7526 14.5756 34.9143C14.4881 34.8172 14.3264 34.6263 14.103 34.6651C13.8797 34.7039 13.7017 35.0081 13.6629 35.0956C13.6629 35.0406 13.6241 34.9985 13.6145 35.0632C13.6079 35.1344 13.485 35.8785 12.7989 36.4806C12.7925 36.3285 12.7925 35.9918 12.7763 35.882C12.7123 35.946 12.634 36.0405 12.1679 36.2412C11.7116 36.4417 11.7839 36.6425 11.7839 36.6425C11.7839 36.6425 11.7451 36.3225 11.991 35.9854C12.2402 35.649 12.3923 35.4903 12.3923 35.4645C12.3883 35.4382 12.3771 35.4135 12.3599 35.3932C12.3275 35.3608 12.2628 35.322 12.2628 35.2961C12.3016 35.2801 12.6867 35.0956 12.6641 34.7135C12.6415 34.3707 12.496 34.1926 12.3923 34.0665C12.3763 34.0503 12.5446 33.9306 12.5218 33.8918C12.5056 33.8692 12.2987 33.7168 12.2726 33.6358C12.2787 33.5874 12.2896 33.5397 12.3051 33.4935C12.3277 33.4222 12.3439 33.3736 12.3375 33.3252C12.3213 33.2443 12.2338 33.0209 12.208 32.9983C12.2306 33.0047 12.3923 32.9983 12.3923 32.9983C12.3923 32.9983 12.263 32.7912 12.2402 32.6941C12.2174 32.5971 12.1689 32.3413 12.1431 32.2928C12.1982 32.2992 12.3341 32.3088 12.3341 32.2928C12.3407 32.2442 12.2144 32.1633 12.2701 32.1008C12.3089 32.1072 12.3833 32.1397 12.4544 32.2303C12.4156 32.1267 12.3509 31.9261 12.2148 31.8453C12.2788 31.8227 12.4964 31.7642 12.6873 31.8775C12.8783 31.9908 12.9433 32.1493 12.9433 32.1493C12.9433 32.1493 13.0566 32.2367 13.2316 32.3662C13.4321 32.5247 13.6877 32.7502 14.0956 32.9098C14.183 32.9584 14.4062 32.9584 14.5681 32.926C14.6386 32.9092 14.7062 32.882 14.7686 32.8452C14.7912 32.8319 14.8151 32.821 14.8399 32.8127C14.8051 32.7429 14.7651 32.6758 14.7202 32.612C14.7752 32.612 14.8399 32.6186 14.8399 32.6186C14.8399 32.6186 14.8787 32.5311 14.704 32.3626C14.7428 32.3238 14.7915 32.2986 14.7915 32.2331C14.7364 32.2267 14.6393 32.1459 14.6167 32.1134C14.6489 32.0908 14.6976 32.0164 14.7526 31.9937C14.704 31.9549 14.5843 31.793 14.5293 31.777C14.5818 31.7575 14.6327 31.7336 14.6814 31.7057C14.6814 31.7057 14.4096 31.6345 14.3221 31.5763C14.2347 31.5123 14.1054 31.4015 14.0277 31.3691C13.9467 31.3367 13.8044 31.3207 13.7461 31.2558C13.8009 31.272 13.8884 31.2558 13.9533 31.2558C14.0017 31.2558 14.0245 31.2622 14.0405 31.2622C14.0341 31.2396 14.0341 31.191 14.1604 31.175C14.2212 31.1658 14.2801 31.1472 14.3351 31.1199C14.3351 31.1199 14.2152 31.1135 14.0791 30.984C13.943 30.8545 13.83 30.7511 13.7523 30.7349C13.6715 30.7187 13.5193 30.7899 13.4255 30.7833C13.296 30.7673 13.2409 30.7024 13.2409 30.7024C13.2409 30.7024 12.8107 30.7413 11.856 30.1589C11.0306 29.6539 10.6713 29.2074 10.6713 29.2074C10.5941 29.1794 10.5194 29.1447 10.4482 29.1037C10.1376 28.942 9.70708 28.6054 9.72009 28.1651L9.71838 28.1683Z" fill="#C2A44D"></path>
<path fill-rule="evenodd" clip-rule="evenodd" d="M21.6245 8.74437C21.6994 8.76869 21.7659 8.81356 21.8165 8.87386C21.9686 9.04858 22.0657 9.37861 21.7194 9.73146C21.8553 9.77989 21.9114 9.79546 22.03 9.77989C21.9104 9.92239 21.6386 10.2266 21.6224 10.492C21.6061 10.7087 21.742 10.7736 21.742 10.7736C21.742 10.7736 21.5349 11.013 21.5253 11.4136C21.6231 11.3033 21.7302 11.2015 21.8453 11.1094C22.0849 10.9184 22.4149 10.7017 22.6382 10.5658C22.6352 10.6228 22.6429 10.6798 22.6609 10.7339C22.6609 10.7339 23.0781 10.3909 23.4289 10.5432C23.5874 10.6144 23.5161 10.8376 23.5161 10.8376C23.5161 10.8376 23.7331 10.7567 23.8852 10.9088C24.0373 11.061 24.2523 11.4533 24.3626 11.6054C24.411 11.6766 24.5373 11.8125 24.6666 12.0229C24.8432 12.3174 24.9907 12.6284 25.1069 12.9515C25.1133 12.7832 25.1554 12.5212 25.6345 12.6861C26.1134 12.8544 26.657 13.2073 27.1133 13.9021C27.5697 14.597 27.6827 15.3814 27.9125 15.68C28.1454 15.968 28.385 16.447 28.4012 16.6477C28.4174 16.8485 28.33 17.4955 28.8089 19.2463C28.9448 18.7028 29.152 17.4955 29.152 17.4955L29.2652 16.4308L29.3947 13.1363L25.9545 10.2782L23.2652 8.32666L21.5144 8.49498L21.6243 8.74415L21.6245 8.74437Z" fill="#CAA13E"></path>
<path fill-rule="evenodd" clip-rule="evenodd" d="M28.0162 13.6471C28.0162 13.6471 27.9675 13.3271 27.1586 12.7831C26.3494 12.2459 25.7183 12.2459 25.1359 11.7896C24.6892 11.4304 24.2233 10.605 23.9199 10.3332C23.6253 10.0646 23.5769 9.28786 23.5769 9.28786L24.5704 8.45586L26.0479 6.32018L27.297 4.94482L27.8956 5.77682L28.7276 6.7541L29.1903 8.71528L29.3587 11.5859L28.0147 13.6473L28.0162 13.6471Z" fill="#B59544"></path>
<path fill-rule="evenodd" clip-rule="evenodd" d="M29.0163 17.088C29.0408 16.6527 28.987 16.2165 28.8575 15.8001C28.6442 15.1367 28.1781 13.9586 27.9615 13.5175C27.8741 13.0287 27.9389 12.9899 28.0328 12.9348C28.1267 12.8798 28.4795 12.6788 28.6728 11.9738C28.8661 11.2687 29.4658 11.2457 29.4658 11.2457L29.8346 10.9739L30.3946 12.3751L30.8832 13.6405L31.0353 14.6082L31.1485 15.4334L30.8832 17.1778L29.5726 18.3622L29.0161 17.088H29.0163Z" fill="#C89D3A"></path>
<path fill-rule="evenodd" clip-rule="evenodd" d="M10.7283 36.531V36.4952C10.7555 36.4781 10.7795 36.4565 10.7993 36.4312C10.8219 36.3987 10.8384 36.3599 10.8544 36.3503C10.8868 36.3341 11.0389 36.2863 11.1197 36.3017C11.2006 36.317 11.4144 36.4051 11.5276 36.3987C11.7606 36.3923 12.0324 36.2142 12.4629 36.2953C13.1101 36.415 13.2622 36.8551 13.6377 37.1042C13.8937 37.2792 14.1587 37.2013 14.1975 37.2013H14.2848C14.301 37.2013 14.4206 37.0654 14.4855 37.072C14.615 37.0784 14.6278 37.1853 14.7086 37.1917C14.8996 37.2143 15.2686 37.0946 15.4532 37.1433C15.5079 37.1604 15.5577 37.1905 15.5982 37.2311C15.6388 37.2716 15.6689 37.3213 15.6861 37.376C15.725 37.4957 15.6925 37.6478 15.5987 37.7353C15.3981 37.9196 15.2072 38.0945 15.1684 38.2473C15.2178 38.2849 15.2652 38.3251 15.3105 38.3676C13.7092 37.9596 12.1686 37.3428 10.7283 36.5329V36.531Z" fill="#CEB052"></path>
<path fill-rule="evenodd" clip-rule="evenodd" d="M27.9612 30.0649C27.9612 30.0649 28.4659 29.3918 28.6409 29.0583C28.8156 28.7147 28.0875 24.3627 28.0875 24.3627L29.5503 19.5699L29.5113 18.01C29.5113 18.01 29.5825 16.5698 29.7508 15.9452C29.9516 16.3044 30.5762 16.7381 30.7121 16.9679C30.7761 16.5276 30.9935 15.5989 30.9613 14.6086C31.081 14.793 31.369 16.6475 31.369 16.6475L31.657 17.8965L32.0324 19.2235L32.4499 20.6249L32.6991 21.5925L32.8414 21.8255L32.9613 22.2332L33.0746 22.6735L33.4014 23.7058L33.5934 24.5536L33.7455 26.0909C33.7786 26.2086 33.8024 26.3287 33.8168 26.4501C33.8232 26.6185 33.7941 26.7155 33.7941 26.7447C33.7941 26.774 33.8492 27.1136 33.8266 27.3694C33.7941 27.6254 33.7941 27.8257 33.5934 28.0094C33.3926 28.1931 33.2666 29.2909 33.2666 29.2909L32.9073 29.0515C32.9073 29.0515 32.9786 28.7245 32.8102 28.4269C32.6419 28.1293 32.3151 28.0676 32.1306 28.1163C31.9462 28.1551 31.5774 28.2131 31.4575 28.3168C31.3442 28.4203 31.066 28.7407 30.8102 28.8864C30.4902 29.0784 29.9689 29.0935 29.6907 29.1582C29.4091 29.2222 29.0985 29.4142 28.7714 29.6371C28.515 29.8031 28.2443 29.9459 27.9625 30.0638L27.9612 30.0649Z" fill="#CCA847"></path>
<path fill-rule="evenodd" clip-rule="evenodd" d="M27.9612 37.1361C27.9612 37.1361 27.9825 37.15 28.0237 37.1726C30.3229 36.0954 32.383 34.5684 34.0824 32.6819C34.0638 32.027 34.0397 31.3556 34.0132 31.1069C33.9584 30.5793 33.9972 30.0421 33.981 29.7315C33.9648 29.4209 33.7901 28.1554 33.7092 27.8286C33.6218 27.5018 33.4532 27.3398 33.4276 27.3398C33.405 27.3465 33.2689 27.9549 33.2689 28.1078C33.2689 28.2608 33.2365 28.629 33.2365 28.7229C33.2139 28.7163 33.2043 28.6589 33.2043 28.6354C33.1718 28.7163 33.133 28.8588 33.1168 28.875C33.1006 28.8912 33.1394 28.7391 33.1168 28.7067C33.0942 28.6742 33.0528 28.6905 33.0618 28.6096C33.0656 28.5617 33.0732 28.5141 33.0844 28.4673C33.0844 28.4673 32.9873 28.6096 32.9163 28.9721C32.845 29.3313 32.845 29.3411 32.8192 29.3733C32.7966 29.4124 32.6671 29.5417 32.6605 29.5903C32.6541 29.6776 32.7804 29.765 32.79 29.8134C32.7964 29.8945 32.6767 30.2698 32.6379 30.4534C32.599 30.6371 32.6153 30.997 32.5739 31.1815C32.5414 31.3499 32.5099 31.4469 32.3992 31.518C32.48 31.5342 32.5577 31.5568 32.5577 31.5568C32.5577 31.5568 32.6709 32.0357 32.3829 32.4436C32.2795 32.5859 32.2537 32.6508 32.1436 32.7803C31.9266 33.0196 31.7583 33.2923 31.7421 33.4696C31.7309 33.4172 31.7233 33.3642 31.7195 33.3108C31.7195 33.3108 31.383 33.7025 31.2405 33.9259C31.0562 34.2139 30.8004 34.1977 30.7285 34.2689C30.6566 34.3402 30.6411 34.4694 30.6645 34.5731C30.6005 34.5891 30.4802 34.6119 30.3992 34.8611C30.3603 34.9904 30.2633 35.1171 30.1112 35.2042C29.959 35.2912 29.7745 35.3174 29.6806 35.3401C29.7615 35.3627 29.7939 35.3627 29.8328 35.3885C29.7843 35.4693 29.561 35.5956 29.3118 35.7576C29.0626 35.9097 28.9427 36.1328 28.8813 36.2785C28.8173 36.4144 28.7228 36.5019 28.5707 36.5181C28.6347 36.5569 28.7294 36.6474 28.7778 36.6766C28.7066 36.6928 28.5858 36.6928 28.3701 36.8773C28.1436 37.0651 28.0659 37.1201 27.9622 37.1363L27.9612 37.1361Z" fill="#C39D3C"></path>
<path fill-rule="evenodd" clip-rule="evenodd" d="M23.4581 38.6358C23.582 38.5489 23.7162 38.4778 23.8577 38.4239C24.3624 38.2234 24.8964 38.1846 25.1067 38.1199C25.3075 38.0559 25.466 37.9676 25.7152 37.9192C25.7086 37.9759 25.703 38.0293 25.697 38.0796C24.9624 38.3106 24.2144 38.4963 23.457 38.6358H23.4581Z" fill="#D2BA6B"></path>
<path fill-rule="evenodd" clip-rule="evenodd" d="M32.7681 25.3593C32.7681 25.3593 32.6646 25.9191 32.4801 26.272C32.2955 26.6248 32.0961 27.1134 32.0961 27.1134C32.0973 27.0033 32.1103 26.8936 32.1349 26.7863C31.9019 26.9222 31.3355 27.2493 31.1749 27.3948C31.0228 27.5307 30.767 27.7702 30.7024 27.8835C30.8545 27.437 31.013 27.0357 31.039 26.8512C30.806 27.0195 29.7185 27.9159 29.1523 28.5081L27.3884 29.9353C27.1849 30.0451 26.9753 30.1433 26.7606 30.2293C26.4566 30.3586 26.0973 30.4687 25.8319 30.5724C25.9032 30.3814 26.0163 30.2129 26.175 30.0512C26.3433 29.8927 26.8481 29.3457 26.9257 29.0912C26.997 28.8258 27.0132 28.6673 26.9193 28.4439C26.8318 28.4665 26.6313 28.4764 26.4954 28.5152C26.3595 28.554 26.2138 28.6995 26.2138 28.6995C26.2138 28.6995 26.3173 28.1073 26.5406 27.5475C26.3723 27.5539 26.0843 27.6023 26.0843 27.6023C26.0843 27.6023 26.4856 26.9293 27.1723 26.4601C26.962 26.5049 26.7562 26.5687 26.5575 26.6509C26.1562 26.8192 25.7161 27.0684 25.3893 27.2043C25.5736 26.9483 26.8681 25.1008 27.6385 23.379C28.4065 21.6606 28.6934 21.2205 28.8617 20.2982C28.949 19.8419 28.9257 19.1676 28.949 18.5636C28.9716 17.9648 29.046 17.4276 28.9976 17.0684C29.1981 17.3175 29.9491 18.0198 29.9749 19.5895C29.9975 21.159 29.2566 23.2789 28.47 24.4211C28.662 24.4761 29.1595 24.541 29.6707 23.6531C30.1818 22.7652 30.1756 22.5173 30.3602 22.1483C30.3828 22.3328 30.3762 22.3974 30.3762 22.3974C30.3762 22.3974 31.1207 21.4946 31.4733 20.3586C31.5446 20.8473 31.7549 21.2779 31.4247 22.1743C31.1303 22.9832 30.7452 23.1808 30.7452 23.1808C30.7452 23.1808 30.9362 23.1484 31.2175 22.98C31.2662 23.0997 31.2566 23.236 31.3374 23.2843C31.4183 23.3325 31.5284 23.4137 31.5446 23.4914C31.6318 23.3619 31.7677 23.1968 31.81 23.0739C31.7775 23.3299 31.7549 24.4493 31.874 25.0189C32.1234 24.9963 32.3789 24.98 32.5537 24.5301C32.434 24.9704 32.434 25.2356 32.5148 25.6111C32.6475 25.5206 32.7672 25.3587 32.7672 25.3587L32.7681 25.3593Z" fill="#C0993A"></path>
<path fill-rule="evenodd" clip-rule="evenodd" d="M24.3592 7.521C24.3592 7.521 24.1101 7.62447 23.6862 7.62447C23.3173 7.62447 23.4208 7.48218 22.8448 7.48218C21.9582 7.48218 18.861 7.99418 18.3172 7.98692C17.9643 7.98052 19.508 8.13903 19.508 8.13903L23.4532 8.19407L24.2459 8.13007L24.5406 7.5306L24.3592 7.521Z" fill="#A88F33"></path>
<path fill-rule="evenodd" clip-rule="evenodd" d="M14.1295 15.233C14.1295 15.233 13.6246 15.6181 13.411 15.9127C13.1975 16.2073 13.0842 16.4013 12.8414 16.6408C12.8984 16.643 12.9554 16.6354 13.0098 16.6182C13.0098 16.6182 13.0098 16.6822 12.9709 16.6991C13.0045 16.6953 13.0384 16.6991 13.0703 16.7102C13.1022 16.7213 13.1312 16.7393 13.1552 16.7631C13.084 16.8019 12.8899 16.9962 13.042 17.226C13.1552 17.4007 13.3948 17.4167 13.3948 17.4167C13.3948 17.4167 13.3398 17.5754 13.5695 17.5592C14.0647 17.5366 14.6181 17.3197 14.8736 17.3747C15.1296 17.4387 15.2751 17.4622 15.4563 17.7762C15.6483 18.0868 15.8155 18.1354 15.8155 18.1354C15.8155 18.1354 15.9288 17.8472 15.903 17.4169C15.9959 17.185 16.0473 16.9386 16.0551 16.6888L15.8868 15.4494L15.1523 14.5205L14.2008 15.0481L14.1295 15.2324V15.233Z" fill="#E3C571"></path>
<path fill-rule="evenodd" clip-rule="evenodd" d="M15.0323 15.0486C15.0323 15.0486 15.1036 15.2169 15.4014 15.2329C15.369 15.3041 15.369 15.314 15.3788 15.3688C15.3852 15.4238 15.3948 15.5047 15.3948 15.5047C15.4276 15.4888 15.4572 15.4671 15.4823 15.4407C15.4985 15.5119 15.4661 15.625 15.4823 15.7061C15.4923 15.7554 15.5085 15.8032 15.5307 15.8484C15.5354 15.8373 15.5408 15.8265 15.5469 15.8161C15.5533 15.7999 15.6109 15.9909 15.7703 16.1361C15.7701 16.1138 15.7756 16.0918 15.7863 16.0721C15.7887 16.1127 15.8021 16.1519 15.8251 16.1854C15.8132 16.1797 15.8023 16.1721 15.7929 16.1628C15.7929 16.1628 15.8089 16.6748 15.8963 16.9396C15.911 16.9224 15.924 16.904 15.9352 16.8845C15.9352 16.8685 15.9288 17.027 15.9126 17.1405C15.8899 17.2538 15.9062 17.4123 15.9062 17.4123C15.9645 17.3664 16.0286 17.3283 16.0969 17.299C16.1939 17.26 16.3529 17.1403 16.4497 16.8749C16.5059 16.7246 16.5492 16.5698 16.5792 16.4122C16.6105 16.4724 16.6321 16.5372 16.6432 16.6042C16.6498 16.685 16.8019 16.643 16.8019 16.643L16.8344 16.2902L17.0264 15.4908L17.2011 14.9957L18.0425 13.6852L19.5627 12.5144L20.8896 12.8186L22.0092 11.2975L20.0805 10.1389L18.2552 10.3298L16.5986 12.6242L15.2719 14.7053L15.0323 15.0484V15.0486Z" fill="#D8B65B"></path>
<path fill-rule="evenodd" clip-rule="evenodd" d="M24.5923 11.7283C24.5923 11.7283 24.479 11.7509 24.1522 11.9203C23.8253 12.0897 23.5988 12.1435 23.4725 12.3926C23.3462 12.6418 23.3366 12.8393 23.3366 12.8393C23.3366 12.8393 23.5599 12.7423 23.6894 12.7099C23.8253 12.6776 23.9774 12.6872 23.9612 12.7423C23.9457 12.78 23.924 12.815 23.8972 12.8457C23.8972 12.8457 24.1532 12.8393 24.1464 12.9656C24.1396 13.0919 24.098 13.231 24.0495 13.2925C24.0009 13.3565 23.8004 13.4512 23.7778 13.5256C23.7227 13.6777 23.8004 13.6841 23.7711 13.807C23.7485 13.9269 23.6419 14.1599 23.2922 14.5676C22.933 14.9755 22.7802 15.2635 22.7802 15.2635C22.7802 15.2635 22.6055 14.9366 22.5148 14.655C22.4508 14.6872 22.1071 14.8782 22.1071 14.8782L21.311 12.1048L21.327 11.9203C21.327 11.9203 21.3982 11.8331 21.4144 11.6711C21.2948 11.6323 21.2786 11.5999 21.1198 11.448C20.9611 11.2961 20.8318 11.1113 20.5667 10.9851C20.5278 10.9138 20.4792 10.8169 20.2851 10.7779C20.0909 10.7389 19.9744 10.7069 19.9744 10.7069C19.9744 10.7069 20.0779 10.6678 20.1266 10.587C20.0067 10.6032 19.9098 10.642 19.6476 10.6356C19.3822 10.629 19.353 10.6194 19.2075 10.642C19.062 10.6646 18.8875 10.7295 18.8224 10.5061C18.7512 10.4511 18.5991 10.4997 18.4696 10.6904C18.3401 10.8812 18.2949 11.0335 18.0457 11.1079C18.0282 11.2178 17.9897 11.3232 17.9324 11.4185C17.8612 11.5384 17.7479 11.6581 17.5958 11.836C17.3562 12.1176 17.395 12.5804 17.0132 12.9332C16.6281 13.2859 17.0772 11.9557 17.0772 11.9557L17.692 10.4837L19.4428 8.77172L22.1613 8.5874L22.4267 9.9954L23.7536 10.4517L24.5918 11.73L24.5923 11.7283Z" fill="#D3AE4D"></path>
<path fill-rule="evenodd" clip-rule="evenodd" d="M25.0227 12.0389L23.8803 10.3918L23.0809 9.77674C23.0809 9.77674 22.5113 8.72842 22.4725 8.696C22.4401 8.67338 21.9029 8.61514 21.5599 8.59253L21.6239 8.75104C21.6987 8.77536 21.7653 8.82023 21.8159 8.88053C21.968 9.05525 22.065 9.38528 21.7188 9.73813C21.8547 9.78656 21.9108 9.80213 22.0294 9.78656C21.9097 9.92906 21.6379 10.2333 21.6217 10.4987C21.6055 10.7154 21.7414 10.78 21.7414 10.78C21.7414 10.78 21.5343 11.0196 21.5247 11.42C21.6225 11.3097 21.7295 11.208 21.8447 11.1158C22.0842 10.9238 22.4143 10.7079 22.6376 10.572C22.6346 10.6291 22.6422 10.6862 22.6602 10.7404C22.6602 10.7404 23.0775 10.3973 23.4282 10.5494C23.5867 10.6207 23.5155 10.844 23.5155 10.844C23.5155 10.844 23.7324 10.7632 23.8846 10.9153C24.0367 11.0674 24.2534 11.4589 24.3635 11.6112C24.4119 11.6824 24.5382 11.8183 24.6675 12.0285C24.8441 12.323 24.9916 12.6341 25.1078 12.9573C25.1142 12.8278 25.1402 12.6467 25.3638 12.6467L25.024 12.0383L25.0227 12.0389Z" fill="#CAA13E"></path>
<path fill-rule="evenodd" clip-rule="evenodd" d="M7.89653 16.7186C7.89653 16.7186 7.81568 16.5178 7.89653 16.1263C7.97738 15.7349 8.10368 15.5503 8.1457 14.9743C8.18773 14.3983 8.5632 13.6798 8.5632 13.6798L9.60192 13.2075L10.3366 13.4081L10.5534 14.3919L9.62453 14.9039C9.62453 14.9039 9.5761 15.1207 9.31392 15.2954C9.05173 15.4701 8.68928 15.606 8.60202 15.7842C8.54986 15.8932 8.5118 16.0085 8.48874 16.1272C8.48874 16.1272 8.22336 16.0722 8.06485 16.2469C7.89653 16.425 7.90293 16.5835 7.89653 16.7194V16.7186Z" fill="#F4EFC8"></path>
<path fill-rule="evenodd" clip-rule="evenodd" d="M9.99357 16.4563C9.99357 16.4563 9.9061 16.5113 9.84146 16.6483C9.77746 16.5448 9.6245 15.9298 9.6181 15.3764C9.6117 14.823 9.57864 14.6858 9.70664 14.4951C9.83464 14.3044 10.3366 14.1034 10.2654 13.76C10.1941 13.4331 9.89629 13.2972 9.53064 13.3911C9.27464 13.4551 9.08413 13.9995 8.81874 14.2713C8.618 14.4785 8.37864 14.446 8.314 14.5593C8.22653 14.7114 8.30738 14.8635 8.28157 14.9606C8.27496 14.993 8.1941 15.1677 8.0484 15.3781C7.754 15.802 7.25565 16.4008 7.1908 16.938C7.21341 16.6338 7.19741 16.6274 7.27826 16.2907L7.22962 16.2099L7.54962 15.1613L7.75677 14.2973L8.2197 12.8505L9.03506 11.3717L9.82802 10.4849L10.6532 10.5399L10.7503 11.7794L11.2228 14.1064L12.2163 15.3297L10.624 16.4012L9.99293 16.4563H9.99357Z" fill="#EBCC73"></path>
<path fill-rule="evenodd" clip-rule="evenodd" d="M10.4888 16.8961C10.4888 16.8961 10.3529 16.9285 10.3043 16.9027C10.2556 16.8769 10.2074 16.8476 10.2234 16.8152C10.2394 16.7828 10.3269 16.728 10.3269 16.7019C10.3287 16.6784 10.3212 16.6551 10.3061 16.637C10.2911 16.6189 10.2695 16.6073 10.246 16.6049C10.1716 16.5953 10.149 16.6437 10.149 16.6437C10.149 16.6437 10.0777 16.5889 10.0197 16.5797C10.054 16.5755 10.0886 16.5733 10.1232 16.5731C10.0337 16.5326 9.93885 16.5053 9.84155 16.4922C9.92241 16.4438 10.0811 16.3013 10.1846 16.3013C10.2881 16.3013 10.3529 16.2853 10.3367 16.2302C10.3205 16.1752 10.2396 16.0944 10.1524 16.0619C10.1846 16.0231 10.2074 15.9649 10.1298 15.8059C10.0487 15.6474 10.0811 15.5405 10.1072 15.5019C10.1298 15.4533 10.2106 15.366 10.2494 15.311C10.2883 15.256 10.3207 15.1815 10.3853 15.1427C10.4178 15.1201 10.5212 15.0787 10.6249 15.0392C10.7382 15.0004 10.8321 14.9517 10.8967 15.0004C10.968 15.0488 10.9355 15.1137 10.9355 15.1137C10.9355 15.1137 11.1589 15.0326 11.3594 15.1363C11.5602 15.2331 12.0489 15.2948 12.0489 15.2948L12.2241 15.6476L11.0654 16.6411L10.5865 16.8807L10.4894 16.8967L10.4888 16.8961Z" fill="#E5C66B"></path>
<path fill-rule="evenodd" clip-rule="evenodd" d="M12.097 15.2719C12.097 15.2719 11.7378 15.5114 11.6569 15.5987C11.7053 15.6053 11.7862 15.6377 11.7538 15.6861C11.7149 15.7346 11.482 15.9029 11.3525 16.0616C11.2166 16.2201 11.0871 16.4209 11.0419 16.5179C10.9934 16.6052 10.6244 16.861 10.4983 16.8932C10.7637 16.8932 11.2977 16.5664 11.4982 16.5664C11.4918 16.6634 11.5532 16.7735 11.6665 16.7831C11.7798 16.7927 12.1066 16.8544 12.5467 16.5826C12.9868 16.3172 12.8413 16.1196 13.0257 15.9904C13.3785 15.7572 13.5208 15.55 13.7149 15.4208C13.9091 15.2915 14.0095 15.262 14.0095 15.262C14.0095 15.262 14.0159 15.165 14.0735 15.1748C14.0893 15.1766 14.1043 15.1827 14.1168 15.1924C14.1294 15.2021 14.1391 15.215 14.1448 15.2298C14.1448 15.2298 14.4814 14.9903 14.9128 14.9256C14.9027 14.9211 14.8947 14.9131 14.8902 14.903C14.8902 14.903 14.9224 14.8868 14.929 14.8706C14.929 14.8706 14.9516 14.8381 14.9678 14.8544C14.9841 14.8706 15.0067 14.9903 15.0391 15.0389C15.1103 15.0065 15.2462 14.7023 15.2462 14.7023L15.5733 13.767V12.9126L15.3173 12.9612L13.3973 13.7766L12.2321 14.9839L12.0962 15.2719H12.097Z" fill="#E6BD62"></path>
<path fill-rule="evenodd" clip-rule="evenodd" d="M17.6246 11.081C17.7284 11.0558 17.828 11.0154 17.9201 10.9611C17.8812 11.0648 17.8812 11.1781 17.7129 11.4241C17.5446 11.67 17.5382 11.7057 17.4023 11.9612C17.2664 12.2266 17.2502 12.6085 17.1207 12.7766C17.1787 12.7484 17.241 12.7299 17.305 12.7218C17.305 12.7218 17.1757 12.835 17.1207 12.9547C17.0657 13.0744 16.9686 13.3236 16.7292 13.4759C16.4899 13.6282 16.1854 13.7251 15.8586 14.0843C15.5316 14.437 15.1951 14.8837 15.0266 15.0443C15.1141 14.8922 15.2338 14.588 15.2662 14.3875C15.2986 14.1869 15.2596 13.9472 15.3146 13.682C15.3697 13.4168 15.3697 13.2257 15.6346 12.7627C15.8996 12.2998 16.3531 10.6915 16.3531 10.6915L17.3304 10.3809L17.625 11.08L17.6246 11.081Z" fill="#B6933F"></path>
<path fill-rule="evenodd" clip-rule="evenodd" d="M16.9191 10.4887C16.9191 10.4887 16.6247 10.9126 16.5438 11.288C16.463 11.6635 16.5372 11.6311 16.4888 11.8156C16.4598 11.9281 16.4598 12.0461 16.4888 12.1586C16.5907 11.9944 16.7303 11.8568 16.896 11.7572C17.1744 11.589 17.401 11.4692 17.536 11.3269C17.6719 11.1748 17.7852 10.9256 18.0796 10.7346C17.9599 10.7184 17.7916 10.6634 17.7596 10.6706C17.8795 10.5348 18.2385 10.3276 18.601 10.0784C18.9602 9.82243 18.9376 9.71918 19.5202 9.46361C19.3293 9.49603 19.2386 9.44739 19.0799 9.46361C19.1439 9.32771 19.3679 9.26286 19.5919 9.03971C19.8159 8.81657 19.4496 8.48633 19.4496 8.48633L17.743 9.51865L16.9178 10.4895L16.9191 10.4887Z" fill="#C49937"></path>
<path fill-rule="evenodd" clip-rule="evenodd" d="M12.288 9.71834L12.3268 9.40772L12.8155 8.62458L13.3269 7.24922V5.3689L13.2881 4.28154L13.3689 3.56943L13.4304 3.34308L13.4952 3.25562L13.9125 3.47236L14.4887 4.25551L14.5438 5.76698L13.9838 8.15204L12.385 9.89647L12.288 9.71834Z" fill="#DFC068"></path>
<path fill-rule="evenodd" clip-rule="evenodd" d="M13.5599 3.16818C13.5599 3.16818 13.3039 3.17479 13.2493 4.23954C13.1947 5.30428 13.1683 5.86407 13.1294 6.39164C13.0906 6.91922 13.0002 7.23943 12.9547 7.55026C12.9093 7.86108 12.8835 8.28476 12.738 8.54375C12.674 8.66343 12.5372 9.0389 12.2168 9.3205C11.8575 9.63111 11.3208 9.84807 11.2395 9.86428C11.097 9.8965 10.3753 9.96775 10.0809 10.1297C9.97744 10.1847 9.7993 10.2494 9.60197 10.4339C9.21029 10.7865 8.68933 11.4176 8.31387 12.1781C7.73787 13.3141 7.16187 16.5211 7.16187 16.5211L7.29136 16.3044C7.29136 16.3044 7.30757 16.0164 7.59557 15.5114C7.87717 15.0067 7.79632 14.4403 8.18779 13.4726C8.33989 13.1038 8.53083 12.6248 8.76379 12.2169C9.13285 11.5535 9.57936 10.9839 10.0293 10.6732C10.7638 10.1685 11.573 10.0584 11.573 10.0584L12.4436 9.48242C12.4436 9.48242 12.5957 9.18802 12.7964 8.85138C13.0778 8.37906 13.4364 7.85148 13.5147 7.08455C13.6346 5.94855 13.3464 5.20423 13.3626 4.53116C13.3788 3.8581 13.3852 3.36295 13.5213 3.24306C13.6574 3.12316 13.5602 3.1686 13.5602 3.1686L13.5599 3.16818Z" fill="#A88F33"></path>
<path fill-rule="evenodd" clip-rule="evenodd" d="M13.5599 8.24925C13.5599 8.24925 13.9439 7.30419 14.1197 6.466C14.1521 6.29768 14.2167 6.12957 14.2329 5.99368C14.3138 5.20072 14.3364 4.87389 14.2329 4.44019C14.1521 4.12019 13.8415 3.83176 13.6796 3.60819C13.521 3.37501 13.4466 3.28819 13.479 3.23912C13.5114 3.19005 13.6375 3.10984 13.7604 3.11944C13.891 3.12324 14.0195 3.15357 14.138 3.20858C14.2566 3.26359 14.3627 3.34214 14.4499 3.43944C14.6991 3.72744 14.8964 4.70493 14.8964 4.70493L15.104 5.99475L15.6316 7.61928L13.5603 8.25053L13.5599 8.24925Z" fill="#C99E3D"></path>
<path fill-rule="evenodd" clip-rule="evenodd" d="M17.1682 7.26559C17.1682 7.26559 17.0969 7.29781 16.9676 7.26559C16.9731 7.31843 16.964 7.37175 16.9411 7.41971C16.9183 7.46766 16.8826 7.50838 16.8381 7.53738C16.7022 7.48234 15.4301 7.59242 15.4301 7.59242C15.4301 7.59242 14.8379 7.48874 14.6534 6.70559C14.5241 6.18442 14.7505 5.46613 14.676 4.99359C14.5627 4.2977 14.4042 4.16159 14.388 3.94506C14.3718 3.72853 14.3556 3.67327 14.3556 3.53738C14.2843 3.52117 14.2423 3.49855 14.1713 3.49855C14.155 3.43455 14.1873 3.37866 14.1162 3.26538C14.155 3.28159 14.4204 3.31402 14.731 3.60842C14.987 3.84799 14.987 3.93525 15.0257 3.98389C15.0741 4.03231 15.4658 4.36789 15.6341 4.70239C15.8024 5.0369 16.1292 6.10357 16.2037 6.27829C16.2263 6.34954 16.2749 6.42079 16.3957 6.5825C16.5834 6.81567 16.8584 7.20117 17.169 7.26517L17.1682 7.26559Z" fill="#B58634"></path>
<path fill-rule="evenodd" clip-rule="evenodd" d="M15.0714 4C15.2675 4.3167 15.4436 4.6453 15.5988 4.98389C15.7897 5.41419 15.903 5.76704 16.1426 6.05504C16.0131 5.67979 15.7833 4.94187 15.6474 4.67968C15.4953 4.40235 15.1847 4.10368 15.0714 4.00021V4Z" fill="#A88F33"></path>
<path fill-rule="evenodd" clip-rule="evenodd" d="M12.8706 9.32053C12.8706 9.32053 12.5438 9.40138 11.9354 9.72181C11.7346 9.82527 11.5439 9.91253 11.3594 9.99359C10.88 10.2103 10.3659 10.4107 9.958 10.5212C9.99043 10.56 10.0064 10.576 10.0064 10.576C10.0064 10.576 10.0064 10.7347 10.0939 10.8252C10.0455 10.8738 9.398 11.3139 9.58915 12.7863C9.71843 12.7379 9.87054 12.6731 9.89315 12.6731C9.93219 12.6797 9.94179 12.7863 9.99022 12.7863C10.0386 12.7863 10.1974 12.7223 10.3657 12.5047C10.3593 12.5922 10.2622 13.4724 10.7832 14.0646C10.8802 13.9514 11.1262 13.5759 11.1262 13.5759L11.1326 13.4562C11.1326 13.4562 11.1552 13.0387 11.2913 12.6568C11.4274 12.275 11.6926 11.9934 11.6926 11.9934L13.0774 10.016L12.8702 9.32031L12.8706 9.32053Z" fill="#E6C367"></path>
<path fill-rule="evenodd" clip-rule="evenodd" d="M11.5761 12.224C11.5127 12.2688 11.4428 12.3037 11.3689 12.3275C11.3463 12.2466 11.3139 11.9682 11.5048 11.6964C11.7282 11.3694 12.2167 10.9455 12.3526 10.6084C12.4401 10.3915 12.4012 9.84788 13.178 9.15199C13.9547 8.45609 14.2587 8.21673 14.2587 8.21673L15.5144 7.58569L17.0581 8.19412L16.2912 11.2L15.6958 12.608L13.3278 12.1615L11.5759 12.224H11.5761Z" fill="#DCBA5A"></path>
<path fill-rule="evenodd" clip-rule="evenodd" d="M12.48 11.4079L12.7746 11.039V10.7768C12.7746 10.7768 13.1014 10.6894 13.4541 10.3301C13.8067 9.97087 14.2954 9.28159 14.726 9.32361C15.1565 9.37225 15.1985 10.2589 15.2147 10.5083C15.2309 10.7576 15.286 11.3236 15.3732 11.628C15.4703 11.9323 14.3247 13.0843 14.3247 13.0843L13.5466 13.6765L12.48 11.4079Z" fill="#E9CE77"></path>
<path fill-rule="evenodd" clip-rule="evenodd" d="M13.3916 14.479C13.3916 14.479 13.6312 14.1035 13.4556 14.0227C13.5591 13.7897 13.75 13.5438 13.75 13.5438C13.75 13.5438 13.8859 13.2073 14.326 12.793C14.7661 12.3787 15.0381 12.1035 15.1094 11.8254C15.1533 11.6441 15.1772 11.4585 15.1806 11.272C15.2282 11.3108 15.2791 11.3455 15.3327 11.3754C15.404 11.4079 15.7404 11.6861 15.692 12.2461C15.6435 12.8061 15.436 13.039 15.436 13.039C15.436 13.039 15.2354 13.2395 15.0931 13.3432C14.9408 13.4467 14.886 13.5664 14.6302 13.5762C14.6565 13.5553 14.6861 13.5389 14.7177 13.5275C14.7177 13.5275 14.4523 13.4953 14.3098 13.6246C14.1673 13.7539 13.8643 14.1522 13.7122 14.2721C13.5601 14.3691 13.3922 14.4792 13.3922 14.4792L13.3916 14.479Z" fill="#CDAE50"></path>
<path fill-rule="evenodd" clip-rule="evenodd" d="M24.1522 8.1844C23.7698 8.04505 23.368 7.96644 22.9613 7.95144C22.2816 7.92882 21.2882 7.96765 20.3141 7.97405C19.2655 7.98045 18.3141 7.6148 16.9938 7.55016C16.777 7.42066 16.2258 6.85426 14.505 8.0549C14.6085 8.0485 15.7543 7.78952 16.1522 8.28808C16.5534 8.78322 16.4402 9.62461 16.3853 9.82514C16.2816 10.2719 15.945 10.9223 15.8093 11.3786C15.6736 11.835 15.7056 12.0747 15.6086 12.3947C15.5115 12.7147 15.298 12.8737 15.424 13.2425C15.5924 13.1391 15.68 13.1391 15.9612 12.508C16.2424 11.877 16.1846 11.4271 16.6507 10.8931C17.107 10.3559 17.8667 9.6212 18.1556 9.43666C18.4444 9.25213 20.738 8.0613 23.1395 9.1973C23.7187 9.13586 24.1524 8.18418 24.1524 8.18418L24.1522 8.1844Z" fill="#D2A83E"></path>
<path fill-rule="evenodd" clip-rule="evenodd" d="M15.4725 7.74404C15.4701 7.71972 15.4647 7.69578 15.4565 7.67278C15.434 7.62546 15.4045 7.5818 15.369 7.54329C15.369 7.54329 14.7994 7.43982 14.5114 7.47204C14.0064 7.52708 13.5501 8.15172 13.3366 8.47214C13.123 8.79257 12.8576 9.2875 12.5696 9.54329C12.5728 9.51837 12.567 9.49314 12.5534 9.47204C12.5534 9.47204 12.5696 9.49465 12.5374 9.52708C12.5052 9.5595 12.505 9.5755 12.5212 9.59108L12.5698 9.6395C12.5858 9.6395 13.0326 9.43876 13.641 8.8715C14.2882 8.27929 14.7834 7.9755 15.0424 7.8714C15.1805 7.8127 15.3249 7.76997 15.4727 7.74404H15.4725Z" fill="#C29637"></path>
<path fill-rule="evenodd" clip-rule="evenodd" d="M26.5212 5.31079C26.5212 5.31079 26.4175 5.44007 26.288 5.58258C26 5.88679 25.6245 6.22962 25.3041 6.58247C25.0001 6.91911 24.6571 7.1813 24.2718 7.6214C23.8865 8.06151 23.4398 8.55004 23.3267 8.69255C23.2232 8.83506 23.1424 9.06802 23.1424 9.1877C23.0873 9.14887 23.0227 9.10684 23.0227 9.10684C23.0499 9.15765 23.0825 9.20542 23.1198 9.24935C23.2006 9.36263 23.3267 9.50535 23.3916 9.59239C23.4711 9.7032 23.5282 9.8285 23.5597 9.96124C23.5985 9.96764 23.8477 10.0163 24.1585 9.50492C24.4693 8.99356 24.8768 8.43378 24.8768 8.43378L25.524 7.4725L25.9319 6.65714L26.4439 5.7445L26.5218 5.31079H26.5212Z" fill="#AC8132"></path>
<path fill-rule="evenodd" clip-rule="evenodd" d="M27.1847 4.65698C27.1847 4.65698 26.793 4.97698 26.6409 5.16898C26.4888 5.36098 26.1289 5.86488 26.1289 5.86488L26.2584 5.84866L26.9155 5.26626L27.1715 4.80994L27.1845 4.65784L27.1847 4.65698Z" fill="#A88F33"></path>
<path fill-rule="evenodd" clip-rule="evenodd" d="M27.0647 30.3755C27.0647 30.3755 27.0583 30.1101 27.2072 29.9516C27.3593 29.7929 27.7444 29.5599 28.1198 28.6861C28.4953 27.8123 28.5371 27.6149 28.5371 27.6149C28.5371 27.6149 27.8641 28.1909 27.4491 28.3268C27.5462 28.1261 27.6012 27.9838 27.6499 27.8801C27.5948 27.8317 27.3619 27.7767 27.3393 27.7508C27.4685 27.6213 27.5398 27.3041 27.802 27.0938C28.1386 26.8378 28.7534 26.3979 29.2313 26.0058C29.7092 25.6137 30.6487 24.7017 30.7686 24.4363C30.8398 24.5397 30.8558 24.6044 30.8558 24.6044C30.8558 24.6044 30.3835 25.2194 30.1375 25.6109C29.9206 25.9475 29.9368 26.1385 29.9368 26.1385L30.3835 25.9465C30.3835 25.9465 30.5128 26.4254 29.9272 27.1537C30.1832 27.0567 30.2865 27.1149 30.4319 27.0338C30.1924 27.1861 29.8623 27.3933 29.5517 27.9627C29.2475 28.5323 28.8332 29.1957 28.1344 29.6098C27.4547 30.0467 27.063 30.3736 27.063 30.3736L27.0647 30.3755Z" fill="#A67A2E"></path>
<path fill-rule="evenodd" clip-rule="evenodd" d="M25.3108 8.5211C25.3108 8.5211 25.0454 9.07427 25.0065 9.50478C25.0001 9.60846 24.9741 9.68931 24.9741 9.80899C24.9677 10.1941 24.9967 10.6246 24.9101 10.8251C24.8777 10.7442 24.8615 10.6892 24.8291 10.657C24.7806 10.7929 24.6932 11.2168 24.6219 11.3753C24.5897 11.2718 24.5184 10.9126 24.5251 10.4887C24.5317 10.0648 24.5411 9.98371 24.5411 9.89646C24.5251 10.0257 24.4376 10.2007 24.4052 10.3041C24.3567 10.2169 24.3017 10.1036 24.2368 10.0097C24.198 10.0737 24.1496 10.1682 24.1076 10.2169C24.1009 10.1781 24.0849 10.0744 24.0751 9.92889C24.0687 9.76057 24.0589 9.54382 24.0687 9.49838C24.0847 9.41112 24.2208 9.06809 24.5088 8.75406C24.8519 8.37859 25.2047 7.6571 25.3082 7.43374C25.4117 7.21038 25.8518 6.28174 25.8518 6.28174H26.1884L25.6997 7.39491C25.6997 7.39491 25.4053 8.00334 25.2532 8.22691C25.1011 8.45049 24.7806 9.09112 24.6381 9.3403C24.7416 9.2044 24.8291 9.13315 24.9327 9.00366C25.033 8.91299 25.3112 8.52153 25.3112 8.52153L25.3108 8.5211Z" fill="#8C6228"></path>
<path fill-rule="evenodd" clip-rule="evenodd" d="M27.191 4.61475C27.1361 4.78399 27.0492 4.94113 26.935 5.07768C26.7343 5.31725 26.3038 5.63747 26.0937 5.89304C25.9017 6.14221 25.5177 6.82189 25.6922 7.62765C25.7562 7.45293 25.8767 7.10669 26.1971 6.71501C26.5175 6.32333 26.8606 5.87363 27.0291 5.52419C27.1972 5.17133 27.2198 4.89315 27.2198 4.89315L27.2838 4.81229L27.245 4.62776L27.19 4.61475H27.191Z" fill="#CBA94C"></path>
<path fill-rule="evenodd" clip-rule="evenodd" d="M33.7444 26.0809C33.7444 26.0809 33.6149 25.7283 33.5761 25.4079C33.5372 25.0874 33.6401 25.0239 33.521 24.6571C33.4498 24.4338 33.3205 24.4651 33.2881 24.4338C33.2556 24.4024 33.233 24.0649 33.2394 23.8804C33.2458 23.6959 33.233 23.4565 33.2006 23.3528C33.1522 23.314 33.1197 23.2816 33.0485 23.0422C32.9676 22.8026 32.9288 22.683 32.89 22.6119C32.8511 22.5409 32.7376 22.476 32.7376 22.4048C32.7376 22.2623 32.8671 22.188 32.8671 22.1488C32.8607 22.0679 32.7637 22.1328 32.7376 22.1099C32.7054 22.0711 32.8187 21.8381 32.7767 21.8057C32.7605 21.7897 32.6472 21.9256 32.618 21.8868C32.5855 21.8477 32.5467 21.4627 32.4885 21.2071C32.4337 20.9579 32.3752 20.7768 32.3688 20.7024C32.3624 20.6311 31.9221 19.3754 31.8154 19.0712C31.7294 18.8142 31.6571 18.5527 31.5987 18.2881C31.5662 18.136 31.5436 17.8251 31.5274 17.8576C31.5112 17.89 31.521 18.0485 31.495 18.0421C31.4724 18.0355 31.3915 17.4823 31.3657 17.3948C31.3431 17.3074 31.207 17.0108 31.1737 16.7962C31.1413 16.5793 31.0702 16.0129 31.0216 15.6278C30.973 15.2427 30.9503 15.0842 30.9503 14.9878C30.9583 14.752 30.9453 14.5159 30.9115 14.2823C30.8475 13.8744 30.7195 13.3793 30.6073 13.0915C30.3906 12.5477 29.8143 11.1561 29.7113 10.8099C29.7113 10.7224 29.8246 10.7711 29.8246 10.7711C29.8246 10.7711 30.106 11.4765 30.3131 12.0201C30.5139 12.5639 30.7048 13.0428 30.7534 13.0915C30.7923 13.1399 31.0965 13.6739 31.2324 14.5477C31.3683 15.4215 31.4167 16.2273 31.4978 16.7644C31.5366 17.0204 31.569 17.292 31.6499 17.5638C31.7371 17.8584 31.873 18.1626 32.0511 18.6285C32.2033 19.0202 32.3165 19.3471 32.378 19.6287C32.4492 19.9879 32.4492 20.2597 32.4913 20.4378C32.5303 20.5899 32.5883 20.8939 32.7244 21.3338C32.8605 21.7737 33.0609 22.3403 33.1967 22.693C33.4623 23.3985 33.5807 23.9875 33.6209 24.3015C33.6563 24.6251 33.7762 25.7449 33.7437 26.0814L33.7444 26.0809Z" fill="#A88F33"></path>
<path fill-rule="evenodd" clip-rule="evenodd" d="M27.2072 4.57595L27.191 4.61477C27.191 4.61477 27.2395 4.63099 27.2299 4.69584C27.2305 4.78457 27.2251 4.87324 27.2136 4.96123C27.1976 5.07451 27.1652 5.16176 27.1588 5.23301C27.1588 5.38512 27.1814 5.55984 26.9668 5.99355C26.9028 6.11323 26.8633 6.21669 26.8309 6.28795C26.7501 6.46267 26.7339 6.48869 26.6626 6.56955C26.7759 6.50555 27.1838 6.24955 27.3907 6.28795C27.2484 6.3688 27.0314 6.52752 26.8956 6.73467C26.928 6.74107 27.0639 6.76709 27.2796 6.73467C27.6388 6.67963 28.0401 6.55013 28.3927 6.57595C28.778 6.59856 28.6259 6.11323 28.6259 6.11323L28.1813 5.13595L27.3399 4.54395L27.2072 4.57616V4.57595Z" fill="#BE9C44"></path>
<path fill-rule="evenodd" clip-rule="evenodd" d="M29.4014 11.8965C29.4014 11.8965 29.0259 11.521 28.8738 10.2325C28.7217 8.93797 28.7541 7.03248 28.7541 7.03248L28.4499 6.28816C28.4499 6.28816 28.3859 5.79302 28.2266 5.6087C28.0672 5.42438 27.7542 5.11355 27.6117 4.96144C27.4692 4.80934 27.3075 4.60219 27.2104 4.56976C27.2589 4.48891 27.4758 4.03259 28.3074 4.02619C29.139 4.01979 29.3954 4.48251 29.4822 4.65083C29.5691 4.81915 29.9612 5.54683 30.1067 6.9335C30.2426 8.31846 30.2492 8.42214 30.2266 8.90107C30.2103 9.16646 30.1229 9.78128 29.9706 10.4381C29.8315 10.9949 29.6794 11.6164 29.401 11.8978L29.4014 11.8965Z" fill="#A17C34"></path>
<path fill-rule="evenodd" clip-rule="evenodd" d="M28.224 13C28.3492 13.0091 28.4742 12.9808 28.5833 12.919C28.703 12.9126 29.1367 12.9676 29.4699 12.5437C29.4925 12.6406 29.551 12.903 29.3986 13.1359C29.4797 13.0548 29.5994 13.0226 29.6156 13C29.622 13.1197 29.7353 13.4886 29.2564 14.385C29.3856 14.2427 29.5377 14.2491 29.6736 14.2329C29.6802 14.4012 29.7707 14.9674 29.5313 15.2718C29.3728 15.479 29.1138 15.4141 29.1138 15.4141C29.1176 15.3689 29.1176 15.3234 29.1138 15.2782C29.1074 15.1907 29.075 15.1035 29.0978 15.0452C28.9727 14.9881 28.8587 14.9091 28.7612 14.8121C28.4796 14.5467 28.114 14.0938 28.0881 13.7571C28.0557 13.3817 28.3924 13.3008 28.3924 13.3008C28.3642 13.2756 28.3401 13.2461 28.3211 13.2134C28.3049 13.1585 28.2887 13.0711 28.224 13Z" fill="#8C6228"></path>
<path fill-rule="evenodd" clip-rule="evenodd" d="M25.728 8.92887C25.728 8.92887 25.7118 8.90626 25.6245 9.00973C25.6407 8.90626 25.6569 8.80898 25.6633 8.71511C25.7046 8.62821 25.7581 8.54762 25.8221 8.47575C25.7734 8.57261 25.741 8.66007 25.741 8.66007C25.741 8.66007 25.8609 8.43671 26.0356 8.30082C26.1553 8.20375 26.3074 8.15853 26.372 8.06786C26.4433 7.97079 26.4271 7.95458 26.4433 7.93837C26.4433 7.93837 26.602 7.8349 26.8448 7.53047C26.877 7.49165 26.9256 7.44962 26.9581 7.41079C27.0129 7.38818 27.1424 7.32994 27.2945 7.25207C27.4532 7.16482 27.6311 7.04514 27.7412 6.99607C27.958 6.89901 28.1879 6.90882 28.2946 6.7565C28.3754 6.73389 28.4627 6.49111 28.4467 6.28418C28.5664 6.33261 29.1812 6.71447 29.3918 7.54946C29.5439 8.14167 29.2719 9.05431 29.1586 9.49463C29.0453 9.93495 29.0293 10.2616 28.8706 10.4621C28.6698 10.7277 28.0228 11.1021 27.8641 11.2875C27.7282 11.4396 27.3205 11.8247 27.3365 12.1028C27.3527 12.31 27.6083 12.4228 27.6636 12.4621C27.7188 12.5014 27.7184 12.5496 27.8221 12.5261C27.9257 12.5026 27.9644 12.4548 28.0066 12.4548C28.055 12.4612 28.055 12.4711 28.0776 12.4711C28.094 12.4706 28.1103 12.4684 28.1263 12.4644C28.1263 12.4644 28.1101 12.7591 27.4208 12.8484C27.3721 12.8551 27.3237 12.8711 27.2621 12.8809C27.3431 12.842 27.3916 12.842 27.479 12.7224C27.382 12.7062 27.1036 12.6899 27.0323 12.6673C27.0549 12.6285 27.1294 12.5248 27.1908 12.4764C27.2458 12.428 27.1844 12.4124 27.136 12.4376C27.0526 12.4943 26.9726 12.5558 26.8964 12.6219C26.8156 12.6931 26.7443 12.7902 26.6148 12.8779C26.576 12.7484 26.5824 12.5024 26.7347 12.3245C26.6957 12.3309 26.6212 12.4442 26.5502 12.4216C26.5373 12.3035 26.545 12.1841 26.5728 12.0687C26.6116 11.923 26.822 11.6674 26.822 11.6674L27.8381 9.85175L28.0548 8.47639L25.728 8.92845V8.92887Z" fill="#92723A"></path>
<path fill-rule="evenodd" clip-rule="evenodd" d="M25.6731 9.00653C25.6731 9.00653 25.6181 9.04536 25.7282 9.11981C25.7119 9.14242 25.6731 9.22328 25.6245 9.27832C25.5697 9.34232 25.5112 9.382 25.4886 9.43704C25.4402 9.55032 25.4013 9.62797 25.4013 9.67661C25.4013 9.72525 25.3851 10.0359 25.2492 10.2364C25.2006 10.3077 25.1455 10.4273 25.1067 10.5082C25.0259 10.6505 24.9546 10.7642 24.9384 10.8282C24.9062 10.9415 24.8836 11.2521 24.8836 11.2521C24.8836 11.2521 24.9548 11.1646 24.9806 11.1324C24.9416 11.2133 24.8996 11.3005 24.8381 11.3654C24.877 11.3329 24.9902 11.2521 25.1812 11.0838C25.4466 10.8606 25.8609 10.4851 26.3658 10.1878C26.2135 10.2428 26.0842 10.2428 25.9807 10.259C26.0616 10.1782 26.7897 9.32376 27.1716 9.2429C27.1948 9.2135 27.2063 9.1766 27.204 9.13922L26.877 9.10701L26.2135 9.2493L26.1166 8.7373L25.6731 9.00589V9.00653Z" fill="#B18E3E"></path>
<path fill-rule="evenodd" clip-rule="evenodd" d="M26.7283 11.9191C26.7283 11.9191 26.6409 12.0063 26.56 12.2233C26.4978 12.1583 26.4444 12.0853 26.4013 12.0063C26.2816 11.8058 26.0973 11.55 25.6668 11.6957C25.6604 11.5598 25.6506 11.4886 25.6668 11.3915C25.738 11.3755 25.9548 11.2008 26.1715 10.945C26.3238 10.7703 26.4661 10.5695 26.5632 10.314C26.6272 10.2653 26.7379 10.1845 26.8832 10.0906C27.0903 9.94831 27.3395 9.75396 27.3783 9.53721C27.2813 9.57604 27.0741 9.67311 26.7633 9.65711C26.8832 9.60207 27.0675 9.54383 27.0449 9.30425C27.0935 9.27183 27.1324 9.24921 27.1324 9.24921C27.0959 9.23705 27.0575 9.23155 27.0191 9.233C27.0125 9.21039 27.0029 9.17817 26.9478 9.19417C26.8928 9.21017 26.8838 9.21039 26.8766 9.233C26.854 9.23961 26.7795 9.233 26.7245 9.27204C26.6694 9.31108 26.5173 9.44015 26.4591 9.46276C26.4817 9.42393 26.5139 9.36591 26.5139 9.36591C26.5139 9.36591 26.3554 9.38191 26.2421 9.42991C26.035 9.50116 25.7956 9.63065 25.5529 9.75673C25.5755 9.71791 25.5853 9.69273 25.6013 9.68548C25.6173 9.67823 25.6563 9.66948 25.6563 9.66287C25.6563 9.65625 25.6403 9.59887 25.6499 9.57561C25.7225 9.42185 25.8081 9.27461 25.9059 9.13551C26.0192 8.98319 26.0418 8.76644 26.0418 8.76644L26.537 8.51727L27.9285 8.19727L28.8316 8.25231L28.7183 8.87695L28.185 9.96751L27.7286 10.961L27.2075 11.5696L26.7285 11.9191H26.7283Z" fill="#543E26"></path>
<path fill-rule="evenodd" clip-rule="evenodd" d="M28.9839 9.21609C28.9839 9.21609 28.4401 9.88915 28.288 9.99283C28.3851 9.78569 28.9839 8.55262 29.2007 8.20958C29.1522 8.17075 29.0874 8.17075 29.2395 7.56958C29.1102 7.87358 29.0648 8.0323 28.9581 8.11315C28.8514 8.19401 28.8382 8.16819 28.7661 8.16819C28.7797 8.14356 28.7853 8.1153 28.7821 8.08734C28.7821 8.08734 28.3258 8.0323 28.0141 8.0323C27.7024 8.0323 27.0855 8.20062 26.7422 8.33651C26.4704 8.44979 26.3183 8.44979 26.2212 8.52083C26.1242 8.60169 26.0691 8.68915 26.0205 8.71177C25.9817 8.73438 25.7973 8.79262 25.7551 8.85406C25.7163 8.91806 25.6516 8.98995 25.6516 9.00617C25.6516 9.02238 25.6354 9.04521 25.6841 9.02878C25.7001 9.02238 25.82 8.95753 25.9559 8.87667C26.1402 8.77321 26.3635 8.65353 26.5255 8.58227C26.9882 8.39774 27.1339 8.43017 27.3408 8.39134C27.5576 8.35251 27.8684 8.26185 28.0753 8.26185C28.2825 8.25545 28.6741 8.26185 28.7648 8.27806C28.726 8.31049 28.6936 8.34931 28.7098 8.48521C28.7098 8.52403 28.6773 8.56606 28.6458 8.65993C28.5489 8.92531 28.3644 9.36542 28.2618 9.58878C28.1195 9.89278 27.9578 10.1486 27.8778 10.3071C27.7978 10.4656 27.6218 10.8831 27.4475 11.1064C27.2732 11.3298 27.1821 11.4657 27.1275 11.5143C27.0729 11.563 26.6808 11.8508 26.71 11.9544C26.7812 11.9318 27.2312 11.7624 27.5578 11.3946C27.8844 11.0269 27.9495 10.8024 28.205 10.6017C28.4606 10.4009 28.6613 10.0645 28.781 9.78633C28.8813 9.52734 28.8587 9.44649 28.9848 9.21673L28.9839 9.21609Z" fill="#806031"></path>
<path fill-rule="evenodd" clip-rule="evenodd" d="M17.2655 14.2396C17.2655 14.2396 17.1943 14.534 17.0323 14.6797C16.8738 14.8222 16.5922 14.9451 16.56 15.1847C16.5212 15.424 16.8416 15.5439 16.8416 15.5439C16.8416 15.5439 16.6667 15.8319 16.6667 16.0487C16.6667 16.272 16.6603 16.3141 16.6829 16.5276C16.6572 16.5441 16.6354 16.5659 16.6189 16.5916C16.6189 16.5916 16.6349 16.7988 16.7936 16.928C16.9523 17.0573 17.088 17.1352 17.1689 17.1028C17.1812 17.1291 17.1921 17.1562 17.2013 17.1838C17.2013 17.1838 17.3212 16.8796 17.4021 16.6142C17.4829 16.3424 17.5542 16.381 17.5864 16.0154C17.6186 15.6497 17.9704 15.0219 17.9704 15.0219L18.2104 14.4854L17.8189 14.1812L17.2655 14.2394V14.2396Z" fill="#B6903C"></path>
<path fill-rule="evenodd" clip-rule="evenodd" d="M17.9936 14.7668C17.9128 14.8497 17.8383 14.9384 17.7706 15.0322C17.6672 15.1747 17.5863 15.304 17.4342 15.3593C17.2821 15.4145 17.185 15.4141 17.1946 15.5664C17.2042 15.7187 17.3467 15.7832 17.4276 15.8608C17.515 15.9417 17.5863 16.0776 17.5475 16.2299C17.5959 16.2073 17.6834 16.1812 17.7642 16.0065C17.8451 15.8318 18.4106 14.7671 18.4106 14.7671H17.9936V14.7668Z" fill="#685026"></path>
<path fill-rule="evenodd" clip-rule="evenodd" d="M20.224 12.3105C20.224 12.3105 20.2724 12.1812 20.224 12.0874C20.1753 11.9903 19.8809 11.9579 19.7352 11.8478C19.5831 11.7345 19.3986 11.6558 19.2465 11.7055C19.2691 11.6505 19.3597 11.5306 19.2853 11.5048C19.214 11.4821 18.9489 11.6018 18.8776 11.6569C18.8064 11.7119 18.6444 11.7765 18.6122 11.8156C18.58 11.8546 18.5248 11.9289 18.4923 11.8964C18.4599 11.8738 18.4439 11.8156 18.3889 11.8478C18.3338 11.88 18.0689 12.097 18.02 12.2233C17.9712 12.3496 17.8613 12.6312 17.5313 12.9514C17.2012 13.2716 17.0587 13.4789 17.1558 13.5986C17.2529 13.7183 17.2983 13.6311 17.3145 13.7345C17.327 13.8361 17.3215 13.9391 17.2983 14.0387C17.2595 14.2071 17.1948 14.3656 17.2821 14.398C17.5055 14.4692 17.7224 14.334 17.7708 14.3754C17.8679 14.4626 17.7158 14.7767 17.9456 14.8381C18.1787 14.9021 18.4085 14.7831 18.4085 14.7831L19.2563 14.3267L20.0719 13.8964L20.4891 13.0711L20.2653 12.3818L20.2227 12.3105H20.224Z" fill="#D4B968"></path>
<path fill-rule="evenodd" clip-rule="evenodd" d="M19.424 14.2816C19.424 14.2816 19.2815 14.0648 19.4564 13.8737C19.6313 13.6825 19.8803 13.6019 19.9774 13.4822C19.9589 13.4594 19.9341 13.4426 19.9061 13.4338C19.9705 13.3185 20.0689 13.2258 20.1877 13.1682C20.1393 13.1197 20.0744 13.0809 20.0034 13.0809C19.8447 13.0809 19.7474 13.178 19.6019 13.178C19.4596 13.178 19.4434 13.1067 19.4434 13.1067C19.4434 13.1067 19.683 13.0841 19.6601 12.9772C19.6375 12.864 19.5961 12.864 19.5961 12.864C19.5961 12.864 20.0589 12.672 20.1397 12.5696C20.2206 12.4672 20.211 12.3462 20.2272 12.2978C20.282 12.2978 20.6024 12.1294 20.7319 12.2007C20.8614 12.272 20.7708 12.4661 20.7708 12.4661C20.7708 12.4661 21.1626 12.1715 21.3623 11.8826C21.537 11.8988 21.6183 11.7629 21.7463 11.7629C21.905 11.7629 22.1542 11.9797 22.2027 12.4424C22.2351 12.7078 22.2835 12.8599 22.2351 13.3292C22.2125 13.5946 22.2189 14.1612 22.2991 14.4424C22.3539 14.6658 22.4834 14.6432 22.4834 14.6432C22.4635 14.7112 22.4241 14.772 22.3701 14.8179C22.2826 14.8987 22.2731 15.1125 22.2826 15.1933C22.2955 15.2525 22.3118 15.3108 22.3313 15.3681C22.3313 15.3681 22.2278 15.4877 22.2018 15.5688C22.1792 15.6497 22.0725 15.7047 21.9946 15.7047C21.9168 15.7047 21.9558 15.6981 21.8524 15.7047C21.7489 15.7113 21.7165 15.7273 21.6516 15.7047C21.5868 15.6821 21.5383 15.6561 21.5644 15.4487C21.587 15.2416 20.765 14.7594 20.765 14.7594L19.421 14.2805L19.424 14.2816Z" fill="#CCA849"></path>
<path fill-rule="evenodd" clip-rule="evenodd" d="M17.8803 16.3268C17.8803 16.3268 18.1747 16.7185 19.3852 16.7185C19.9612 16.7185 20.1619 16.6635 20.2812 16.631C20.4107 16.5986 20.896 16.4079 21.3848 15.8317C21.8249 15.3107 21.7278 15.0972 21.7278 15.0972L21.4718 15.0583L20.6398 15.1716L18.1779 16.2202L17.8793 16.3268H17.8803Z" fill="#585136"></path>
<path fill-rule="evenodd" clip-rule="evenodd" d="M18.7832 16.4239C18.7832 16.4239 17.7346 16.6571 17.7346 15.9936C17.7346 15.3464 18.3819 14.6667 18.5438 14.547C18.7121 14.4271 19.1134 14.291 19.1134 14.291H20.0811L20.2654 14.7798L20.1845 15.8347L18.7832 16.4237V16.4239Z" fill="#252211"></path>
<path fill-rule="evenodd" clip-rule="evenodd" d="M19.7508 14.4887C19.7508 14.4887 19.5503 14.3042 19.094 14.5527C18.6377 14.8013 18.2686 15.3208 18.246 15.7924C18.2234 16.2097 18.589 16.5205 19.1586 16.5367C19.5825 16.5527 19.8383 16.5043 19.9678 16.4727C19.9354 16.4339 19.7671 16.2236 19.7671 16.2236L19.7511 14.489L19.7508 14.4887Z" fill="#C3B378"></path>
<path fill-rule="evenodd" clip-rule="evenodd" d="M19.5535 14.592C19.5535 14.592 19.5051 14.5532 19.3615 14.6308C19.2418 14.6948 19.0671 14.864 18.9312 14.9837C18.8438 15.0549 18.7887 15.0871 18.7392 15.1422C18.5385 15.3817 18.3702 15.7734 18.4674 15.9676C18.5647 16.1617 18.8849 16.385 19.7005 16.2329L19.5512 14.5922L19.5535 14.592Z" fill="#E6D89C"></path>
<path fill-rule="evenodd" clip-rule="evenodd" d="M19.2881 14.9934C19.2881 14.9934 19.1586 15.1942 19.1586 15.5146C19.1586 15.8414 19.3431 16.3624 20.0228 16.4012C20.5437 16.4337 20.8932 15.6505 21.2719 15.3463C21.5599 15.1133 21.7346 15.1067 21.7346 15.1067C21.7346 15.1067 21.4402 14.7867 20.6538 14.3722C19.8771 13.9547 19.0065 13.8997 18.5339 14.5405C18.7573 14.5243 19.479 14.3398 19.479 14.3398L19.8319 14.4531L19.2881 14.9937V14.9934Z" fill="#252211"></path>
<path fill-rule="evenodd" clip-rule="evenodd" d="M20.3042 15.4173C20.2816 15.3689 20.2654 15.304 20.3592 15.288C20.4531 15.272 20.4951 15.2814 20.5276 15.352C20.56 15.4226 20.5916 15.4815 20.5436 15.5107C20.4951 15.5365 20.3688 15.5107 20.304 15.4169L20.3042 15.4173ZM20.1521 14.961C20.1521 14.961 20.1197 14.9836 20.1359 14.9384C20.1423 14.8835 20.1845 14.7862 20.288 14.8091C20.3915 14.8319 20.3691 14.945 20.352 14.9774C20.3349 15.0098 20.2485 15.0646 20.1837 15.0414C20.1755 15.0393 20.1678 15.0353 20.1615 15.0297C20.1551 15.0241 20.1501 15.0171 20.1469 15.0092C20.1438 15.0013 20.1425 14.9928 20.1433 14.9844C20.144 14.9759 20.1468 14.9677 20.1512 14.9605L20.1521 14.961Z" fill="#6F674D"></path>
<path fill-rule="evenodd" clip-rule="evenodd" d="M11.392 15.1679C11.392 15.1679 11.648 15.3599 11.9454 15.3524C12.2398 15.3458 12.6184 15.0418 12.7931 14.8475C12.8966 14.7342 12.9851 14.6145 13.0811 14.5206C13.1622 14.4398 13.217 14.401 13.2559 14.3459C13.3109 14.2819 13.3691 14.1616 13.3984 14.1226C13.3271 14.1776 13.2236 14.2749 13.1168 14.3395C13.0133 14.4035 12.7899 14.5238 12.6993 14.5563C12.612 14.5887 11.7058 15.0683 11.7058 15.0683L11.392 15.1679Z" fill="#AC924C"></path>
<path fill-rule="evenodd" clip-rule="evenodd" d="M11.7832 12.7766C11.7832 12.7766 11.9255 12.6796 12.2007 12.6179C12.4661 12.5539 13.0001 12.5046 13.0001 12.5046L13.4402 12.6966L13.6149 13.3601L13.2949 14.0496L12.8872 14.3056L12.4243 13.5613L11.7843 12.7779L11.7832 12.7766Z" fill="#9F8E57"></path>
<path fill-rule="evenodd" clip-rule="evenodd" d="M11.2073 13.369L11.0549 13.4827C11.0549 13.4827 11.094 13.4115 11.1262 13.1947C11.1584 12.978 11.3269 12.4504 11.5729 12.1462C11.8189 11.842 11.8125 11.8582 11.8125 11.8582C11.7898 11.854 11.7666 11.8548 11.7443 11.8603C11.7219 11.8659 11.701 11.8761 11.683 11.8904C11.7154 11.8187 11.9226 11.5627 12.1297 11.4347C12.3369 11.3067 12.4177 11.2664 12.6345 11.3707C12.8512 11.475 12.9062 11.5292 13.065 11.5228C13.2237 11.5164 13.3594 11.3481 13.3594 11.3481C13.3594 11.3481 13.3918 11.4516 13.2721 11.6911C13.1524 11.9307 12.6799 12.4192 12.6799 12.4192L11.696 13.0923L11.2073 13.3696V13.369Z" fill="#EAC970"></path>
<path fill-rule="evenodd" clip-rule="evenodd" d="M11.9352 12.696C11.9352 12.696 12.6473 12.793 12.864 12.5925C12.8704 12.6151 12.8965 12.6151 12.8965 12.6313C12.8947 12.6436 12.889 12.6549 12.8802 12.6635C12.9038 12.6598 12.9276 12.6576 12.9515 12.6571C12.98 12.6656 13.0093 12.6711 13.039 12.6734C13.0628 12.6728 13.0867 12.6706 13.1102 12.6667C13.108 12.6828 13.1025 12.6983 13.0941 12.7122C13.0858 12.7262 13.0747 12.7383 13.0616 12.7478C13.094 12.7478 13.1256 12.7542 13.1256 12.78C13.1256 12.8058 13.132 12.8837 13.0932 12.8999C13.061 12.9088 13.0267 12.9065 12.9961 12.8933C12.9987 12.9546 13.0153 13.0144 13.0447 13.0682C13.1087 13.1879 13.2453 13.3242 13.4287 13.285C13.4287 13.285 13.5256 13.5179 13.1179 14.0357C13.0631 14.107 13.0046 14.204 12.9336 14.2849C12.9055 14.3461 12.8841 14.4101 12.8696 14.4758C12.8696 14.4758 13.5591 14.2104 13.7564 13.6052C13.9572 12.9968 13.996 12.3982 13.9572 11.8384C13.9505 11.6797 13.9247 11.5666 13.8859 11.4855C13.7888 11.2848 13.5168 11.3172 13.407 11.4305C13.2482 11.5892 12.9829 11.9839 12.614 12.2557C12.2385 12.5274 12.2225 12.5757 11.9343 12.696H11.9352Z" fill="#D7BC6B"></path>
<path fill-rule="evenodd" clip-rule="evenodd" d="M11.081 13.5696C11.081 13.5696 10.9451 13.6504 10.8738 13.9536C10.8026 14.2642 10.9378 14.6429 11.0161 14.7625C11.0944 14.8822 11.2721 15.2093 11.6408 15.2255C11.732 15.225 11.8222 15.2063 11.9062 15.1704C12.0349 15.1114 12.1556 15.0364 12.2654 14.9471C12.4241 14.8274 12.5534 14.7239 12.5372 14.7141C12.4984 14.6979 11.5599 13.9212 11.5599 13.9212L11.2071 13.5273L11.0808 13.57L11.081 13.5696Z" fill="#585136"></path>
<path fill-rule="evenodd" clip-rule="evenodd" d="M11.968 14.8576C11.968 14.8576 12.159 14.8416 12.2722 14.7703C12.3855 14.6991 11.6088 13.929 11.6088 13.929L11.6638 14.761L11.968 14.8576Z" fill="#453A25"></path>
<path fill-rule="evenodd" clip-rule="evenodd" d="M11.1424 13.5113C11.1424 13.5113 11.0453 13.6958 11.0453 13.7445C11.0291 13.903 11.0777 14.4013 11.1166 14.5598C11.1554 14.7282 11.3657 14.9837 11.6377 14.9837C11.8059 14.9837 12.039 14.8803 12.039 14.8545C12.039 14.822 11.7995 14.7905 11.7348 14.6699C11.696 14.6059 11.6798 14.4468 11.6708 14.2859C11.6644 14.1825 11.6644 14.0692 11.7032 14.0299C11.7907 13.9329 11.8067 13.6545 11.8067 13.6545L12.1173 13.0774H11.7088L11.22 13.3816L11.1424 13.5113Z" fill="#84754B"></path>
<path fill-rule="evenodd" clip-rule="evenodd" d="M11.0227 13.6893C11.0227 13.6893 11.3427 13.2654 11.6311 13.1681C11.9196 13.0709 12.0486 13.1293 12.0486 13.1293L11.8803 13.5598L11.6407 13.8252L11.6569 13.9611C11.6569 13.9611 11.6179 14.3204 11.8575 14.5695C12.0971 14.8187 12.275 14.8091 12.3787 14.8091C12.4823 14.8091 12.7799 14.7216 12.932 14.3624C13.0679 14.026 13.1812 13.5944 12.9094 13.1617C12.6438 12.7312 12.1747 12.7146 12.084 12.7146C11.9934 12.7146 11.2815 12.7502 11.0227 13.6887V13.6893Z" fill="#252211"></path>
<path fill-rule="evenodd" clip-rule="evenodd" d="M19.2394 15.1295C19.1197 15.0744 19.233 14.738 19.3527 14.6343C19.4724 14.5306 19.6245 14.4112 19.8901 14.3947C19.9869 14.3883 20.0808 14.4498 20.0648 14.5146C20.0422 14.6343 19.8739 14.8026 19.7218 14.9223C19.5114 15.0874 19.3753 15.1909 19.2394 15.1295Z" fill="#F7F7E7"></path>
<path fill-rule="evenodd" clip-rule="evenodd" d="M12.767 13.2946C12.8544 13.2882 12.9677 13.3586 12.9903 13.4533C13.0129 13.5568 12.9353 13.7639 12.767 13.7639C12.6311 13.7639 12.5598 13.5956 12.5598 13.5472C12.5613 13.5074 12.5725 13.4685 12.5922 13.4339C12.5986 13.4241 12.6149 13.3108 12.767 13.2946Z" fill="#F8F6DE"></path>
<path fill-rule="evenodd" clip-rule="evenodd" d="M11.5048 13.3689C11.5048 13.3689 11.2815 13.4724 11.178 13.6889C11.1041 13.8488 11.0817 14.0277 11.114 14.2009C11.1302 14.2817 11.2111 14.4823 11.2661 14.5535C11.3211 14.6248 11.3956 14.6734 11.4506 14.6668C11.5057 14.6602 11.6187 14.5147 11.6187 14.4275C11.6187 14.3402 11.6254 13.9711 11.732 13.7704C11.8259 13.5699 11.5055 13.3691 11.5055 13.3691L11.5048 13.3689Z" fill="#D4C38B"></path>
<path fill-rule="evenodd" clip-rule="evenodd" d="M11.5372 13.3527C11.4984 13.3753 11.4338 13.4078 11.4498 13.4498C11.466 13.4886 11.6019 13.5138 11.6505 13.6085C11.7055 13.7056 11.7055 13.8091 11.6893 13.8577C11.7316 13.8376 11.77 13.8102 11.8026 13.7766C11.8739 13.6958 11.9611 13.5859 12.0356 13.5859C12.0842 13.5859 12.1326 13.6085 12.1781 13.6085C12.2493 13.6085 12.3204 13.5859 12.3302 13.5115C12.3462 13.4144 12.1943 13.3269 12.1068 13.3431C12.123 13.2791 12.1457 13.1846 12.0744 13.1198C12.0031 13.0549 11.78 13.1684 11.7314 13.2008C11.6827 13.2333 11.5372 13.3529 11.5372 13.3529V13.3527Z" fill="#E2D59D"></path>
<path fill-rule="evenodd" clip-rule="evenodd" d="M16.6797 20.1522L17.1586 20.0107L17.2945 20.1078C17.2945 20.1078 17.3914 20.315 17.5437 20.3408C17.4951 20.4442 17.3688 20.5328 17.3754 20.6062C17.382 20.6795 17.4466 20.7356 17.4466 20.7356C17.4466 20.7356 17.0161 21.4475 17.8641 22.165C17.6634 22.2458 17.4078 22.357 17.2719 22.421C17.3688 22.4436 17.5759 22.485 17.6634 22.5635C17.7509 22.642 17.7509 22.667 17.8317 22.7156C17.9126 22.7642 17.961 22.8289 17.945 22.8579C17.89 22.8255 17.7054 22.7286 17.6732 22.8191C17.641 22.9095 16.8738 22.8741 16.8738 22.8741L15.5793 23.1233C15.5793 23.1233 15.6278 22.9938 15.4919 22.8741C15.3334 22.7318 15.1392 22.8805 14.9321 22.722C14.6603 22.5148 14.6505 22.2753 14.5632 22.1848C14.6505 22.1298 14.8286 22.0489 15.2525 21.9928C15.2363 21.9604 15.1813 21.8633 15.2137 21.7761C15.2525 21.6628 15.4142 21.5915 15.3658 21.4561C15.437 21.4399 15.4693 21.4399 15.6474 21.2165C15.8157 20.9931 15.9192 20.9447 16.0487 20.9285C16.1782 20.9123 16.2558 20.9285 16.4954 20.7051C16.6635 20.5466 16.6087 20.4107 16.6087 20.4107C16.6087 20.4107 16.7185 20.3751 16.6799 20.1518L16.6797 20.1522Z" fill="#CBAC5A"></path>
<path fill-rule="evenodd" clip-rule="evenodd" d="M15.2655 20.2239C15.2719 20.1915 15.2979 20.1753 15.4727 20.1915C15.6474 20.2077 16.7542 20.0881 17.0552 20.0718C17.3594 20.0492 18.4305 20.0652 18.9517 20.1753C19.4729 20.2854 20.0002 20.4149 20.2558 20.4795C20.5118 20.5508 20.5925 20.5764 20.5826 20.6088C20.5762 20.6412 20.5186 20.6728 20.4856 20.6638C20.4534 20.6574 19.6054 20.3985 19.3434 20.3438C19.0814 20.2892 18.175 20.1431 17.6794 20.1518C17.2167 20.1585 17.0321 20.1454 16.6407 20.1907C16.249 20.2393 15.6017 20.3039 15.4076 20.2781C15.2156 20.2555 15.2553 20.2555 15.2651 20.2231L15.2655 20.2239Z" fill="#D6BC6F"></path>
<path fill-rule="evenodd" clip-rule="evenodd" d="M17.8705 22.7606C17.8705 22.7606 18.5339 23.1199 18.7735 23.56C18.9482 23.8868 18.67 24.0487 18.67 24.0487C18.67 24.0487 19.0455 24.0487 18.9969 24.2559C18.9742 24.3852 18.3496 24.7346 17.9321 24.9191C17.5082 25.1037 17.5244 25.0941 17.3173 25.1263C17.1165 25.1587 16.5664 25.0623 16.4531 25.2234C16.3398 25.3844 16.3891 25.5504 16.4206 25.5762C16.4531 25.5988 16.7153 25.6313 16.7153 25.6313C16.7153 25.6313 16.6602 25.7834 16.1166 25.7996C15.5731 25.8158 15.437 25.8544 15.4045 25.9129C15.3721 25.9677 15.508 25.9355 15.7574 25.9769C16.0066 26.0157 16.356 26.0409 16.356 26.0409C16.356 26.0409 16.2427 26.1379 15.9483 26.2156C15.6117 26.3028 15.0841 26.3839 14.9256 26.481C15.0065 26.536 15.1264 26.6169 15.1816 26.6233C15.0457 26.6557 14.8546 26.7269 14.8224 26.7527C14.8708 26.7852 14.9356 26.824 14.9356 26.824C14.9356 26.824 14.6636 27.1508 14.5051 27.2319C14.3466 27.313 13.434 27.7366 13.12 27.6558C12.3368 27.4486 12.2397 26.591 12.0488 26.5264C11.7608 26.4293 11.6249 26.6233 11.3691 26.4874C11.4824 26.4065 11.5441 26.3581 11.6637 26.303C11.5342 26.239 10.8644 25.8143 10.8644 25.8143C10.7943 25.6616 10.7166 25.5126 10.6314 25.3678C10.5019 25.1444 10.3114 24.8466 10.1685 24.5844C9.85787 24.0084 9.84166 23.743 9.56006 23.4162C9.6087 23.3522 9.77681 23.3612 9.77681 23.3612L12.1363 24.1379L16.32 24.2591L17.408 22.7058L17.8707 22.7609L17.8705 22.7606Z" fill="#DFC677"></path>
<path fill-rule="evenodd" clip-rule="evenodd" d="M11.6732 25.1293C11.6985 25.1574 11.7279 25.1815 11.7605 25.2006C11.8415 25.2556 11.9612 25.3205 12.0421 25.4173C12.0745 25.3689 12.1554 25.2814 12.2981 25.4173C12.4408 25.5532 12.6181 25.4564 12.7284 25.4886C12.8416 25.5276 12.848 25.5436 12.848 25.5436C12.848 25.5436 12.912 25.4886 13.0552 25.4304C13.1427 25.3979 13.2461 25.3753 13.3594 25.3431C13.4629 25.3205 13.5762 25.2881 13.654 25.2881C13.7253 25.3365 13.9808 25.6081 15.0068 25.2072C15.9744 24.8317 16.1976 24.7897 16.3595 24.8477C16.3757 24.8089 16.3919 24.7345 16.6411 24.7443C16.6411 24.6408 16.434 24.288 16.434 24.288L15.2916 23.8965H14.6667L12.793 24.2395L11.7547 24.832L11.6739 25.1306L11.6732 25.1293Z" fill="#C4A859"></path>
<path fill-rule="evenodd" clip-rule="evenodd" d="M11.0486 24.4725C11.0486 24.4725 11.0712 24.6472 11.3302 24.8317C11.5862 25.0161 11.6666 25.1261 11.6666 25.1261C11.6666 25.1261 11.7152 25.0621 11.7541 24.9969C11.7929 24.9256 11.8253 24.8448 11.89 24.8221C12.0195 24.7671 12.3139 24.8706 12.3787 24.8544C12.4338 24.8384 12.4175 24.7251 12.4758 24.7251C12.6117 24.7185 12.6989 24.8123 12.7476 24.8123C12.7962 24.8123 12.9157 24.8059 12.9319 24.7801C12.9481 24.7543 12.9545 24.4855 13.139 24.356C13.3398 24.2137 13.5858 24.2752 13.651 24.3076C13.651 24.356 13.6574 24.4759 13.7869 24.4823C13.9164 24.4887 13.9292 24.4661 14.0429 24.5049C14.1566 24.5437 14.2921 24.4985 14.3535 24.6892C14.4086 24.6732 14.5381 24.657 14.5057 24.4725C14.5697 24.4241 14.6255 24.3916 14.7617 24.2007C14.7941 24.1523 14.8489 24.0972 14.8911 24.026C15.0044 24.026 15.1403 24.0034 15.3214 24.1619C15.2664 24.2007 15.234 24.2259 15.218 24.2653C15.2653 24.3122 15.3086 24.3631 15.3473 24.4174C15.3959 24.4814 15.4283 24.56 15.4898 24.5762C15.6257 24.615 15.849 24.56 16.0982 24.5762C16.3378 24.5924 16.5383 24.6796 16.6258 24.7347C16.6582 24.7187 16.6582 24.7121 16.739 24.7283C16.8199 24.7445 16.8813 24.7509 16.7941 24.6474C16.8425 24.67 16.8975 24.7187 16.9462 24.67C16.9948 24.6214 17.0334 24.5504 17.1693 24.5341C17.3052 24.5179 17.3539 24.5405 17.4089 24.3983C17.4802 24.2235 17.2342 24.2235 17.2342 24.2235C17.2342 24.2235 17.3475 24.1199 17.4738 23.984C17.6259 23.8417 17.8006 23.6571 17.8426 23.4306C17.9139 23.0131 17.5062 22.9583 17.5062 22.9583L15.5288 23.5667L13.1113 23.4468L11.0499 24.4727L11.0486 24.4725Z" fill="#927D49"></path>
<path fill-rule="evenodd" clip-rule="evenodd" d="M9.27185 18.7605C9.27185 18.7605 9.20785 18.8414 9.16839 19.0323C9.12892 19.2233 9.14577 19.2007 9.11335 19.3365C9.08092 19.4724 8.68263 20.8252 8.83196 21.2815C8.98129 21.7378 9.23985 21.9061 9.40156 22.275C9.43399 22.3559 9.46556 22.4045 9.48241 22.4757C9.53745 22.7151 9.48903 22.8996 9.55367 23.1392C9.57628 23.2201 9.63473 23.3139 9.72199 23.411C9.91399 23.6115 10.2269 23.8025 10.362 23.9384C10.5527 24.1391 10.8247 24.547 11.1709 24.5856C11.3555 24.6082 11.6177 24.5306 11.8344 24.4013C12.0264 24.2814 12.145 24.1133 12.3464 24.0173C12.4887 23.946 12.6408 23.9202 12.7767 23.8878C13.0583 23.8328 13.3141 23.8238 13.4662 23.8554C13.6992 23.904 14.2493 24.0723 14.5542 24.0723C14.7924 24.0685 15.0293 24.0359 15.2597 23.9753C15.7224 23.8394 16.2822 23.6062 16.6513 23.5027C16.868 23.4387 17.0427 23.4219 17.2209 23.3831C17.5251 23.3118 17.7807 23.2147 17.9264 23.0302C17.8293 22.9169 17.7096 22.7422 17.0621 22.7486C16.3276 22.7648 15.4796 23.1725 15.0621 23.2373C14.6447 23.3022 14.4635 23.357 13.9974 23.1887C13.5404 23.0187 13.5253 22.9063 13.5253 22.9063C13.5253 22.9063 13.0455 22.5707 12.8448 21.7152C12.644 20.8597 12.8448 20.2364 13.3659 19.644C13.5018 19.4919 13.4694 19.356 13.4694 19.356C13.4694 19.356 13.8124 18.8932 13.7186 18.46C13.6151 18.0295 12.9516 18.1169 12.9516 18.1169L9.27207 18.7605H9.27185Z" fill="#6E6342"></path>
<path fill-rule="evenodd" clip-rule="evenodd" d="M9.82528 20.2007C9.79675 20.2543 9.78333 20.3147 9.78645 20.3754C9.79285 20.4627 9.81888 20.5759 10.0809 20.8317C10.3042 21.0549 10.2556 21.304 10.2556 21.304C10.2556 21.304 10.368 21.3267 10.6731 21.1839C10.9126 21.0707 10.9931 21.2714 10.9931 21.2714C11.0628 21.2348 11.1384 21.2107 11.2164 21.2002C11.2871 21.1936 11.3556 21.1718 11.417 21.1362C11.417 21.1362 11.6986 21.4242 11.9445 21.56C12.1679 21.6799 12.2974 21.7608 12.4075 21.6799C12.5109 21.6087 12.5109 21.463 12.5043 21.3983C12.4787 21.3387 12.4461 21.2822 12.4075 21.23C12.3362 21.1266 12.2229 21.0067 12.2155 20.91C12.1993 20.6869 12.3838 20.4213 12.3447 20.3566C12.3057 20.292 12.1604 20.2758 11.8012 20.4053C11.4291 20.5282 9.82379 20.2013 9.82379 20.2013L9.82528 20.2007Z" fill="#39331F"></path>
<path fill-rule="evenodd" clip-rule="evenodd" d="M10.6731 21.6473C10.6731 21.6473 10.4888 21.4726 10.5534 20.6246C10.6317 20.6235 10.7098 20.6311 10.7864 20.6472C10.7864 20.6472 10.8869 21.3043 10.6731 21.6473Z" fill="#292311"></path>
<path fill-rule="evenodd" clip-rule="evenodd" d="M9.35937 18.1132C9.38509 18.0942 9.40895 18.0728 9.43063 18.0492C9.36663 18.1689 9.07116 18.6479 9.31073 19.402C9.55031 20.1527 10.1521 20.7125 10.8932 20.7385C11.6344 20.7646 12.0239 20.4019 12.4693 19.8583C12.6441 19.6416 12.8448 19.3696 13.0227 19.1852C13.2881 18.897 13.4953 18.8162 13.4953 18.538C13.4953 17.9684 12.9127 17.7126 12.0551 17.457C11.1975 17.2015 10.4239 17.233 10.0226 17.408C9.63116 17.5987 9.46284 17.7994 9.35916 18.1135L9.35937 18.1132Z" fill="#252211"></path>
<path fill-rule="evenodd" clip-rule="evenodd" d="M12.1133 21.9028L12.1773 21.8704C12.1773 21.8704 12.1933 21.6144 12.297 21.6212C12.4005 21.6374 12.4491 21.7735 12.4393 21.822C12.4329 21.8704 12.4071 21.9515 12.3034 21.9417C12.1675 21.9449 12.1127 21.9028 12.1127 21.9028H12.1133Z" fill="#3F3824"></path>
<path fill-rule="evenodd" clip-rule="evenodd" d="M11.8253 20.8156C11.8253 20.8156 11.8893 20.793 11.9676 20.8706C12.0316 20.8706 12.3107 20.8382 12.3981 20.8932C12.4856 20.9483 12.5114 20.9967 12.5114 20.9967C12.5114 20.9967 12.1846 21.0679 12.0064 20.9967C11.8253 20.9352 11.8253 20.8156 11.8253 20.8156Z" fill="#2D2815"></path>
<path fill-rule="evenodd" clip-rule="evenodd" d="M13.2655 20.8639C13.2655 20.8477 13.0907 20.728 12.9062 20.689C12.8738 20.6826 12.8672 20.7052 12.8422 20.7052C12.826 20.6988 12.8196 20.6501 12.8196 20.6501L12.7146 20.7054C12.7146 20.7054 12.6984 20.728 12.7535 20.7694C12.8019 20.8082 12.883 20.8407 12.9056 20.9053C12.9282 20.9699 12.9282 20.9925 12.938 21.0024C12.9444 21.0088 13.0577 21.0024 13.1127 20.9699C13.1678 20.9375 13.2714 20.8846 13.2648 20.8633L13.2655 20.8639Z" fill="#82764F"></path>
<path fill-rule="evenodd" clip-rule="evenodd" d="M11.6311 21.5212C11.6311 21.5212 11.6633 21.298 11.8803 21.2882C12.1034 21.272 12.1457 21.4888 12.1457 21.4888L12.0162 21.6182C12.0162 21.615 11.9191 21.4792 11.6322 21.5212H11.6311Z" fill="#2D2816"></path>
<path fill-rule="evenodd" clip-rule="evenodd" d="M13.039 20.5597C13.039 20.5597 12.9191 20.6892 12.6539 20.728C12.6313 20.6956 12.5826 20.631 12.6539 20.5275C12.7251 20.424 12.806 20.3916 12.8869 20.4238C12.9225 20.4296 12.9558 20.4455 12.9828 20.4695C13.0097 20.4936 13.0292 20.5249 13.039 20.5597Z" fill="#574F35"></path>
<path fill-rule="evenodd" clip-rule="evenodd" d="M13.5275 20.7184C13.5341 20.686 13.5115 20.6796 13.5275 20.6634C13.5435 20.6471 13.6312 20.6149 13.6474 20.6309C13.6538 20.6375 13.6474 20.6634 13.6474 20.6949C13.6474 20.7265 13.6474 20.7589 13.6312 20.7822C13.6085 20.8146 13.5439 20.8308 13.5115 20.8212C13.4791 20.8116 13.4727 20.7662 13.4727 20.7572C13.4887 20.7508 13.5275 20.7346 13.5275 20.7184ZM14.08 20.369C14.08 20.3527 14.1351 20.3203 14.1675 20.3203C14.2159 20.3203 14.2159 20.3591 14.2225 20.369C14.2385 20.3754 14.2385 20.3623 14.2547 20.3916C14.2709 20.4208 14.2938 20.4724 14.2773 20.5048C14.2609 20.5373 14.1965 20.5597 14.1805 20.5533C14.1579 20.5371 14.0866 20.3916 14.08 20.369Z" fill="#82764F"></path>
<path fill-rule="evenodd" clip-rule="evenodd" d="M12.9677 20.7929C12.9677 20.7929 13.0389 20.8089 13.136 20.89C13.1035 20.9126 13.0549 20.9384 13.0549 20.9384C13.0549 20.9384 13.0485 20.864 12.9677 20.7927V20.7929Z" fill="#6E6342"></path>
<path fill-rule="evenodd" clip-rule="evenodd" d="M12.8092 20.081C12.793 20.065 12.8576 20.0261 12.8965 20.0325C12.9353 20.0389 12.9515 20.065 12.9935 20.0714C13.0355 20.0778 13.0422 20.0552 13.0575 20.0389C13.0729 20.0227 13.1288 20.0325 13.1384 20.0389C13.1444 20.0461 13.1498 20.0536 13.1546 20.0616C13.1553 20.0493 13.1585 20.0372 13.164 20.0262C13.1696 20.0152 13.1773 20.0054 13.1868 19.9976C13.1992 19.9884 13.2135 19.9822 13.2287 19.9794C13.2438 19.9766 13.2594 19.9773 13.2743 19.9813C13.2807 20.004 13.3131 20.0848 13.3067 20.101C13.3003 20.1172 13.2032 20.1401 13.1868 20.1236C13.203 20.1627 13.2743 20.2435 13.2839 20.2595C13.2935 20.2755 13.2126 20.3146 13.1804 20.3082C13.1352 20.305 12.8568 20.1431 12.8083 20.0816L12.8092 20.081ZM13.2331 19.5438C13.2271 19.5275 13.2156 19.5138 13.2007 19.505C13.1781 19.4986 13.1036 19.505 13.1036 19.5438C13.1036 19.5826 13.1676 19.7998 13.2395 19.9129C13.3206 20.0261 13.3754 20.1198 13.4304 20.1458C13.4477 20.1537 13.4673 20.1547 13.4853 20.1487C13.5033 20.1427 13.5184 20.1301 13.5275 20.1134C13.5339 20.0972 13.5501 19.9775 13.5437 19.6959C13.5373 19.4143 13.5275 19.1425 13.5113 19.1263C13.4951 19.1101 13.4304 19.1103 13.4078 19.1425C13.3852 19.1747 13.2395 19.4954 13.2329 19.5438H13.2331Z" fill="#585136"></path>
<path fill-rule="evenodd" clip-rule="evenodd" d="M12.945 21.2007C12.945 21.2007 12.8317 21.1295 12.7217 21.1781C12.6182 21.2268 12.6246 21.4177 12.6246 21.4177C12.6479 21.4268 12.673 21.4301 12.6979 21.4273C12.7227 21.4244 12.7465 21.4156 12.7671 21.4015C12.8383 21.3531 12.9288 21.2722 12.945 21.201V21.2007Z" fill="#574F35"></path>
<path fill-rule="evenodd" clip-rule="evenodd" d="M13.1586 21.4564C13.1522 21.3924 13.0946 21.3924 13.0946 21.3593C13.0986 21.3435 13.1077 21.3295 13.1206 21.3195C13.1335 21.3095 13.1494 21.3042 13.1656 21.3043C13.1981 21.3043 13.2296 21.3431 13.2693 21.3683C13.3082 21.3909 13.3664 21.4323 13.3728 21.4816C13.3792 21.5308 13.3088 21.6659 13.2305 21.6659C13.1522 21.6659 13.1755 21.5202 13.1592 21.4555L13.1586 21.4564ZM13.7832 21.3689C13.7832 21.3689 13.6538 21.4077 13.6634 21.3689C13.673 21.3301 13.7024 21.3205 13.7444 21.3205C13.7658 21.2981 13.7945 21.2843 13.8253 21.2815C13.8429 21.2806 13.8602 21.2864 13.8737 21.2977C13.8737 21.2977 13.9612 21.2588 13.987 21.2815C14.0128 21.3041 13.9936 21.3041 14.0096 21.3301C14.03 21.359 14.0433 21.3922 14.0486 21.4272C14.0486 21.453 13.9516 21.508 13.8737 21.4984C13.7832 21.479 13.7992 21.3851 13.7832 21.3689ZM14.5372 21.2232C14.5372 21.2232 14.576 21.2458 14.5438 21.2719C14.5212 21.2945 14.4079 21.3359 14.3106 21.3431C14.2135 21.3431 14.1263 21.3591 14.1263 21.3269C14.1263 21.2947 14.2071 21.2298 14.2556 21.2136C14.2653 21.2015 14.2776 21.1916 14.2917 21.1849C14.3057 21.1782 14.3211 21.1747 14.3366 21.1748C14.3755 21.1748 14.5274 21.1586 14.5696 21.1522C14.6084 21.1456 14.6408 21.1682 14.618 21.2006C14.6084 21.2232 14.5372 21.2232 14.5372 21.2232ZM14.7605 20.224C14.7605 20.224 14.7119 20.3274 14.6571 20.3274C14.602 20.321 14.602 20.3048 14.602 20.2886C14.602 20.266 14.6571 20.2077 14.6504 20.1915C14.6344 20.1915 14.5954 20.1915 14.602 20.1527C14.602 20.1203 14.6571 20.0815 14.7055 20.0887C14.7421 20.0586 14.7876 20.0416 14.835 20.0403C14.89 20.0403 14.9384 20.0563 14.9384 20.0887C14.9384 20.1211 14.8744 20.1922 14.851 20.2086C14.8252 20.2344 14.7927 20.2513 14.7605 20.2246V20.224ZM14.0226 22.1365C14.0226 22.1365 13.9586 22.1431 13.9586 22.1753C13.9586 22.1915 13.9746 22.1915 13.9974 22.1819C14.0106 22.1812 14.0236 22.179 14.0363 22.1753C14.0427 22.1819 14.0427 22.2142 14.0913 22.2142C14.1312 22.2088 14.1697 22.1956 14.2046 22.1753C14.2434 22.1593 14.2758 22.1429 14.2758 22.1113C14.2596 22.0563 14.2272 22.0303 14.1788 22.0303C14.1539 22.0287 14.1292 22.0343 14.1075 22.0465C14.1075 22.0465 14.0913 22.014 14.0363 22.0465C13.9812 22.0789 13.9876 22.0789 14.0038 22.0951C14.0328 22.1209 14.0232 22.1378 14.0232 22.1378L14.0226 22.1365ZM13.657 22.4731C13.657 22.4569 13.7378 22.4245 13.7604 22.4343C13.783 22.4407 13.8477 22.5636 13.8477 22.5766C13.8477 22.5928 13.7668 22.6316 13.7344 22.6316C13.702 22.6316 13.6471 22.5766 13.6471 22.5676C13.6471 22.5612 13.686 22.5516 13.686 22.545C13.6956 22.529 13.657 22.49 13.657 22.4738V22.4731ZM13.401 22.0006C13.4172 21.9942 13.4172 21.978 13.4398 21.9618C13.4469 21.9571 13.4549 21.954 13.4634 21.9529C13.4718 21.9518 13.4804 21.9527 13.4884 21.9554C13.4941 21.9452 13.502 21.9364 13.5115 21.9297C13.5211 21.9229 13.532 21.9184 13.5435 21.9163C13.5823 21.9099 13.6147 21.9163 13.6075 21.9325C13.6075 21.9812 13.6399 22.0134 13.6399 22.0522C13.6399 22.0911 13.6173 22.1397 13.5364 22.1721C13.4556 22.1947 13.3455 22.1947 13.3293 22.1883C13.3131 22.1819 13.2968 22.1171 13.3131 22.0847C13.3293 22.0522 13.3745 22.0168 13.4005 22.0006H13.401Z" fill="#82764F"></path>
<path fill-rule="evenodd" clip-rule="evenodd" d="M13.5041 22.0227C13.5041 22.0227 13.449 22.0551 13.449 22.0713C13.4441 22.087 13.442 22.1034 13.4426 22.1198C13.4426 22.1294 13.5139 22.1134 13.5235 22.1036C13.5267 22.0972 13.5041 22.0396 13.5041 22.0227Z" fill="#6E6342"></path>
<path fill-rule="evenodd" clip-rule="evenodd" d="M13.0227 21.8704C13.0549 21.877 13.11 21.8704 13.152 21.8866C13.1844 21.9029 13.207 21.9353 13.1746 21.9741C13.1422 22.0129 13.1106 22.0712 13.0387 22.0614C12.9579 22.055 12.8802 22.0129 12.8802 21.9805C12.8789 21.96 12.8816 21.9394 12.8883 21.92C12.8949 21.9005 12.9054 21.8826 12.919 21.8672C12.9515 21.8414 12.9675 21.8576 13.0225 21.8704H13.0227Z" fill="#585136"></path>
<path fill-rule="evenodd" clip-rule="evenodd" d="M12.9839 21.9028C12.9839 21.9028 12.8804 21.9837 12.8544 22.0227C12.822 22.0616 12.6635 22.2621 12.6151 22.3041C12.6311 22.2757 12.6495 22.2487 12.6699 22.2233C12.6059 22.2642 12.5579 22.3259 12.534 22.398C12.4952 22.5179 12.7509 22.5825 12.9191 22.6312C13.0872 22.6798 13.1522 22.6952 13.1522 22.6952C13.0903 22.6021 13.0372 22.5036 12.9935 22.4008C12.9295 22.2486 12.8964 22.2324 12.9385 22.1612C12.9709 22.0899 13.0195 22.0415 13.0195 21.9865C13.0001 21.9353 12.9839 21.9028 12.9839 21.9028Z" fill="#574F35"></path>
<path fill-rule="evenodd" clip-rule="evenodd" d="M9.29449 22.1588C9.31805 22.1631 9.34219 22.1631 9.36575 22.1588C9.41417 22.1522 9.91913 21.9668 10.4467 22.0001C10.8417 22.024 11.2331 22.0883 11.6149 22.1921C12.2784 22.3668 13.1036 22.713 13.6375 22.9106C13.7798 22.9654 13.9191 23.0627 14.0215 23.1013C14.4294 23.26 14.4454 23.26 14.685 23.3021C14.9666 23.3409 15.2546 23.247 15.5556 23.1824C15.9245 23.1013 16.5555 23.0625 17.1089 22.9816C17.2878 22.9568 17.4643 22.9168 17.6365 22.862C17.6365 22.862 17.1964 23.3021 16.1412 23.4606C15.7147 23.5253 15.2813 23.5308 14.8533 23.4768C14.5167 23.4444 14.2935 23.3957 14.1252 23.3473C13.9343 23.2922 13.5426 23.1465 13.0605 23.0273C12.7238 22.9398 12.3484 22.8752 11.9181 22.7943C10.8565 22.6 9.70452 22.3768 9.29407 22.1601L9.29449 22.1588Z" fill="#252211"></path>
<path fill-rule="evenodd" clip-rule="evenodd" d="M8.10352 20.1587C7.84752 20.3754 7.57595 20.5826 7.31077 20.7831L6.51141 21.3973C6.23963 21.5978 5.97424 21.805 5.70224 22.0057C5.43024 22.2065 5.15867 22.3972 4.87024 22.5817C5.12624 22.365 5.39781 22.1642 5.6696 21.9669C5.94139 21.7696 6.2232 21.5761 6.48539 21.376L7.28475 20.7609C7.55973 20.5604 7.82512 20.3533 8.10352 20.1591V20.1587ZM6.68933 22.4241C6.68933 22.4241 6.97733 22.1845 7.33659 21.8481C7.78309 21.4308 8.33008 20.8966 8.5048 20.7998L6.68912 22.4243L6.68933 22.4241Z" fill="#CFB66C"></path>
<path fill-rule="evenodd" clip-rule="evenodd" d="M6.68933 22.4239C6.83184 22.2816 6.98394 22.1425 7.13605 22.0064L7.36901 21.8058C7.44026 21.7418 7.52133 21.67 7.59237 21.5987C7.73466 21.4564 7.87397 21.3041 8.01626 21.1586C8.08679 21.0854 8.16136 21.0163 8.23962 20.9514C8.27875 20.9168 8.32221 20.8874 8.3689 20.864C8.40794 20.8414 8.44997 20.8 8.5048 20.7927C8.47258 20.8414 8.43376 20.864 8.40133 20.906C8.3625 20.9384 8.33008 20.9773 8.29786 21.0095C8.22661 21.0807 8.14576 21.1454 8.0745 21.2102C7.9224 21.3397 7.76389 21.4662 7.61178 21.6017C7.45968 21.7372 7.31738 21.8833 7.16506 22.0192C7.00016 22.1585 6.84805 22.2944 6.68933 22.4245V22.4239ZM8.62469 21.1294C8.62469 21.1294 7.56976 22.1619 7.3528 22.33L8.62469 21.1294Z" fill="#CFB66C"></path>
<path fill-rule="evenodd" clip-rule="evenodd" d="M8.62468 21.1294C8.52978 21.2392 8.42803 21.343 8.32004 21.44L8.00004 21.7442C7.89657 21.8477 7.79929 21.9514 7.68942 22.0548C7.57614 22.1519 7.47268 22.2468 7.35278 22.3364L7.6634 22.0322C7.76708 21.9288 7.88036 21.8415 7.99044 21.7378L8.30105 21.4336C8.40772 21.3269 8.5114 21.2233 8.62468 21.1294ZM8.6731 21.6892C8.57586 21.9606 8.46128 22.2254 8.33006 22.4821C8.05828 23.0259 7.6506 23.7054 7.47246 24.0518L8.6731 21.6892Z" fill="#CFB66C"></path>
<path fill-rule="evenodd" clip-rule="evenodd" d="M8.67303 21.6895C8.67303 21.8091 8.6406 21.9128 8.60177 22.0163C8.56393 22.1198 8.52077 22.2214 8.47249 22.3205C8.42385 22.4176 8.36881 22.5212 8.31377 22.6151C8.25873 22.709 8.19409 22.8058 8.14545 22.9031L7.81863 23.4791C7.70535 23.6711 7.59527 23.8642 7.47559 24.0487C7.55644 23.8416 7.66652 23.6474 7.7702 23.4565C7.88348 23.2645 7.98695 23.0725 8.0902 22.8739C8.14061 22.7749 8.18597 22.6734 8.22609 22.5699C8.27452 22.4662 8.32295 22.3691 8.36199 22.2753C8.41041 22.1718 8.44924 22.0745 8.49788 21.9809C8.55271 21.8804 8.59815 21.7833 8.6726 21.6895H8.67303Z" fill="#CFB66C"></path>
<path fill-rule="evenodd" clip-rule="evenodd" d="M9.82528 24.343C9.82528 24.343 9.50528 24.7669 9.53728 25.3041C9.62454 25.0227 9.73462 24.5922 9.82528 24.343ZM10.1295 24.768C10.1295 24.768 10.0162 25.92 9.92235 26.4864C10.055 25.8317 10.0809 25.8867 10.1295 24.768ZM12.2492 26.5544C12.2492 26.5544 11.7702 27.9624 11.7604 28.3537C11.8641 27.9513 12.0646 27.1294 12.2492 26.5534V26.5544Z" fill="#DEC270"></path>
<path fill-rule="evenodd" clip-rule="evenodd" d="M13.369 24.2561C13.369 24.2561 14.1458 25.5376 14.7284 26.6314C14.5707 26.081 14.2081 25.0715 13.369 24.2561Z" fill="#CBAF59"></path>
<path fill-rule="evenodd" clip-rule="evenodd" d="M15.4564 26.1426C15.8829 26.8964 16.2675 27.6732 16.6084 28.4694C16.5438 27.9192 16.3688 26.9776 15.4564 26.1426Z" fill="#E3C677"></path>
<path fill-rule="evenodd" clip-rule="evenodd" d="M21.5923 28.0321C21.7216 27.9513 21.9774 27.5109 22.2007 27.4011C22.4239 27.2878 22.5922 27.2652 22.793 27.0418C22.9935 26.8086 23.049 26.6664 23.4886 26.482C24.1037 26.2164 23.6806 25.8734 23.6806 25.8734C23.7484 25.8068 23.8208 25.7453 23.8974 25.6891C24.0561 25.5694 24.2404 25.4237 24.2244 25.1679C24.2018 24.7376 24.121 24.113 23.7681 23.7505C24.1111 23.6793 24.768 23.6308 25.1761 23.5274C25.6484 23.4075 25.8654 23.2392 25.8654 23.2392C25.8654 23.2392 25.5936 22.7764 26.0337 22.3105C26.4738 21.8446 26.8331 21.5662 27.0984 21.045C26.7942 21.0062 26.3305 20.8445 25.1469 21.2942C25.2108 21.3243 25.2724 21.3588 25.3314 21.3977C25.3314 21.3977 24.6033 21.5984 24.3379 21.8218C23.875 22.2132 23.8167 22.5337 23.3152 22.7732C22.8137 23.0128 22.3087 22.948 21.8914 23.1421C21.4741 23.3362 21.4125 23.5013 21.2602 23.5726C21.2926 23.6114 21.2538 23.6761 21.3152 23.7311C21.2764 23.7861 21.0498 24.155 20.8201 24.155C20.8427 24.2425 21.0368 24.3071 21.0368 24.3071C21.0368 24.3071 20.8945 24.4108 20.5321 24.4366C20.7164 24.6286 20.8913 24.8379 21.3734 25.1421C21.3346 25.2229 21.1727 25.3428 21.2375 25.4949C21.3088 25.647 21.4935 25.8542 22.231 26.0225C21.8556 26.0385 21.4157 26.126 20.823 26.0451C20.2308 25.9739 20.1338 25.9318 19.7681 26.0225C19.8069 26.0613 19.9104 26.0613 20.0011 26.1648C19.904 26.1712 19.2956 26.0936 19.0884 26.3656C18.8717 26.6469 18.7778 27.1099 18.794 27.4205C18.6807 27.4755 18.5707 27.5726 18.6257 27.7733C18.6807 27.9741 18.9687 28.0387 19.1533 28.1648C19.3376 28.3007 19.3538 28.3491 19.5287 28.3169C19.7131 28.2781 19.9849 28.0938 20.1436 28.0938C20.3023 28.0938 20.4154 28.2134 20.4154 28.2134C20.4154 28.2134 20.8459 28.0063 20.8879 28.0451C20.9267 28.084 20.8943 28.3331 20.9363 28.372C20.979 28.4012 21.4639 28.1132 21.5934 28.0321H21.5923Z" fill="#ECD592"></path>
<path fill-rule="evenodd" clip-rule="evenodd" d="M31.0001 15.0811C28.9775 9.85782 23.9774 8.89014 23.9774 8.89014H9.71201L9.76705 14.2105H12.608V26.0908H9.71179V31.4015H23.5825C26.9254 31.4015 29.6051 28.0421 29.6051 28.0421C33.8963 21.9517 30.9999 15.0811 30.9999 15.0811H31.0001ZM23.657 24.4628C23.657 24.4628 22.569 26.0325 21.3852 26.0325H19.0172L18.9611 14.2235H22C22 14.2235 23.408 14.5179 24.3917 17.3042C24.3917 17.3042 25.6958 21.2936 23.657 24.4628Z" fill="white" fill-opacity="0.8"></path>
</g>
<defs>
<clipPath id="clip0_422_31591">
<rect width="40" height="40" fill="white"></rect>
</clipPath>
</defs>
</svg>
