<svg width="40" height="40" fill="none" xmlns="http://www.w3.org/2000/svg"><g clip-path="url('#clip0_422_31591')"><path d="M20 40c11.046 0 20-8.954 20-20S31.046 0 20 0 0 8.954 0 20s8.954 20 20 20Z" fill="#988430"/><path d="M20 39.36c10.692 0 19.36-8.668 19.36-19.36S30.691.64 20 .64.64 9.309.64 20 9.309 39.36 20 39.36Z" fill="#7A6A2A"/><path d="M20 38.952c10.467 0 18.952-8.485 18.952-18.952C38.952 9.533 30.467 1.049 20 1.049 9.533 1.049 1.049 9.533 1.049 20S9.533 38.952 20 38.952Z" fill="#BA9F33"/><path fill-rule="evenodd" clip-rule="evenodd" d="M8.744 17.864c-.113-.103-.233-.207-.343-.31-.11-.104-.223-.208-.336-.311l-.337-.32c-.055-.055-.113-.104-.168-.159l-.175-.152c-.447-.424-.896-.848-1.336-1.272.456.418.903.832 1.359 1.256l.158.159c.055.054.114.103.169.158l.336.31c.113.104.224.208.337.32.113.114.223.217.336.32v.001ZM2.816 17.8s1.624.168 2.417.281c.735.104 3.032.457 3.032.457l-5.45-.738Zm0 0c.456.039.912.087 1.368.136.233.023.457.048.68.071l.343.039.337.048 1.359.217.68.113c.223.04.446.082.68.12a16.271 16.271 0 0 1-.68-.087l-.68-.097-1.36-.2c-.113-.017-.223-.04-.336-.056l-.343-.04c-.223-.022-.456-.054-.68-.08a39.617 39.617 0 0 1-1.369-.185v.001Zm5.288 1.161s-1.735.44-2.32.609c-.577.158-2.321.689-2.321.689l4.64-1.298Z" fill="#CFB66C"/><path fill-rule="evenodd" clip-rule="evenodd" d="M8.103 18.961c-.385.114-.768.224-1.158.327l-1.159.31c-.385.114-.768.224-1.152.338l-.576.158c-.19.055-.385.103-.582.159.19-.064.385-.13.576-.185l.576-.184c.385-.12.768-.233 1.152-.353.391-.097.777-.2 1.168-.295a43.66 43.66 0 0 1 1.155-.275Zm-4.397 2.366c.19-.071 2.391-1.097 2.902-1.337.256-.12 1-.383 1-.383l-3.902 1.72Z" fill="#CFB66C"/><path fill-rule="evenodd" clip-rule="evenodd" d="M3.706 21.327c.168-.064.326-.142.488-.217l.48-.223.96-.463c.32-.152.631-.32.961-.463.169-.07.337-.13.505-.184l.256-.081c.087-.023.169-.049.256-.071-.32.152-.657.281-.977.43-.32.159-.647.288-.978.43l-.977.43c-.328.134-.648.276-.975.412Zm.213.896s1.993-1.168 2.68-1.544c.359-.2 1.52-.776 1.52-.776l-4.2 2.32Z" fill="#CFB66C"/><path fill-rule="evenodd" clip-rule="evenodd" d="M3.92 22.223c.336-.207.679-.417 1.022-.63l.512-.312c.174-.103.343-.2.52-.304.176-.103.344-.207.522-.304.085-.052.173-.097.265-.136l.272-.136c.36-.174.719-.352 1.097-.505-.343.217-.696.402-1.048.593-.175.097-.353.184-.528.281-.175.097-.343.201-.521.295-.175.103-.343.2-.521.294l-.528.288-1.064.576Zm4.184-2.064s-1.24.95-1.641 1.255c-.402.304-1.583 1.159-1.583 1.159l3.224-2.415Z" fill="#CFB66C"/><path fill-rule="evenodd" clip-rule="evenodd" d="m15.217 27.832-.634-1.2.368-1.503 2.631-1.016-1.12-2.297.554-2.32 1.04-2.078 3.21-.505 2.359-2.25 5.093.386 1 5.446-1.925 6.858-1.097 3.55-4.447.169-2.064-1.43-2.418-1.01-2.55-.8Z" fill="#E2CC85"/><path fill-rule="evenodd" clip-rule="evenodd" d="M23.016 27.793s-.615.281-1.664.217c-.303-.408-2.43-.6-2.43-.6s-.265-.08-.734.114c-.472.192-.92.168-1.337.272-.417.104-.832-.44-1.152-.553-.32-.12-.744-.408-.744-.408l-.896-.088-1.8-.76-2.858-2.848-.776 1.216-.24 1.505.864 1.783 2.327 2.12 4.537 1.152 2.69-.792 3.369-1.424.844-.906Z" fill="#F1D789"/><path fill-rule="evenodd" clip-rule="evenodd" d="m6.896 17.728.576-1.744.687-1.126 2.21-.185-.664 1.935-1.847 3.289.767 2.935-1.36.68-.417-.641-.337-1.47-.022-1.65.407-2.023Z" fill="#F4ECB4"/><path fill-rule="evenodd" clip-rule="evenodd" d="m9.375 27.673-.424-.592s-.113-.282-.048-.528c.064-.249.055-.265.023-.359-.033-.094-.305-.417-.288-.696.016-.281-.023-.375.184-.598.217-.217.152-.593.152-.593l.282.175.064-.097s.103.08.103.207c.023-.174-.071-.984.142-1.168.214-.184.593.864.593.864l-.233-1.521-.6-1.56-1.064-1.424-.064-1.57v-.135s-.489.75-.625 1.344c-.097.407.136.902.088 1.488-.04.583-.088.537.055.768.142.231.489.706.353 1.049-.12.294-.528.087-.528.087s-.08.24-.19.327a.724.724 0 0 0-.16-.32c-.006.055-.022.13-.022.13s-.071-.224-.142-.505c-.097-.376-.201-.87-.295-1.136-.039.152-.136.615-.136.615l.055.712.266.977.256.64.249.783.216.526.175.402.152.903.735.776.391.175.285-.146Z" fill="#F3E19D"/><path fill-rule="evenodd" clip-rule="evenodd" d="M7.281 16.304s-.527.896-.679 1.8c-.152.903-.288 1.857-.192 3.087.097 1.24.282 2 .43 2.544.256.903.92 2.158.92 2.158l.022-.048a3.408 3.408 0 0 1-.265-.664c-.088-.343-.12-.75-.201-.935-.071-.184-.19-.343-.25-.57-.054-.216-.063-.56-.232-.815-.071-.104-.159-.375-.185-.647-.032-.408.017-.864-.022-1.24-.072-.624-.12-1.048-.055-1.375.064-.327.401-1.256.608-1.994.136-.472.055-.87.304-1.281.25-.408.402-.767.457-1.017.064-.226-.66.997-.66.997Z" fill="#F2E8B0"/><path fill-rule="evenodd" clip-rule="evenodd" d="M9.783 15.945s-.272.081-.401.223c-.13.136-.185.25-.36.48-.174.23-.184.417-.326.705-.143.281-.457.705-.495.857-.04.153-.104.864-.185 1.201-.071.337.081.751.081.751l.184-.039s0 .24.185.401c.184.159.217-.537.217-.537l.689-2.327 1.039-.705.113-.57-.741-.44Z" fill="#F5EEC0"/><path fill-rule="evenodd" clip-rule="evenodd" d="M10.288 17s-.489.032-.728.207c-.097.071-.136.13-.24.217-.19.158-.385.304-.478.512-.104.207-.217.52-.295 1.113-.032.25-.032.479-.055.68-.033.272-.081.488-.055.64.032.31.353.472.384.825l.663-.336.625-2.463 1.327-.832-.751-.842-.398.277.001.002Z" fill="#E6DB9D"/><path fill-rule="evenodd" clip-rule="evenodd" d="m6.788 33.585.008-.074c.097-.832.113-1.463.184-1.857.104-.56.175-.768.159-.978-.023-.336-.048-.582-.016-.841.048-.343.385-.751.375-1.033-.006-.223-.12-.368-.217-.504s-.174-.25-.174-.25.663-.456.657-2.294c.013.004.026.01.039.016l.326.929.224.271.857 1.6 1.104 1.07 1.63 1.098 1.024 1.113.103 2.967-1.336 1.735-.22.396a19.011 19.011 0 0 1-4.727-3.364Z" fill="#E5CB7A"/><path fill-rule="evenodd" clip-rule="evenodd" d="M10.87 36.424s.023-.369.327-.608c.05.08.081.158.072.216a1.93 1.93 0 0 1 1.31-.88c.871-.159 1.081-.793 1.081-.793l1.848-1.68 2.113-1.944 2.57-.903 1.2-.295s.023.088-.022.282c.223-.016.718-.13 1.233-.31.207-.082.401-.114.505-.007.152.142.175.479.184.68.25-.056.537-.295.768-.273.37.04.696.473 1.072.473.495 0 .718-.304 1.064-.544.208-.142.505-.32.674-.44.4-.295 4.647-1.592 4.647-1.592l1.488.097.24 1.599-.128 4.179-.048.046-6.768 3.535-9.383 1.438a18.818 18.818 0 0 1-5.998-2.063l-.048-.213Z" fill="#D8C173"/><path fill-rule="evenodd" clip-rule="evenodd" d="M7.357 34.116c.133-.278.253-.512.274-.595.017.168.047.537.109.93-.13-.11-.257-.222-.383-.335Z" fill="#F1D789"/><path fill-rule="evenodd" clip-rule="evenodd" d="m14.21 38.05 1.214-.338.104.032s.054.033.054.143c.153-.088.282-.072.376-.13.048.104.097.447.31.489.224.048.463-.097.706-.282.24-.19.512-.43.718-.527.076.14.143.283.201.43.272-.216.744-1.097 1.418-1.08.194-.46.52-.853.934-1.13.625-.424 1.017-.456 1.505-.418.194-.252.434-.466.706-.63.08.032.304.168.582.038.282-.13.599-.63 1.016-.695a.981.981 0 0 1 .648.135s1.216-1.207 2.055-1.608c-.033-.097-.097-.463.886-1.272.055.049.017.184.055.192.016 0 .256-.104.56-.337.376-.281.825-.576 1.097-.657.512-.152 1.055.159 1.055.159a.487.487 0 0 1 .152-.071c.13-.023.223-.04.295-.064-.007.168.087.456 0 .705.101.057.208.103.32.136-.055.12-.175.424-.375.57.168.08.19.174.43.256-.097.136-.256.369-.327.512-.071.152-.327.783-.44 1.022-.12.24-.282.68-.36.768-.077.088-.359.463-.576.647.192-.071.978-.31 1.311-.401-.1.145-.602.892-1.085 1.609a18.99 18.99 0 0 1-15.546 1.8l.002-.004Z" fill="#E0CD81"/><path fill-rule="evenodd" clip-rule="evenodd" d="M10.368 16.913s-.281 0-.336.039c-.055.038.281.12.385.158.103.04.326.217.385.36.055.135 2.022.928 2.022.928l1.392-.071.48-.663-.913-.8.64-1.886-.848.136-2.039 1.216-1.022.392-.146.19Z" fill="#DFC57C"/><path fill-rule="evenodd" clip-rule="evenodd" d="M13.424 17.537a.22.22 0 0 0 .192.104c.288 0 .553.071.663.217.185.233.696.977.696.977l1.223.44.08-1.44-1.337-.929-1.521.56v.071h.003Z" fill="#E5CC7C"/><path fill-rule="evenodd" clip-rule="evenodd" d="M13.184 18.071s.223.016.505-.087c.281-.104.744-.327.945-.24.281.12.223.496.527.832.185.208.521.201.712.425.191.223.848.12.848.12l.25 1.343-1 1.282-.328 1.592h-1.352l-1.235-.49-.608-1.472.304-1.489.432-1.816Z" fill="#D2C281"/><path fill-rule="evenodd" clip-rule="evenodd" d="M15.8 18.136c.033.01.068.016.103.016-.039.032-.12.104-.088.288.033.184.136.418.05.56a.7.7 0 0 1 .151.265c.055.159.072.304.43.327a.755.755 0 0 0-.142.114s.25.216.376.417c.129-.006.472-.112.472-.112l.071.048.152-.064s-.142-.055-.038-.401c.097-.304.184-.288.192-.31.007-.023.07-.344.07-.473.05-.168.088-.68.088-.68l-.103-1.13L17 16.65l-.473-.457-.447.841-.294.294-.023.728.036.08Z" fill="#E2C270"/><path fill-rule="evenodd" clip-rule="evenodd" d="M17.2 17.191s.104.294.143.521a.502.502 0 0 0 .023-.136s.08.447.097.631c.032-.006.064-.016.07.016.008.033.082.392.065.593.135-.223.321-.41.544-.544.129-.081.281-.168.44-.175.249-.006.43.159.728.159.718 0 1.369-.528 1.848-.69.352-.12.657-.207.87-.401.104-.087.288-.281.457-.57.223-.384.456-.718.689-.76-.105.02-.213.027-.32.023 0 0 .071-.072.192-.169.12-.097.265-.216.472-.216.37 0 .554.054.76.054.208-.006.328-.054.328-.054s.217.152.705.152c.489.006.816.048 1.072.071.255.023 1.113-.071 1.359-.064.16.006.317.045.463.113l-.793-2.304-2.849-2.49-1.695 1.201-2.61 2.609-2.523.935-.528.592v.903h-.006Z" fill="#CCB360"/><path fill-rule="evenodd" clip-rule="evenodd" d="M22.864 15.87s.071-.07.19-.168c.12-.097.267-.217.473-.217.37 0 .554.055.761.055.207-.006.327-.055.327-.055s.217.152.705.152c.489.007.816.049 1.072.071.255.023 1.113-.07 1.359-.064.16.006.317.045.462.114l-.359-1.04-.417-.792-1.191-1.304-1.44-.848c-.007-.007-.495-.136-.495-.136l-1.295.783-1.174 3.039-.023.64.76.36c.191-.32.402-.577.599-.61-.178.02-.314.02-.314.02Z" fill="#D5B457"/><path fill-rule="evenodd" clip-rule="evenodd" d="M22.848 16.087c-.113.007-.207-.016-.233-.097-.097-.271-.175-.31-.256-.31-.081 0-.19.174-.256.19-.065.016-.142-.2-.142-.2l-.071-.033s-.418.272-.712.593c-.295.32-.777.864-.994.96-.217.098-.961.13-1.216.185-.255.055-.537.24-.576.282-.039.042.114.087.136.13.023.038-.25.022-.272.063-.016.033.064.217.104.31a.526.526 0 0 1 .223-.054c.25-.007.43.158.728.158.719 0 1.37-.527 1.848-.69.353-.119.657-.206.87-.4a2.29 2.29 0 0 0 .457-.57 4.05 4.05 0 0 1 .363-.518l-.001.001Z" fill="#D2B257"/><path fill-rule="evenodd" clip-rule="evenodd" d="M12.544 32.104s-.064-.24-.657-.858c-.168-.175-.272-.32-.385-.424-.282-.265-.447-.337-.647-.489-.44-.326-.92-.326-1.288-.728-.37-.401-.799-1.168-1.098-1.951-.294-.784-.375-1.033-.375-1.055 0-.023.08-.175.184-.152.104.022.104.223.13.271.051.08.11.154.175.224.152.174.368.384.479.695a3.144 3.144 0 0 0-.114-.56s.57.36 1.055.735c.489.376.69.505.832.744.143.24.48.871.64 1.056.161.184 2.368.88 2.368.88l1.05.783.521 1.142-.408.64-.783.168-1.272-.57-.407-.552Z" fill="#D2B159"/><path fill-rule="evenodd" clip-rule="evenodd" d="M9.718 28.168s.266.424.913.825c.583.353 1.505.674 2.327.865.472.113.945.2 1.369.207 1.142.016 1.929-.31 2.903-.418.527-.055 1.175-.097 1.848-.256.864-.207 1.375-.44 2.071-.768.505-.233.968-.407 1.343-.63.527-.311.913-.658 1.36-.761-.056.152-.114.424-.554.705.233-.006.553-.022.553-.022s-.31.184-.857.598c-.337.256-.784.69-1.24.978-.294.184-.615.32-.825.43-.512.282-.719.424-1.055.768.12-.006.13 0 .13 0s-.425.055-.729.217c-.064 0-.175-.023-.369.032-.152.049-.353.16-.56.217-.294.088-.391.049-.391.049l.048.097s-.384-.007-.512.006c.023.007.017.017.017.017a.195.195 0 0 0-.064.022.666.666 0 0 1-.2.087c-.04.007-.072.007-.12.017.015.038.142.256.2.384-.049.032-.777.582-.777.582a.557.557 0 0 1 .055.113c.023.071.033.175.055.224.055.097.087.113.087.113s-.087.016-.24.055c-.128.032-.287.087-.511.12a2.049 2.049 0 0 1-.207.016c.032.071.175.343-.088.657-.262.314-.343.36-.424.56a.867.867 0 0 0-.13-.081c-.086-.04-.206-.097-.248-.175a2.082 2.082 0 0 1-.097.304c-.081.217-.2.43-.223.592-.088-.097-.25-.288-.473-.249-.223.039-.401.343-.44.43 0-.054-.039-.096-.049-.032-.006.071-.129.816-.815 1.418-.006-.153-.006-.49-.023-.599-.064.064-.142.159-.608.36-.456.2-.384.4-.384.4s-.039-.32.207-.657c.25-.336.401-.495.401-.52a.144.144 0 0 0-.032-.072c-.032-.032-.097-.071-.097-.097.039-.016.424-.2.401-.582a1.033 1.033 0 0 0-.272-.648c-.016-.016.153-.135.13-.174-.016-.023-.223-.175-.25-.256a.737.737 0 0 1 .033-.143c.023-.07.039-.12.033-.168a1.346 1.346 0 0 0-.13-.327c.023.007.184 0 .184 0s-.129-.207-.152-.304c-.023-.097-.071-.353-.097-.401.055.006.191.016.191 0 .007-.049-.12-.13-.064-.192.039.006.113.039.184.13-.038-.104-.103-.305-.24-.386.065-.022.282-.08.473.033a.635.635 0 0 1 .256.271s.114.088.289.217c.2.159.456.384.864.544.087.048.31.048.472.016a.726.726 0 0 0 .2-.08.376.376 0 0 1 .072-.033 1.552 1.552 0 0 0-.12-.201c.055 0 .12.007.12.007s.039-.088-.136-.256c.039-.04.087-.064.087-.13-.055-.006-.152-.087-.174-.12.032-.022.08-.097.136-.12-.049-.038-.169-.2-.224-.216.053-.02.104-.043.152-.071 0 0-.271-.072-.359-.13-.087-.064-.217-.175-.294-.207-.081-.032-.224-.048-.282-.113.055.016.142 0 .207 0 .049 0 .072.006.088.006-.007-.022-.007-.071.12-.087.06-.01.12-.028.174-.055 0 0-.12-.007-.256-.136-.136-.13-.249-.233-.327-.25-.08-.015-.233.056-.327.05-.129-.017-.184-.082-.184-.082s-.43.04-1.385-.543c-.825-.505-1.185-.952-1.185-.952a1.412 1.412 0 0 1-.223-.103c-.31-.162-.74-.499-.728-.939l-.002.003Z" fill="#C2A44D"/><path fill-rule="evenodd" clip-rule="evenodd" d="M21.625 8.744a.42.42 0 0 1 .192.13c.152.175.249.505-.098.857.136.049.192.064.311.049-.12.142-.391.447-.408.712-.016.217.12.282.12.282s-.207.239-.217.64c.098-.11.205-.213.32-.305a8.5 8.5 0 0 1 .793-.543.456.456 0 0 0 .023.168s.417-.343.768-.19c.158.07.087.294.087.294s.217-.081.37.07c.151.153.366.545.477.697.048.072.174.207.304.418.176.294.324.605.44.928.006-.168.048-.43.527-.265.48.168 1.023.521 1.48 1.216.456.695.569 1.48.799 1.778.232.288.472.767.488.968.016.2-.071.848.408 2.598.136-.543.343-1.75.343-1.75l.113-1.065.13-3.295-3.44-2.858-2.69-1.951-1.75.168.11.25Z" fill="#CAA13E"/><path fill-rule="evenodd" clip-rule="evenodd" d="M28.016 13.647s-.048-.32-.857-.864c-.81-.537-1.44-.537-2.023-.993-.447-.36-.913-1.185-1.216-1.457-.295-.268-.343-1.045-.343-1.045l.993-.832 1.478-2.136 1.249-1.375.599.832.832.977.462 1.961.169 2.87-1.344 2.062h.001Z" fill="#B59544"/><path fill-rule="evenodd" clip-rule="evenodd" d="M29.016 17.088a3.647 3.647 0 0 0-.158-1.288c-.214-.663-.68-1.841-.896-2.283-.088-.488-.023-.527.07-.582.095-.055.448-.256.64-.961.194-.705.794-.728.794-.728l.369-.272.56 1.401.488 1.265.152.968.113.825-.265 1.745-1.31 1.184-.557-1.274Z" fill="#C89D3A"/><path fill-rule="evenodd" clip-rule="evenodd" d="M10.728 36.531v-.036a.278.278 0 0 0 .071-.064c.023-.032.04-.071.055-.08a.609.609 0 0 1 .266-.05c.08.016.294.104.408.098.233-.007.504-.185.935-.104.647.12.8.56 1.175.81.256.174.52.096.56.096h.087c.016 0 .136-.136.2-.129.13.006.143.113.224.12.19.022.56-.097.744-.049a.354.354 0 0 1 .233.233.36.36 0 0 1-.087.36c-.2.184-.392.358-.43.511.049.038.096.078.141.12a18.838 18.838 0 0 1-4.582-1.834v-.002Z" fill="#CEB052"/><path fill-rule="evenodd" clip-rule="evenodd" d="M27.961 30.065s.505-.673.68-1.007c.175-.343-.553-4.695-.553-4.695l1.462-4.793-.039-1.56s.072-1.44.24-2.065c.2.36.825.793.961 1.023.064-.44.282-1.37.25-2.36.119.185.407 2.04.407 2.04l.288 1.248.375 1.328.418 1.4.25.969.141.233.12.407.114.44.326 1.033.192.848.152 1.537c.034.118.057.238.072.36.006.168-.023.264-.023.294 0 .029.055.369.033.624-.033.256-.033.457-.234.64-.2.184-.326 1.282-.326 1.282l-.36-.24s.072-.326-.097-.624a.631.631 0 0 0-.68-.31c-.184.038-.553.096-.673.2-.113.103-.391.424-.647.57-.32.191-.841.206-1.12.271-.28.064-.591.256-.919.48a5.136 5.136 0 0 1-.809.426Z" fill="#CCA847"/><path fill-rule="evenodd" clip-rule="evenodd" d="m27.961 37.136.063.037a19.009 19.009 0 0 0 6.058-4.491 31.015 31.015 0 0 0-.069-1.575c-.055-.528-.016-1.065-.032-1.375-.016-.311-.19-1.577-.272-1.903-.087-.327-.256-.49-.281-.49-.023.008-.16.616-.16.769 0 .153-.032.521-.032.615-.022-.007-.032-.064-.032-.088-.032.081-.071.224-.087.24-.016.016.022-.136 0-.168-.023-.033-.064-.017-.055-.097a.926.926 0 0 1 .022-.143s-.097.143-.168.505c-.071.36-.071.37-.097.401-.022.04-.152.169-.159.217-.006.088.12.175.13.223.006.082-.113.457-.152.64-.039.184-.023.544-.064.729-.033.168-.064.265-.175.336.081.016.159.039.159.039s.113.479-.175.887c-.104.142-.13.207-.24.336-.216.24-.385.512-.4.69a1.15 1.15 0 0 1-.023-.16s-.337.392-.48.616c-.184.288-.44.272-.511.343-.072.071-.088.2-.064.304-.064.016-.185.039-.266.288a.606.606 0 0 1-.288.343c-.152.087-.337.113-.43.136.08.023.113.023.152.048-.049.081-.272.208-.521.37-.25.152-.37.375-.43.52-.065.136-.16.224-.311.24.064.039.158.13.207.159-.071.016-.192.016-.408.2-.226.188-.304.243-.408.26Z" fill="#C39D3C"/><path fill-rule="evenodd" clip-rule="evenodd" d="M23.458 38.636a1.83 1.83 0 0 1 .4-.212c.504-.2 1.038-.24 1.249-.304.2-.064.359-.152.608-.2l-.018.16c-.735.23-1.483.416-2.24.556h.001Z" fill="#D2BA6B"/><path fill-rule="evenodd" clip-rule="evenodd" d="M32.768 25.36s-.103.56-.288.912c-.184.353-.384.841-.384.841.001-.11.014-.22.039-.327-.233.136-.8.463-.96.609-.152.136-.408.375-.473.489.152-.447.311-.848.337-1.033-.233.169-1.32 1.065-1.887 1.657l-1.764 1.427c-.203.11-.413.208-.627.294-.304.13-.664.24-.93.343.072-.19.185-.36.344-.52.168-.16.673-.706.75-.96.072-.266.088-.425-.006-.648-.087.023-.288.032-.424.071-.136.039-.281.184-.281.184s.103-.592.327-1.152c-.169.007-.457.055-.457.055s.402-.673 1.088-1.142c-.21.045-.416.109-.614.19-.402.17-.842.418-1.169.554.185-.256 1.48-2.103 2.25-3.825.768-1.718 1.054-2.159 1.223-3.08.087-.457.064-1.131.087-1.735.023-.6.097-1.136.049-1.496.2.25.951.952.977 2.521.022 1.57-.718 3.69-1.505 4.832.192.055.69.12 1.2-.768.512-.888.506-1.136.69-1.505.023.185.016.25.016.25s.745-.903 1.097-2.04c.072.49.282.92-.048 1.816-.295.81-.68 1.007-.68 1.007s.191-.033.473-.201c.048.12.039.256.12.304.08.049.19.13.207.207.087-.13.223-.294.265-.417-.032.256-.055 1.375.064 1.945.25-.023.505-.039.68-.489-.12.44-.12.706-.04 1.081.133-.09.253-.252.253-.252h.001Z" fill="#C0993A"/><path fill-rule="evenodd" clip-rule="evenodd" d="M24.36 7.521s-.25.103-.674.103c-.369 0-.265-.142-.841-.142-.887 0-3.984.512-4.528.505-.353-.006 1.191.152 1.191.152l3.945.055.793-.064.295-.6-.182-.009Z" fill="#A88F33"/><path fill-rule="evenodd" clip-rule="evenodd" d="M14.13 15.233s-.505.385-.719.68c-.213.294-.327.488-.57.728a.495.495 0 0 0 .169-.023s0 .064-.04.081a.225.225 0 0 1 .185.064c-.071.039-.265.233-.113.463.113.175.353.19.353.19s-.055.16.175.143c.495-.022 1.048-.24 1.304-.184.256.064.401.087.582.401.192.31.36.36.36.36s.113-.289.087-.72c.093-.231.144-.477.152-.727l-.168-1.24-.735-.928-.951.527-.072.184v.001Z" fill="#E3C571"/><path fill-rule="evenodd" clip-rule="evenodd" d="M15.032 15.049s.072.168.37.184c-.033.071-.033.081-.023.136l.016.136a.303.303 0 0 0 .087-.064c.017.07-.016.184 0 .265.01.05.027.097.049.142a.278.278 0 0 1 .016-.032c.006-.016.064.175.223.32 0-.022.006-.044.016-.064.003.04.016.08.04.113a.119.119 0 0 1-.033-.022s.016.512.103.777a.363.363 0 0 0 .04-.056c0-.015-.007.143-.023.256-.023.114-.007.272-.007.272a.85.85 0 0 1 .19-.113c.098-.039.257-.159.354-.424.056-.15.1-.305.13-.463.03.06.052.125.063.192.007.081.159.039.159.039l.032-.353.192-.8.175-.494.841-1.31 1.52-1.172 1.328.305 1.12-1.522-1.93-1.158-1.825.19-1.656 2.295-1.327 2.081-.24.343Z" fill="#D8B65B"/><path fill-rule="evenodd" clip-rule="evenodd" d="M24.592 11.728s-.113.023-.44.192c-.327.17-.553.223-.68.473-.126.249-.135.446-.135.446s.223-.097.352-.13c.136-.031.288-.022.272.033a.373.373 0 0 1-.064.104s.256-.007.25.12a.667.667 0 0 1-.098.327c-.048.064-.249.158-.271.233-.055.152.022.158-.007.281-.023.12-.13.353-.479.76-.359.409-.512.697-.512.697s-.175-.327-.265-.609c-.064.032-.408.223-.408.223l-.796-2.773.016-.185s.071-.087.087-.249c-.12-.039-.135-.071-.294-.223-.159-.152-.288-.337-.553-.463-.04-.071-.088-.168-.282-.207a5.058 5.058 0 0 1-.31-.071s.103-.04.152-.12c-.12.016-.217.055-.48.049-.265-.007-.294-.017-.44.006-.145.023-.32.088-.385-.136-.07-.055-.223-.006-.352.184-.13.191-.175.344-.424.418a.867.867 0 0 1-.114.31c-.07.12-.184.24-.336.418-.24.282-.201.744-.583 1.097-.385.353.064-.977.064-.977l.615-1.472 1.75-1.712 2.72-.185.265 1.408 1.327.457.838 1.278v-.002Z" fill="#D3AE4D"/><path fill-rule="evenodd" clip-rule="evenodd" d="m25.023 12.039-1.143-1.647-.8-.615s-.569-1.049-.607-1.081c-.033-.023-.57-.08-.913-.103l.064.158a.42.42 0 0 1 .192.13c.152.174.249.504-.097.857.136.049.192.064.31.049-.12.142-.391.446-.407.712-.017.216.12.281.12.281s-.208.24-.217.64c.098-.11.205-.212.32-.304.24-.192.57-.408.793-.544a.458.458 0 0 0 .022.168s.418-.343.768-.19c.159.07.087.294.087.294s.217-.08.37.071c.152.152.368.544.478.696.049.071.175.207.305.417.176.295.324.606.44.93.006-.13.032-.311.256-.311l-.34-.609h-.001Z" fill="#CAA13E"/><path fill-rule="evenodd" clip-rule="evenodd" d="M7.897 16.719s-.081-.201 0-.593c.08-.391.207-.576.249-1.152.042-.576.417-1.294.417-1.294l1.039-.473.735.201.216.984-.928.512s-.049.217-.311.391c-.262.175-.625.311-.712.49-.052.108-.09.224-.113.342 0 0-.266-.055-.424.12-.168.178-.162.337-.168.472Z" fill="#F4EFC8"/><path fill-rule="evenodd" clip-rule="evenodd" d="M9.994 16.456s-.088.055-.153.192c-.064-.103-.216-.718-.223-1.272-.006-.553-.04-.69.089-.88.128-.192.63-.393.558-.736-.07-.327-.369-.463-.734-.369-.256.064-.447.608-.712.88-.201.207-.44.175-.505.288-.087.152-.007.305-.032.402a1.939 1.939 0 0 1-.234.417c-.294.424-.792 1.023-.857 1.56.022-.304.006-.31.087-.647l-.048-.081.32-1.049.207-.864.463-1.447.815-1.478.793-.887.825.055.097 1.24.473 2.326.993 1.224-1.592 1.071-.631.055Z" fill="#EBCC73"/><path fill-rule="evenodd" clip-rule="evenodd" d="M10.489 16.896s-.136.032-.185.007c-.048-.026-.097-.055-.08-.088.015-.032.103-.087.103-.113a.09.09 0 0 0-.081-.097c-.074-.01-.097.039-.097.039s-.071-.055-.13-.064a.895.895 0 0 1 .104-.007 1.01 1.01 0 0 0-.281-.08c.08-.05.24-.192.343-.192.103 0 .168-.016.152-.07-.017-.056-.097-.137-.185-.17.033-.038.055-.096-.022-.255-.081-.159-.049-.265-.023-.304.023-.049.104-.136.142-.191.04-.055.072-.13.136-.168.033-.023.136-.064.24-.104.113-.039.207-.087.272-.039.071.049.038.114.038.114s.224-.081.424.022c.201.097.69.159.69.159l.175.353-1.159.993-.479.24-.097.016Z" fill="#E5C66B"/><path fill-rule="evenodd" clip-rule="evenodd" d="M12.097 15.272s-.36.24-.44.327c.048.006.13.039.097.087-.04.049-.272.217-.402.376-.135.158-.265.359-.31.456-.049.087-.418.343-.544.375.266 0 .8-.327 1-.327-.006.097.055.207.168.217.114.01.44.071.88-.2.44-.266.295-.463.48-.593.353-.233.495-.44.689-.57.194-.129.294-.158.294-.158s.007-.097.064-.087a.087.087 0 0 1 .072.055s.336-.24.768-.304a.044.044 0 0 1-.023-.023s.032-.016.039-.032c0 0 .023-.033.039-.017.016.017.039.136.071.185.071-.032.207-.337.207-.337l.327-.935v-.854l-.256.048-1.92.816-1.165 1.207-.136.288h.001Z" fill="#E6BD62"/><path fill-rule="evenodd" clip-rule="evenodd" d="M17.625 11.081c.103-.025.203-.066.295-.12-.039.104-.039.217-.207.463-.168.246-.175.282-.31.537-.137.266-.153.647-.282.816a.591.591 0 0 1 .184-.055s-.13.113-.184.233c-.055.12-.152.369-.392.52-.24.153-.544.25-.87.61-.327.352-.664.799-.832.96.087-.153.207-.457.24-.658.032-.2-.007-.44.048-.705.055-.265.055-.456.32-.92.265-.462.718-2.07.718-2.07l.977-.311.295.699v.001Z" fill="#B6933F"/><path fill-rule="evenodd" clip-rule="evenodd" d="M16.92 10.489s-.295.424-.376.799c-.081.376-.007.343-.055.528a.687.687 0 0 0 0 .343c.102-.165.241-.302.407-.402.278-.168.505-.288.64-.43.136-.152.25-.401.544-.592-.12-.017-.288-.072-.32-.064.12-.136.478-.343.841-.593.36-.256.337-.359.92-.614-.192.032-.282-.017-.441 0 .064-.136.288-.201.512-.424.224-.223-.142-.554-.142-.554L17.743 9.52l-.825.97h.001Z" fill="#C49937"/><path fill-rule="evenodd" clip-rule="evenodd" d="m12.288 9.718.039-.31.489-.783.51-1.376V5.37l-.038-1.087.08-.713.062-.226.065-.087.418.216.576.784.055 1.511-.56 2.385-1.599 1.744-.097-.178Z" fill="#DFC068"/><path fill-rule="evenodd" clip-rule="evenodd" d="M13.56 3.168s-.256.007-.31 1.072c-.055 1.064-.082 1.624-.12 2.152-.04.527-.13.847-.175 1.158-.046.311-.072.735-.217.994-.064.12-.2.495-.521.776-.36.311-.896.528-.978.544-.142.032-.864.104-1.158.266-.104.055-.282.12-.479.304-.392.353-.913.984-1.288 1.744-.576 1.136-1.152 4.343-1.152 4.343l.13-.217s.016-.288.304-.793c.281-.504.2-1.07.592-2.038.152-.37.343-.848.576-1.256.369-.664.815-1.233 1.265-1.544.735-.505 1.544-.615 1.544-.615l.87-.576s.153-.294.353-.63c.282-.473.64-1 .719-1.767.12-1.136-.169-1.88-.152-2.554.016-.673.022-1.168.158-1.288.136-.12.04-.074.04-.074h-.001Z" fill="#A88F33"/><path fill-rule="evenodd" clip-rule="evenodd" d="M13.56 8.25s.384-.946.56-1.784c.032-.168.097-.336.113-.472.08-.793.103-1.12 0-1.554-.08-.32-.392-.608-.553-.832-.159-.233-.233-.32-.201-.369a.358.358 0 0 1 .281-.12.963.963 0 0 1 .69.32c.25.288.446 1.266.446 1.266l.208 1.29.528 1.624-2.072.632v-.002Z" fill="#C99E3D"/><path fill-rule="evenodd" clip-rule="evenodd" d="M17.168 7.266s-.071.032-.2 0a.288.288 0 0 1-.13.271c-.136-.055-1.408.055-1.408.055s-.592-.103-.777-.886c-.129-.522.098-1.24.023-1.712-.113-.696-.272-.832-.288-1.049-.016-.216-.032-.272-.032-.408-.072-.016-.114-.038-.185-.038-.016-.064.016-.12-.055-.234.039.017.304.049.615.343.256.24.256.327.295.376.048.048.44.384.608.718.168.335.495 1.402.57 1.576.022.072.07.143.192.304.187.234.462.62.773.683Z" fill="#B58634"/><path fill-rule="evenodd" clip-rule="evenodd" d="M15.071 4c.197.317.373.645.528.984.19.43.304.783.544 1.071-.13-.375-.36-1.113-.496-1.375-.152-.278-.462-.576-.576-.68Z" fill="#A88F33"/><path fill-rule="evenodd" clip-rule="evenodd" d="M12.87 9.32s-.326.081-.935.402c-.2.103-.391.19-.576.272-.479.216-.993.417-1.401.527.032.039.048.055.048.055s0 .159.088.25c-.048.048-.696.488-.505 1.96.13-.048.282-.113.304-.113.04.007.049.113.097.113.049 0 .207-.064.376-.281-.007.087-.104.967.417 1.56.097-.114.343-.49.343-.49l.007-.119s.022-.417.158-.8c.136-.381.402-.663.402-.663l1.384-1.977-.207-.696Z" fill="#E6C367"/><path fill-rule="evenodd" clip-rule="evenodd" d="M11.576 12.224a.766.766 0 0 1-.207.104.801.801 0 0 1 .136-.632c.223-.327.712-.75.848-1.088.087-.216.048-.76.825-1.456.777-.696 1.08-.935 1.08-.935l1.256-.631 1.544.608-.767 3.006-.595 1.408-2.368-.447-1.752.063Z" fill="#DCBA5A"/><path fill-rule="evenodd" clip-rule="evenodd" d="m12.48 11.408.295-.369v-.262s.326-.088.68-.447c.352-.36.84-1.048 1.271-1.006.43.048.472.935.489 1.184.016.25.071.816.158 1.12.097.304-1.048 1.456-1.048 1.456l-.778.593-1.067-2.27Z" fill="#E9CE77"/><path fill-rule="evenodd" clip-rule="evenodd" d="M13.392 14.479s.24-.375.064-.456c.103-.233.294-.48.294-.48s.136-.336.576-.75c.44-.414.712-.69.783-.968a2.55 2.55 0 0 0 .072-.553c.047.039.098.073.152.103.071.033.407.311.359.871-.049.56-.256.793-.256.793s-.2.2-.343.304c-.152.104-.207.223-.463.233a.31.31 0 0 1 .088-.049s-.266-.032-.408.098c-.143.129-.446.527-.598.647-.152.097-.32.207-.32.207Z" fill="#CDAE50"/><path fill-rule="evenodd" clip-rule="evenodd" d="M24.152 8.184a3.898 3.898 0 0 0-1.19-.233c-.68-.022-1.674.017-2.648.023-1.049.006-2-.36-3.32-.424-.217-.13-.768-.696-2.489.505.103-.006 1.25-.265 1.647.233.401.495.288 1.337.233 1.537-.103.447-.44 1.097-.576 1.554-.135.456-.103.696-.2 1.016-.098.32-.311.479-.185.848.168-.104.256-.104.537-.735s.224-1.08.69-1.615c.456-.537 1.216-1.272 1.505-1.456.288-.185 2.582-1.376 4.984-.24.579-.061 1.012-1.013 1.012-1.013Z" fill="#D2A83E"/><path fill-rule="evenodd" clip-rule="evenodd" d="M15.473 7.744a.3.3 0 0 0-.017-.071.521.521 0 0 0-.087-.13s-.57-.103-.858-.071c-.505.055-.96.68-1.174 1-.214.32-.48.816-.767 1.071a.107.107 0 0 0-.017-.071s.017.023-.016.055c-.032.033-.032.049-.016.064l.049.049c.016 0 .463-.201 1.071-.769.647-.592 1.142-.896 1.401-1a1.97 1.97 0 0 1 .43-.127Z" fill="#C29637"/><path fill-rule="evenodd" clip-rule="evenodd" d="M26.521 5.31s-.104.13-.233.273c-.288.304-.663.647-.984 1-.304.336-.647.598-1.032 1.038-.385.44-.832.929-.945 1.072-.104.142-.185.375-.185.495-.055-.04-.12-.081-.12-.081.028.05.06.098.098.142.08.114.207.256.272.343.08.111.136.236.168.37.039.006.288.054.599-.457.31-.511.718-1.071.718-1.071l.647-.961.408-.816.512-.912.078-.434Z" fill="#AC8132"/><path fill-rule="evenodd" clip-rule="evenodd" d="M27.185 4.657s-.392.32-.544.512c-.152.192-.512.696-.512.696l.13-.016.657-.583.256-.456.012-.152v-.001Z" fill="#A88F33"/><path fill-rule="evenodd" clip-rule="evenodd" d="M27.065 30.375s-.007-.265.142-.423c.152-.16.537-.392.913-1.266.375-.874.417-1.071.417-1.071s-.673.576-1.088.712c.097-.2.152-.343.2-.447-.054-.048-.287-.103-.31-.13.13-.129.2-.446.463-.656.337-.256.951-.696 1.43-1.088.477-.392 1.417-1.304 1.537-1.57.07.104.087.168.087.168s-.473.615-.719 1.007c-.216.337-.2.527-.2.527l.447-.192s.129.48-.457 1.208c.256-.097.36-.04.505-.12-.24.152-.57.36-.88.929-.305.57-.719 1.233-1.418 1.647-.68.437-1.071.764-1.071.764l.002.002Z" fill="#A67A2E"/><path fill-rule="evenodd" clip-rule="evenodd" d="M25.31 8.521s-.265.553-.303.984c-.007.103-.033.184-.033.304-.006.385.023.816-.064 1.016-.032-.08-.049-.136-.08-.168-.05.136-.137.56-.208.718a3.374 3.374 0 0 1-.097-.886c.007-.424.016-.505.016-.593-.016.13-.103.305-.136.408-.048-.087-.103-.2-.168-.294-.039.064-.087.158-.13.207a2.915 2.915 0 0 1-.032-.288c-.006-.168-.016-.385-.006-.43.016-.088.152-.43.44-.745.343-.375.696-1.097.8-1.32.103-.224.543-1.152.543-1.152h.336L25.7 7.395s-.295.608-.447.832c-.152.223-.472.864-.615 1.113.104-.136.191-.207.295-.336.1-.091.378-.482.378-.482Z" fill="#8C6228"/><path fill-rule="evenodd" clip-rule="evenodd" d="M27.191 4.615a1.39 1.39 0 0 1-.256.463c-.2.24-.631.56-.841.815-.192.25-.576.929-.402 1.735.064-.175.185-.521.505-.913s.664-.841.832-1.19c.168-.354.19-.632.19-.632l.065-.08-.039-.185-.055-.013h.001Z" fill="#CBA94C"/><path fill-rule="evenodd" clip-rule="evenodd" d="M33.744 26.08s-.13-.352-.168-.672c-.039-.32.064-.384-.055-.75-.071-.224-.2-.193-.233-.224-.032-.032-.055-.37-.049-.554.007-.184-.006-.424-.038-.527-.049-.039-.081-.071-.153-.31-.08-.24-.12-.36-.158-.431-.039-.071-.152-.136-.152-.207 0-.143.13-.217.13-.256-.007-.081-.104-.016-.13-.04-.033-.038.08-.27.039-.303-.017-.016-.13.12-.159.08-.032-.038-.071-.423-.13-.679-.054-.25-.113-.43-.12-.505-.006-.07-.446-1.327-.553-1.63a7.693 7.693 0 0 1-.216-.784c-.033-.152-.055-.463-.072-.43-.016.032-.006.19-.032.184-.023-.007-.104-.56-.13-.647-.022-.088-.158-.384-.191-.599-.033-.217-.104-.783-.152-1.168-.049-.385-.072-.544-.072-.64a3.984 3.984 0 0 0-.038-.706 6.576 6.576 0 0 0-.305-1.19c-.216-.544-.793-1.936-.896-2.282 0-.088.114-.039.114-.039s.281.705.488 1.25c.2.543.392 1.022.44 1.07.04.049.343.583.48 1.457.135.873.184 1.68.265 2.216.039.256.071.528.152.8.087.294.223.599.401 1.064.152.392.265.72.327 1 .071.36.071.632.113.81.04.152.097.456.233.896.137.44.337 1.006.473 1.359.265.705.384 1.294.424 1.608.035.324.155 1.444.123 1.78Z" fill="#A88F33"/><path fill-rule="evenodd" clip-rule="evenodd" d="m27.207 4.576-.016.039s.049.016.039.08c0 .09-.005.178-.016.266-.016.114-.049.2-.055.272 0 .152.022.327-.192.76-.064.12-.104.224-.136.295-.08.175-.097.2-.168.282.113-.064.52-.32.728-.282-.143.08-.36.24-.495.447.032.006.168.032.384 0 .359-.055.76-.185 1.113-.16.385.024.233-.462.233-.462l-.445-.977-.841-.592-.133.032Z" fill="#BE9C44"/><path fill-rule="evenodd" clip-rule="evenodd" d="M29.401 11.896s-.375-.375-.527-1.664c-.152-1.294-.12-3.2-.12-3.2l-.304-.744s-.064-.495-.223-.68c-.16-.184-.473-.494-.615-.647-.143-.152-.304-.359-.402-.391.049-.081.266-.537 1.097-.544.832-.006 1.088.457 1.175.625.087.168.48.896.625 2.283.136 1.384.142 1.488.12 1.967-.017.265-.104.88-.256 1.537-.14.557-.292 1.178-.57 1.46v-.002Z" fill="#A17C34"/><path fill-rule="evenodd" clip-rule="evenodd" d="M28.224 13c.125.01.25-.02.36-.081.119-.006.553.049.886-.375.023.097.081.359-.071.592.08-.081.2-.113.217-.136.006.12.12.489-.36 1.385.13-.142.282-.136.418-.152.006.168.097.734-.143 1.039-.158.207-.417.142-.417.142a.811.811 0 0 0 0-.136c-.007-.087-.039-.175-.016-.233a1.16 1.16 0 0 1-.337-.233c-.281-.265-.647-.718-.673-1.055a.416.416 0 0 1 .304-.456.36.36 0 0 1-.07-.088c-.017-.054-.033-.142-.098-.213Z" fill="#8C6228"/><path fill-rule="evenodd" clip-rule="evenodd" d="M25.728 8.929s-.016-.023-.104.08c.017-.103.033-.2.04-.294.04-.087.094-.167.158-.24-.049.098-.081.185-.081.185s.12-.223.295-.36c.12-.096.271-.141.336-.232.071-.097.055-.113.071-.13 0 0 .159-.103.402-.408.032-.038.08-.08.113-.12.055-.022.184-.08.337-.158.158-.087.336-.207.446-.256.217-.097.447-.087.554-.24.08-.022.168-.265.152-.472.12.049.734.43.945 1.265.152.593-.12 1.505-.233 1.946-.114.44-.13.767-.288.967-.201.266-.848.64-1.007.825-.136.153-.544.538-.527.816.016.207.271.32.327.36.055.038.054.087.158.063.104-.023.142-.071.185-.071.048.006.048.016.07.016a.23.23 0 0 0 .05-.007s-.017.295-.706.384c-.049.007-.097.023-.159.033.081-.039.13-.039.217-.159-.097-.016-.375-.032-.447-.055a.862.862 0 0 1 .159-.19c.055-.049-.007-.065-.055-.04a2.575 2.575 0 0 0-.24.185c-.08.071-.152.168-.281.256a.631.631 0 0 1 .12-.553c-.04.006-.114.12-.185.097a1.03 1.03 0 0 1 .023-.353c.039-.146.249-.402.249-.402l1.016-1.815.217-1.376-2.327.452Z" fill="#92723A"/><path fill-rule="evenodd" clip-rule="evenodd" d="M25.673 9.007s-.055.038.055.113c-.016.022-.055.103-.104.158-.054.064-.113.104-.135.159-.049.113-.088.191-.088.24 0 .048-.016.359-.152.56-.048.07-.104.19-.142.271-.081.143-.152.256-.169.32a3.356 3.356 0 0 0-.054.424l.097-.12c-.04.081-.081.168-.143.233.039-.032.152-.113.343-.281.266-.223.68-.599 1.185-.896-.152.055-.282.055-.385.071.08-.08.809-.935 1.19-1.016a.152.152 0 0 0 .033-.104l-.327-.032-.663.142-.097-.512-.444.269Z" fill="#B18E3E"/><path fill-rule="evenodd" clip-rule="evenodd" d="M26.728 11.92s-.087.086-.168.303a1.022 1.022 0 0 1-.159-.217c-.12-.2-.304-.456-.734-.31-.007-.136-.016-.207 0-.304.071-.016.288-.191.505-.447.152-.175.294-.376.391-.631a5.19 5.19 0 0 1 .32-.223c.207-.143.457-.337.495-.554-.097.039-.304.136-.615.12.12-.055.304-.113.282-.353.048-.032.087-.055.087-.055a.32.32 0 0 0-.113-.016c-.006-.023-.016-.055-.071-.039-.055.016-.064.016-.071.039-.023.007-.098 0-.152.039-.056.04-.208.168-.266.19.023-.038.055-.096.055-.096s-.159.016-.272.064c-.207.071-.446.2-.69.327.024-.04.033-.064.05-.072.015-.007.054-.016.054-.022 0-.007-.016-.064-.006-.087a2.97 2.97 0 0 1 .256-.44c.113-.153.136-.37.136-.37l.495-.249 1.392-.32.903.055-.114.625-.533 1.09-.456.994-.521.609-.48.35Z" fill="#543E26"/><path fill-rule="evenodd" clip-rule="evenodd" d="M28.984 9.216s-.544.673-.696.777c.097-.207.696-1.44.913-1.783-.049-.04-.114-.04.038-.64-.129.304-.174.462-.28.543-.108.081-.12.055-.193.055a.135.135 0 0 0 .016-.08s-.456-.056-.768-.056-.928.169-1.272.305c-.272.113-.424.113-.52.184-.098.08-.153.168-.202.19-.038.023-.223.082-.265.143-.039.064-.103.136-.103.152 0 .016-.017.04.032.023.016-.007.136-.071.272-.152.184-.104.407-.223.57-.295.462-.184.608-.152.815-.19.217-.04.527-.13.734-.13.207-.007.6 0 .69.016-.039.032-.071.071-.055.207 0 .039-.033.081-.064.175-.097.265-.282.705-.384.929-.143.304-.304.56-.384.718-.08.159-.256.576-.43.8-.175.223-.266.359-.32.407-.055.049-.447.337-.418.44.071-.022.521-.192.848-.56.326-.367.392-.592.647-.792.256-.201.456-.537.576-.816.1-.259.078-.34.204-.57h-.001Z" fill="#806031"/><path fill-rule="evenodd" clip-rule="evenodd" d="M17.265 14.24s-.07.294-.233.44c-.158.142-.44.265-.472.505-.039.239.282.359.282.359s-.175.288-.175.505c0 .223-.007.265.016.479a.212.212 0 0 0-.064.064s.016.207.175.336c.158.13.294.207.375.175a.755.755 0 0 1 .032.08s.12-.303.201-.569c.08-.272.152-.233.184-.599.033-.365.384-.993.384-.993l.24-.537-.391-.304-.553.058Z" fill="#B6903C"/><path fill-rule="evenodd" clip-rule="evenodd" d="M17.994 14.767c-.081.083-.156.171-.223.265-.104.143-.185.272-.337.327-.152.056-.249.055-.24.207.01.153.153.217.234.295.087.08.158.217.12.369.048-.023.135-.049.216-.224.081-.174.647-1.239.647-1.239h-.417Z" fill="#685026"/><path fill-rule="evenodd" clip-rule="evenodd" d="M20.224 12.31s.048-.129 0-.223c-.049-.097-.343-.13-.489-.24-.152-.112-.336-.191-.488-.141.022-.056.113-.175.038-.201-.071-.023-.336.097-.407.152-.072.055-.234.12-.266.159-.032.039-.087.113-.12.08-.032-.022-.048-.08-.103-.048-.055.032-.32.249-.369.375a1.92 1.92 0 0 1-.489.728c-.33.32-.472.528-.375.648.097.12.142.032.159.136a.872.872 0 0 1-.017.304c-.038.168-.103.327-.016.359.224.071.44-.064.489-.023.097.088-.055.402.175.463.233.064.462-.055.462-.055l.848-.456.816-.43.417-.826-.224-.69-.042-.07h.001Z" fill="#D4B968"/><path fill-rule="evenodd" clip-rule="evenodd" d="M19.424 14.282s-.142-.217.032-.408c.175-.192.424-.272.521-.392a.15.15 0 0 0-.07-.048.645.645 0 0 1 .28-.266.27.27 0 0 0-.184-.087c-.158 0-.256.097-.401.097-.142 0-.159-.071-.159-.071s.24-.023.217-.13c-.023-.113-.064-.113-.064-.113s.463-.192.544-.294c.08-.103.071-.224.087-.272.055 0 .375-.169.505-.097.13.071.039.265.039.265s.392-.294.591-.583c.175.016.256-.12.384-.12.159 0 .408.217.457.68.032.265.08.417.032.886-.023.266-.016.832.064 1.113.055.224.184.201.184.201a.363.363 0 0 1-.113.175c-.087.08-.097.295-.087.375.012.06.029.118.048.175 0 0-.103.12-.13.2-.022.082-.128.137-.206.137-.078 0-.04-.007-.143 0-.103.006-.136.022-.2 0-.065-.023-.114-.049-.088-.256.023-.207-.799-.69-.799-.69l-1.344-.479.003.002Z" fill="#CCA849"/><path fill-rule="evenodd" clip-rule="evenodd" d="M17.88 16.327s.295.391 1.505.391c.576 0 .777-.055.896-.087.13-.032.615-.223 1.104-.8.44-.52.343-.734.343-.734l-.256-.039-.832.114-2.462 1.048-.299.107h.001Z" fill="#585136"/><path fill-rule="evenodd" clip-rule="evenodd" d="M18.783 16.424s-1.048.233-1.048-.43c0-.648.647-1.327.809-1.447.168-.12.57-.256.57-.256h.967l.184.489-.08 1.055-1.402.589Z" fill="#252211"/><path fill-rule="evenodd" clip-rule="evenodd" d="M19.75 14.489s-.2-.185-.656.064c-.456.248-.825.768-.848 1.24-.023.417.343.727.913.744a2.9 2.9 0 0 0 .809-.064l-.2-.25-.017-1.734Z" fill="#C3B378"/><path fill-rule="evenodd" clip-rule="evenodd" d="M19.553 14.592s-.048-.039-.192.039c-.12.064-.294.233-.43.353-.087.07-.142.103-.192.158-.2.24-.369.631-.272.826.098.194.418.417 1.234.265l-.15-1.64.003-.001Z" fill="#E6D89C"/><path fill-rule="evenodd" clip-rule="evenodd" d="M19.288 14.993s-.13.201-.13.522c0 .326.185.847.865.886.52.033.87-.75 1.249-1.055.288-.233.463-.24.463-.24s-.295-.32-1.081-.734c-.777-.417-1.648-.472-2.12.168.223-.016.945-.2.945-.2l.353.113-.544.54Z" fill="#252211"/><path fill-rule="evenodd" clip-rule="evenodd" d="M20.304 15.417c-.022-.048-.039-.113.055-.129s.136-.007.169.064c.032.07.064.13.016.159-.049.026-.175 0-.24-.094Zm-.152-.456s-.032.023-.016-.023c.006-.055.049-.152.152-.129.104.023.081.136.064.168-.017.033-.104.088-.168.064a.053.053 0 0 1-.037-.032.054.054 0 0 1 .004-.049l.001.001Z" fill="#6F674D"/><path fill-rule="evenodd" clip-rule="evenodd" d="M11.392 15.168s.256.192.553.184c.295-.006.673-.31.848-.505.104-.113.192-.232.288-.326.081-.081.136-.12.175-.175.055-.064.113-.184.142-.223-.07.055-.174.152-.281.216a3.35 3.35 0 0 1-.418.217c-.087.033-.993.512-.993.512l-.314.1Z" fill="#AC924C"/><path fill-rule="evenodd" clip-rule="evenodd" d="M11.783 12.777s.143-.097.418-.16c.265-.063.8-.112.8-.112l.44.192.174.663-.32.69-.408.256-.463-.745-.64-.783v-.001Z" fill="#9F8E57"/><path fill-rule="evenodd" clip-rule="evenodd" d="m11.207 13.369-.152.114s.039-.072.071-.288c.032-.217.2-.745.447-1.049.246-.304.24-.288.24-.288a.162.162 0 0 0-.13.032 1.55 1.55 0 0 1 .447-.455c.207-.128.288-.169.504-.064.217.104.272.158.431.152.159-.007.294-.175.294-.175s.033.104-.087.343c-.12.24-.592.728-.592.728l-.984.673-.489.278v-.001Z" fill="#EAC970"/><path fill-rule="evenodd" clip-rule="evenodd" d="M11.935 12.696s.712.097.929-.104c.006.023.032.023.032.04a.056.056 0 0 1-.016.032.532.532 0 0 1 .071-.007.42.42 0 0 0 .088.016.515.515 0 0 0 .071-.006.12.12 0 0 1-.048.08c.032 0 .064.007.064.033 0 .026.006.104-.033.12a.147.147 0 0 1-.097-.007.4.4 0 0 0 .049.175c.064.12.2.256.384.217 0 0 .097.233-.311.75-.055.072-.113.169-.184.25a.946.946 0 0 0-.064.19s.69-.265.886-.87c.201-.608.24-1.207.201-1.767a.912.912 0 0 0-.071-.352c-.097-.201-.37-.169-.479-.056-.159.16-.424.554-.793.826-.376.271-.392.32-.68.44h.001Z" fill="#D7BC6B"/><path fill-rule="evenodd" clip-rule="evenodd" d="M11.081 13.57s-.136.08-.207.384c-.071.31.064.689.142.808.078.12.256.447.625.463.091 0 .181-.019.265-.055.129-.059.25-.134.36-.223.158-.12.287-.223.271-.233a44.471 44.471 0 0 1-.977-.793l-.353-.394-.126.043Z" fill="#585136"/><path fill-rule="evenodd" clip-rule="evenodd" d="M11.968 14.858s.191-.016.304-.088c.114-.07-.663-.841-.663-.841l.055.832.304.097Z" fill="#453A25"/><path fill-rule="evenodd" clip-rule="evenodd" d="M11.142 13.511s-.097.185-.097.234c-.016.158.033.656.072.815.038.168.249.424.52.424.169 0 .402-.104.402-.13 0-.032-.24-.063-.304-.184-.039-.064-.055-.223-.064-.384-.007-.104-.007-.217.032-.256.088-.097.104-.375.104-.375l.31-.578h-.408l-.489.305-.078.13Z" fill="#84754B"/><path fill-rule="evenodd" clip-rule="evenodd" d="M11.023 13.69s.32-.425.608-.522c.289-.097.418-.039.418-.039l-.169.43-.24.266.017.136s-.04.36.2.608c.24.25.418.24.522.24.103 0 .4-.087.553-.447.136-.336.25-.768-.023-1.2-.265-.43-.734-.447-.825-.447-.09 0-.803.035-1.061.974Z" fill="#252211"/><path fill-rule="evenodd" clip-rule="evenodd" d="M19.24 15.13c-.12-.056-.007-.392.113-.496a.844.844 0 0 1 .537-.24c.097-.006.19.056.175.12-.023.12-.191.289-.343.408-.21.165-.347.269-.483.207Z" fill="#F7F7E7"/><path fill-rule="evenodd" clip-rule="evenodd" d="M12.767 13.295c.087-.007.2.064.223.158.023.104-.055.31-.223.31-.136 0-.207-.167-.207-.216a.248.248 0 0 1 .032-.113c.007-.01.023-.123.175-.14Z" fill="#F8F6DE"/><path fill-rule="evenodd" clip-rule="evenodd" d="M11.505 13.369s-.224.103-.327.32a.85.85 0 0 0-.064.512c.016.08.097.281.152.352.055.072.13.12.185.114.055-.007.168-.152.168-.24 0-.087.006-.456.113-.657.094-.2-.226-.4-.226-.4l-.001-.001Z" fill="#D4C38B"/><path fill-rule="evenodd" clip-rule="evenodd" d="M11.537 13.353c-.039.022-.103.055-.087.097.016.039.152.064.2.159a.34.34 0 0 1 .04.249.392.392 0 0 0 .113-.081c.07-.081.158-.191.233-.191.048 0 .097.022.142.022.071 0 .142-.022.152-.097.016-.097-.136-.184-.223-.168.016-.064.039-.158-.033-.223-.07-.065-.294.048-.343.08-.048.033-.194.153-.194.153Z" fill="#E2D59D"/><path fill-rule="evenodd" clip-rule="evenodd" d="m16.68 20.152.479-.141.136.097s.096.207.249.233c-.049.103-.175.192-.169.265.007.073.072.13.072.13s-.43.712.417 1.429c-.2.08-.456.192-.592.256.097.023.304.064.391.143.088.078.088.103.169.152.08.048.129.113.113.142-.055-.032-.24-.13-.272-.039-.032.09-.8.055-.8.055l-1.294.25s.049-.13-.087-.25c-.159-.142-.353.007-.56-.152-.272-.207-.282-.447-.369-.537.087-.055.266-.136.69-.192-.017-.033-.072-.13-.04-.217.04-.113.201-.184.153-.32.071-.016.103-.016.281-.24.169-.223.272-.271.402-.288.13-.016.207 0 .446-.223.168-.158.114-.294.114-.294s.11-.036.07-.26v.001Z" fill="#CBAC5A"/><path fill-rule="evenodd" clip-rule="evenodd" d="M15.265 20.224c.007-.032.033-.049.208-.032.174.016 1.281-.104 1.582-.12.304-.023 1.375-.007 1.897.103.52.11 1.048.24 1.304.305.256.07.337.096.327.129-.007.032-.064.064-.097.055-.033-.007-.88-.266-1.143-.32-.262-.055-1.168-.2-1.664-.192-.462.006-.647-.007-1.038.039-.392.048-1.04.113-1.233.087-.192-.022-.153-.022-.143-.055Z" fill="#D6BC6F"/><path fill-rule="evenodd" clip-rule="evenodd" d="M17.87 22.76s.664.36.903.8c.175.327-.103.489-.103.489s.375 0 .327.207c-.023.13-.647.479-1.065.663-.424.185-.408.175-.615.207-.2.033-.75-.064-.864.097-.113.161-.064.327-.032.353.032.023.294.055.294.055s-.055.152-.598.169c-.544.016-.68.054-.713.113-.032.055.104.023.353.064.25.039.599.064.599.064s-.113.097-.408.175c-.336.087-.864.168-1.022.265.08.055.2.136.256.142a1.62 1.62 0 0 0-.36.13c.049.032.114.071.114.071s-.272.327-.43.408c-.16.081-1.072.505-1.386.424-.783-.207-.88-1.065-1.071-1.13-.288-.097-.424.097-.68-.039.113-.08.175-.129.295-.184-.13-.064-.8-.489-.8-.489a4.965 4.965 0 0 0-.233-.446c-.13-.224-.32-.521-.463-.784-.31-.576-.326-.841-.608-1.168.049-.064.217-.055.217-.055l2.36.777 4.183.121 1.088-1.553.463.055Z" fill="#DFC677"/><path fill-rule="evenodd" clip-rule="evenodd" d="M11.673 25.13a.368.368 0 0 0 .088.07c.08.056.2.12.281.217.033-.048.113-.136.256 0 .143.136.32.04.43.072.114.039.12.055.12.055s.064-.055.207-.114c.088-.032.191-.055.304-.087.104-.023.217-.055.295-.055.071.049.327.32 1.353-.08.967-.376 1.19-.418 1.353-.36.016-.04.032-.113.281-.104 0-.103-.207-.456-.207-.456l-1.142-.392h-.625l-1.874.343-1.038.593-.081.299v-.002Z" fill="#C4A859"/><path fill-rule="evenodd" clip-rule="evenodd" d="M11.049 24.473s.022.174.281.359c.256.184.337.294.337.294s.048-.064.087-.13c.039-.07.071-.151.136-.174.13-.055.424.049.489.032.055-.016.039-.129.097-.129.136-.007.223.087.272.087.048 0 .168-.006.184-.032.016-.026.022-.295.207-.424.2-.142.447-.08.512-.048 0 .048.006.168.136.174.13.007.142-.016.256.023.114.039.25-.006.31.184.056-.016.185-.032.153-.216.064-.049.12-.081.256-.272.032-.049.087-.104.13-.175.112 0 .248-.023.43.136-.056.039-.088.064-.104.103.047.047.09.098.13.152.048.064.08.143.142.16.136.038.359-.017.608 0 .24.015.44.103.528.158.032-.016.032-.023.113-.007.08.016.142.023.055-.08.049.022.104.07.152.022.049-.049.087-.12.223-.136.136-.016.185.007.24-.136.071-.174-.175-.174-.175-.174s.113-.104.24-.24c.152-.142.327-.327.369-.553.07-.418-.337-.473-.337-.473l-1.977.609-2.418-.12-2.061 1.026h-.001Z" fill="#927D49"/><path fill-rule="evenodd" clip-rule="evenodd" d="M9.272 18.76s-.064.081-.104.272c-.04.191-.022.169-.055.305-.032.135-.43 1.488-.281 1.945.15.456.408.624.57.993.032.08.064.13.08.2.055.24.007.425.072.664.022.081.08.175.168.272.192.2.505.391.64.527.19.201.463.609.809.648.184.022.447-.055.663-.185.192-.12.311-.288.512-.384.143-.071.295-.097.43-.13.282-.054.538-.063.69-.032.233.049.783.217 1.088.217a2.96 2.96 0 0 0 .706-.097c.462-.136 1.022-.369 1.391-.472.217-.064.392-.081.57-.12.304-.071.56-.168.705-.353-.097-.113-.216-.288-.864-.281-.734.016-1.582.424-2 .488-.417.065-.598.12-1.065-.048-.457-.17-.472-.283-.472-.283s-.48-.335-.68-1.19c-.201-.856 0-1.48.52-2.072.137-.152.104-.288.104-.288s.343-.463.25-.896c-.104-.43-.767-.343-.767-.343l-3.68.643Z" fill="#6E6342"/><path fill-rule="evenodd" clip-rule="evenodd" d="M9.825 20.2a.335.335 0 0 0-.039.175c.007.088.033.2.295.457.223.223.175.472.175.472s.112.023.417-.12c.24-.113.32.087.32.087a.674.674 0 0 1 .223-.07.491.491 0 0 0 .201-.065s.282.288.527.424c.224.12.353.2.463.12.104-.071.104-.217.097-.282a.843.843 0 0 0-.096-.168c-.072-.103-.185-.223-.192-.32-.017-.223.168-.489.129-.553-.04-.065-.185-.081-.544.048-.372.123-1.977-.204-1.977-.204h.001Z" fill="#39331F"/><path fill-rule="evenodd" clip-rule="evenodd" d="M10.673 21.647s-.184-.174-.12-1.022a1.06 1.06 0 0 1 .233.022s.1.657-.113 1Z" fill="#292311"/><path fill-rule="evenodd" clip-rule="evenodd" d="M9.36 18.113a.5.5 0 0 0 .07-.064c-.063.12-.359.599-.12 1.353.24.75.842 1.31 1.583 1.336.741.027 1.13-.336 1.576-.88.175-.216.376-.488.554-.673.265-.288.472-.369.472-.647 0-.57-.582-.825-1.44-1.081-.857-.256-1.631-.224-2.032-.049-.392.19-.56.391-.664.705Z" fill="#252211"/><path fill-rule="evenodd" clip-rule="evenodd" d="m12.113 21.903.064-.033s.016-.256.12-.249c.103.016.152.152.142.201-.006.048-.032.13-.136.12-.136.003-.19-.04-.19-.04Z" fill="#3F3824"/><path fill-rule="evenodd" clip-rule="evenodd" d="M11.825 20.816s.064-.023.143.055c.064 0 .343-.033.43.022.088.055.113.104.113.104s-.326.07-.505 0c-.18-.062-.18-.181-.18-.181Z" fill="#2D2815"/><path fill-rule="evenodd" clip-rule="evenodd" d="M13.265 20.864c0-.016-.174-.136-.359-.175-.032-.006-.039.016-.064.016-.016-.006-.022-.055-.022-.055l-.105.055s-.017.023.039.064c.048.04.129.072.152.136.022.065.022.087.032.097.006.007.12 0 .175-.032.055-.032.158-.085.152-.107Z" fill="#82764F"/><path fill-rule="evenodd" clip-rule="evenodd" d="M11.631 21.521s.032-.223.25-.233c.222-.016.265.2.265.2l-.13.13c0-.003-.097-.139-.384-.097Z" fill="#2D2816"/><path fill-rule="evenodd" clip-rule="evenodd" d="M13.039 20.56s-.12.13-.385.168c-.023-.032-.071-.097 0-.2.071-.104.152-.136.233-.104a.19.19 0 0 1 .152.136Z" fill="#574F35"/><path fill-rule="evenodd" clip-rule="evenodd" d="M13.527 20.718c.007-.032-.015-.038 0-.055.017-.016.104-.048.12-.032.007.006 0 .032 0 .064s0 .064-.016.087c-.023.033-.087.049-.12.04-.032-.01-.038-.056-.038-.065.016-.006.054-.022.054-.039Zm.553-.349c0-.016.055-.049.088-.049.048 0 .048.04.055.049.015.006.015-.007.032.023.016.029.039.08.022.113-.016.032-.08.055-.096.048a.862.862 0 0 1-.101-.184Z" fill="#82764F"/><path fill-rule="evenodd" clip-rule="evenodd" d="M12.968 20.793s.07.016.168.097a.975.975 0 0 1-.081.048s-.006-.074-.087-.145Z" fill="#6E6342"/><path fill-rule="evenodd" clip-rule="evenodd" d="M12.81 20.081c-.017-.016.048-.055.086-.049.04.007.055.033.097.04.043.006.05-.017.064-.033.016-.016.072-.007.081 0a.18.18 0 0 1 .017.023.09.09 0 0 1 .032-.064.1.1 0 0 1 .087-.017c.007.023.04.104.033.12-.007.016-.104.04-.12.023.016.039.087.12.097.136.01.015-.071.055-.104.048a1.32 1.32 0 0 1-.372-.226l.001-.001Zm.423-.537a.075.075 0 0 0-.032-.039c-.023-.006-.097 0-.097.039s.064.256.136.369c.08.113.135.207.19.233a.075.075 0 0 0 .098-.033c.006-.016.022-.136.016-.417-.007-.282-.017-.554-.033-.57-.016-.016-.08-.016-.103.016a3.025 3.025 0 0 0-.175.402Z" fill="#585136"/><path fill-rule="evenodd" clip-rule="evenodd" d="M12.945 21.2s-.113-.07-.223-.022c-.104.049-.097.24-.097.24a.154.154 0 0 0 .142-.017c.071-.048.162-.129.178-.2Z" fill="#574F35"/><path fill-rule="evenodd" clip-rule="evenodd" d="M13.159 21.456c-.007-.064-.064-.064-.064-.097a.073.073 0 0 1 .07-.055c.033 0 .065.04.104.064.04.023.097.064.104.114.006.049-.064.184-.143.184-.078 0-.055-.146-.07-.21h-.001Zm.624-.087s-.13.039-.12 0c.01-.039.04-.049.081-.049a.128.128 0 0 1 .081-.038.07.07 0 0 1 .049.016s.087-.04.113-.016c.026.022.007.022.023.048.02.029.033.062.039.097 0 .026-.097.081-.175.071-.09-.019-.075-.113-.09-.13Zm.754-.146s.039.023.007.049a.527.527 0 0 1-.233.071c-.098 0-.185.016-.185-.016s.081-.097.13-.113a.103.103 0 0 1 .08-.04c.04 0 .191-.015.234-.022.038-.006.07.016.048.049-.01.022-.08.022-.08.022Zm.223-.999s-.048.103-.103.103c-.055-.006-.055-.022-.055-.038 0-.023.055-.081.048-.098-.016 0-.055 0-.048-.038 0-.033.055-.072.104-.064a.213.213 0 0 1 .129-.049c.055 0 .103.016.103.049 0 .032-.064.103-.087.12-.026.025-.058.042-.09.016v-.001Zm-.737 1.913s-.064.006-.064.038c0 .017.016.017.038.007a.171.171 0 0 0 .04-.007c.006.007.006.04.054.04a.307.307 0 0 0 .114-.04c.038-.016.07-.032.07-.064-.015-.055-.048-.08-.096-.08a.128.128 0 0 0-.072.016s-.016-.033-.07 0c-.056.032-.05.032-.033.048.029.026.02.043.02.043l-.001-.002Zm-.366.336c0-.016.08-.049.103-.039.023.007.088.13.088.143 0 .016-.081.055-.114.055-.032 0-.087-.055-.087-.064 0-.007.039-.016.039-.023.01-.016-.029-.055-.029-.071Zm-.256-.472c.016-.007.016-.023.039-.04a.056.056 0 0 1 .048-.006.078.078 0 0 1 .056-.039c.038-.006.07 0 .063.017 0 .048.033.08.033.12 0 .038-.023.087-.104.12a.573.573 0 0 1-.207.015c-.016-.006-.032-.07-.016-.103A.268.268 0 0 1 13.4 22h.001Z" fill="#82764F"/><path fill-rule="evenodd" clip-rule="evenodd" d="M13.504 22.023s-.055.032-.055.048a.145.145 0 0 0-.006.049c0 .01.07-.007.08-.016.004-.007-.019-.064-.019-.081Z" fill="#6E6342"/><path fill-rule="evenodd" clip-rule="evenodd" d="M13.023 21.87c.032.007.087 0 .129.017.032.016.055.048.023.087-.033.039-.064.097-.136.087-.081-.006-.159-.048-.159-.08a.155.155 0 0 1 .039-.114c.032-.026.048-.01.104.003Z" fill="#585136"/><path fill-rule="evenodd" clip-rule="evenodd" d="M12.984 21.903s-.104.08-.13.12c-.032.039-.19.24-.239.281a.598.598 0 0 1 .055-.08.33.33 0 0 0-.136.174c-.039.12.217.184.385.233.168.049.233.064.233.064a1.812 1.812 0 0 1-.159-.294c-.063-.152-.097-.169-.055-.24.033-.071.082-.12.082-.175a1.005 1.005 0 0 0-.036-.083Z" fill="#574F35"/><path fill-rule="evenodd" clip-rule="evenodd" d="M9.294 22.159a.198.198 0 0 0 .072 0c.048-.007.553-.192 1.08-.159.396.024.787.088 1.169.192.663.175 1.489.521 2.022.719.143.054.282.152.384.19.408.159.424.159.664.201.282.039.57-.055.87-.12.37-.08 1-.12 1.554-.2a3.18 3.18 0 0 0 .527-.12s-.44.44-1.495.599a4.68 4.68 0 0 1-1.288.016 3.93 3.93 0 0 1-.728-.13c-.19-.055-.582-.2-1.065-.32-.336-.087-.712-.152-1.142-.233-1.061-.194-2.213-.417-2.624-.634v-.001Z" fill="#252211"/><path fill-rule="evenodd" clip-rule="evenodd" d="M8.104 20.159c-.256.216-.528.424-.793.624l-.8.614c-.271.2-.537.408-.809.609-.272.2-.543.391-.832.576.256-.217.528-.418.8-.615.271-.197.553-.39.815-.591l.8-.615c.275-.2.54-.408.819-.602Zm-1.415 2.265s.288-.24.648-.576c.446-.417.993-.951 1.168-1.048l-1.816 1.624Z" fill="#CFB66C"/><path fill-rule="evenodd" clip-rule="evenodd" d="M6.69 22.424c.142-.142.294-.282.446-.418l.233-.2c.071-.064.152-.136.223-.207.143-.143.282-.295.424-.44a2.73 2.73 0 0 1 .224-.208.603.603 0 0 1 .129-.087c.039-.023.081-.064.136-.071-.032.048-.071.071-.104.113-.038.032-.07.071-.103.104-.071.07-.152.135-.223.2-.153.13-.311.256-.463.392-.152.135-.295.281-.447.417-.165.14-.317.275-.476.405Zm1.935-1.295S7.57 22.162 7.353 22.33l1.272-1.2Z" fill="#CFB66C"/><path fill-rule="evenodd" clip-rule="evenodd" d="M8.625 21.13a3.45 3.45 0 0 1-.305.31l-.32.304c-.103.104-.2.207-.31.31-.114.098-.217.193-.337.282l.31-.304c.104-.103.217-.19.327-.294l.311-.304c.107-.107.21-.21.324-.305Zm.048.56a6.727 6.727 0 0 1-.343.792c-.272.544-.68 1.223-.858 1.57l1.201-2.363Z" fill="#CFB66C"/><path fill-rule="evenodd" clip-rule="evenodd" d="M8.673 21.69c0 .12-.032.223-.071.326a3.217 3.217 0 0 1-.13.305 5.22 5.22 0 0 1-.158.294c-.055.094-.12.19-.169.288l-.326.576c-.114.192-.224.385-.343.57.08-.207.19-.402.294-.593.113-.191.217-.383.32-.582.05-.1.096-.2.136-.304.049-.104.097-.2.136-.295.048-.103.087-.2.136-.294.055-.1.1-.198.175-.292Z" fill="#CFB66C"/><path fill-rule="evenodd" clip-rule="evenodd" d="M9.825 24.343s-.32.424-.288.961c.088-.281.198-.712.288-.961Zm.305.425s-.114 1.152-.208 1.718c.133-.654.159-.6.207-1.718Zm2.12 1.786s-.48 1.408-.49 1.8c.104-.403.305-1.225.49-1.8Z" fill="#DEC270"/><path fill-rule="evenodd" clip-rule="evenodd" d="M13.369 24.256s.777 1.282 1.36 2.375c-.158-.55-.52-1.56-1.36-2.375Z" fill="#CBAF59"/><path fill-rule="evenodd" clip-rule="evenodd" d="M15.456 26.143c.427.753.811 1.53 1.152 2.326-.064-.55-.24-1.491-1.152-2.326Z" fill="#E3C677"/><path fill-rule="evenodd" clip-rule="evenodd" d="M21.592 28.032c.13-.08.385-.521.609-.63.223-.114.391-.137.592-.36.2-.233.256-.376.696-.56.615-.266.192-.609.192-.609.067-.066.14-.128.216-.184.16-.12.343-.265.327-.521-.022-.43-.103-1.055-.456-1.418.343-.07 1-.12 1.408-.223.472-.12.69-.288.69-.288s-.272-.463.168-.928c.44-.466.8-.745 1.064-1.266-.304-.039-.767-.2-1.951.25.064.03.125.064.184.103 0 0-.728.2-.993.424-.463.391-.521.712-1.023.951-.501.24-1.006.175-1.424.37-.417.193-.478.358-.63.43.032.038-.007.103.054.158-.039.055-.265.424-.495.424.023.087.217.152.217.152s-.142.104-.505.13c.184.192.36.4.841.705-.038.08-.2.2-.136.353.072.152.257.36.994.527-.375.017-.815.104-1.408.023-.592-.071-.69-.113-1.055-.023.039.04.142.04.233.143-.097.006-.705-.071-.913.2-.216.282-.31.745-.294 1.056-.113.055-.223.152-.168.352.055.201.343.266.527.392.185.136.2.184.376.152.184-.039.456-.223.615-.223.158 0 .271.12.271.12s.43-.208.473-.169c.039.039.006.288.048.327.043.03.528-.259.657-.34Z" fill="#ECD592"/><path fill-rule="evenodd" clip-rule="evenodd" d="M31 15.081c-2.023-5.223-7.023-6.19-7.023-6.19H9.712l.055 5.32h2.841v11.88H9.712v5.31h13.87c3.343 0 6.023-3.359 6.023-3.359C33.896 21.952 31 15.082 31 15.082Zm-7.343 9.382s-1.088 1.57-2.272 1.57h-2.368l-.056-11.81H22s1.408.295 2.392 3.081c0 0 1.304 3.99-.735 7.159Z" fill="#fff" fill-opacity=".8"/></g><defs><clipPath id="clip0_422_31591"><path fill="#fff" d="M0 0h40v40H0z"/></clipPath></defs></svg>