<svg width="18" height="18" fill="none" xmlns="http://www.w3.org/2000/svg"><path d="m11.663 9.747-1.507 1.513c-.611.613-1.687.626-2.312 0L6.337 9.747.922 15.18c.202.094.424.15.66.15h14.836c.236 0 .459-.056.66-.15l-5.415-5.432Z" fill="url('#paint0_linear_422_33756')"/><path d="M16.418 2.672H1.582c-.236 0-.458.055-.66.149l5.786 5.805h.001v.002l1.882 1.887c.2.2.618.2.818 0l1.881-1.887v-.001l.002-.001 5.786-5.805a1.565 1.565 0 0 0-.66-.15Z" fill="url('#paint1_linear_422_33756')"/><path d="M.168 3.559c-.104.21-.168.445-.168.695v9.492c0 .251.064.485.168.696l5.424-5.441L.168 3.559Z" fill="url('#paint2_linear_422_33756')"/><path d="M17.832 3.559 12.408 9l5.424 5.441c.104-.21.168-.445.168-.696V4.254c0-.25-.064-.485-.168-.695Z" fill="url('#paint3_linear_422_33756')"/><defs><linearGradient id="paint0_linear_422_33756" x1="9" y1="9.747" x2="9" y2="15.328" gradientUnits="userSpaceOnUse"><stop stop-color="#80D0C8"/><stop offset="1" stop-color="#0596E8"/></linearGradient><linearGradient id="paint1_linear_422_33756" x1="9" y1="2.672" x2="9" y2="10.665" gradientUnits="userSpaceOnUse"><stop stop-color="#80D0C8"/><stop offset="1" stop-color="#0596E8"/></linearGradient><linearGradient id="paint2_linear_422_33756" x1="2.796" y1="3.559" x2="2.796" y2="14.442" gradientUnits="userSpaceOnUse"><stop stop-color="#80D0C8"/><stop offset="1" stop-color="#0596E8"/></linearGradient><linearGradient id="paint3_linear_422_33756" x1="15.204" y1="3.559" x2="15.204" y2="14.442" gradientUnits="userSpaceOnUse"><stop stop-color="#80D0C8"/><stop offset="1" stop-color="#0596E8"/></linearGradient></defs></svg>