<svg width="18" height="12" fill="none" xmlns="http://www.w3.org/2000/svg"><path d="M9 .635C5.56.635 2.442 2.516.14 5.572a.713.713 0 0 0 0 .851c2.302 3.06 5.42 4.941 8.86 4.941 3.44 0 6.558-1.881 8.86-4.937a.713.713 0 0 0 0-.85C15.557 2.516 12.44.634 9 .634Zm.247 9.142a3.788 3.788 0 0 1-4.025-4.024 3.794 3.794 0 0 1 3.531-3.531 3.788 3.788 0 0 1 4.025 4.024 3.806 3.806 0 0 1-3.531 3.531Zm-.114-1.745a2.035 2.035 0 0 1-2.166-2.165 2.047 2.047 0 0 1 1.904-1.904 2.035 2.035 0 0 1 2.165 2.165 2.047 2.047 0 0 1-1.903 1.904Z" fill="url('#paint0_linear_422_33729')"/><defs><linearGradient id="paint0_linear_422_33729" x1="9" y1=".635" x2="9" y2="11.364" gradientUnits="userSpaceOnUse"><stop stop-color="#80D0C8"/><stop offset="1" stop-color="#0596E8"/></linearGradient></defs></svg>