<svg width="22" height="22" fill="none" xmlns="http://www.w3.org/2000/svg"><path d="M20.25 10.625a9.625 9.625 0 0 1-19.25 0 .687.687 0 0 1 1.375 0A8.262 8.262 0 1 0 6.073 3.75H6.5a.688.688 0 1 1 0 1.375H4.437a.687.687 0 0 1-.687-.688V2.376a.688.688 0 1 1 1.375 0v.353a9.623 9.623 0 0 1 15.125 7.897Zm-3.438 0a6.187 6.187 0 1 1-6.187-6.188 6.194 6.194 0 0 1 6.188 6.188Zm-3.743.803-1.757-1.17v-3.07a.687.687 0 1 0-1.374 0v3.437a.688.688 0 0 0 .306.572l2.062 1.375a.687.687 0 0 0 .763-1.144Z" fill="url('#paint0_linear_422_31228')"/><defs><linearGradient id="paint0_linear_422_31228" x1="10.625" y1="1" x2="10.625" y2="20.25" gradientUnits="userSpaceOnUse"><stop stop-color="#7ECFC9"/><stop offset="1" stop-color="#169EE4"/></linearGradient></defs></svg>