<svg width="28" height="28" fill="none" xmlns="http://www.w3.org/2000/svg"><path d="m22.04 6.244-6.393-2.848c-.938-.414-2.356-.414-3.294 0L5.96 6.244c-1.615.72-1.855 1.702-1.855 2.225 0 .524.24 1.506 1.855 2.226l6.393 2.847c.469.207 1.058.316 1.647.316.59 0 1.178-.109 1.647-.316l6.393-2.847c1.615-.72 1.855-1.702 1.855-2.226 0-.523-.23-1.505-1.855-2.225Z" fill="url('#paint0_linear_753_1392')"/><path d="M14 19.498c-.414 0-.829-.087-1.21-.25l-7.353-3.273c-1.124-.502-1.997-1.844-1.997-3.077 0-.447.36-.807.807-.807.448 0 .808.36.808.807 0 .59.49 1.353 1.036 1.593l7.353 3.273c.349.152.752.152 1.102 0l7.352-3.273c.546-.24 1.037-.993 1.037-1.593 0-.447.36-.807.807-.807.447 0 .807.36.807.807 0 1.222-.872 2.575-1.996 3.077L15.2 19.247c-.37.164-.785.251-1.2.251Z" fill="url('#paint1_linear_753_1392')"/><path d="M14 24.91c-.414 0-.829-.088-1.21-.252l-7.353-3.273A3.365 3.365 0 0 1 3.44 18.31c0-.447.36-.807.807-.807.448 0 .808.36.808.807 0 .687.403 1.31 1.036 1.593l7.353 3.273c.349.152.752.152 1.102 0l7.352-3.273a1.75 1.75 0 0 0 1.037-1.593c0-.447.36-.807.807-.807.447 0 .807.36.807.807 0 1.331-.785 2.531-1.996 3.076L15.2 24.659c-.37.164-.785.251-1.2.251Z" fill="url('#paint2_linear_753_1392')"/><defs><linearGradient id="paint0_linear_753_1392" x1="14" y1="3.086" x2="14" y2="13.858" gradientUnits="userSpaceOnUse"><stop stop-color="#7ECFC9"/><stop offset="1" stop-color="#169EE4"/></linearGradient><linearGradient id="paint1_linear_753_1392" x1="13.995" y1="12.091" x2="13.995" y2="19.498" gradientUnits="userSpaceOnUse"><stop stop-color="#7ECFC9"/><stop offset="1" stop-color="#169EE4"/></linearGradient><linearGradient id="paint2_linear_753_1392" x1="13.995" y1="17.502" x2="13.995" y2="24.909" gradientUnits="userSpaceOnUse"><stop stop-color="#7ECFC9"/><stop offset="1" stop-color="#169EE4"/></linearGradient></defs></svg>