<svg width="22" height="22" fill="none" xmlns="http://www.w3.org/2000/svg"><g clip-path="url('#clip0_422_31263')"><path d="M13.75 11.917a.916.916 0 0 0-.917.916V16.5c0 .505-.41.917-.917.917h-2.75V3.667c0-.783-.498-1.482-1.248-1.743l-.271-.09h4.27c.505 0 .916.411.916.916V5.5a.916.916 0 1 0 1.833 0V2.75A2.753 2.753 0 0 0 11.916 0H2.063c-.034 0-.064.016-.098.02C1.92.017 1.878 0 1.834 0A1.835 1.835 0 0 0 0 1.833v16.5c0 .783.499 1.483 1.248 1.743l5.517 1.839c.187.058.373.085.568.085a1.835 1.835 0 0 0 1.834-1.833v-.917h2.75a2.753 2.753 0 0 0 2.75-2.75v-3.667a.916.916 0 0 0-.917-.916Z" fill="url('#paint0_linear_422_31263')"/><path d="m21.731 8.519-3.667-3.667A.916.916 0 0 0 16.5 5.5v2.75h-3.667a.917.917 0 0 0 0 1.833H16.5v2.75a.917.917 0 0 0 1.565.648l3.666-3.666a.916.916 0 0 0 0-1.296Z" fill="url('#paint1_linear_422_31263')"/></g><defs><linearGradient id="paint0_linear_422_31263" x1="7.333" y1="0" x2="7.333" y2="22" gradientUnits="userSpaceOnUse"><stop stop-color="#7ECFC9"/><stop offset="1" stop-color="#169EE4"/></linearGradient><linearGradient id="paint1_linear_422_31263" x1="16.958" y1="4.583" x2="16.958" y2="13.75" gradientUnits="userSpaceOnUse"><stop stop-color="#7ECFC9"/><stop offset="1" stop-color="#169EE4"/></linearGradient><clipPath id="clip0_422_31263"><path fill="#fff" d="M0 0h22v22H0z"/></clipPath></defs></svg>