<svg width="28" height="28" fill="none" xmlns="http://www.w3.org/2000/svg"><path d="m22.182 9.09-1.626 1.626-3.272-3.272 1.625-1.626a2.295 2.295 0 0 1 1.637-.676 2.311 2.311 0 0 1 1.636 3.95Z" fill="url('#paint0_linear_753_1400')"/><path d="M19.793 11.49 8 23.274a2.311 2.311 0 0 1-3.273 0 2.311 2.311 0 0 1 0-3.273L16.52 8.218l3.273 3.273Z" fill="url('#paint1_linear_753_1400')"/><path d="m11.764 4.727.447-1.516a.423.423 0 0 0-.098-.404c-.098-.109-.273-.152-.415-.109l-1.516.447-1.516-.447a.423.423 0 0 0-.404.098.398.398 0 0 0-.098.404L8.6 4.727l-.447 1.517a.423.423 0 0 0 .098.403c.11.11.262.142.404.098l1.527-.436 1.516.447c.044.011.077.022.12.022a.442.442 0 0 0 .295-.12.398.398 0 0 0 .098-.403l-.447-1.528Z" fill="url('#paint2_linear_753_1400')"/><path d="m7.4 11.273.447-1.517a.423.423 0 0 0-.098-.403.398.398 0 0 0-.403-.098l-1.528.436-1.516-.447a.423.423 0 0 0-.404.098.398.398 0 0 0-.098.403l.436 1.528-.447 1.516a.423.423 0 0 0 .098.404c.11.109.262.142.404.098l1.516-.447 1.517.447a.41.41 0 0 0 .12.01c.109 0 .207-.043.294-.12a.398.398 0 0 0 .098-.403L7.4 11.273Z" fill="url('#paint3_linear_753_1400')"/><path d="m23.764 16.727.447-1.516a.423.423 0 0 0-.098-.404.398.398 0 0 0-.404-.098l-1.516.447-1.517-.447a.423.423 0 0 0-.403.098.398.398 0 0 0-.098.404l.447 1.516-.447 1.517a.423.423 0 0 0 .098.403c.109.11.262.142.404.099l1.516-.448 1.516.448c.033.01.077.01.12.01a.442.442 0 0 0 .295-.12.398.398 0 0 0 .098-.403l-.458-1.506Z" fill="url('#paint4_linear_753_1400')"/><defs><linearGradient id="paint0_linear_753_1400" x1="20.072" y1="5.142" x2="20.072" y2="10.716" gradientUnits="userSpaceOnUse"><stop stop-color="#7ECFC9"/><stop offset="1" stop-color="#169EE4"/></linearGradient><linearGradient id="paint1_linear_753_1400" x1="11.921" y1="8.218" x2="11.921" y2="23.952" gradientUnits="userSpaceOnUse"><stop stop-color="#7ECFC9"/><stop offset="1" stop-color="#169EE4"/></linearGradient><linearGradient id="paint2_linear_753_1400" x1="10.183" y1="2.681" x2="10.183" y2="6.778" gradientUnits="userSpaceOnUse"><stop stop-color="#7ECFC9"/><stop offset="1" stop-color="#169EE4"/></linearGradient><linearGradient id="paint3_linear_753_1400" x1="5.818" y1="9.227" x2="5.818" y2="13.31" gradientUnits="userSpaceOnUse"><stop stop-color="#7ECFC9"/><stop offset="1" stop-color="#169EE4"/></linearGradient><linearGradient id="paint4_linear_753_1400" x1="22.198" y1="14.69" x2="22.198" y2="18.764" gradientUnits="userSpaceOnUse"><stop stop-color="#7ECFC9"/><stop offset="1" stop-color="#169EE4"/></linearGradient></defs></svg>