<svg width="20" height="20" viewBox="0 0 20 20" fill="none" xmlns="http://www.w3.org/2000/svg">
<path fill-rule="evenodd" clip-rule="evenodd" d="M10.625 18.3333V13.3333C10.625 12.9883 10.345 12.7083 10 12.7083C9.655 12.7083 9.375 12.9883 9.375 13.3333V18.3333C9.375 18.6783 9.655 18.9583 10 18.9583C10.345 18.9583 10.625 18.6783 10.625 18.3333Z" fill="white"></path>
<path fill-rule="evenodd" clip-rule="evenodd" d="M8.7752 15.4417L10.0002 14.2175L11.2252 15.4417C11.4685 15.6858 11.8652 15.6858 12.1085 15.4417C12.3527 15.1983 12.3527 14.8017 12.1085 14.5583L10.4419 12.8917C10.1977 12.6475 9.8027 12.6475 9.55853 12.8917L7.89187 14.5583C7.6477 14.8017 7.6477 15.1983 7.89187 15.4417C8.1352 15.6858 8.53186 15.6858 8.7752 15.4417Z" fill="white"></path>
<path fill-rule="evenodd" clip-rule="evenodd" d="M17.7084 9.99999V2.49999C17.7084 1.69416 17.0551 1.04166 16.2501 1.04166H3.75008C2.94508 1.04166 2.29175 1.69416 2.29175 2.49999V9.99999C2.29175 10.8058 2.94508 11.4583 3.75008 11.4583H16.2501C17.0551 11.4583 17.7084 10.8058 17.7084 9.99999ZM10.0001 3.52082C8.48258 3.52082 7.25008 4.75332 7.25008 6.27082C7.25008 7.78832 8.48258 9.02082 10.0001 9.02082C11.5176 9.02082 12.7501 7.78832 12.7501 6.27082C12.7501 4.75332 11.5176 3.52082 10.0001 3.52082ZM10.0001 4.77082C10.8276 4.77082 11.5001 5.44332 11.5001 6.27082C11.5001 7.09832 10.8276 7.77082 10.0001 7.77082C9.17258 7.77082 8.50008 7.09832 8.50008 6.27082C8.50008 5.44332 9.17258 4.77082 10.0001 4.77082ZM15.3126 5.64582H13.8959C13.5509 5.64582 13.2709 5.92582 13.2709 6.27082C13.2709 6.61582 13.5509 6.89582 13.8959 6.89582H15.3126C15.6576 6.89582 15.9376 6.61582 15.9376 6.27082C15.9376 5.92582 15.6576 5.64582 15.3126 5.64582ZM6.10425 5.64582H4.68758C4.34258 5.64582 4.06258 5.92582 4.06258 6.27082C4.06258 6.61582 4.34258 6.89582 4.68758 6.89582H6.10425C6.44925 6.89582 6.72925 6.61582 6.72925 6.27082C6.72925 5.92582 6.44925 5.64582 6.10425 5.64582Z" fill="white"></path>
</svg>
