<svg width="22" height="22" viewBox="0 0 22 22" fill="none" xmlns="http://www.w3.org/2000/svg">
<g clip-path="url('#clip0_422_32415')">
<path d="M0.299889 11.0284C0.0633969 11.1155 -0.0585011 11.3776 0.0276482 11.615L0.315486 12.407L2.50712 10.2153L0.299889 11.0284Z" fill="url('#paint0_linear_422_32415')"></path>
<path d="M2.37427 18.0684L3.69422 21.6982C3.73547 21.8128 3.82162 21.9063 3.93162 21.9567C3.99302 21.9851 4.05901 21.9998 4.12501 21.9998C4.17911 21.9998 4.23226 21.9907 4.2836 21.9714L5.74015 21.4343L2.37427 18.0684Z" fill="url('#paint1_linear_422_32415')"></path>
<path d="M21.9719 14.9692L20.4613 10.8159L16.836 14.4412L18.6326 13.7794C18.8682 13.6895 19.134 13.8124 19.2211 14.0507C19.3091 14.2881 19.1872 14.5521 18.9497 14.6392L16.6673 15.4807C16.6151 15.4999 16.5619 15.5091 16.5087 15.5091C16.3226 15.5091 16.1466 15.3945 16.0788 15.2093C16.0779 15.2066 16.0788 15.2038 16.0779 15.2011L12.2363 19.0427L21.6996 15.5558C21.937 15.4688 22.0589 15.2066 21.9719 14.9692Z" fill="url('#paint2_linear_422_32415')"></path>
<path d="M21.8657 7.46764L14.5326 0.134546C14.3539 -0.0441976 14.0633 -0.0441976 13.8846 0.134546L0.135034 13.8841C-0.0437094 14.0628 -0.0437094 14.3534 0.135034 14.5321L7.46812 21.8652C7.55702 21.9551 7.67437 22 7.79171 22C7.90905 22 8.02635 21.9551 8.1162 21.8661L21.8657 8.11661C22.0445 7.93697 22.0445 7.64728 21.8657 7.46764ZM5.3663 12.6998L3.53301 14.533C3.44317 14.6219 3.32587 14.6669 3.20852 14.6669C3.09118 14.6669 2.97388 14.622 2.88404 14.533C2.70529 14.3543 2.70529 14.0637 2.88404 13.885L4.71732 12.0517C4.89606 11.8729 5.18665 11.8729 5.36539 12.0517C5.54414 12.2305 5.54504 12.5201 5.3663 12.6998ZM13.2814 13.2818C12.9569 13.6063 12.516 13.7622 12.0256 13.7622C11.2153 13.7622 10.2684 13.3378 9.47646 12.5449C8.89713 11.9655 8.49014 11.2726 8.33159 10.5943C8.1556 9.83805 8.30044 9.17992 8.73948 8.73994C9.17856 8.29995 9.83669 8.15511 10.5938 8.33205C11.2721 8.49064 11.9651 8.89668 12.5444 9.47691C13.8176 10.7492 14.1421 12.4211 13.2814 13.2818ZM19.1158 8.11661L17.2825 9.9499C17.1927 10.0388 17.0754 10.0837 16.958 10.0837C16.8407 10.0837 16.7234 10.0388 16.6336 9.9499C16.4548 9.77115 16.4548 9.48057 16.6336 9.30182L18.4668 7.46854C18.6456 7.28979 18.9362 7.28979 19.1149 7.46854C19.2937 7.64728 19.2946 7.93697 19.1158 8.11661Z" fill="url('#paint3_linear_422_32415')"></path>
</g>
<defs>
<linearGradient id="paint0_linear_422_32415" x1="1.25356" y1="10.2153" x2="1.25356" y2="12.407" gradientUnits="userSpaceOnUse">
<stop stop-color="#7ACDCA"></stop>
<stop offset="1" stop-color="#109CE6"></stop>
</linearGradient>
<linearGradient id="paint1_linear_422_32415" x1="4.05721" y1="18.0684" x2="4.05721" y2="21.9998" gradientUnits="userSpaceOnUse">
<stop stop-color="#7ACDCA"></stop>
<stop offset="1" stop-color="#109CE6"></stop>
</linearGradient>
<linearGradient id="paint2_linear_422_32415" x1="17.1182" y1="10.8159" x2="17.1182" y2="19.0427" gradientUnits="userSpaceOnUse">
<stop stop-color="#7ACDCA"></stop>
<stop offset="1" stop-color="#109CE6"></stop>
</linearGradient>
<linearGradient id="paint3_linear_422_32415" x1="11.0004" y1="0.000488281" x2="11.0004" y2="22" gradientUnits="userSpaceOnUse">
<stop stop-color="#7ACDCA"></stop>
<stop offset="1" stop-color="#109CE6"></stop>
</linearGradient>
<clipPath id="clip0_422_32415">
<rect width="22" height="22" fill="white"></rect>
</clipPath>
</defs>
</svg>
