<svg width="22" height="22" fill="none" xmlns="http://www.w3.org/2000/svg"><g clip-path="url('#clip0_422_32415')"><path d="M.3 11.028a.458.458 0 0 0-.272.587l.287.792 2.192-2.192-2.207.813Z" fill="url('#paint0_linear_422_32415')"/><path d="m2.374 18.068 1.32 3.63a.454.454 0 0 0 .431.302c.054 0 .107-.01.159-.029l1.456-.537-3.366-3.366Z" fill="url('#paint1_linear_422_32415')"/><path d="m21.972 14.97-1.51-4.154-3.626 3.625 1.797-.662a.458.458 0 1 1 .317.86l-2.283.842a.457.457 0 0 1-.588-.272l-.001-.008-3.842 3.842 9.464-3.487a.457.457 0 0 0 .272-.587Z" fill="url('#paint2_linear_422_32415')"/><path d="M21.866 7.468 14.533.135a.459.459 0 0 0-.648 0L.135 13.885a.459.459 0 0 0 0 .647l7.333 7.333a.46.46 0 0 0 .648 0l13.75-13.748a.46.46 0 0 0 0-.65ZM5.366 12.7l-1.833 1.833a.46.46 0 0 1-.649 0 .459.459 0 0 1 0-.648l1.833-1.833a.459.459 0 0 1 .65.648Zm7.915.582c-.324.324-.765.48-1.255.48-.81 0-1.758-.424-2.55-1.217-.579-.58-.986-1.272-1.144-1.95-.176-.757-.032-1.415.407-1.855.44-.44 1.098-.585 1.855-.408.678.159 1.371.565 1.95 1.145 1.274 1.272 1.598 2.944.737 3.805Zm5.835-5.165L17.282 9.95a.46.46 0 0 1-.648 0 .459.459 0 0 1 0-.648l1.833-1.833a.459.459 0 0 1 .649.648Z" fill="url('#paint3_linear_422_32415')"/></g><defs><linearGradient id="paint0_linear_422_32415" x1="1.254" y1="10.215" x2="1.254" y2="12.407" gradientUnits="userSpaceOnUse"><stop stop-color="#7ACDCA"/><stop offset="1" stop-color="#109CE6"/></linearGradient><linearGradient id="paint1_linear_422_32415" x1="4.057" y1="18.068" x2="4.057" y2="22" gradientUnits="userSpaceOnUse"><stop stop-color="#7ACDCA"/><stop offset="1" stop-color="#109CE6"/></linearGradient><linearGradient id="paint2_linear_422_32415" x1="17.118" y1="10.816" x2="17.118" y2="19.043" gradientUnits="userSpaceOnUse"><stop stop-color="#7ACDCA"/><stop offset="1" stop-color="#109CE6"/></linearGradient><linearGradient id="paint3_linear_422_32415" x1="11" y1="0" x2="11" y2="22" gradientUnits="userSpaceOnUse"><stop stop-color="#7ACDCA"/><stop offset="1" stop-color="#109CE6"/></linearGradient><clipPath id="clip0_422_32415"><path fill="#fff" d="M0 0h22v22H0z"/></clipPath></defs></svg>