<svg width="16" height="16" fill="none" xmlns="http://www.w3.org/2000/svg"><g clip-path="url('#clip0_422_31979')"><path d="M16 8a8 8 0 0 1-8 7.998A8 8 0 1 1 8 0a8 8 0 0 1 8 8Z" fill="#fff"/><path d="M8 0C3.583 0-.005 3.587 0 7.999a8.02 8.02 0 0 0 .406 2.526h2.394V3.796L8 8.995l5.199-5.199v6.73h2.394a8.023 8.023 0 0 0 .406-2.527c.008-4.417-3.582-7.998-8-7.998V0Z" fill="#F26822"/><path d="M6.804 10.19 4.535 7.921v4.234H1.164a8 8 0 0 0 13.673 0h-3.373V7.921l-2.269 2.27L8 11.384 6.804 10.19Z" fill="#4D4D4D"/></g><defs><clipPath id="clip0_422_31979"><path fill="#fff" d="M0 0h16v16H0z"/></clipPath></defs></svg>