<svg width="16" height="16" viewBox="0 0 16 16" fill="none" xmlns="http://www.w3.org/2000/svg">
<g clip-path="url('#clip0_422_31979')">
<path d="M16.0001 7.99921C16.0001 12.4169 12.4188 15.9984 8.0003 15.9984C3.58183 15.9984 0.000488281 12.4169 0.000488281 7.99921C0.000488281 3.58151 3.58191 0 8.0003 0C12.4187 0 16.0001 3.58117 16.0001 7.99921Z" fill="white"></path>
<path d="M7.99994 0C3.58305 0 -0.00463971 3.58658 0.000983163 7.99896C0.0020907 8.88174 0.142875 9.73091 0.407108 10.5252H2.80058V3.7961L7.99994 8.99487L13.199 3.7961V10.5254H15.593C15.8576 9.73108 15.9977 8.88191 15.9993 7.99908C16.0068 3.58211 12.4173 0.00106482 7.99994 0.00106482V0Z" fill="#F26822"></path>
<path d="M6.80438 10.1901L4.53534 7.92114V12.1555H2.80055L1.16357 12.1558C2.56772 14.4592 5.10533 16 8.00009 16C10.8948 16 13.4326 14.4589 14.837 12.1554H11.4643V7.92114L9.19516 10.1901L7.99983 11.3853L6.80446 10.1901H6.80438Z" fill="#4D4D4D"></path>
</g>
<defs>
<clipPath id="clip0_422_31979">
<rect width="16" height="16" fill="white"></rect>
</clipPath>
</defs>
</svg>
