<svg width="30" height="30" fill="none" xmlns="http://www.w3.org/2000/svg"><g clip-path="url('#clip0_422_33226')"><path d="M10.164 10.432a3.8 3.8 0 0 0 3.829-3.8V3.8a3.8 3.8 0 1 0-7.6 0v2.784c0 2.095 1.675 3.832 3.77 3.848Z" fill="url('#paint0_linear_422_33226')"/><path d="M20.58 19.314a4.572 4.572 0 0 0 4.607-4.572v-3.406a4.572 4.572 0 0 0-9.144 0v3.349c0 2.52 2.016 4.61 4.537 4.63Z" fill="url('#paint1_linear_422_33226')"/><path d="M5.564 24.398v-3.84h1.383l-3.25-4.794-3.251 4.795h1.383v3.84A5.602 5.602 0 0 0 7.431 30h4.98v-3.734H7.43a1.867 1.867 0 0 1-1.867-1.868Z" fill="url('#paint2_linear_422_33226')"/><path d="M13.735 19.314a9.183 9.183 0 0 1 1.692-.973 6.379 6.379 0 0 1-1.142-3.656v-3.35c0-.138.005-.275.014-.411a5.607 5.607 0 0 0-.394-.16 5.536 5.536 0 0 1-3.712 1.426h-.042a5.484 5.484 0 0 1-3.66-1.427 5.617 5.617 0 0 0-2.676 2.042l4.412 6.509h5.508Z" fill="url('#paint3_linear_422_33226')"/><path d="M24.524 19.721a6.282 6.282 0 0 1-3.957 1.35 6.236 6.236 0 0 1-3.845-1.352 7.487 7.487 0 0 0-4.684 4.789h2.13V30h15.386v-3.217a7.472 7.472 0 0 0-5.03-7.062Z" fill="url('#paint4_linear_422_33226')"/></g><defs><linearGradient id="paint0_linear_422_33226" x1="10.193" y1="0" x2="10.193" y2="10.432" gradientUnits="userSpaceOnUse"><stop stop-color="#7ECFC9"/><stop offset="1" stop-color="#169EE4"/></linearGradient><linearGradient id="paint1_linear_422_33226" x1="20.615" y1="6.764" x2="20.615" y2="19.314" gradientUnits="userSpaceOnUse"><stop stop-color="#7ECFC9"/><stop offset="1" stop-color="#169EE4"/></linearGradient><linearGradient id="paint2_linear_422_33226" x1="6.428" y1="15.764" x2="6.428" y2="30" gradientUnits="userSpaceOnUse"><stop stop-color="#7ECFC9"/><stop offset="1" stop-color="#169EE4"/></linearGradient><linearGradient id="paint3_linear_422_33226" x1="9.621" y1="10.763" x2="9.621" y2="19.314" gradientUnits="userSpaceOnUse"><stop stop-color="#7ECFC9"/><stop offset="1" stop-color="#169EE4"/></linearGradient><linearGradient id="paint4_linear_422_33226" x1="20.796" y1="19.719" x2="20.796" y2="30" gradientUnits="userSpaceOnUse"><stop stop-color="#7ECFC9"/><stop offset="1" stop-color="#169EE4"/></linearGradient><clipPath id="clip0_422_33226"><path fill="#fff" d="M0 0h30v30H0z"/></clipPath></defs></svg>