<svg width="30" height="30" viewBox="0 0 30 30" fill="none" xmlns="http://www.w3.org/2000/svg">
<g clip-path="url('#clip0_422_33226')">
<path d="M10.1637 10.4319C12.2756 10.4475 13.9926 8.7402 13.9926 6.63182V3.80016C13.9926 1.70139 12.2913 0 10.1925 0C8.09372 0 6.39233 1.70139 6.39233 3.80016V6.58412C6.39233 8.67949 8.06835 10.4163 10.1637 10.4319Z" fill="url('#paint0_linear_422_33226')"></path>
<path d="M20.5802 19.3141C23.1211 19.3329 25.1868 17.2788 25.1868 14.7423V11.3356C25.1868 8.81059 23.1398 6.76367 20.6149 6.76367C18.0899 6.76367 16.043 8.81059 16.043 11.3356V14.685C16.043 17.2058 18.0594 19.2954 20.5802 19.3141Z" fill="url('#paint1_linear_422_33226')"></path>
<path d="M5.56397 24.3983V20.5588H6.94743L3.69671 15.7637L0.446045 20.5589H1.8295V24.3983C1.8295 27.492 4.33743 30 7.43118 30H12.4104V26.2656H7.43118C6.39993 26.2655 5.56397 25.4295 5.56397 24.3983Z" fill="url('#paint2_linear_422_33226')"></path>
<path d="M13.7347 19.314C14.2614 18.9311 14.827 18.6056 15.427 18.3406C14.6853 17.2742 14.2853 16.0082 14.2853 14.6847V11.3353C14.2853 11.1974 14.2901 11.0603 14.2988 10.9239C14.17 10.8659 14.0387 10.8127 13.905 10.7643C12.92 11.6499 11.6183 12.1896 10.1926 12.1896C10.1788 12.1896 10.1647 12.1896 10.1508 12.1895C8.78644 12.1793 7.50042 11.6751 6.49167 10.7627C5.40294 11.1553 4.47118 11.8759 3.8147 12.8049L8.22728 19.3139H13.7347V19.314Z" fill="url('#paint3_linear_422_33226')"></path>
<path d="M24.5237 19.7215C23.4133 20.5967 22.0507 21.0717 20.615 21.0717C20.5991 21.0717 20.5828 21.0716 20.5673 21.0715C19.1554 21.061 17.8171 20.5856 16.7224 19.7188C14.5014 20.4829 12.755 22.2651 12.0383 24.5076H14.1683V29.9998H29.5539V26.7828C29.5539 23.5118 27.4511 20.7324 24.5237 19.7215Z" fill="url('#paint4_linear_422_33226')"></path>
</g>
<defs>
<linearGradient id="paint0_linear_422_33226" x1="10.1925" y1="0" x2="10.1925" y2="10.432" gradientUnits="userSpaceOnUse">
<stop stop-color="#7ECFC9"></stop>
<stop offset="1" stop-color="#169EE4"></stop>
</linearGradient>
<linearGradient id="paint1_linear_422_33226" x1="20.6149" y1="6.76367" x2="20.6149" y2="19.3142" gradientUnits="userSpaceOnUse">
<stop stop-color="#7ECFC9"></stop>
<stop offset="1" stop-color="#169EE4"></stop>
</linearGradient>
<linearGradient id="paint2_linear_422_33226" x1="6.42823" y1="15.7637" x2="6.42823" y2="30" gradientUnits="userSpaceOnUse">
<stop stop-color="#7ECFC9"></stop>
<stop offset="1" stop-color="#169EE4"></stop>
</linearGradient>
<linearGradient id="paint3_linear_422_33226" x1="9.62087" y1="10.7627" x2="9.62087" y2="19.314" gradientUnits="userSpaceOnUse">
<stop stop-color="#7ECFC9"></stop>
<stop offset="1" stop-color="#169EE4"></stop>
</linearGradient>
<linearGradient id="paint4_linear_422_33226" x1="20.7961" y1="19.7188" x2="20.7961" y2="29.9998" gradientUnits="userSpaceOnUse">
<stop stop-color="#7ECFC9"></stop>
<stop offset="1" stop-color="#169EE4"></stop>
</linearGradient>
<clipPath id="clip0_422_33226">
<rect width="30" height="30" fill="white"></rect>
</clipPath>
</defs>
</svg>
