<svg width="30" height="30" fill="none" xmlns="http://www.w3.org/2000/svg"><path d="M5.287 19.219a.549.549 0 0 0-.242.737 11.187 11.187 0 0 0 4.939 4.972.554.554 0 0 0 .742-.242.549.549 0 0 0-.242-.737 10.09 10.09 0 0 1-4.455-4.483.56.56 0 0 0-.742-.247Z" fill="url('#paint0_linear_422_33215')"/><path d="M20.05 15A5.056 5.056 0 0 0 15 9.951a5.056 5.056 0 0 0-5.049 5.05 5.057 5.057 0 0 0 5.05 5.054A5.057 5.057 0 0 0 20.048 15Z" fill="url('#paint1_linear_422_33215')"/><path d="M19.708 25.015a.56.56 0 0 0 .248-.055 11.24 11.24 0 0 0 5.005-5.005.556.556 0 0 0-.248-.737.556.556 0 0 0-.742.248 10.069 10.069 0 0 1-4.505 4.51.543.543 0 0 0-.247.737.546.546 0 0 0 .49.302Z" fill="url('#paint2_linear_422_33215')"/><path d="M18.184 4.44c0-1.76-1.43-3.19-3.184-3.19a3.191 3.191 0 0 0-3.185 3.19A3.19 3.19 0 0 0 15 7.624a3.19 3.19 0 0 0 3.184-3.184Z" fill="url('#paint3_linear_422_33215')"/><path d="M25.566 11.815c-1.76 0-3.19 1.43-3.19 3.185 0 1.76 1.43 3.19 3.19 3.19A3.191 3.191 0 0 0 28.75 15a3.19 3.19 0 0 0-3.184-3.185Z" fill="url('#paint4_linear_422_33215')"/><path d="M11.815 25.565A3.19 3.19 0 0 0 15 28.749a3.19 3.19 0 0 0 3.184-3.184c0-1.76-1.43-3.19-3.184-3.19a3.191 3.191 0 0 0-3.185 3.19Z" fill="url('#paint5_linear_422_33215')"/><path d="M24.466 10.842a.553.553 0 0 0 .495-.797 11.267 11.267 0 0 0-5.005-5.006.551.551 0 0 0-.49.99 10.096 10.096 0 0 1 4.51 4.505.545.545 0 0 0 .49.308Z" fill="url('#paint6_linear_422_33215')"/><path d="M10.781 5.287a.547.547 0 0 0-.737-.242 11.216 11.216 0 0 0-5 5 .546.546 0 0 0 .243.736c.082.044.165.06.247.06.204 0 .396-.11.49-.307a10.135 10.135 0 0 1 4.51-4.51.548.548 0 0 0 .247-.737Z" fill="url('#paint7_linear_422_33215')"/><path d="M1.25 15c0 1.76 1.43 3.19 3.184 3.19 1.76 0 3.19-1.43 3.19-3.19a3.191 3.191 0 0 0-3.19-3.185A3.19 3.19 0 0 0 1.25 15Z" fill="url('#paint8_linear_422_33215')"/><defs><linearGradient id="paint0_linear_422_33215" x1="7.886" y1="19.163" x2="7.886" y2="24.988" gradientUnits="userSpaceOnUse"><stop stop-color="#7ECFC9"/><stop offset="1" stop-color="#169EE4"/></linearGradient><linearGradient id="paint1_linear_422_33215" x1="15" y1="9.951" x2="15" y2="20.055" gradientUnits="userSpaceOnUse"><stop stop-color="#7ECFC9"/><stop offset="1" stop-color="#169EE4"/></linearGradient><linearGradient id="paint2_linear_422_33215" x1="22.088" y1="19.16" x2="22.088" y2="25.015" gradientUnits="userSpaceOnUse"><stop stop-color="#7ECFC9"/><stop offset="1" stop-color="#169EE4"/></linearGradient><linearGradient id="paint3_linear_422_33215" x1="15" y1="1.25" x2="15" y2="7.625" gradientUnits="userSpaceOnUse"><stop stop-color="#7ECFC9"/><stop offset="1" stop-color="#169EE4"/></linearGradient><linearGradient id="paint4_linear_422_33215" x1="25.563" y1="11.815" x2="25.563" y2="18.19" gradientUnits="userSpaceOnUse"><stop stop-color="#7ECFC9"/><stop offset="1" stop-color="#169EE4"/></linearGradient><linearGradient id="paint5_linear_422_33215" x1="15" y1="22.375" x2="15" y2="28.75" gradientUnits="userSpaceOnUse"><stop stop-color="#7ECFC9"/><stop offset="1" stop-color="#169EE4"/></linearGradient><linearGradient id="paint6_linear_422_33215" x1="22.088" y1="4.983" x2="22.088" y2="10.842" gradientUnits="userSpaceOnUse"><stop stop-color="#7ECFC9"/><stop offset="1" stop-color="#169EE4"/></linearGradient><linearGradient id="paint7_linear_422_33215" x1="7.913" y1="4.985" x2="7.913" y2="10.842" gradientUnits="userSpaceOnUse"><stop stop-color="#7ECFC9"/><stop offset="1" stop-color="#169EE4"/></linearGradient><linearGradient id="paint8_linear_422_33215" x1="4.437" y1="11.815" x2="4.437" y2="18.19" gradientUnits="userSpaceOnUse"><stop stop-color="#7ECFC9"/><stop offset="1" stop-color="#169EE4"/></linearGradient></defs></svg>