<svg width="40" height="40" fill="none" xmlns="http://www.w3.org/2000/svg"><circle cx="20" cy="20" r="20" fill="#F1FAFA"/><path d="M20.436 11.175a4.162 4.162 0 0 0-2.062 3.584c0 .76.306 1.527.688 2.21.306.612.455 1.678-.611 2.212-.76.456-1.757.152-2.212-.611-.455-.611-.99-1.222-1.678-1.677a4 4 0 0 0-4.118 0 4.167 4.167 0 0 0-2.06 3.587c0 1.45.761 2.822 2.06 3.585a4 4 0 0 0 4.118 0c.688-.382 1.222-.989 1.6-1.677.306-.534 1.146-1.222 2.212-.611.761.455.99 1.451.611 2.211-.382.688-.61 1.451-.61 2.212 0 1.45.76 2.822 2.06 3.583a4 4 0 0 0 4.119 0 4.163 4.163 0 0 0 2.062-3.583 4.16 4.16 0 0 0-2.061-3.586c-.688-.382-1.451-.534-2.289-.534-.688 0-1.6-.455-1.6-1.6 0-.917.687-1.601 1.6-1.601.76 0 1.6-.152 2.288-.534a4.162 4.162 0 0 0 2.062-3.584 4.154 4.154 0 0 0-2.061-3.583c-.612-.382-1.373-.534-2.06-.534-.684-.003-1.45.153-2.058.531Z" fill="url('#paint0_linear_771_11138')"/><defs><linearGradient id="paint0_linear_771_11138" x1="8.384" y1="20.5" x2="26.615" y2="20.5" gradientUnits="userSpaceOnUse"><stop stop-color="#11AAE2"/><stop offset=".59" stop-color="#0880B7"/><stop offset="1" stop-color="#016197"/></linearGradient></defs></svg>