<svg width="30" height="30" viewBox="0 0 30 30" fill="none" xmlns="http://www.w3.org/2000/svg">
<path d="M10.6312 6.56253H19.1625L20.7281 3.77815C21.1125 3.10315 21.0469 2.26878 20.5594 1.6594C20.0812 1.05003 19.2844 0.796901 18.5344 1.01253L13.8469 2.34378L11.6719 1.45315C10.9125 1.14378 10.0594 1.34065 9.51561 1.9594C8.97186 2.57815 8.87811 3.44065 9.28124 4.16253L10.6312 6.5719V6.56253Z" fill="url('#paint0_linear_422_30900')"></path>
<path d="M25.0218 22.4625L21.9656 13.2281C21.5156 11.8594 20.5593 10.7625 19.3687 10.0969L18.8343 8.4375H10.9406L10.3968 10.1156C10.3968 10.1156 10.3968 10.2 10.3781 10.2469C9.29995 10.9219 8.44683 11.9531 8.02495 13.2281L4.9687 22.4625C4.45308 24.0094 4.7062 25.6594 5.66245 26.9813C6.6187 28.3031 8.09995 29.0625 9.7312 29.0625H20.2406C21.8718 29.0625 23.3531 28.3031 24.3093 26.9813C25.2656 25.6594 25.5187 24.0094 25.0031 22.4625H25.0218ZM16.3312 18.75C16.7812 18.75 17.2031 18.9469 17.4843 19.275C17.7375 19.575 17.8593 19.9594 17.8218 20.3438V22.2469C17.85 22.5844 17.7281 22.9031 17.4843 23.1375C17.2125 23.4 16.8656 23.4656 16.575 23.4656C16.4531 23.4656 16.3406 23.4563 16.2468 23.4375H15.9468C15.9468 23.9531 15.525 24.375 15.0093 24.375C14.4937 24.375 14.0718 23.9531 14.0718 23.4375H13.1343C12.6187 23.4375 12.1968 23.0156 12.1968 22.5C12.1968 21.9844 12.6187 21.5625 13.1343 21.5625H15.9468V20.625H13.6875C12.9562 20.625 12.4687 19.9875 12.2531 19.3969C12.2156 19.2938 12.1968 19.1906 12.1968 19.0781V17.475C12.1968 16.6219 12.8906 15.9281 13.7437 15.9281H14.0718C14.0718 15.4125 14.4937 14.9906 15.0093 14.9906C15.525 14.9906 15.9468 15.4125 15.9468 15.9281H16.8843C17.4 15.9281 17.8218 16.35 17.8218 16.8656C17.8218 17.3812 17.4 17.8031 16.8843 17.8031H14.0718V18.7406H16.3312V18.75Z" fill="url('#paint1_linear_422_30900')"></path>
<defs>
<linearGradient id="paint0_linear_422_30900" x1="15.0047" y1="0.936707" x2="15.0047" y2="6.5719" gradientUnits="userSpaceOnUse">
<stop stop-color="#7ECFC9"></stop>
<stop offset="1" stop-color="#169EE4"></stop>
</linearGradient>
<linearGradient id="paint1_linear_422_30900" x1="14.9859" y1="8.4375" x2="14.9859" y2="29.0625" gradientUnits="userSpaceOnUse">
<stop stop-color="#7ECFC9"></stop>
<stop offset="1" stop-color="#169EE4"></stop>
</linearGradient>
</defs>
</svg>
