<svg width="30" height="30" fill="none" xmlns="http://www.w3.org/2000/svg"><path d="M10.631 6.563h8.532l1.565-2.785a1.886 1.886 0 0 0-.169-2.119 1.897 1.897 0 0 0-2.025-.646l-4.687 1.33-2.175-.89a1.895 1.895 0 0 0-2.156.506 1.896 1.896 0 0 0-.235 2.204l1.35 2.409v-.01Z" fill="url('#paint0_linear_422_30900')"/><path d="m25.022 22.462-3.056-9.234a5.604 5.604 0 0 0-2.597-3.131l-.535-1.66h-7.893l-.544 1.679s0 .084-.019.13a5.587 5.587 0 0 0-2.353 2.982l-3.056 9.234a4.958 4.958 0 0 0 .693 4.52 4.97 4.97 0 0 0 4.07 2.08H20.24c1.63 0 3.112-.759 4.068-2.08a4.958 4.958 0 0 0 .694-4.52h.019Zm-8.69-3.712c.45 0 .871.197 1.152.525.253.3.375.684.338 1.069v1.903c.028.337-.094.656-.338.89-.272.263-.618.329-.909.329a1.71 1.71 0 0 1-.328-.029h-.3a.94.94 0 0 1-.938.938.94.94 0 0 1-.937-.938h-.938a.94.94 0 0 1-.937-.937.94.94 0 0 1 .937-.938h2.813v-.937h-2.26c-.73 0-1.218-.637-1.434-1.228a.913.913 0 0 1-.056-.319v-1.603c0-.853.694-1.547 1.547-1.547h.328a.94.94 0 0 1 .937-.937.94.94 0 0 1 .938.937h.937a.94.94 0 0 1 .938.938.94.94 0 0 1-.938.937h-2.812v.938h2.26v.009Z" fill="url('#paint1_linear_422_30900')"/><defs><linearGradient id="paint0_linear_422_30900" x1="15.005" y1=".937" x2="15.005" y2="6.572" gradientUnits="userSpaceOnUse"><stop stop-color="#7ECFC9"/><stop offset="1" stop-color="#169EE4"/></linearGradient><linearGradient id="paint1_linear_422_30900" x1="14.986" y1="8.438" x2="14.986" y2="29.063" gradientUnits="userSpaceOnUse"><stop stop-color="#7ECFC9"/><stop offset="1" stop-color="#169EE4"/></linearGradient></defs></svg>