<svg width="22" height="22" fill="none" xmlns="http://www.w3.org/2000/svg"><path d="m20.793 8.611-1.724-.219a8.655 8.655 0 0 0-.521-1.26l1.064-1.37c.43-.554.38-1.337-.112-1.814l-1.444-1.444a1.366 1.366 0 0 0-1.82-.116l-1.368 1.064a8.63 8.63 0 0 0-1.26-.521l-.22-1.721A1.373 1.373 0 0 0 12.028 0H9.973c-.694 0-1.28.52-1.362 1.207l-.219 1.724c-.438.142-.86.316-1.26.521l-1.37-1.064a1.364 1.364 0 0 0-1.814.112L2.504 3.943a1.367 1.367 0 0 0-.116 1.82l1.064 1.37c-.205.4-.38.822-.521 1.26L1.21 8.61C.52 8.694 0 9.28 0 9.973v2.054c0 .694.52 1.28 1.207 1.362l1.724.219c.142.437.317.859.521 1.26l-1.064 1.37c-.43.554-.38 1.337.112 1.814l1.443 1.444a1.367 1.367 0 0 0 1.82.115l1.37-1.064c.4.205.822.38 1.26.521l.218 1.72A1.373 1.373 0 0 0 9.973 22h2.054c.694 0 1.28-.52 1.362-1.207l.219-1.724a8.654 8.654 0 0 0 1.26-.521l1.37 1.064c.554.43 1.337.38 1.814-.112l1.444-1.444a1.365 1.365 0 0 0 .116-1.82l-1.064-1.369c.205-.4.38-.822.521-1.26l1.72-.218A1.373 1.373 0 0 0 22 12.027V9.973c.001-.694-.519-1.28-1.206-1.362ZM11 15.583A4.588 4.588 0 0 1 6.417 11 4.589 4.589 0 0 1 11 6.417 4.588 4.588 0 0 1 15.583 11 4.588 4.588 0 0 1 11 15.583Z" fill="url('#paint0_linear_422_31254')"/><defs><linearGradient id="paint0_linear_422_31254" x1="10.999" y1="0" x2="10.999" y2="22" gradientUnits="userSpaceOnUse"><stop stop-color="#7ECFC9"/><stop offset="1" stop-color="#169EE4"/></linearGradient></defs></svg>