<svg width="22" height="22" viewBox="0 0 22 22" fill="none" xmlns="http://www.w3.org/2000/svg">
<path d="M20.7928 8.61117L19.0694 8.39208C18.9273 7.95483 18.7523 7.53317 18.5478 7.13258L19.6121 5.76217C20.0429 5.20758 19.9925 4.42475 19.5003 3.94808L18.0565 2.50433C17.5753 2.0075 16.7924 1.958 16.2369 2.38792L14.8683 3.45217C14.4677 3.24775 14.0461 3.07267 13.6079 2.93058L13.3888 1.21C13.3063 0.51975 12.7206 0 12.0267 0H9.97333C9.27942 0 8.69367 0.51975 8.61117 1.20725L8.39208 2.93058C7.95392 3.07267 7.53225 3.24683 7.13167 3.45217L5.76217 2.38792C5.2085 1.958 4.42567 2.0075 3.94808 2.49975L2.50433 3.94258C2.0075 4.42475 1.95708 5.20758 2.38792 5.76308L3.45217 7.13258C3.24683 7.53317 3.07267 7.95483 2.93058 8.39208L1.21 8.61117C0.51975 8.69367 0 9.27942 0 9.97333V12.0267C0 12.7206 0.51975 13.3063 1.20725 13.3888L2.93058 13.6079C3.07267 14.0452 3.24775 14.4668 3.45217 14.8674L2.38792 16.2378C1.95708 16.7924 2.0075 17.5753 2.49975 18.0519L3.9435 19.4957C4.42567 19.9916 5.20758 20.0411 5.76308 19.6112L7.13258 18.5469C7.53317 18.7523 7.95483 18.9273 8.39208 19.0685L8.61117 20.7882C8.69367 21.4802 9.27942 22 9.97333 22H12.0267C12.7206 22 13.3063 21.4803 13.3888 20.7928L13.6079 19.0694C14.0452 18.9273 14.4668 18.7523 14.8674 18.5478L16.2378 19.6121C16.7924 20.0429 17.5753 19.9925 18.0519 19.5003L19.4957 18.0565C19.9925 17.5743 20.0429 16.7924 19.6121 16.2369L18.5478 14.8674C18.7532 14.4668 18.9282 14.0452 19.0694 13.6079L20.7891 13.3888C21.4793 13.3063 21.9991 12.7206 21.9991 12.0267V9.97333C22 9.27942 21.4803 8.69367 20.7928 8.61117ZM11 15.5833C8.47275 15.5833 6.41667 13.5273 6.41667 11C6.41667 8.47275 8.47275 6.41667 11 6.41667C13.5273 6.41667 15.5833 8.47275 15.5833 11C15.5833 13.5273 13.5273 15.5833 11 15.5833Z" fill="url('#paint0_linear_422_31254')"></path>
<defs>
<linearGradient id="paint0_linear_422_31254" x1="10.9995" y1="0" x2="10.9995" y2="22" gradientUnits="userSpaceOnUse">
<stop stop-color="#7ECFC9"></stop>
<stop offset="1" stop-color="#169EE4"></stop>
</linearGradient>
</defs>
</svg>
