<svg width="22" height="22" viewBox="0 0 22 22" fill="none" xmlns="http://www.w3.org/2000/svg">
<g clip-path="url('#clip0_422_31259')">
<path d="M19.6885 5.04899L11.3749 0.103076C11.1438 -0.0343383 10.856 -0.0343383 10.625 0.103076L2.31128 5.04899C2.08909 5.18121 1.95288 5.42072 1.95288 5.67926V8.50261C1.95288 14.4492 5.38866 19.8806 10.7351 21.9505C10.9053 22.0164 11.0943 22.0165 11.2647 21.9505C16.5982 19.8857 20.0469 14.4662 20.0469 8.50261V5.67926C20.0469 5.42067 19.9108 5.18121 19.6885 5.04899ZM14.6229 9.35214L10.0268 13.9483C9.74036 14.2347 9.27604 14.2347 8.98966 13.9483L7.37661 12.3353C7.09022 12.049 7.09022 11.5846 7.37661 11.2982C7.663 11.0119 8.12736 11.0119 8.4137 11.2982L9.50816 12.3927L13.5858 8.31505C13.8722 8.0287 14.3365 8.0287 14.6229 8.31505C14.9093 8.60148 14.9093 9.0658 14.6229 9.35214Z" fill="url('#paint0_linear_422_31259')"></path>
</g>
<defs>
<linearGradient id="paint0_linear_422_31259" x1="10.9999" y1="1.52588e-05" x2="10.9999" y2="22" gradientUnits="userSpaceOnUse">
<stop stop-color="#7ECFC9"></stop>
<stop offset="1" stop-color="#169EE4"></stop>
</linearGradient>
<clipPath id="clip0_422_31259">
<rect width="22" height="22" fill="white"></rect>
</clipPath>
</defs>
</svg>
