<svg width="22" height="22" fill="none" xmlns="http://www.w3.org/2000/svg"><g clip-path="url('#clip0_422_31259')"><path d="M19.689 5.049 11.375.103a.734.734 0 0 0-.75 0L2.311 5.05a.734.734 0 0 0-.358.63v2.824c0 5.946 3.436 11.378 8.782 13.448.17.065.36.066.53 0 5.333-2.065 8.782-7.485 8.782-13.448V5.679a.733.733 0 0 0-.358-.63Zm-5.066 4.303-4.596 4.596a.733.733 0 0 1-1.037 0l-1.613-1.613a.733.733 0 1 1 1.037-1.037l1.094 1.095 4.078-4.078a.733.733 0 0 1 1.037 1.037Z" fill="url('#paint0_linear_422_31259')"/></g><defs><linearGradient id="paint0_linear_422_31259" x1="11" y1="0" x2="11" y2="22" gradientUnits="userSpaceOnUse"><stop stop-color="#7ECFC9"/><stop offset="1" stop-color="#169EE4"/></linearGradient><clipPath id="clip0_422_31259"><path fill="#fff" d="M0 0h22v22H0z"/></clipPath></defs></svg>