<svg width="24" height="24" fill="none" xmlns="http://www.w3.org/2000/svg"><path d="M22 8.52V3.98C22 2.57 21.36 2 19.77 2h-4.04c-1.59 0-2.23.57-2.23 1.98v4.53c0 1.42.64 1.98 2.23 1.98h4.04c1.59.01 2.23-.56 2.23-1.97Z" fill="url('#paint0_linear_753_1408')"/><path d="M22 19.77v-4.04c0-1.59-.64-2.23-2.23-2.23h-4.04c-1.59 0-2.23.64-2.23 2.23v4.04c0 1.59.64 2.23 2.23 2.23h4.04c1.59 0 2.23-.64 2.23-2.23Z" fill="url('#paint1_linear_753_1408')"/><path d="M10.5 8.52V3.98C10.5 2.57 9.86 2 8.27 2H4.23C2.64 2 2 2.57 2 3.98v4.53c0 1.42.64 1.98 2.23 1.98h4.04c1.59.01 2.23-.56 2.23-1.97Z" fill="url('#paint2_linear_753_1408')"/><path d="M10.5 19.77v-4.04c0-1.59-.64-2.23-2.23-2.23H4.23c-1.59 0-2.23.64-2.23 2.23v4.04C2 21.36 2.64 22 4.23 22h4.04c1.59 0 2.23-.64 2.23-2.23Z" fill="url('#paint3_linear_753_1408')"/><defs><linearGradient id="paint0_linear_753_1408" x1="17.75" y1="2" x2="17.75" y2="10.49" gradientUnits="userSpaceOnUse"><stop stop-color="#80D0C8"/><stop offset="1" stop-color="#0596E8"/></linearGradient><linearGradient id="paint1_linear_753_1408" x1="17.75" y1="13.5" x2="17.75" y2="22" gradientUnits="userSpaceOnUse"><stop stop-color="#80D0C8"/><stop offset="1" stop-color="#0596E8"/></linearGradient><linearGradient id="paint2_linear_753_1408" x1="6.25" y1="2" x2="6.25" y2="10.49" gradientUnits="userSpaceOnUse"><stop stop-color="#80D0C8"/><stop offset="1" stop-color="#0596E8"/></linearGradient><linearGradient id="paint3_linear_753_1408" x1="6.25" y1="13.5" x2="6.25" y2="22" gradientUnits="userSpaceOnUse"><stop stop-color="#80D0C8"/><stop offset="1" stop-color="#0596E8"/></linearGradient></defs></svg>