<svg width="47" height="41" viewBox="0 0 47 41" fill="none" xmlns="http://www.w3.org/2000/svg">
<path d="M40 20C40 31.0462 31.0459 40 19.9999 40C8.95438 40 0 31.0462 0 20C0 8.95422 8.95438 0 19.9999 0C31.0459 0 40 8.95422 40 20Z" fill="#1BA27A"></path>
<path d="M29 10H11V14.4538H17.8272V21H22.1728V14.4538H29V10Z" fill="white"></path>
<path d="M20.0001 21.158C14.098 21.158 9.31291 20.2811 9.31291 19.1992C9.31291 18.1175 14.0978 17.2404 20.0001 17.2404C25.9022 17.2404 30.6871 18.1175 30.6871 19.1992C30.6871 20.2811 25.9022 21.158 20.0001 21.158ZM32 19.5258C32 18.1308 26.6275 17 20.0001 17C13.3729 17 8 18.1308 8 19.5258C8 20.7543 12.166 21.7777 17.6865 22.0045V31H22.2275V22.0081C27.7905 21.7884 32 20.7606 32 19.5258Z" fill="white"></path>
<path d="M36.9023 29.5382C42.149 29.5382 46.4023 25.2849 46.4023 20.0382C46.4023 14.7915 42.149 10.5382 36.9023 10.5382C31.6556 10.5382 27.4023 14.7915 27.4023 20.0382C27.4023 25.2849 31.6556 29.5382 36.9023 29.5382Z" fill="#FF060A"></path>
<path d="M42.1495 18.9599C41.6716 18.5071 41.0103 17.8155 40.4717 17.3251L40.4398 17.3022C40.3869 17.2585 40.327 17.2243 40.263 17.2008C38.9643 16.9524 32.9208 15.7933 32.8029 15.808C32.7699 15.8128 32.7383 15.825 32.7105 15.844L32.6802 15.8685C32.6429 15.9073 32.6146 15.9543 32.5973 16.0058L32.5894 16.0271V16.1431V16.1611C33.2697 18.1049 35.9562 24.4725 36.4852 25.9666C36.517 26.0681 36.5776 26.261 36.6907 26.2707H36.7162C36.7767 26.2707 37.0349 25.9209 37.0349 25.9209C37.0349 25.9209 41.6492 20.1795 42.1161 19.568C42.1766 19.4927 42.23 19.4117 42.2754 19.3261C42.2872 19.2591 42.2816 19.1902 42.2596 19.126C42.2375 19.0618 42.1997 19.0046 42.1495 18.9599ZM38.2188 19.6285L40.1881 17.9529L41.3433 19.0449L38.2188 19.6285ZM37.454 19.519L34.0632 16.6679L39.5491 17.706L37.454 19.519ZM37.7599 20.2661L41.2302 19.6923L37.2627 24.5968L37.7599 20.2661ZM33.6028 16.9524L37.1704 20.0585L36.654 24.5999L33.6028 16.9524Z" fill="white"></path>
</svg>
