<svg width="49" height="41" fill="none" xmlns="http://www.w3.org/2000/svg"><path d="M40.511 20.18c0 11.045-8.954 20-20 20s-20-8.955-20-20c0-11.047 8.954-20 20-20s20 8.953 20 20Z" fill="#1BA27A"/><path d="M30 11H12v4.454h6.827V22h4.346v-6.546H30V11Z" fill="#fff"/><path d="M21 22.158c-5.902 0-10.687-.877-10.687-1.959S15.098 18.24 21 18.24c5.902 0 10.687.878 10.687 1.96 0 1.081-4.785 1.958-10.687 1.958Zm12-1.632C33 19.13 27.628 18 21 18c-6.627 0-12 1.13-12 2.526 0 1.228 4.166 2.252 9.686 2.479V32h4.541v-8.992c5.564-.22 9.773-1.247 9.773-2.482Z" fill="#fff"/><path d="M37.369 30.26c5.248 0 9.502-4.253 9.502-9.5s-4.254-9.5-9.502-9.5c-5.248 0-9.502 4.253-9.502 9.5s4.254 9.5 9.502 9.5Z" fill="#5364F6"/><g clip-path="url('#clip0_422_31544')"><path opacity=".6" d="m37.435 19.084-3.807 1.709 3.807 2.219 3.805-2.22-3.805-1.708Z" fill="#010101"/><path opacity=".45" d="m33.628 20.793 3.807 2.219V14.56l-3.807 6.233Z" fill="#010101"/><path opacity=".8" d="M37.435 14.56v8.452l3.805-2.22-3.805-6.232Z" fill="#010101"/><path opacity=".45" d="m33.628 21.504 3.807 5.292v-3.072l-3.807-2.22Z" fill="#010101"/><path opacity=".8" d="M37.435 23.724v3.072l3.808-5.292-3.808 2.22Z" fill="#010101"/></g><defs><clipPath id="clip0_422_31544"><path fill="#fff" transform="translate(33.334 14.56)" d="M0 0h8.2v12.54H0z"/></clipPath></defs></svg>