<svg width="47" height="41" fill="none" xmlns="http://www.w3.org/2000/svg"><path d="M40 20c0 11.046-8.954 20-20 20S0 31.046 0 20 8.954 0 20 0s20 8.954 20 20Z" fill="#1BA27A"/><path d="M29 10H11v4.454h6.827V21h4.346v-6.546H29V10Z" fill="#fff"/><path d="M20 21.158c-5.902 0-10.687-.877-10.687-1.959S14.098 17.24 20 17.24c5.902 0 10.687.878 10.687 1.96 0 1.081-4.785 1.958-10.687 1.958Zm12-1.632C32 18.13 26.628 17 20 17c-6.627 0-12 1.13-12 2.526 0 1.228 4.166 2.252 9.686 2.479V31h4.541v-8.992c5.564-.22 9.773-1.247 9.773-2.482Z" fill="#fff"/><path d="M36.902 29.538a9.5 9.5 0 1 0 0-19 9.5 9.5 0 0 0 0 19Z" fill="#FF060A"/><path d="M42.15 18.96c-.478-.453-1.14-1.145-1.678-1.635l-.032-.023a.605.605 0 0 0-.177-.101c-1.299-.249-7.342-1.408-7.46-1.393a.22.22 0 0 0-.092.036l-.03.024a.366.366 0 0 0-.084.138l-.008.021v.134c.68 1.944 3.367 8.311 3.896 9.806.032.101.093.294.206.304h.025c.06 0 .319-.35.319-.35s4.614-5.741 5.081-6.353c.06-.075.114-.156.16-.242a.402.402 0 0 0-.127-.366Zm-3.931.668 1.97-1.675 1.154 1.092-3.124.583Zm-.765-.109-3.39-2.851 5.485 1.038-2.095 1.813Zm.306.747 3.47-.574-3.967 4.905.497-4.33Zm-4.157-3.314 3.567 3.106-.516 4.542-3.051-7.648Z" fill="#fff"/></svg>