<svg width="40" height="40" fill="none" xmlns="http://www.w3.org/2000/svg"><circle cx="20" cy="20" r="20" fill="#FEE"/><g clip-path="url('#clip0_779_11143')"><path d="M30.158 15.627c-1.031-.952-2.458-2.406-3.62-3.437l-.069-.048a1.314 1.314 0 0 0-.381-.213C23.286 11.406 10.248 8.969 9.993 9a.481.481 0 0 0-.199.076l-.065.051a.767.767 0 0 0-.179.289l-.017.045V9.742C11 13.83 16.796 27.22 17.938 30.361c.068.213.199.618.443.639h.055c.13 0 .688-.736.688-.736s9.954-12.072 10.962-13.358a3.25 3.25 0 0 0 .343-.508.828.828 0 0 0-.271-.77Zm-8.48 1.406 4.248-3.523 2.493 2.296-6.742 1.227Zm-1.65-.23-7.315-5.995 11.835 2.183-4.52 3.812Zm.66 1.571 7.486-1.206-8.559 10.312 1.073-9.106Zm-8.969-6.968 7.697 6.531-1.114 9.55-6.583-16.08Z" fill="#FF060A"/></g><defs><clipPath id="clip0_779_11143"><path fill="#fff" transform="translate(9 9)" d="M0 0h22v22H0z"/></clipPath></defs></svg>