<svg width="40" height="40" fill="none" xmlns="http://www.w3.org/2000/svg"><g clip-path="url('#clip0_422_31563')"><path d="M20 40c11.083 0 20-8.917 20-20S31.083 0 20 0 0 8.917 0 20s8.917 20 20 20Z" fill="#2775CA"/><path d="M25.5 23.167c0-2.917-1.75-3.917-5.25-4.334-2.5-.333-3-1-3-2.166 0-1.167.833-1.917 2.5-1.917 1.5 0 2.333.5 2.75 1.75.083.25.333.417.583.417h1.334a.57.57 0 0 0 .583-.584v-.083a4.163 4.163 0 0 0-3.75-3.417v-2c0-.333-.25-.583-.667-.666h-1.25c-.333 0-.583.25-.666.666v1.917c-2.5.333-4.084 2-4.084 4.083 0 2.75 1.667 3.834 5.167 4.25 2.333.417 3.083.917 3.083 2.25 0 1.334-1.166 2.25-2.75 2.25-2.166 0-2.916-.916-3.166-2.166-.084-.334-.334-.5-.584-.5h-1.416a.57.57 0 0 0-.584.583v.083c.334 2.084 1.667 3.584 4.417 4v2c0 .334.25.584.667.667h1.25c.333 0 .583-.25.666-.667v-2c2.5-.416 4.167-2.166 4.167-4.416Z" fill="#fff"/><path d="M15.75 31.917c-6.5-2.334-9.833-9.584-7.417-16 1.25-3.5 4-6.167 7.417-7.417.333-.167.5-.417.5-.833V6.5c0-.333-.167-.583-.5-.667-.083 0-.25 0-.333.084-7.917 2.5-12.25 10.916-9.75 18.833a14.991 14.991 0 0 0 9.75 9.75c.333.167.666 0 .75-.333.083-.084.083-.167.083-.334v-1.166c0-.25-.25-.584-.5-.75Zm8.833-26c-.333-.167-.666 0-.75.333-.083.083-.083.167-.083.333V7.75c0 .333.25.667.5.833 6.5 2.334 9.833 9.584 7.417 16-1.25 3.5-4 6.167-7.417 7.417-.333.167-.5.417-.5.833V34c0 .333.167.583.5.667.083 0 .25 0 .333-.084 7.917-2.5 12.25-10.916 9.75-18.833-1.5-4.75-5.166-8.333-9.75-9.833Z" fill="#fff"/></g><defs><clipPath id="clip0_422_31563"><path fill="#fff" d="M0 0h40v40H0z"/></clipPath></defs></svg>