<svg width="18" height="18" fill="none" xmlns="http://www.w3.org/2000/svg"><g clip-path="url('#clip0_422_31308')" fill="#fff"><path d="M8.872 8.67a4.195 4.195 0 0 0 3.065-1.27 4.195 4.195 0 0 0 1.27-3.065c0-1.19-.427-2.222-1.27-3.065A4.196 4.196 0 0 0 8.872 0a4.195 4.195 0 0 0-3.066 1.27 4.195 4.195 0 0 0-1.27 3.065c0 1.192.428 2.223 1.27 3.066a4.196 4.196 0 0 0 3.066 1.27ZM16.458 13.841c-.025-.35-.074-.733-.146-1.137a8.954 8.954 0 0 0-.28-1.144 5.645 5.645 0 0 0-.47-1.066 4.025 4.025 0 0 0-.709-.924 3.125 3.125 0 0 0-1.018-.64 3.52 3.52 0 0 0-1.3-.235c-.184 0-.362.075-.705.299-.211.137-.458.297-.734.473-.236.15-.555.29-.95.418a3.77 3.77 0 0 1-1.161.188c-.386 0-.777-.063-1.162-.188a4.196 4.196 0 0 1-.949-.418c-.273-.175-.52-.334-.735-.474-.342-.223-.52-.298-.704-.298-.468 0-.905.079-1.3.235a3.123 3.123 0 0 0-1.018.64 4.025 4.025 0 0 0-.709.924 5.658 5.658 0 0 0-.47 1.066 8.985 8.985 0 0 0-.28 1.144 10.67 10.67 0 0 0-.145 1.137 15.43 15.43 0 0 0-.036 1.063c0 .94.298 1.7.887 2.262.582.553 1.352.834 2.288.834h8.667c.936 0 1.705-.28 2.287-.834.59-.56.888-1.322.888-2.262 0-.362-.012-.72-.036-1.063Z"/></g><defs><clipPath id="clip0_422_31308"><path fill="#fff" d="M0 0h18v18H0z"/></clipPath></defs></svg>