<svg width="18" height="18" fill="none" xmlns="http://www.w3.org/2000/svg"><g clip-path="url('#clip0_422_33720')"><path d="M8.872 8.67a4.195 4.195 0 0 0 3.065-1.27 4.195 4.195 0 0 0 1.27-3.065c0-1.19-.427-2.222-1.27-3.065A4.196 4.196 0 0 0 8.872 0a4.195 4.195 0 0 0-3.066 1.27 4.195 4.195 0 0 0-1.27 3.065c0 1.192.428 2.223 1.27 3.066a4.196 4.196 0 0 0 3.066 1.27Z" fill="url('#paint0_linear_422_33720')"/><path d="M16.458 13.84c-.025-.35-.074-.733-.146-1.137a8.952 8.952 0 0 0-.28-1.143 5.645 5.645 0 0 0-.47-1.067 4.027 4.027 0 0 0-.709-.923 3.125 3.125 0 0 0-1.018-.64 3.52 3.52 0 0 0-1.3-.236c-.184 0-.362.076-.705.3l-.734.473c-.236.15-.555.29-.95.418a3.772 3.772 0 0 1-1.161.188c-.386 0-.777-.064-1.162-.188a4.196 4.196 0 0 1-.949-.418c-.273-.175-.52-.334-.735-.474-.342-.223-.52-.299-.704-.299-.468 0-.905.08-1.3.236a3.123 3.123 0 0 0-1.018.64 4.025 4.025 0 0 0-.709.923 5.659 5.659 0 0 0-.47 1.067 8.98 8.98 0 0 0-.28 1.143c-.072.404-.121.787-.145 1.138-.024.345-.036.702-.036 1.063 0 .94.298 1.7.887 2.261.582.554 1.352.835 2.288.835h8.667c.936 0 1.705-.281 2.287-.835.59-.56.888-1.321.888-2.261 0-.363-.012-.72-.036-1.063Z" fill="url('#paint1_linear_422_33720')"/></g><defs><linearGradient id="paint0_linear_422_33720" x1="8.872" y1="0" x2="8.872" y2="8.671" gradientUnits="userSpaceOnUse"><stop stop-color="#80D0C8"/><stop offset="1" stop-color="#0596E8"/></linearGradient><linearGradient id="paint1_linear_422_33720" x1="8.985" y1="8.694" x2="8.985" y2="18" gradientUnits="userSpaceOnUse"><stop stop-color="#80D0C8"/><stop offset="1" stop-color="#0596E8"/></linearGradient><clipPath id="clip0_422_33720"><path fill="#fff" d="M0 0h18v18H0z"/></clipPath></defs></svg>