<svg width="26" height="24" fill="none" xmlns="http://www.w3.org/2000/svg"><path d="M5.5.75h15c2.75 0 5 2.25 5 5 0 2.125-1.25 3.875-3.125 4.625V5.75c0-.5-.25-1-.5-1.375s-.875-.5-1.375-.5h-15c-.5 0-1 .25-1.375.5s-.5.875-.5 1.375v4.625C1.75 9.625.5 7.875.5 5.75c0-2.75 2.25-5 5-5Z" fill="url('#paint0_linear_422_30923')"/><path fill-rule="evenodd" clip-rule="evenodd" d="M20.5 5.75v15c0 1.375-1.125 2.5-2.5 2.5H8a2.507 2.507 0 0 1-2.5-2.5v-15h15Zm-9.375 9.375L12 16v-5.25c0-.5.375-1 1-1s1 .375 1 1V16l.875-.875a.98.98 0 0 1 1.375 0 .98.98 0 0 1 0 1.375l-1.625 1.625a2.188 2.188 0 0 1-3.125 0L9.875 16.5a.98.98 0 0 1 0-1.375c.375-.375.875-.375 1.25 0Z" fill="url('#paint1_linear_422_30923')"/><defs><linearGradient id="paint0_linear_422_30923" x1="13" y1=".75" x2="13" y2="10.375" gradientUnits="userSpaceOnUse"><stop stop-color="#7ECFC9"/><stop offset="1" stop-color="#169EE4"/></linearGradient><linearGradient id="paint1_linear_422_30923" x1="13" y1="5.75" x2="13" y2="23.25" gradientUnits="userSpaceOnUse"><stop stop-color="#7ECFC9"/><stop offset="1" stop-color="#169EE4"/></linearGradient></defs></svg>