<svg width="20" height="20" fill="none" xmlns="http://www.w3.org/2000/svg"><path fill-rule="evenodd" clip-rule="evenodd" d="M10.625 13.333v5a.625.625 0 0 1-1.25 0v-5a.625.625 0 0 1 1.25 0Z" fill="#fff"/><path fill-rule="evenodd" clip-rule="evenodd" d="M8.775 16.225 10 17.449l1.225-1.224a.624.624 0 1 1 .883.883l-1.666 1.667a.624.624 0 0 1-.883 0l-1.667-1.667a.624.624 0 1 1 .883-.883ZM17.708 10V2.5c0-.806-.653-1.458-1.458-1.458H3.75c-.805 0-1.458.652-1.458 1.458V10c0 .806.653 1.458 1.458 1.458h12.5c.805 0 1.458-.652 1.458-1.458ZM10 3.52a2.752 2.752 0 0 0-2.75 2.75A2.752 2.752 0 0 0 10 9.02a2.752 2.752 0 0 0 2.75-2.75A2.752 2.752 0 0 0 10 3.52Zm0 1.25a1.501 1.501 0 0 1 0 3 1.501 1.501 0 0 1 0-3Zm5.313.876h-1.417a.625.625 0 0 0 0 1.25h1.417a.625.625 0 0 0 0-1.25Zm-9.209 0H4.688a.625.625 0 0 0 0 1.25h1.416a.625.625 0 0 0 0-1.25Z" fill="#fff"/></svg>