<svg width="26" height="24" viewBox="0 0 26 24" fill="none" xmlns="http://www.w3.org/2000/svg">
<path d="M5.5 0.75H20.5C23.25 0.75 25.5 3 25.5 5.75C25.5 7.875 24.25 9.625 22.375 10.375V5.75C22.375 5.25 22.125 4.75 21.875 4.375C21.625 4 21 3.875 20.5 3.875H5.5C5 3.875 4.5 4.125 4.125 4.375C3.75 4.625 3.625 5.25 3.625 5.75V10.375C1.75 9.625 0.5 7.875 0.5 5.75C0.5 3 2.75 0.75 5.5 0.75Z" fill="url('#paint0_linear_422_30923')"></path>
<path fill-rule="evenodd" clip-rule="evenodd" d="M20.5 5.75V20.75C20.5 22.125 19.375 23.25 18 23.25H8C6.625 23.25 5.5 22.125 5.5 20.75V5.75H20.5ZM11.125 15.125L12 16V10.75C12 10.25 12.375 9.75 13 9.75C13.625 9.75 14 10.125 14 10.75V16L14.875 15.125C15.25 14.75 15.875 14.75 16.25 15.125C16.625 15.5 16.625 16.125 16.25 16.5L14.625 18.125C13.75 19 12.375 19 11.5 18.125L9.875 16.5C9.5 16.125 9.5 15.5 9.875 15.125C10.25 14.75 10.75 14.75 11.125 15.125Z" fill="url('#paint1_linear_422_30923')"></path>
<defs>
<linearGradient id="paint0_linear_422_30923" x1="13" y1="0.75" x2="13" y2="10.375" gradientUnits="userSpaceOnUse">
<stop stop-color="#7ECFC9"></stop>
<stop offset="1" stop-color="#169EE4"></stop>
</linearGradient>
<linearGradient id="paint1_linear_422_30923" x1="13" y1="5.75" x2="13" y2="23.25" gradientUnits="userSpaceOnUse">
<stop stop-color="#7ECFC9"></stop>
<stop offset="1" stop-color="#169EE4"></stop>
</linearGradient>
</defs>
</svg>
